<svg width="36" height="36" viewBox="0 0 36 36" fill="none" xmlns="http://www.w3.org/2000/svg">
<rect width="36" height="36" rx="4" fill="#F9FAFB"/>
<path d="M25.1886 18.1182H10.8552C10.3326 18.1182 9.88477 18.5412 9.88477 19.0886V20.1586H26.1342V19.0886C26.1592 18.5414 25.7111 18.1182 25.1887 18.1182H25.1886Z" fill="#667085"/>
<path d="M28.4973 11.2003H7.54483C6.79826 11.2003 6.20117 11.7975 6.20117 12.5439V18.8396C6.20117 19.5862 6.79844 20.1833 7.54483 20.1833H8.7642V19.1134C8.7642 17.9438 9.70985 17.0231 10.8544 17.0231H25.1877C26.3573 17.0231 27.278 17.9688 27.278 19.1134V20.1833H28.4973C29.2439 20.1833 29.841 19.586 29.841 18.8396L29.8412 12.5191C29.8412 11.7975 29.2439 11.2002 28.4975 11.2002L28.4973 11.2003ZM23.2219 14.4353H21.8532C21.5297 14.4353 21.2809 14.1864 21.2809 13.863C21.2809 13.5394 21.5298 13.2907 21.8532 13.2907H23.2219C23.5454 13.2907 23.7942 13.5396 23.7942 13.863C23.7694 14.1615 23.5206 14.4353 23.2219 14.4353ZM26.7058 14.4353H25.3371C25.0135 14.4353 24.7648 14.1864 24.7648 13.863C24.7648 13.5394 25.0137 13.2907 25.3371 13.2907H26.7058C27.0293 13.2907 27.2781 13.5396 27.2781 13.863C27.2781 14.1615 27.0291 14.4353 26.7058 14.4353Z" fill="#667085"/>
<path d="M20.2865 22.9451L20.5354 22.5221C20.7097 22.2484 20.6101 21.8752 20.3363 21.7009C20.0626 21.5267 19.6894 21.6263 19.5152 21.9L19.2663 22.3231C18.7686 23.1442 18.8432 24.1894 19.4405 24.9109C19.6894 25.2095 19.7391 25.6325 19.5898 25.9809L19.3659 26.4785C19.2414 26.7771 19.3907 27.1254 19.6894 27.2749C19.7641 27.2997 19.8387 27.3247 19.9134 27.3247C20.1373 27.3247 20.3612 27.1754 20.4608 26.9515L20.6847 26.4539C21.0083 25.6825 20.8838 24.8115 20.3612 24.1645C20.0874 23.8161 20.0626 23.3433 20.2865 22.9451L20.2865 22.9451Z" fill="#667085"/>
<path d="M16.5268 22.9451L16.7757 22.5221C16.95 22.2484 16.8503 21.8752 16.5766 21.7009C16.3028 21.5267 15.9296 21.6263 15.7554 21.9L15.5065 22.3231C15.0088 23.1442 15.0835 24.1894 15.6808 24.9109C15.9297 25.2095 15.9793 25.6325 15.83 25.9809L15.6061 26.4785C15.4817 26.7771 15.6309 27.1254 15.9297 27.2749C16.0043 27.2997 16.079 27.3247 16.1536 27.3247C16.3775 27.3247 16.6014 27.1754 16.701 26.9515L16.925 26.4539C17.2485 25.6825 17.1241 24.8115 16.6014 24.1645C16.3279 23.8161 16.3029 23.3433 16.5268 22.9451L16.5268 22.9451Z" fill="#667085"/>
<path d="M24.0443 22.9451L24.2933 22.5221C24.4675 22.2484 24.3679 21.8752 24.0942 21.7009C23.8204 21.5267 23.4472 21.6263 23.273 21.9L23.0241 22.323C22.5264 23.1442 22.6011 24.1894 23.1983 24.9109C23.4473 25.2095 23.4969 25.6325 23.3476 25.9808L23.1237 26.4785C22.9992 26.777 23.1485 27.1254 23.4472 27.2749C23.5219 27.2997 23.5965 27.3247 23.6712 27.3247C23.8951 27.3247 24.119 27.1754 24.2186 26.9515L24.4425 26.4538C24.7661 25.6825 24.6416 24.8114 24.119 24.1645C23.8453 23.8161 23.8204 23.3433 24.0444 22.9451L24.0443 22.9451Z" fill="#667085"/>
<path d="M12.769 22.9451L13.0179 22.5221C13.1921 22.2484 13.0925 21.8752 12.8188 21.7009C12.545 21.5267 12.1718 21.6263 11.9976 21.9L11.7487 22.3231C11.251 23.1442 11.3257 24.1894 11.923 24.9109C12.1719 25.2095 12.2215 25.6325 12.0722 25.9809L11.8483 26.4785C11.7239 26.7771 11.8731 27.1254 12.1719 27.2749C12.2465 27.2997 12.3211 27.3247 12.3958 27.3247C12.6197 27.3247 12.8436 27.1754 12.9432 26.9515L13.1671 26.4539C13.4907 25.6825 13.3662 24.8115 12.8436 24.1645C12.5699 23.8161 12.545 23.3433 12.769 22.9451L12.769 22.9451Z" fill="#667085"/>
</svg>
