<svg width="52" height="52" viewBox="0 0 52 52" fill="none" xmlns="http://www.w3.org/2000/svg">
<rect width="52" height="52" rx="26" fill="#D1FADF"/>
<path d="M25.6667 32.7C25.9333 32.7 26.15 32.6111 26.3167 32.4333C26.4833 32.2556 26.5667 32.0444 26.5667 31.8V29.1H29.3333C29.5778 29.1 29.7889 29.0111 29.9667 28.8333C30.1444 28.6556 30.2333 28.4333 30.2333 28.1667C30.2333 27.9222 30.1444 27.7111 29.9667 27.5333C29.7889 27.3556 29.5778 27.2667 29.3333 27.2667H26.5667V24.5667C26.5667 24.3 26.4833 24.0833 26.3167 23.9167C26.15 23.75 25.9333 23.6667 25.6667 23.6667C25.4 23.6667 25.1778 23.75 25 23.9167C24.8222 24.0833 24.7333 24.3 24.7333 24.5667V27.2667H22C21.7556 27.2667 21.5444 27.3556 21.3667 27.5333C21.1889 27.7111 21.1 27.9333 21.1 28.2C21.1 28.4667 21.1889 28.6833 21.3667 28.85C21.5444 29.0167 21.7556 29.1 22 29.1H24.7333V31.8333C24.7333 32.0778 24.8278 32.2833 25.0167 32.45C25.2056 32.6167 25.4222 32.7 25.6667 32.7ZM18.9333 37.5333C18.4 37.5333 17.9444 37.3389 17.5667 36.95C17.1889 36.5611 17 36.1111 17 35.6V20.8C17 20.2889 17.1889 19.8389 17.5667 19.45C17.9444 19.0611 18.4 18.8667 18.9333 18.8667H32.4C32.9333 18.8667 33.3889 19.0611 33.7667 19.45C34.1444 19.8389 34.3333 20.2889 34.3333 20.8V35.7C34.3333 36.2556 34.1444 36.7 33.7667 37.0333C33.3889 37.3667 32.9333 37.5333 32.4 37.5333H18.9333ZM18.9333 36.1333H32.4C32.5111 36.1333 32.6111 36.0889 32.7 36C32.7889 35.9111 32.8333 35.8111 32.8333 35.7V20.8C32.8333 20.6889 32.7889 20.5944 32.7 20.5167C32.6111 20.4389 32.5111 20.4 32.4 20.4H18.9333C18.8222 20.4 18.7222 20.4389 18.6333 20.5167C18.5444 20.5944 18.5 20.6889 18.5 20.8V35.7C18.5 35.8111 18.5444 35.9111 18.6333 36C18.7222 36.0889 18.8222 36.1333 18.9333 36.1333ZM18.7333 16.5333C18.5111 16.5333 18.3278 16.4611 18.1833 16.3167C18.0389 16.1722 17.9667 15.9889 17.9667 15.7667C17.9667 15.5444 18.0389 15.3611 18.1833 15.2167C18.3278 15.0722 18.5111 15 18.7333 15H32.6333C32.8333 15 33.0056 15.0722 33.15 15.2167C33.2944 15.3611 33.3667 15.5444 33.3667 15.7667C33.3667 15.9889 33.2944 16.1722 33.15 16.3167C33.0056 16.4611 32.8333 16.5333 32.6333 16.5333H18.7333Z" fill="#32D583"/>
</svg>
