<svg width="40" height="40" viewBox="0 0 40 40" fill="none" xmlns="http://www.w3.org/2000/svg">
<circle cx="20" cy="20" r="20" fill="#F9FAFB"/>
<path d="M14.4 27H13.65L13.15 25H12V19.65C12 19.2167 12.1417 18.85 12.425 18.55C12.7083 18.25 13.0667 18.1 13.5 18.1H14.15V14.5C14.15 14.0833 14.2958 13.7292 14.5875 13.4375C14.8792 13.1458 15.2333 13 15.65 13H24.325C24.7417 13 25.0958 13.1458 25.3875 13.4375C25.6792 13.7292 25.825 14.0833 25.825 14.5V18.1H26.5C26.9167 18.1 27.2708 18.2458 27.5625 18.5375C27.8542 18.8292 28 19.1833 28 19.6V25H26.85L26.35 27H25.6L25.1 25H14.925L14.4 27ZM20.75 18.1H24.325V14.5H20.75V18.1ZM15.65 18.1H19.25V14.5H15.65V18.1ZM13.5 23.5H26.5V19.6H13.5V23.5ZM26.5 23.5H13.5H26.5Z" fill="#667085"/>
</svg>
