<svg width="28" height="28" viewBox="0 0 28 28" fill="none" xmlns="http://www.w3.org/2000/svg">
<circle cx="14" cy="14" r="13.5" fill="white" stroke="#F2F4F7"/>
<path d="M19.3327 11.3327H17.3327V8.66602H7.99935C7.26602 8.66602 6.66602 9.26602 6.66602 9.99935V17.3327H7.99935C7.99935 18.4393 8.89268 19.3327 9.99935 19.3327C11.106 19.3327 11.9993 18.4393 11.9993 17.3327H15.9993C15.9993 18.4393 16.8927 19.3327 17.9993 19.3327C19.106 19.3327 19.9993 18.4393 19.9993 17.3327H21.3327V13.9993L19.3327 11.3327ZM18.9993 12.3327L20.306 13.9993H17.3327V12.3327H18.9993ZM9.99935 17.9993C9.63268 17.9993 9.33268 17.6993 9.33268 17.3327C9.33268 16.966 9.63268 16.666 9.99935 16.666C10.366 16.666 10.666 16.966 10.666 17.3327C10.666 17.6993 10.366 17.9993 9.99935 17.9993ZM11.4793 15.9993C11.1127 15.5927 10.5927 15.3327 9.99935 15.3327C9.40602 15.3327 8.88602 15.5927 8.51935 15.9993H7.99935V9.99935H15.9993V15.9993H11.4793ZM17.9993 17.9993C17.6327 17.9993 17.3327 17.6993 17.3327 17.3327C17.3327 16.966 17.6327 16.666 17.9993 16.666C18.366 16.666 18.666 16.966 18.666 17.3327C18.666 17.6993 18.366 17.9993 17.9993 17.9993Z" fill="#667085"/>
</svg>
