<svg width="52" height="52" viewBox="0 0 52 52" fill="none" xmlns="http://www.w3.org/2000/svg">
<rect width="52" height="52" rx="26" fill="#EBE9FE"/>
<path d="M23.7993 33.268L20.8327 30.3013C20.6771 30.168 20.5993 30.0013 20.5993 29.8013C20.5993 29.6013 20.6771 29.4124 20.8327 29.2346C20.966 29.1013 21.1382 29.0346 21.3493 29.0346C21.5605 29.0346 21.7438 29.1013 21.8993 29.2346L24.4993 31.8013L29.966 26.3013C30.1216 26.168 30.2993 26.1013 30.4993 26.1013C30.6993 26.1013 30.866 26.1791 30.9993 26.3346C31.1549 26.4902 31.2382 26.668 31.2493 26.868C31.2605 27.068 31.1882 27.2457 31.0327 27.4013L25.1327 33.268C24.9549 33.468 24.7382 33.568 24.4827 33.568C24.2271 33.568 23.9993 33.468 23.7993 33.268ZM16.5993 38.668C16.066 38.668 15.6105 38.4791 15.2327 38.1013C14.8549 37.7235 14.666 37.268 14.666 36.7346V17.4346C14.666 16.9235 14.8549 16.4735 15.2327 16.0846C15.6105 15.6957 16.066 15.5013 16.5993 15.5013H19.066V14.0013C19.066 13.7791 19.1438 13.5846 19.2993 13.418C19.4549 13.2513 19.6438 13.168 19.866 13.168C20.1105 13.168 20.316 13.2513 20.4827 13.418C20.6493 13.5846 20.7327 13.7791 20.7327 14.0013V15.5013H31.3327V14.0013C31.3327 13.7569 31.4049 13.5569 31.5493 13.4013C31.6938 13.2457 31.8882 13.168 32.1327 13.168C32.3549 13.168 32.5493 13.2457 32.716 13.4013C32.8827 13.5569 32.966 13.7569 32.966 14.0013V15.5013H35.3993C35.9327 15.5013 36.3882 15.6957 36.766 16.0846C37.1438 16.4735 37.3327 16.9235 37.3327 17.4346V36.7346C37.3327 37.268 37.1438 37.7235 36.766 38.1013C36.3882 38.4791 35.9327 38.668 35.3993 38.668H16.5993ZM16.5993 37.168H35.3993C35.5327 37.168 35.6382 37.1291 35.716 37.0513C35.7938 36.9735 35.8327 36.868 35.8327 36.7346V23.5013H16.166V36.7346C16.166 36.868 16.2049 36.9735 16.2827 37.0513C16.3605 37.1291 16.466 37.168 16.5993 37.168ZM16.166 22.0013H35.8327V17.4346C35.8327 17.3235 35.7938 17.2291 35.716 17.1513C35.6382 17.0735 35.5327 17.0346 35.3993 17.0346H16.5993C16.466 17.0346 16.3605 17.0735 16.2827 17.1513C16.2049 17.2291 16.166 17.3235 16.166 17.4346V22.0013ZM16.166 22.0013V17.0346V22.0013Z" fill="#9B8AFB"/>
</svg>
