<svg width="32" height="32" viewBox="0 0 32 32" fill="none" xmlns="http://www.w3.org/2000/svg">
<circle cx="16" cy="16" r="16" fill="#F2F4F7"/>
<path d="M15.208 22.2292L9.49967 16.5C9.41634 16.4167 9.35731 16.3368 9.32259 16.2604C9.28787 16.184 9.27051 16.0972 9.27051 16C9.27051 15.9028 9.28787 15.816 9.32259 15.7396C9.35731 15.6632 9.41634 15.5833 9.49967 15.5L15.2288 9.75C15.3677 9.625 15.5309 9.5625 15.7184 9.5625C15.9059 9.5625 16.0691 9.63194 16.208 9.77083C16.3608 9.92361 16.4372 10.0937 16.4372 10.2812C16.4372 10.4687 16.3608 10.6319 16.208 10.7708L11.708 15.2917H21.7288C21.9372 15.2917 22.1073 15.3576 22.2393 15.4896C22.3712 15.6215 22.4372 15.7917 22.4372 16C22.4372 16.2083 22.3712 16.3785 22.2393 16.5104C22.1073 16.6424 21.9372 16.7083 21.7288 16.7083H11.708L16.2288 21.25C16.3677 21.375 16.4372 21.5312 16.4372 21.7187C16.4372 21.9062 16.3608 22.0764 16.208 22.2292C16.0691 22.3681 15.9059 22.4375 15.7184 22.4375C15.5309 22.4375 15.3608 22.3681 15.208 22.2292Z" fill="#98A2B3"/>
</svg>
