<svg width="26" height="26" viewBox="0 0 26 26" fill="none" xmlns="http://www.w3.org/2000/svg">
<path d="M3.79102 22.75C3.33963 22.75 2.95595 22.592 2.63997 22.276C2.324 21.9601 2.16602 21.5764 2.16602 21.125V4.875C2.16602 4.42361 2.324 4.03993 2.63997 3.72396C2.95595 3.40799 3.33963 3.25 3.79102 3.25H11.1035C11.5549 3.25 11.9386 3.40799 12.2546 3.72396C12.5705 4.03993 12.7285 4.42361 12.7285 4.875V7.71875H22.2077C22.6591 7.71875 23.0427 7.87674 23.3587 8.19271C23.6747 8.50868 23.8327 8.89236 23.8327 9.34375V21.125C23.8327 21.5764 23.6747 21.9601 23.3587 22.276C23.0427 22.592 22.6591 22.75 22.2077 22.75H3.79102ZM3.79102 21.125H11.1035V18.2813H3.79102V21.125ZM3.79102 16.6563H11.1035V13.8125H3.79102V16.6563ZM3.79102 12.1875H11.1035V9.34375H3.79102V12.1875ZM3.79102 7.71875H11.1035V4.875H3.79102V7.71875ZM12.7285 21.125H22.2077V9.34375H12.7285V21.125ZM14.8952 13.8125V12.1875H19.3639V13.8125H14.8952ZM14.8952 18.2813V16.6563H19.3639V18.2813H14.8952Z" fill="#1D2939"/>
</svg>
