<svg width="26" height="26" viewBox="0 0 26 26" fill="none" xmlns="http://www.w3.org/2000/svg">
<path d="M9.45273 19.2292H16.5486C16.7833 19.2292 16.9774 19.1525 17.1309 18.999C17.2843 18.8456 17.3611 18.6515 17.3611 18.4167C17.3611 18.182 17.2843 17.9879 17.1309 17.8345C16.9774 17.681 16.7833 17.6042 16.5486 17.6042H9.45273C9.21801 17.6042 9.02392 17.681 8.87044 17.8345C8.71697 17.9879 8.64023 18.182 8.64023 18.4167C8.64023 18.6515 8.71697 18.8456 8.87044 18.999C9.02392 19.1525 9.21801 19.2292 9.45273 19.2292ZM9.45273 14.6251H16.5486C16.7833 14.6251 16.9774 14.5483 17.1309 14.3949C17.2843 14.2414 17.3611 14.0473 17.3611 13.8126C17.3611 13.5779 17.2843 13.3838 17.1309 13.2303C16.9774 13.0768 16.7833 13.0001 16.5486 13.0001H9.45273C9.21801 13.0001 9.02392 13.0768 8.87044 13.2303C8.71697 13.3838 8.64023 13.5779 8.64023 13.8126C8.64023 14.0473 8.71697 14.2414 8.87044 14.3949C9.02392 14.5483 9.21801 14.6251 9.45273 14.6251ZM5.95898 23.8334C5.52565 23.8334 5.14648 23.6709 4.82148 23.3459C4.49648 23.0209 4.33398 22.6417 4.33398 22.2084V3.79175C4.33398 3.35841 4.49648 2.97925 4.82148 2.65425C5.14648 2.32925 5.52565 2.16675 5.95898 2.16675H15.059C15.2757 2.16675 15.4833 2.20737 15.6819 2.28862C15.8805 2.36987 16.0611 2.49175 16.2236 2.65425L21.1798 7.6105C21.3423 7.773 21.4642 7.95355 21.5454 8.15216C21.6267 8.35078 21.6673 8.55841 21.6673 8.77508V22.2084C21.6673 22.6417 21.5048 23.0209 21.1798 23.3459C20.8548 23.6709 20.4757 23.8334 20.0423 23.8334H5.95898ZM14.9236 3.79175H5.95898V22.2084H20.0423V8.82925H15.7361C15.5013 8.82925 15.3072 8.75251 15.1538 8.59904C15.0003 8.44557 14.9236 8.25147 14.9236 8.01675V3.79175ZM5.95898 3.79175V8.01675C5.95898 8.25147 5.95898 8.44557 5.95898 8.59904C5.95898 8.75251 5.95898 8.82925 5.95898 8.82925V3.79175V8.01675C5.95898 8.25147 5.95898 8.44557 5.95898 8.59904C5.95898 8.75251 5.95898 8.82925 5.95898 8.82925V22.2084V3.79175Z" fill="#1D2939"/>
</svg>
