<svg width="40" height="40" viewBox="0 0 40 40" fill="none" xmlns="http://www.w3.org/2000/svg">
<circle cx="20" cy="20" r="20" fill="#F9FAFB"/>
<path d="M16.375 21.793C16.1389 21.793 15.941 21.7131 15.7812 21.5534C15.6215 21.3937 15.5417 21.1957 15.5417 20.9596C15.5417 20.7235 15.6215 20.5256 15.7812 20.3659C15.941 20.2062 16.1389 20.1263 16.375 20.1263C16.6111 20.1263 16.809 20.2062 16.9688 20.3659C17.1285 20.5256 17.2083 20.7235 17.2083 20.9596C17.2083 21.1957 17.1285 21.3937 16.9688 21.5534C16.809 21.7131 16.6111 21.793 16.375 21.793ZM20.0625 21.793C19.8264 21.793 19.6285 21.7131 19.4688 21.5534C19.309 21.3937 19.2292 21.1957 19.2292 20.9596C19.2292 20.7235 19.309 20.5256 19.4688 20.3659C19.6285 20.2062 19.8264 20.1263 20.0625 20.1263C20.2986 20.1263 20.4965 20.2062 20.6562 20.3659C20.816 20.5256 20.8958 20.7235 20.8958 20.9596C20.8958 21.1957 20.816 21.3937 20.6562 21.5534C20.4965 21.7131 20.2986 21.793 20.0625 21.793ZM23.6042 21.793C23.3681 21.793 23.1701 21.7131 23.0104 21.5534C22.8507 21.3937 22.7708 21.1957 22.7708 20.9596C22.7708 20.7235 22.8507 20.5256 23.0104 20.3659C23.1701 20.2062 23.3681 20.1263 23.6042 20.1263C23.8403 20.1263 24.0382 20.2062 24.1979 20.3659C24.3576 20.5256 24.4375 20.7235 24.4375 20.9596C24.4375 21.1957 24.3576 21.3937 24.1979 21.5534C24.0382 21.7131 23.8403 21.793 23.6042 21.793ZM13.75 28.3346C13.4167 28.3346 13.125 28.2096 12.875 27.9596C12.625 27.7096 12.5 27.418 12.5 27.0846V14.168C12.5 13.8346 12.625 13.543 12.875 13.293C13.125 13.043 13.4167 12.918 13.75 12.918H15.1042V12.3138C15.1042 12.1332 15.1667 11.9805 15.2917 11.8555C15.4167 11.7305 15.5764 11.668 15.7708 11.668C15.9653 11.668 16.1285 11.7305 16.2604 11.8555C16.3924 11.9805 16.4583 12.1402 16.4583 12.3346V12.918H23.5417V12.3138C23.5417 12.1332 23.6042 11.9805 23.7292 11.8555C23.8542 11.7305 24.0139 11.668 24.2083 11.668C24.4028 11.668 24.566 11.7305 24.6979 11.8555C24.8299 11.9805 24.8958 12.1402 24.8958 12.3346V12.918H26.25C26.5833 12.918 26.875 13.043 27.125 13.293C27.375 13.543 27.5 13.8346 27.5 14.168V27.0846C27.5 27.418 27.375 27.7096 27.125 27.9596C26.875 28.2096 26.5833 28.3346 26.25 28.3346H13.75ZM13.75 27.0846H26.25V18.1263H13.75V27.0846ZM13.75 16.8763H26.25V14.168H13.75V16.8763ZM13.75 16.8763V14.168V16.8763Z" fill="#667085"/>
</svg>
