<svg width="32" height="32" viewBox="0 0 32 32" fill="none" xmlns="http://www.w3.org/2000/svg">
<rect width="32" height="32" rx="16" fill="#388289"/>
<g clip-path="url(#clip0_3657_67364)">
<path d="M18 16H19.3333C19.3333 14.16 17.84 12.6667 16 12.6667V14C17.1067 14 18 14.8933 18 16ZM20.6667 16H22C22 12.6867 19.3133 10 16 10V11.3333C18.58 11.3333 20.6667 13.42 20.6667 16ZM21.3333 18.3333C20.5 18.3333 19.7 18.2 18.9533 17.9533C18.8867 17.9333 18.8133 17.92 18.7467 17.92C18.5733 17.92 18.4067 17.9867 18.2733 18.1133L16.8067 19.58C14.92 18.62 13.3733 17.08 12.4133 15.1867L13.88 13.7133C14.0667 13.54 14.12 13.28 14.0467 13.0467C13.8 12.3 13.6667 11.5 13.6667 10.6667C13.6667 10.3 13.3667 10 13 10H10.6667C10.3 10 10 10.3 10 10.6667C10 16.9267 15.0733 22 21.3333 22C21.7 22 22 21.7 22 21.3333V19C22 18.6333 21.7 18.3333 21.3333 18.3333ZM11.3533 11.3333H12.3533C12.4 11.92 12.5 12.5 12.6533 13.0533L11.8533 13.86C11.5867 13.0533 11.4133 12.2133 11.3533 11.3333ZM20.6667 20.6467C19.7867 20.5867 18.9333 20.4133 18.1333 20.14L18.9333 19.34C19.5 19.5 20.08 19.6 20.6667 19.64V20.6467Z" fill="white"/>
</g>
<defs>
<clipPath id="clip0_3657_67364">
<rect width="16" height="16" fill="white" transform="translate(8 8)"/>
</clipPath>
</defs>
</svg>
