<svg width="28" height="28" viewBox="0 0 28 28" fill="none" xmlns="http://www.w3.org/2000/svg">
<circle cx="14" cy="14" r="13.5" fill="white" stroke="#F2F4F7"/>
<path d="M16.6667 10.0007V14.0007C16.6667 14.734 17.2667 15.334 18 15.334H18.6667V20.0007C18.6667 20.3673 18.9667 20.6673 19.3333 20.6673C19.7 20.6673 20 20.3673 20 20.0007V8.08732C20 7.65398 19.5933 7.33398 19.1733 7.43398C17.7333 7.78732 16.6667 9.00732 16.6667 10.0007ZM13.3333 12.0007H12V8.00065C12 7.63398 11.7 7.33398 11.3333 7.33398C10.9667 7.33398 10.6667 7.63398 10.6667 8.00065V12.0007H9.33333V8.00065C9.33333 7.63398 9.03333 7.33398 8.66667 7.33398C8.3 7.33398 8 7.63398 8 8.00065V12.0007C8 13.474 9.19333 14.6673 10.6667 14.6673V20.0007C10.6667 20.3673 10.9667 20.6673 11.3333 20.6673C11.7 20.6673 12 20.3673 12 20.0007V14.6673C13.4733 14.6673 14.6667 13.474 14.6667 12.0007V8.00065C14.6667 7.63398 14.3667 7.33398 14 7.33398C13.6333 7.33398 13.3333 7.63398 13.3333 8.00065V12.0007Z" fill="#667085"/>
</svg>
