<svg width="28" height="28" viewBox="0 0 28 28" fill="none" xmlns="http://www.w3.org/2000/svg">
<circle cx="14" cy="14" r="14" fill="#F5F9F9"/>
<path d="M18.82 16.1725L17.1267 15.9792C16.72 15.9325 16.32 16.0725 16.0334 16.3592L14.8067 17.5859C12.92 16.6259 11.3734 15.0859 10.4134 13.1925L11.6467 11.9592C11.9334 11.6725 12.0734 11.2725 12.0267 10.8659L11.8334 9.18586C11.7534 8.51253 11.1867 8.00586 10.5067 8.00586H9.35336C8.60003 8.00586 7.97336 8.63253 8.02003 9.38586C8.37336 15.0792 12.9267 19.6259 18.6134 19.9792C19.3667 20.0259 19.9934 19.3992 19.9934 18.6459V17.4925C20 16.8192 19.4934 16.2525 18.82 16.1725Z" fill="#667085"/>
<path d="M14.6667 8H19.3333C19.7 8 20 8.3 20 8.66667V12C20 12.3667 19.7 12.6667 19.3333 12.6667H16L14 14.6667V8.66667C14 8.3 14.3 8 14.6667 8Z" fill="#98A2B3"/>
</svg>
