<svg width="28" height="28" viewBox="0 0 28 28" fill="none" xmlns="http://www.w3.org/2000/svg">
<circle cx="14" cy="14" r="14" fill="#FDF5F4"/>
<circle cx="14.0009" cy="14.0009" r="3.55556" fill="#F7D6D2"/>
<path d="M11.6673 14.5007C11.8118 14.5007 11.9312 14.4507 12.0257 14.3507C12.1201 14.2507 12.1673 14.134 12.1673 14.0007C12.1673 13.8673 12.1201 13.7507 12.0257 13.6507C11.9312 13.5507 11.8118 13.5007 11.6673 13.5007C11.534 13.5007 11.4173 13.5507 11.3173 13.6507C11.2173 13.7507 11.1673 13.8673 11.1673 14.0007C11.1673 14.134 11.2173 14.2507 11.3173 14.3507C11.4173 14.4507 11.534 14.5007 11.6673 14.5007ZM15.1673 12.5007C15.3118 12.5007 15.4312 12.4507 15.5257 12.3507C15.6201 12.2507 15.6673 12.134 15.6673 12.0007C15.6673 11.8673 15.6201 11.7507 15.5257 11.6507C15.4312 11.5507 15.3118 11.5007 15.1673 11.5007C15.034 11.5007 14.9173 11.5507 14.8173 11.6507C14.7173 11.7507 14.6673 11.8673 14.6673 12.0007C14.6673 12.134 14.7173 12.2507 14.8173 12.3507C14.9173 12.4507 15.034 12.5007 15.1673 12.5007ZM12.834 12.5007C12.9673 12.5007 13.084 12.4507 13.184 12.3507C13.284 12.2507 13.334 12.134 13.334 12.0007C13.334 11.8673 13.284 11.7507 13.184 11.6507C13.084 11.5507 12.9673 11.5007 12.834 11.5007C12.7007 11.5007 12.584 11.5507 12.484 11.6507C12.384 11.7507 12.334 11.8673 12.334 12.0007C12.334 12.134 12.384 12.2507 12.484 12.3507C12.584 12.4507 12.7007 12.5007 12.834 12.5007ZM12.834 16.5007C12.9673 16.5007 13.084 16.4507 13.184 16.3507C13.284 16.2507 13.334 16.134 13.334 16.0007C13.334 15.8673 13.284 15.7507 13.184 15.6507C13.084 15.5507 12.9673 15.5007 12.834 15.5007C12.7007 15.5007 12.584 15.5507 12.484 15.6507C12.384 15.7507 12.334 15.8673 12.334 16.0007C12.334 16.134 12.384 16.2507 12.484 16.3507C12.584 16.4507 12.7007 16.5007 12.834 16.5007ZM13.5007 20.6673C13.4118 20.6673 13.334 20.634 13.2673 20.5673C13.2007 20.5007 13.1673 20.4229 13.1673 20.334C13.1673 20.2451 13.2007 20.1673 13.2673 20.1007C13.334 20.034 13.4118 20.0007 13.5007 20.0007H13.6673V18.484C13.1673 18.4284 12.6951 18.309 12.2507 18.1257C11.8062 17.9423 11.4062 17.7007 11.0507 17.4007L9.98398 18.4673L10.1173 18.6007C10.1729 18.6562 10.209 18.7257 10.2257 18.809C10.2423 18.8923 10.2062 18.9784 10.1173 19.0673C10.0507 19.134 9.97287 19.1673 9.88398 19.1673C9.7951 19.1673 9.71732 19.134 9.65065 19.0673L8.93398 18.3673C8.86732 18.3006 8.83398 18.2229 8.83398 18.134C8.83398 18.0451 8.86732 17.9618 8.93398 17.884C9.00065 17.8173 9.07565 17.784 9.15898 17.784C9.24232 17.784 9.32843 17.8229 9.41732 17.9007L9.51732 18.0007L10.584 16.934C10.2951 16.5673 10.059 16.1673 9.87565 15.734C9.69232 15.3007 9.57287 14.834 9.51732 14.334H8.00065V14.5007C8.00065 14.5895 7.96732 14.6673 7.90065 14.734C7.83398 14.8007 7.75621 14.834 7.66732 14.834C7.57843 14.834 7.50065 14.8007 7.43398 14.734C7.36732 14.6673 7.33398 14.5895 7.33398 14.5007V13.5007C7.33398 13.4118 7.36732 13.334 7.43398 13.2673C7.50065 13.2007 7.57843 13.1673 7.66732 13.1673C7.75621 13.1673 7.83398 13.2007 7.90065 13.2673C7.96732 13.334 8.00065 13.4118 8.00065 13.5007V13.6673H9.51732C9.57287 13.1673 9.69232 12.7007 9.87565 12.2673C10.059 11.834 10.2951 11.434 10.584 11.0673L9.51732 10.0007L9.40065 10.1173C9.33398 10.184 9.25621 10.2173 9.16732 10.2173C9.07843 10.2173 9.00065 10.184 8.93398 10.1173C8.86732 10.0507 8.83398 9.9701 8.83398 9.87565C8.83398 9.78121 8.86732 9.70065 8.93398 9.63398L9.63398 8.93398C9.70065 8.86732 9.78121 8.83398 9.87565 8.83398C9.9701 8.83398 10.0507 8.86732 10.1173 8.93398C10.184 8.98954 10.2173 9.06454 10.2173 9.15898C10.2173 9.25343 10.184 9.32843 10.1173 9.38398L9.98398 9.51732L11.0507 10.584C11.4173 10.2951 11.8173 10.059 12.2507 9.87565C12.684 9.69232 13.1507 9.57287 13.6507 9.51732V8.00065H13.5007C13.4118 8.00065 13.334 7.96732 13.2673 7.90065C13.2007 7.83398 13.1673 7.75621 13.1673 7.66732C13.1673 7.57843 13.2007 7.50065 13.2673 7.43398C13.334 7.36732 13.4118 7.33398 13.5007 7.33398H14.5007C14.5895 7.33398 14.6673 7.36732 14.734 7.43398C14.8007 7.50065 14.834 7.57843 14.834 7.66732C14.834 7.75621 14.8007 7.83398 14.734 7.90065C14.6673 7.96732 14.5895 8.00065 14.5007 8.00065H14.334V9.51732C14.834 9.57287 15.3007 9.69232 15.734 9.87565C16.1673 10.059 16.5673 10.2951 16.934 10.584L18.0007 9.51732L17.9007 9.41732C17.8229 9.35065 17.7812 9.27287 17.7757 9.18398C17.7701 9.0951 17.8062 9.01176 17.884 8.93398C17.9507 8.86732 18.0284 8.83398 18.1173 8.83398C18.2062 8.83398 18.284 8.86732 18.3507 8.93398L19.084 9.66732C19.1507 9.73398 19.1812 9.80898 19.1757 9.89232C19.1701 9.97565 19.134 10.0507 19.0673 10.1173C19.0007 10.184 18.9229 10.2118 18.834 10.2007C18.7451 10.1895 18.6618 10.1507 18.584 10.084L18.484 9.98398L17.4173 11.0507C17.7062 11.4173 17.9423 11.8201 18.1257 12.259C18.309 12.6979 18.4284 13.1673 18.484 13.6673H20.0007V13.5007C20.0007 13.4118 20.034 13.334 20.1007 13.2673C20.1673 13.2007 20.2451 13.1673 20.334 13.1673C20.4229 13.1673 20.5007 13.2007 20.5673 13.2673C20.634 13.334 20.6673 13.4118 20.6673 13.5007V14.5007C20.6673 14.5895 20.634 14.6673 20.5673 14.734C20.5007 14.8007 20.4229 14.834 20.334 14.834C20.2451 14.834 20.1673 14.8007 20.1007 14.734C20.034 14.6673 20.0007 14.5895 20.0007 14.5007V14.334H18.484C18.4284 14.834 18.309 15.3034 18.1257 15.7423C17.9423 16.1812 17.7062 16.584 17.4173 16.9506L18.484 18.0173L18.6007 17.9007C18.6673 17.834 18.7451 17.7979 18.834 17.7923C18.9229 17.7868 19.0007 17.8173 19.0673 17.884C19.134 17.9507 19.1673 18.0312 19.1673 18.1257C19.1673 18.2201 19.134 18.3006 19.0673 18.3673L18.3673 19.0673C18.3006 19.134 18.2201 19.1673 18.1257 19.1673C18.0312 19.1673 17.9507 19.134 17.884 19.0673C17.8062 18.9895 17.7729 18.909 17.784 18.8256C17.7951 18.7423 17.8229 18.6729 17.8673 18.6173L18.0007 18.484L16.934 17.4173C16.5673 17.7062 16.1673 17.9451 15.734 18.134C15.3007 18.3229 14.834 18.4451 14.334 18.5007V20.0007H14.5007C14.5895 20.0007 14.6673 20.034 14.734 20.1007C14.8007 20.1673 14.834 20.2451 14.834 20.334C14.834 20.4229 14.8007 20.5007 14.734 20.5673C14.6673 20.634 14.5895 20.6673 14.5007 20.6673H13.5007ZM14.0007 17.5007C14.9784 17.5007 15.8062 17.159 16.484 16.4757C17.1618 15.7923 17.5007 14.9673 17.5007 14.0007C17.5007 13.0229 17.1618 12.1951 16.484 11.5173C15.8062 10.8395 14.9784 10.5007 14.0007 10.5007C13.034 10.5007 12.209 10.8395 11.5257 11.5173C10.8423 12.1951 10.5007 13.0229 10.5007 14.0007C10.5007 14.9673 10.8423 15.7923 11.5257 16.4757C12.209 17.159 13.034 17.5007 14.0007 17.5007ZM14.0007 14.5007C14.134 14.5007 14.2507 14.4507 14.3507 14.3507C14.4507 14.2507 14.5007 14.134 14.5007 14.0007C14.5007 13.8673 14.4507 13.7507 14.3507 13.6507C14.2507 13.5507 14.134 13.5007 14.0007 13.5007C13.8673 13.5007 13.7507 13.5507 13.6507 13.6507C13.5507 13.7507 13.5007 13.8673 13.5007 14.0007C13.5007 14.134 13.5507 14.2507 13.6507 14.3507C13.7507 14.4507 13.8673 14.5007 14.0007 14.5007ZM16.334 14.5007C16.4784 14.5007 16.5979 14.4507 16.6923 14.3507C16.7868 14.2507 16.834 14.134 16.834 14.0007C16.834 13.8673 16.7868 13.7507 16.6923 13.6507C16.5979 13.5507 16.4784 13.5007 16.334 13.5007C16.2007 13.5007 16.084 13.5507 15.984 13.6507C15.884 13.7507 15.834 13.8673 15.834 14.0007C15.834 14.134 15.884 14.2507 15.984 14.3507C16.084 14.4507 16.2007 14.5007 16.334 14.5007ZM15.1673 16.5007C15.3118 16.5007 15.4312 16.4507 15.5257 16.3507C15.6201 16.2507 15.6673 16.134 15.6673 16.0007C15.6673 15.8673 15.6201 15.7507 15.5257 15.6507C15.4312 15.5507 15.3118 15.5007 15.1673 15.5007C15.034 15.5007 14.9173 15.5507 14.8173 15.6507C14.7173 15.7507 14.6673 15.8673 14.6673 16.0007C14.6673 16.134 14.7173 16.2507 14.8173 16.3507C14.9173 16.4507 15.034 16.5007 15.1673 16.5007Z" fill="#D7321D"/>
</svg>
