<svg width="40" height="40" viewBox="0 0 40 40" fill="none" xmlns="http://www.w3.org/2000/svg">
<path d="M0 20C0 8.95431 8.95431 0 20 0C31.0457 0 40 8.95431 40 20C40 31.0457 31.0457 40 20 40C8.95431 40 0 31.0457 0 20Z" fill="#B9E6FE"/>
<path d="M26 12.5H14C13.175 12.5 12.5 13.175 12.5 14V25.6925C12.5 26.36 13.31 26.6975 13.7825 26.225L15.5 24.5H26C26.825 24.5 27.5 23.825 27.5 23V14C27.5 13.175 26.825 12.5 26 12.5ZM21.1775 19.6775L20.3375 21.5075C20.2025 21.8 19.79 21.8 19.655 21.5075L18.815 19.6775L16.985 18.8375C16.6925 18.7025 16.6925 18.29 16.985 18.155L18.815 17.315L19.655 15.485C19.79 15.1925 20.2025 15.1925 20.3375 15.485L21.1775 17.315L23.0075 18.155C23.3 18.29 23.3 18.7025 23.0075 18.8375L21.1775 19.6775Z" fill="#026AA2"/>
</svg>
