<svg width="120" height="120" viewBox="0 0 120 120" fill="none" xmlns="http://www.w3.org/2000/svg">
<rect width="120" height="120" rx="4" fill="#F9FAFB"/>
<path d="M63.4996 54.9998C63.4996 55.3894 63.1809 55.7081 62.7914 55.7081H61.3748V57.1246C61.3748 57.5142 61.0561 57.8329 60.6665 57.8329C60.277 57.8329 59.9583 57.5142 59.9583 57.1246V55.7081H58.5417C58.1521 55.7081 57.8334 55.3894 57.8334 54.9998C57.8334 54.6102 58.1521 54.2915 58.5417 54.2915H59.9583V52.875C59.9583 52.4854 60.277 52.1667 60.6665 52.1667C61.0561 52.1667 61.3748 52.4854 61.3748 52.875V54.2915H62.7914C63.181 54.2915 63.4996 54.6102 63.4996 54.9998ZM71.9997 59.9583V69.875C71.9997 70.2646 71.681 70.5833 71.2914 70.5833H50.0413C49.6517 70.5833 49.333 70.2646 49.333 69.875V59.9583C49.333 59.1791 49.9704 58.5418 50.7496 58.5418H54.2912V50.75C54.2912 49.9709 54.9286 49.3335 55.7078 49.3335H65.6245C66.4037 49.3335 67.0411 49.9709 67.0411 50.75V58.5418H70.5827C71.3622 58.5418 71.9995 59.1794 71.9995 59.9586L71.9997 59.9583ZM50.7496 69.1667H54.2912V59.9583H50.7496V69.1667ZM62.083 63.5001H59.2495V69.1669H62.083V63.5001ZM65.6246 50.75H55.7079V69.1668H57.8331L57.8328 63.5002C57.8328 62.7211 58.4702 62.0837 59.2494 62.0837H62.0828C62.8619 62.0837 63.4993 62.7211 63.4993 63.5002V69.1671H65.6245L65.6246 50.75ZM70.5831 59.9584H67.0414V69.1668H70.5831V59.9584Z" fill="#98A2B3"/>
</svg>
