<svg width="28" height="28" viewBox="0 0 28 28" fill="none" xmlns="http://www.w3.org/2000/svg">
<rect x="0.5" y="27.5" width="27" height="27" rx="13.5" transform="rotate(-90 0.5 27.5)" fill="white" stroke="#E4E7EC"/>
<g clip-path="url(#clip0_2050_25336)">
<path d="M9.99967 18.6667C9.99967 19.4 10.5997 20 11.333 20H16.6663C17.3997 20 17.9997 19.4 17.9997 18.6667V12C17.9997 11.2667 17.3997 10.6667 16.6663 10.6667H11.333C10.5997 10.6667 9.99967 11.2667 9.99967 12V18.6667ZM11.9997 12H15.9997C16.3663 12 16.6663 12.3 16.6663 12.6667V18C16.6663 18.3667 16.3663 18.6667 15.9997 18.6667H11.9997C11.633 18.6667 11.333 18.3667 11.333 18V12.6667C11.333 12.3 11.633 12 11.9997 12ZM16.333 8.66667L15.8597 8.19333C15.7397 8.07333 15.5663 8 15.393 8H12.6063C12.433 8 12.2597 8.07333 12.1397 8.19333L11.6663 8.66667H9.99967C9.63301 8.66667 9.33301 8.96667 9.33301 9.33333C9.33301 9.7 9.63301 10 9.99967 10H17.9997C18.3663 10 18.6663 9.7 18.6663 9.33333C18.6663 8.96667 18.3663 8.66667 17.9997 8.66667H16.333Z" fill="#98A2B3"/>
</g>
<defs>
<clipPath id="clip0_2050_25336">
<rect width="16" height="16" fill="white" transform="translate(6 6)"/>
</clipPath>
</defs>
</svg>
