<svg width="40" height="40" viewBox="0 0 40 40" fill="none" xmlns="http://www.w3.org/2000/svg">
<g clip-path="url(#clip0_558_18170)">
<path d="M14.2854 26.6658C14.2854 27.7134 15.1425 28.5706 16.1902 28.5706H23.8092C24.8568 28.5706 25.714 27.7134 25.714 26.6658V17.142C25.714 16.0944 24.8568 15.2373 23.8092 15.2373H16.1902C15.1425 15.2373 14.2854 16.0944 14.2854 17.142V26.6658ZM17.1425 17.142H22.8568C23.3806 17.142 23.8092 17.5706 23.8092 18.0944V25.7134C23.8092 26.2373 23.3806 26.6658 22.8568 26.6658H17.1425C16.6187 26.6658 16.1902 26.2373 16.1902 25.7134V18.0944C16.1902 17.5706 16.6187 17.142 17.1425 17.142ZM23.333 12.3801L22.6568 11.7039C22.4854 11.5325 22.2378 11.4277 21.9902 11.4277H18.0092C17.7616 11.4277 17.514 11.5325 17.3425 11.7039L16.6663 12.3801H14.2854C13.7616 12.3801 13.333 12.8087 13.333 13.3325C13.333 13.8563 13.7616 14.2849 14.2854 14.2849H25.714C26.2378 14.2849 26.6663 13.8563 26.6663 13.3325C26.6663 12.8087 26.2378 12.3801 25.714 12.3801H23.333Z" fill="#98A2B3"/>
</g>
<defs>
<clipPath id="clip0_558_18170">
<rect width="22.8571" height="22.8571" fill="white" transform="translate(8.57129 8.5708)"/>
</clipPath>
</defs>
</svg>
