<svg width="548" height="350" viewBox="0 0 548 350" fill="none" xmlns="http://www.w3.org/2000/svg">
<path d="M94 0L94 410" stroke="#E4E7EC"/>
<path d="M435.502 20C436.607 20 437.502 20.8954 437.502 22L437.502 30.2559C437.502 31.3605 436.607 32.2559 435.502 32.2559L93.9993 32.2559L93.9993 20L435.502 20Z" fill="#EBE9FE"/>
<path d="M236.127 20C237.232 20 238.127 20.8954 238.127 22L238.127 30.2559C238.127 31.3605 237.232 32.2559 236.127 32.2559L94 32.2559L94 20L236.127 20Z" fill="#9B8AFB"/>
<path d="M531.588 56.7676C532.692 56.7676 533.588 57.663 533.588 58.7676L533.588 67.0235C533.588 68.128 532.692 69.0235 531.588 69.0235L94.0006 69.0235L94.0006 56.7676L531.588 56.7676Z" fill="#EBE9FE"/>
<path d="M276.441 56.7676C277.546 56.7676 278.441 57.663 278.441 58.7676L278.441 67.0235C278.441 68.128 277.546 69.0235 276.441 69.0235L93.9992 69.0235L93.9992 56.7676L276.441 56.7676Z" fill="#9B8AFB"/>
<path d="M435.502 99.6641C436.607 99.6641 437.502 100.559 437.502 101.664L437.502 109.92C437.502 111.025 436.607 111.92 435.502 111.92L93.9993 111.92L93.9993 99.6641L435.502 99.6641Z" fill="#EBE9FE"/>
<path d="M236.127 99.6641C237.232 99.6641 238.127 100.559 238.127 101.664L238.127 109.92C238.127 111.025 237.232 111.92 236.127 111.92L94 111.92L94 99.6641L236.127 99.6641Z" fill="#9B8AFB"/>
<path d="M546 138.883C547.105 138.883 548 139.778 548 140.883L548 149.139C548 150.243 547.105 151.139 546 151.139L94 151.139L94 138.883L546 138.883Z" fill="#EBE9FE"/>
<path d="M282.49 138.883C283.595 138.883 284.49 139.778 284.49 140.883L284.49 149.139C284.49 150.243 283.595 151.139 282.49 151.139L94.0007 151.139L94.0007 138.883L282.49 138.883Z" fill="#9B8AFB"/>
<path d="M435.502 176.875C436.607 176.875 437.502 177.77 437.502 178.875L437.502 187.131C437.502 188.235 436.607 189.131 435.502 189.131L93.9993 189.131L93.9993 176.875L435.502 176.875Z" fill="#EBE9FE"/>
<path d="M236.127 176.875C237.232 176.875 238.127 177.77 238.127 178.875L238.127 187.131C238.127 188.235 237.232 189.131 236.127 189.131L94 189.131L94 176.875L236.127 176.875Z" fill="#9B8AFB"/>
<path d="M546 216.094C547.105 216.094 548 216.989 548 218.094L548 226.35C548 227.454 547.105 228.35 546 228.35L94 228.35L94 216.094L546 216.094Z" fill="#EBE9FE"/>
<path d="M282.49 216.094C283.595 216.094 284.49 216.989 284.49 218.094L284.49 226.35C284.49 227.454 283.595 228.35 282.49 228.35L94.0007 228.35L94.0007 216.094L282.49 216.094Z" fill="#9B8AFB"/>
<path d="M435.502 254.086C436.607 254.086 437.502 254.981 437.502 256.086L437.502 264.342C437.502 265.446 436.607 266.342 435.502 266.342L93.9993 266.342L93.9993 254.086L435.502 254.086Z" fill="#EBE9FE"/>
<path d="M236.127 254.086C237.232 254.086 238.127 254.981 238.127 256.086L238.127 264.342C238.127 265.446 237.232 266.342 236.127 266.342L94 266.342L94 254.086L236.127 254.086Z" fill="#9B8AFB"/>
<path d="M531.588 296.984C532.692 296.984 533.588 297.88 533.588 298.984L533.588 307.24C533.588 308.345 532.692 309.24 531.588 309.24L94.0006 309.24L94.0006 296.984L531.588 296.984Z" fill="#EBE9FE"/>
<path d="M276.441 296.984C277.546 296.984 278.441 297.88 278.441 298.984L278.441 307.24C278.441 308.345 277.546 309.24 276.441 309.24L93.9992 309.24L93.9992 296.984L276.441 296.984Z" fill="#9B8AFB"/>
<path d="M435.502 333.75C436.607 333.75 437.502 334.645 437.502 335.75L437.502 344.006C437.502 345.11 436.607 346.006 435.502 346.006L93.9993 346.006L93.9993 333.75L435.502 333.75Z" fill="#EBE9FE"/>
<path d="M236.127 333.75C237.232 333.75 238.127 334.645 238.127 335.75L238.127 344.006C238.127 345.11 237.232 346.006 236.127 346.006L94 346.006L94 333.75L236.127 333.75Z" fill="#9B8AFB"/>
<path d="M29.5867 184V177H30.5567L34.8367 182.73L34.6767 182.82C34.65 182.653 34.6267 182.473 34.6067 182.28C34.5867 182.08 34.5667 181.87 34.5467 181.65C34.5333 181.423 34.52 181.187 34.5067 180.94C34.5 180.687 34.4933 180.423 34.4867 180.15C34.48 179.877 34.4767 179.593 34.4767 179.3V177H35.5567V184H34.5667L30.3567 178.48L30.4667 178.34C30.5 178.747 30.5267 179.093 30.5467 179.38C30.5733 179.66 30.5933 179.9 30.6067 180.1C30.6267 180.293 30.64 180.453 30.6467 180.58C30.6533 180.7 30.6567 180.8 30.6567 180.88C30.6633 180.96 30.6667 181.03 30.6667 181.09V184H29.5867ZM39.0964 184.1C38.723 184.1 38.3964 184.013 38.1164 183.84C37.843 183.667 37.6297 183.423 37.4764 183.11C37.3297 182.797 37.2564 182.423 37.2564 181.99V178.75H38.2864V181.71C38.2864 182.017 38.333 182.283 38.4264 182.51C38.5264 182.73 38.6664 182.9 38.8464 183.02C39.033 183.14 39.2564 183.2 39.5164 183.2C39.7097 183.2 39.8864 183.17 40.0464 183.11C40.2064 183.043 40.343 182.953 40.4564 182.84C40.5764 182.727 40.6697 182.59 40.7364 182.43C40.803 182.27 40.8364 182.097 40.8364 181.91V178.75H41.8664V184H40.8364V182.9L41.0164 182.78C40.9364 183.027 40.7997 183.25 40.6064 183.45C40.4197 183.65 40.1964 183.81 39.9364 183.93C39.6764 184.043 39.3964 184.1 39.0964 184.1ZM45.7611 184.1C45.2211 184.1 44.7411 183.987 44.3211 183.76C43.9077 183.527 43.5811 183.21 43.3411 182.81C43.1077 182.41 42.9911 181.95 42.9911 181.43C42.9911 181.017 43.0577 180.64 43.1911 180.3C43.3244 179.96 43.5077 179.667 43.7411 179.42C43.9811 179.167 44.2644 178.973 44.5911 178.84C44.9244 178.7 45.2844 178.63 45.6711 178.63C46.0111 178.63 46.3277 178.697 46.6211 178.83C46.9144 178.957 47.1677 179.133 47.3811 179.36C47.6011 179.587 47.7677 179.857 47.8811 180.17C48.0011 180.477 48.0577 180.813 48.0511 181.18L48.0411 181.62H43.7511L43.5211 180.8H47.1511L47.0011 180.97V180.73C46.9811 180.51 46.9077 180.313 46.7811 180.14C46.6544 179.967 46.4944 179.83 46.3011 179.73C46.1077 179.63 45.8977 179.58 45.6711 179.58C45.3111 179.58 45.0077 179.65 44.7611 179.79C44.5144 179.923 44.3277 180.123 44.2011 180.39C44.0744 180.65 44.0111 180.973 44.0111 181.36C44.0111 181.727 44.0877 182.047 44.2411 182.32C44.3944 182.587 44.6111 182.793 44.8911 182.94C45.1711 183.087 45.4944 183.16 45.8611 183.16C46.1211 183.16 46.3611 183.117 46.5811 183.03C46.8077 182.943 47.0511 182.787 47.3111 182.56L47.8311 183.29C47.6711 183.45 47.4744 183.59 47.2411 183.71C47.0144 183.83 46.7711 183.927 46.5111 184C46.2577 184.067 46.0077 184.1 45.7611 184.1ZM49.1704 184V178.75H50.2104V180.4L50.1104 180C50.1838 179.747 50.3071 179.517 50.4804 179.31C50.6604 179.103 50.8638 178.94 51.0904 178.82C51.3238 178.7 51.5638 178.64 51.8104 178.64C51.9238 178.64 52.0304 178.65 52.1304 178.67C52.2371 178.69 52.3204 178.713 52.3804 178.74L52.1104 179.86C52.0304 179.827 51.9404 179.8 51.8404 179.78C51.7471 179.753 51.6538 179.74 51.5604 179.74C51.3804 179.74 51.2071 179.777 51.0404 179.85C50.8804 179.917 50.7371 180.013 50.6104 180.14C50.4904 180.26 50.3938 180.403 50.3204 180.57C50.2471 180.73 50.2104 180.907 50.2104 181.1V184H49.1704ZM55.339 184.1C54.8257 184.1 54.3657 183.983 53.959 183.75C53.559 183.51 53.2424 183.187 53.009 182.78C52.7757 182.367 52.659 181.897 52.659 181.37C52.659 180.843 52.7757 180.377 53.009 179.97C53.2424 179.557 53.559 179.233 53.959 179C54.3657 178.76 54.8257 178.64 55.339 178.64C55.8457 178.64 56.299 178.76 56.699 179C57.1057 179.233 57.4257 179.557 57.659 179.97C57.8924 180.377 58.009 180.843 58.009 181.37C58.009 181.897 57.8924 182.367 57.659 182.78C57.4257 183.187 57.1057 183.51 56.699 183.75C56.299 183.983 55.8457 184.1 55.339 184.1ZM55.339 183.16C55.6524 183.16 55.9324 183.083 56.179 182.93C56.4257 182.77 56.619 182.557 56.759 182.29C56.899 182.017 56.9657 181.71 56.959 181.37C56.9657 181.023 56.899 180.717 56.759 180.45C56.619 180.177 56.4257 179.963 56.179 179.81C55.9324 179.657 55.6524 179.58 55.339 179.58C55.0257 179.58 54.7424 179.66 54.489 179.82C54.2424 179.973 54.049 180.187 53.909 180.46C53.769 180.727 53.7024 181.03 53.709 181.37C53.7024 181.71 53.769 182.017 53.909 182.29C54.049 182.557 54.2424 182.77 54.489 182.93C54.7424 183.083 55.0257 183.16 55.339 183.16ZM59.1514 184V176.6H60.1814V184H59.1514ZM63.9035 184.1C63.3901 184.1 62.9301 183.983 62.5235 183.75C62.1235 183.51 61.8068 183.187 61.5735 182.78C61.3401 182.367 61.2235 181.897 61.2235 181.37C61.2235 180.843 61.3401 180.377 61.5735 179.97C61.8068 179.557 62.1235 179.233 62.5235 179C62.9301 178.76 63.3901 178.64 63.9035 178.64C64.4101 178.64 64.8635 178.76 65.2635 179C65.6701 179.233 65.9901 179.557 66.2235 179.97C66.4568 180.377 66.5735 180.843 66.5735 181.37C66.5735 181.897 66.4568 182.367 66.2235 182.78C65.9901 183.187 65.6701 183.51 65.2635 183.75C64.8635 183.983 64.4101 184.1 63.9035 184.1ZM63.9035 183.16C64.2168 183.16 64.4968 183.083 64.7435 182.93C64.9901 182.77 65.1835 182.557 65.3235 182.29C65.4635 182.017 65.5301 181.71 65.5235 181.37C65.5301 181.023 65.4635 180.717 65.3235 180.45C65.1835 180.177 64.9901 179.963 64.7435 179.81C64.4968 179.657 64.2168 179.58 63.9035 179.58C63.5901 179.58 63.3068 179.66 63.0535 179.82C62.8068 179.973 62.6135 180.187 62.4735 180.46C62.3335 180.727 62.2668 181.03 62.2735 181.37C62.2668 181.71 62.3335 182.017 62.4735 182.29C62.6135 182.557 62.8068 182.77 63.0535 182.93C63.3068 183.083 63.5901 183.16 63.9035 183.16ZM70.0458 186.3C69.6725 186.3 69.2992 186.24 68.9258 186.12C68.5592 186.007 68.2625 185.857 68.0358 185.67L68.4158 184.87C68.5492 184.97 68.7058 185.057 68.8858 185.13C69.0658 185.21 69.2558 185.27 69.4558 185.31C69.6558 185.357 69.8525 185.38 70.0458 185.38C70.4125 185.38 70.7192 185.32 70.9658 185.2C71.2125 185.08 71.3992 184.903 71.5258 184.67C71.6525 184.437 71.7158 184.147 71.7158 183.8V182.79L71.8258 182.86C71.7925 183.067 71.6825 183.267 71.4958 183.46C71.3158 183.647 71.0892 183.8 70.8158 183.92C70.5425 184.04 70.2625 184.1 69.9758 184.1C69.4758 184.1 69.0292 183.983 68.6358 183.75C68.2492 183.51 67.9425 183.187 67.7158 182.78C67.4892 182.367 67.3758 181.897 67.3758 181.37C67.3758 180.843 67.4858 180.377 67.7058 179.97C67.9325 179.557 68.2392 179.233 68.6258 179C69.0192 178.76 69.4592 178.64 69.9458 178.64C70.1458 178.64 70.3392 178.667 70.5258 178.72C70.7125 178.767 70.8858 178.837 71.0458 178.93C71.2058 179.017 71.3492 179.113 71.4758 179.22C71.6025 179.327 71.7058 179.44 71.7858 179.56C71.8658 179.68 71.9158 179.793 71.9358 179.9L71.7158 179.98V178.75H72.7458V183.68C72.7458 184.1 72.6825 184.47 72.5558 184.79C72.4358 185.117 72.2592 185.39 72.0258 185.61C71.7925 185.837 71.5092 186.007 71.1758 186.12C70.8425 186.24 70.4658 186.3 70.0458 186.3ZM70.0858 183.15C70.4125 183.15 70.7025 183.073 70.9558 182.92C71.2092 182.767 71.4058 182.557 71.5458 182.29C71.6858 182.023 71.7558 181.717 71.7558 181.37C71.7558 181.023 71.6825 180.717 71.5358 180.45C71.3958 180.177 71.1992 179.963 70.9458 179.81C70.6992 179.657 70.4125 179.58 70.0858 179.58C69.7658 179.58 69.4792 179.66 69.2258 179.82C68.9792 179.973 68.7825 180.187 68.6358 180.46C68.4958 180.727 68.4258 181.03 68.4258 181.37C68.4258 181.71 68.4958 182.017 68.6358 182.29C68.7825 182.557 68.9792 182.767 69.2258 182.92C69.4792 183.073 69.7658 183.15 70.0858 183.15ZM75.07 186.3L76.13 183.85L76.14 184.67L73.52 178.75H74.72L76.36 182.61C76.3933 182.677 76.4333 182.78 76.48 182.92C76.5266 183.053 76.5666 183.187 76.6 183.32L76.34 183.38C76.3933 183.24 76.4433 183.1 76.49 182.96C76.5433 182.82 76.5933 182.68 76.64 182.54L78.01 178.75H79.23L77.07 184L76.18 186.3H75.07Z" fill="#667085"/>
<path d="M27.5707 224V217H28.6507V224H27.5707ZM23.0007 224V217H24.0807V224H23.0007ZM23.4707 221.03V219.99H28.0507V221.03H23.4707ZM32.7981 224.1C32.2581 224.1 31.7781 223.987 31.3581 223.76C30.9447 223.527 30.6181 223.21 30.3781 222.81C30.1447 222.41 30.0281 221.95 30.0281 221.43C30.0281 221.017 30.0947 220.64 30.2281 220.3C30.3614 219.96 30.5447 219.667 30.7781 219.42C31.0181 219.167 31.3014 218.973 31.6281 218.84C31.9614 218.7 32.3214 218.63 32.7081 218.63C33.0481 218.63 33.3647 218.697 33.6581 218.83C33.9514 218.957 34.2047 219.133 34.4181 219.36C34.6381 219.587 34.8047 219.857 34.9181 220.17C35.0381 220.477 35.0947 220.813 35.0881 221.18L35.0781 221.62H30.7881L30.5581 220.8H34.1881L34.0381 220.97V220.73C34.0181 220.51 33.9447 220.313 33.8181 220.14C33.6914 219.967 33.5314 219.83 33.3381 219.73C33.1447 219.63 32.9347 219.58 32.7081 219.58C32.3481 219.58 32.0447 219.65 31.7981 219.79C31.5514 219.923 31.3647 220.123 31.2381 220.39C31.1114 220.65 31.0481 220.973 31.0481 221.36C31.0481 221.727 31.1247 222.047 31.2781 222.32C31.4314 222.587 31.6481 222.793 31.9281 222.94C32.2081 223.087 32.5314 223.16 32.8981 223.16C33.1581 223.16 33.3981 223.117 33.6181 223.03C33.8447 222.943 34.0881 222.787 34.3481 222.56L34.8681 223.29C34.7081 223.45 34.5114 223.59 34.2781 223.71C34.0514 223.83 33.8081 223.927 33.5481 224C33.2947 224.067 33.0447 224.1 32.7981 224.1ZM36.2075 226.2V218.75H37.2475V219.95L37.0875 219.86C37.1275 219.66 37.2408 219.47 37.4275 219.29C37.6141 219.103 37.8408 218.953 38.1075 218.84C38.3808 218.72 38.6608 218.66 38.9475 218.66C39.4208 218.66 39.8408 218.777 40.2075 219.01C40.5741 219.243 40.8641 219.563 41.0775 219.97C41.2908 220.377 41.3975 220.843 41.3975 221.37C41.3975 221.89 41.2908 222.357 41.0775 222.77C40.8708 223.177 40.5841 223.5 40.2175 223.74C39.8508 223.973 39.4375 224.09 38.9775 224.09C38.6708 224.09 38.3741 224.03 38.0875 223.91C37.8008 223.783 37.5575 223.623 37.3575 223.43C37.1575 223.237 37.0341 223.037 36.9875 222.83L37.2475 222.69V226.2H36.2075ZM38.8075 223.14C39.1141 223.14 39.3875 223.063 39.6275 222.91C39.8675 222.757 40.0575 222.547 40.1975 222.28C40.3375 222.013 40.4075 221.71 40.4075 221.37C40.4075 221.03 40.3375 220.73 40.1975 220.47C40.0641 220.203 39.8775 219.993 39.6375 219.84C39.3975 219.687 39.1208 219.61 38.8075 219.61C38.4941 219.61 38.2175 219.687 37.9775 219.84C37.7375 219.987 37.5475 220.193 37.4075 220.46C37.2675 220.727 37.1975 221.03 37.1975 221.37C37.1975 221.71 37.2675 222.013 37.4075 222.28C37.5475 222.547 37.7375 222.757 37.9775 222.91C38.2175 223.063 38.4941 223.14 38.8075 223.14ZM44.536 224.1C44.1027 224.1 43.706 223.98 43.346 223.74C42.9927 223.5 42.7094 223.173 42.496 222.76C42.2827 222.347 42.176 221.88 42.176 221.36C42.176 220.833 42.2827 220.367 42.496 219.96C42.716 219.547 43.0094 219.223 43.376 218.99C43.7494 218.757 44.166 218.64 44.626 218.64C44.8994 218.64 45.1494 218.68 45.376 218.76C45.6027 218.84 45.7994 218.953 45.966 219.1C46.1394 219.24 46.2794 219.403 46.386 219.59C46.4994 219.777 46.5694 219.977 46.596 220.19L46.366 220.11V218.75H47.406V224H46.366V222.75L46.606 222.68C46.566 222.86 46.4827 223.037 46.356 223.21C46.236 223.377 46.0794 223.527 45.886 223.66C45.6994 223.793 45.4894 223.9 45.256 223.98C45.0294 224.06 44.7894 224.1 44.536 224.1ZM44.806 223.15C45.1194 223.15 45.396 223.073 45.636 222.92C45.876 222.767 46.0627 222.557 46.196 222.29C46.336 222.017 46.406 221.707 46.406 221.36C46.406 221.02 46.336 220.717 46.196 220.45C46.0627 220.183 45.876 219.973 45.636 219.82C45.396 219.667 45.1194 219.59 44.806 219.59C44.4994 219.59 44.226 219.667 43.986 219.82C43.7527 219.973 43.566 220.183 43.426 220.45C43.2927 220.717 43.226 221.02 43.226 221.36C43.226 221.707 43.2927 222.017 43.426 222.29C43.566 222.557 43.7527 222.767 43.986 222.92C44.226 223.073 44.4994 223.15 44.806 223.15ZM49.4942 224V217.41H50.5242V224H49.4942ZM48.4042 219.75V218.75H51.7442V219.75H48.4042ZM54.9932 224.1C54.4799 224.1 54.0199 223.983 53.6132 223.75C53.2132 223.51 52.8966 223.187 52.6632 222.78C52.4299 222.367 52.3132 221.897 52.3132 221.37C52.3132 220.843 52.4299 220.377 52.6632 219.97C52.8966 219.557 53.2132 219.233 53.6132 219C54.0199 218.76 54.4799 218.64 54.9932 218.64C55.4999 218.64 55.9532 218.76 56.3532 219C56.7599 219.233 57.0799 219.557 57.3132 219.97C57.5466 220.377 57.6632 220.843 57.6632 221.37C57.6632 221.897 57.5466 222.367 57.3132 222.78C57.0799 223.187 56.7599 223.51 56.3532 223.75C55.9532 223.983 55.4999 224.1 54.9932 224.1ZM54.9932 223.16C55.3066 223.16 55.5866 223.083 55.8332 222.93C56.0799 222.77 56.2732 222.557 56.4132 222.29C56.5532 222.017 56.6199 221.71 56.6132 221.37C56.6199 221.023 56.5532 220.717 56.4132 220.45C56.2732 220.177 56.0799 219.963 55.8332 219.81C55.5866 219.657 55.3066 219.58 54.9932 219.58C54.6799 219.58 54.3966 219.66 54.1432 219.82C53.8966 219.973 53.7032 220.187 53.5632 220.46C53.4232 220.727 53.3566 221.03 53.3632 221.37C53.3566 221.71 53.4232 222.017 53.5632 222.29C53.7032 222.557 53.8966 222.77 54.1432 222.93C54.3966 223.083 54.6799 223.16 54.9932 223.16ZM58.8056 224V216.6H59.8356V224H58.8056ZM63.5577 224.1C63.0444 224.1 62.5844 223.983 62.1777 223.75C61.7777 223.51 61.461 223.187 61.2277 222.78C60.9944 222.367 60.8777 221.897 60.8777 221.37C60.8777 220.843 60.9944 220.377 61.2277 219.97C61.461 219.557 61.7777 219.233 62.1777 219C62.5844 218.76 63.0444 218.64 63.5577 218.64C64.0644 218.64 64.5177 218.76 64.9177 219C65.3244 219.233 65.6444 219.557 65.8777 219.97C66.111 220.377 66.2277 220.843 66.2277 221.37C66.2277 221.897 66.111 222.367 65.8777 222.78C65.6444 223.187 65.3244 223.51 64.9177 223.75C64.5177 223.983 64.0644 224.1 63.5577 224.1ZM63.5577 223.16C63.871 223.16 64.151 223.083 64.3977 222.93C64.6444 222.77 64.8377 222.557 64.9777 222.29C65.1177 222.017 65.1844 221.71 65.1777 221.37C65.1844 221.023 65.1177 220.717 64.9777 220.45C64.8377 220.177 64.6444 219.963 64.3977 219.81C64.151 219.657 63.871 219.58 63.5577 219.58C63.2444 219.58 62.961 219.66 62.7077 219.82C62.461 219.973 62.2677 220.187 62.1277 220.46C61.9877 220.727 61.921 221.03 61.9277 221.37C61.921 221.71 61.9877 222.017 62.1277 222.29C62.2677 222.557 62.461 222.77 62.7077 222.93C62.961 223.083 63.2444 223.16 63.5577 223.16ZM69.7 226.3C69.3267 226.3 68.9534 226.24 68.58 226.12C68.2134 226.007 67.9167 225.857 67.69 225.67L68.07 224.87C68.2034 224.97 68.36 225.057 68.54 225.13C68.72 225.21 68.91 225.27 69.11 225.31C69.31 225.357 69.5067 225.38 69.7 225.38C70.0667 225.38 70.3734 225.32 70.62 225.2C70.8667 225.08 71.0534 224.903 71.18 224.67C71.3067 224.437 71.37 224.147 71.37 223.8V222.79L71.48 222.86C71.4467 223.067 71.3367 223.267 71.15 223.46C70.97 223.647 70.7434 223.8 70.47 223.92C70.1967 224.04 69.9167 224.1 69.63 224.1C69.13 224.1 68.6834 223.983 68.29 223.75C67.9034 223.51 67.5967 223.187 67.37 222.78C67.1434 222.367 67.03 221.897 67.03 221.37C67.03 220.843 67.14 220.377 67.36 219.97C67.5867 219.557 67.8934 219.233 68.28 219C68.6734 218.76 69.1134 218.64 69.6 218.64C69.8 218.64 69.9934 218.667 70.18 218.72C70.3667 218.767 70.54 218.837 70.7 218.93C70.86 219.017 71.0034 219.113 71.13 219.22C71.2567 219.327 71.36 219.44 71.44 219.56C71.52 219.68 71.57 219.793 71.59 219.9L71.37 219.98V218.75H72.4V223.68C72.4 224.1 72.3367 224.47 72.21 224.79C72.09 225.117 71.9134 225.39 71.68 225.61C71.4467 225.837 71.1634 226.007 70.83 226.12C70.4967 226.24 70.12 226.3 69.7 226.3ZM69.74 223.15C70.0667 223.15 70.3567 223.073 70.61 222.92C70.8634 222.767 71.06 222.557 71.2 222.29C71.34 222.023 71.41 221.717 71.41 221.37C71.41 221.023 71.3367 220.717 71.19 220.45C71.05 220.177 70.8534 219.963 70.6 219.81C70.3534 219.657 70.0667 219.58 69.74 219.58C69.42 219.58 69.1334 219.66 68.88 219.82C68.6334 219.973 68.4367 220.187 68.29 220.46C68.15 220.727 68.08 221.03 68.08 221.37C68.08 221.71 68.15 222.017 68.29 222.29C68.4367 222.557 68.6334 222.767 68.88 222.92C69.1334 223.073 69.42 223.15 69.74 223.15ZM74.7242 226.3L75.7842 223.85L75.7942 224.67L73.1742 218.75H74.3742L76.0142 222.61C76.0475 222.677 76.0875 222.78 76.1342 222.92C76.1808 223.053 76.2208 223.187 76.2542 223.32L75.9942 223.38C76.0475 223.24 76.0975 223.1 76.1442 222.96C76.1975 222.82 76.2475 222.68 76.2942 222.54L77.6642 218.75H78.8842L76.7242 224L75.8342 226.3H74.7242Z" fill="#667085"/>
<path d="M46.4495 264V257H49.1895C49.6895 257 50.1395 257.083 50.5395 257.25C50.9462 257.417 51.2929 257.657 51.5795 257.97C51.8662 258.283 52.0862 258.653 52.2395 259.08C52.3929 259.507 52.4695 259.98 52.4695 260.5C52.4695 261.02 52.3929 261.497 52.2395 261.93C52.0862 262.357 51.8662 262.727 51.5795 263.04C51.2995 263.347 50.9562 263.583 50.5495 263.75C50.1429 263.917 49.6895 264 49.1895 264H46.4495ZM47.5295 263.07L47.4995 262.96H49.1395C49.4929 262.96 49.8062 262.903 50.0795 262.79C50.3595 262.677 50.5929 262.517 50.7795 262.31C50.9729 262.097 51.1195 261.837 51.2195 261.53C51.3195 261.223 51.3695 260.88 51.3695 260.5C51.3695 260.12 51.3195 259.78 51.2195 259.48C51.1195 259.173 50.9729 258.913 50.7795 258.7C50.5862 258.487 50.3529 258.323 50.0795 258.21C49.8062 258.097 49.4929 258.04 49.1395 258.04H47.4695L47.5295 257.95V263.07ZM56.12 264.1C55.58 264.1 55.1 263.987 54.68 263.76C54.2667 263.527 53.94 263.21 53.7 262.81C53.4667 262.41 53.35 261.95 53.35 261.43C53.35 261.017 53.4167 260.64 53.55 260.3C53.6833 259.96 53.8667 259.667 54.1 259.42C54.34 259.167 54.6233 258.973 54.95 258.84C55.2833 258.7 55.6433 258.63 56.03 258.63C56.37 258.63 56.6867 258.697 56.98 258.83C57.2733 258.957 57.5267 259.133 57.74 259.36C57.96 259.587 58.1267 259.857 58.24 260.17C58.36 260.477 58.4167 260.813 58.41 261.18L58.4 261.62H54.11L53.88 260.8H57.51L57.36 260.97V260.73C57.34 260.51 57.2667 260.313 57.14 260.14C57.0133 259.967 56.8533 259.83 56.66 259.73C56.4667 259.63 56.2567 259.58 56.03 259.58C55.67 259.58 55.3667 259.65 55.12 259.79C54.8733 259.923 54.6867 260.123 54.56 260.39C54.4333 260.65 54.37 260.973 54.37 261.36C54.37 261.727 54.4467 262.047 54.6 262.32C54.7533 262.587 54.97 262.793 55.25 262.94C55.53 263.087 55.8533 263.16 56.22 263.16C56.48 263.16 56.72 263.117 56.94 263.03C57.1667 262.943 57.41 262.787 57.67 262.56L58.19 263.29C58.03 263.45 57.8333 263.59 57.6 263.71C57.3733 263.83 57.13 263.927 56.87 264C56.6167 264.067 56.3667 264.1 56.12 264.1ZM59.5294 264V258.75H60.5594V259.83L60.3794 259.95C60.4461 259.717 60.5761 259.503 60.7694 259.31C60.9627 259.11 61.1927 258.95 61.4594 258.83C61.7261 258.703 61.9994 258.64 62.2794 258.64C62.6794 258.64 63.0127 258.72 63.2794 258.88C63.5461 259.033 63.7461 259.27 63.8794 259.59C64.0127 259.91 64.0794 260.313 64.0794 260.8V264H63.0494V260.87C63.0494 260.57 63.0094 260.323 62.9294 260.13C62.8494 259.93 62.7261 259.787 62.5594 259.7C62.3927 259.607 62.1861 259.567 61.9394 259.58C61.7394 259.58 61.5561 259.613 61.3894 259.68C61.2227 259.74 61.0761 259.827 60.9494 259.94C60.8294 260.053 60.7327 260.187 60.6594 260.34C60.5927 260.487 60.5594 260.647 60.5594 260.82V264H60.0494C59.9627 264 59.8761 264 59.7894 264C59.7027 264 59.6161 264 59.5294 264ZM66.1267 264V257.41H67.1567V264H66.1267ZM65.0367 259.75V258.75H68.3767V259.75H65.0367ZM69.4845 264V258.75H70.5145V264H69.4845ZM69.9845 257.59C69.7645 257.59 69.5945 257.533 69.4745 257.42C69.3545 257.307 69.2945 257.147 69.2945 256.94C69.2945 256.747 69.3545 256.59 69.4745 256.47C69.6012 256.35 69.7712 256.29 69.9845 256.29C70.2045 256.29 70.3745 256.347 70.4945 256.46C70.6145 256.573 70.6745 256.733 70.6745 256.94C70.6745 257.133 70.6112 257.29 70.4845 257.41C70.3645 257.53 70.1979 257.59 69.9845 257.59ZM73.8477 264.1C73.4077 264.1 73.0111 264.023 72.6577 263.87C72.3044 263.717 72.0111 263.49 71.7777 263.19L72.4777 262.59C72.6777 262.823 72.8944 262.993 73.1277 263.1C73.3677 263.2 73.6377 263.25 73.9377 263.25C74.0577 263.25 74.1677 263.237 74.2677 263.21C74.3744 263.177 74.4644 263.13 74.5377 263.07C74.6177 263.01 74.6777 262.94 74.7177 262.86C74.7577 262.773 74.7777 262.68 74.7777 262.58C74.7777 262.407 74.7144 262.267 74.5877 262.16C74.5211 262.113 74.4144 262.063 74.2677 262.01C74.1277 261.95 73.9444 261.89 73.7177 261.83C73.3311 261.73 73.0144 261.617 72.7677 261.49C72.5211 261.363 72.3311 261.22 72.1977 261.06C72.0977 260.933 72.0244 260.797 71.9777 260.65C71.9311 260.497 71.9077 260.33 71.9077 260.15C71.9077 259.93 71.9544 259.73 72.0477 259.55C72.1477 259.363 72.2811 259.203 72.4477 259.07C72.6211 258.93 72.8211 258.823 73.0477 258.75C73.2811 258.677 73.5277 258.64 73.7877 258.64C74.0344 258.64 74.2777 258.673 74.5177 258.74C74.7644 258.807 74.9911 258.903 75.1977 259.03C75.4044 259.157 75.5777 259.307 75.7177 259.48L75.1277 260.13C75.0011 260.003 74.8611 259.893 74.7077 259.8C74.5611 259.7 74.4111 259.623 74.2577 259.57C74.1044 259.517 73.9644 259.49 73.8377 259.49C73.6977 259.49 73.5711 259.503 73.4577 259.53C73.3444 259.557 73.2477 259.597 73.1677 259.65C73.0944 259.703 73.0377 259.77 72.9977 259.85C72.9577 259.93 72.9377 260.02 72.9377 260.12C72.9444 260.207 72.9644 260.29 72.9977 260.37C73.0377 260.443 73.0911 260.507 73.1577 260.56C73.2311 260.613 73.3411 260.67 73.4877 260.73C73.6344 260.79 73.8211 260.847 74.0477 260.9C74.3811 260.987 74.6544 261.083 74.8677 261.19C75.0877 261.29 75.2611 261.407 75.3877 261.54C75.5211 261.667 75.6144 261.813 75.6677 261.98C75.7211 262.147 75.7477 262.333 75.7477 262.54C75.7477 262.84 75.6611 263.11 75.4877 263.35C75.3211 263.583 75.0944 263.767 74.8077 263.9C74.5211 264.033 74.2011 264.1 73.8477 264.1ZM77.5329 264V257.41H78.5629V264H77.5329ZM76.4429 259.75V258.75H79.7829V259.75H76.4429Z" fill="#667085"/>
<path d="M16.9192 304V297H19.6592C20.1592 297 20.6092 297.083 21.0092 297.25C21.4158 297.417 21.7625 297.657 22.0492 297.97C22.3358 298.283 22.5558 298.653 22.7092 299.08C22.8625 299.507 22.9392 299.98 22.9392 300.5C22.9392 301.02 22.8625 301.497 22.7092 301.93C22.5558 302.357 22.3358 302.727 22.0492 303.04C21.7692 303.347 21.4258 303.583 21.0192 303.75C20.6125 303.917 20.1592 304 19.6592 304H16.9192ZM17.9992 303.07L17.9692 302.96H19.6092C19.9625 302.96 20.2758 302.903 20.5492 302.79C20.8292 302.677 21.0625 302.517 21.2492 302.31C21.4425 302.097 21.5892 301.837 21.6892 301.53C21.7892 301.223 21.8392 300.88 21.8392 300.5C21.8392 300.12 21.7892 299.78 21.6892 299.48C21.5892 299.173 21.4425 298.913 21.2492 298.7C21.0558 298.487 20.8225 298.323 20.5492 298.21C20.2758 298.097 19.9625 298.04 19.6092 298.04H17.9392L17.9992 297.95V303.07ZM26.5896 304.1C26.0496 304.1 25.5696 303.987 25.1496 303.76C24.7363 303.527 24.4096 303.21 24.1696 302.81C23.9363 302.41 23.8196 301.95 23.8196 301.43C23.8196 301.017 23.8863 300.64 24.0196 300.3C24.153 299.96 24.3363 299.667 24.5696 299.42C24.8096 299.167 25.093 298.973 25.4196 298.84C25.753 298.7 26.113 298.63 26.4996 298.63C26.8396 298.63 27.1563 298.697 27.4496 298.83C27.743 298.957 27.9963 299.133 28.2096 299.36C28.4296 299.587 28.5963 299.857 28.7096 300.17C28.8296 300.477 28.8863 300.813 28.8796 301.18L28.8696 301.62H24.5796L24.3496 300.8H27.9796L27.8296 300.97V300.73C27.8096 300.51 27.7363 300.313 27.6096 300.14C27.483 299.967 27.323 299.83 27.1296 299.73C26.9363 299.63 26.7263 299.58 26.4996 299.58C26.1396 299.58 25.8363 299.65 25.5896 299.79C25.343 299.923 25.1563 300.123 25.0296 300.39C24.903 300.65 24.8396 300.973 24.8396 301.36C24.8396 301.727 24.9163 302.047 25.0696 302.32C25.223 302.587 25.4396 302.793 25.7196 302.94C25.9996 303.087 26.323 303.16 26.6896 303.16C26.9496 303.16 27.1896 303.117 27.4096 303.03C27.6363 302.943 27.8796 302.787 28.1396 302.56L28.6596 303.29C28.4996 303.45 28.303 303.59 28.0696 303.71C27.843 303.83 27.5996 303.927 27.3396 304C27.0863 304.067 26.8363 304.1 26.5896 304.1ZM29.999 304V298.75H31.039V300.4L30.939 300C31.0124 299.747 31.1357 299.517 31.309 299.31C31.489 299.103 31.6924 298.94 31.919 298.82C32.1524 298.7 32.3924 298.64 32.639 298.64C32.7524 298.64 32.859 298.65 32.959 298.67C33.0657 298.69 33.149 298.713 33.209 298.74L32.939 299.86C32.859 299.827 32.769 299.8 32.669 299.78C32.5757 299.753 32.4824 299.74 32.389 299.74C32.209 299.74 32.0357 299.777 31.869 299.85C31.709 299.917 31.5657 300.013 31.439 300.14C31.319 300.26 31.2224 300.403 31.149 300.57C31.0757 300.73 31.039 300.907 31.039 301.1V304H29.999ZM34.0122 304V298.75H35.0522V299.87L34.8622 299.99C34.9156 299.817 34.9989 299.65 35.1122 299.49C35.2322 299.33 35.3756 299.19 35.5422 299.07C35.7156 298.943 35.8989 298.843 36.0922 298.77C36.2922 298.697 36.4956 298.66 36.7022 298.66C37.0022 298.66 37.2656 298.71 37.4922 298.81C37.7189 298.91 37.9056 299.06 38.0522 299.26C38.1989 299.46 38.3056 299.71 38.3722 300.01L38.2122 299.97L38.2822 299.8C38.3556 299.647 38.4556 299.503 38.5822 299.37C38.7156 299.23 38.8656 299.107 39.0322 299C39.1989 298.893 39.3756 298.81 39.5622 298.75C39.7489 298.69 39.9322 298.66 40.1122 298.66C40.5056 298.66 40.8289 298.74 41.0822 298.9C41.3422 299.06 41.5356 299.303 41.6622 299.63C41.7956 299.957 41.8622 300.363 41.8622 300.85V304H40.8222V300.91C40.8222 300.61 40.7822 300.367 40.7022 300.18C40.6289 299.987 40.5156 299.843 40.3622 299.75C40.2089 299.657 40.0122 299.61 39.7722 299.61C39.5856 299.61 39.4089 299.643 39.2422 299.71C39.0822 299.77 38.9422 299.857 38.8222 299.97C38.7022 300.083 38.6089 300.217 38.5422 300.37C38.4756 300.517 38.4422 300.68 38.4422 300.86V304H37.4022V300.89C37.4022 300.617 37.3622 300.387 37.2822 300.2C37.2022 300.007 37.0856 299.86 36.9322 299.76C36.7789 299.66 36.5922 299.61 36.3722 299.61C36.1856 299.61 36.0122 299.643 35.8522 299.71C35.6922 299.77 35.5522 299.857 35.4322 299.97C35.3122 300.077 35.2189 300.207 35.1522 300.36C35.0856 300.507 35.0522 300.667 35.0522 300.84V304H34.0122ZM45.2612 304.1C44.8279 304.1 44.4312 303.98 44.0712 303.74C43.7179 303.5 43.4345 303.173 43.2212 302.76C43.0079 302.347 42.9012 301.88 42.9012 301.36C42.9012 300.833 43.0079 300.367 43.2212 299.96C43.4412 299.547 43.7345 299.223 44.1012 298.99C44.4745 298.757 44.8912 298.64 45.3512 298.64C45.6245 298.64 45.8745 298.68 46.1012 298.76C46.3279 298.84 46.5245 298.953 46.6912 299.1C46.8645 299.24 47.0045 299.403 47.1112 299.59C47.2245 299.777 47.2945 299.977 47.3212 300.19L47.0912 300.11V298.75H48.1312V304H47.0912V302.75L47.3312 302.68C47.2912 302.86 47.2079 303.037 47.0812 303.21C46.9612 303.377 46.8045 303.527 46.6112 303.66C46.4245 303.793 46.2145 303.9 45.9812 303.98C45.7545 304.06 45.5145 304.1 45.2612 304.1ZM45.5312 303.15C45.8445 303.15 46.1212 303.073 46.3612 302.92C46.6012 302.767 46.7879 302.557 46.9212 302.29C47.0612 302.017 47.1312 301.707 47.1312 301.36C47.1312 301.02 47.0612 300.717 46.9212 300.45C46.7879 300.183 46.6012 299.973 46.3612 299.82C46.1212 299.667 45.8445 299.59 45.5312 299.59C45.2245 299.59 44.9512 299.667 44.7112 299.82C44.4779 299.973 44.2912 300.183 44.1512 300.45C44.0179 300.717 43.9512 301.02 43.9512 301.36C43.9512 301.707 44.0179 302.017 44.1512 302.29C44.2912 302.557 44.4779 302.767 44.7112 302.92C44.9512 303.073 45.2245 303.15 45.5312 303.15ZM50.2193 304V297.41H51.2493V304H50.2193ZM49.1293 299.75V298.75H52.4693V299.75H49.1293ZM55.7184 304.1C55.2051 304.1 54.7451 303.983 54.3384 303.75C53.9384 303.51 53.6217 303.187 53.3884 302.78C53.1551 302.367 53.0384 301.897 53.0384 301.37C53.0384 300.843 53.1551 300.377 53.3884 299.97C53.6217 299.557 53.9384 299.233 54.3384 299C54.7451 298.76 55.2051 298.64 55.7184 298.64C56.2251 298.64 56.6784 298.76 57.0784 299C57.4851 299.233 57.8051 299.557 58.0384 299.97C58.2717 300.377 58.3884 300.843 58.3884 301.37C58.3884 301.897 58.2717 302.367 58.0384 302.78C57.8051 303.187 57.4851 303.51 57.0784 303.75C56.6784 303.983 56.2251 304.1 55.7184 304.1ZM55.7184 303.16C56.0317 303.16 56.3117 303.083 56.5584 302.93C56.8051 302.77 56.9984 302.557 57.1384 302.29C57.2784 302.017 57.3451 301.71 57.3384 301.37C57.3451 301.023 57.2784 300.717 57.1384 300.45C56.9984 300.177 56.8051 299.963 56.5584 299.81C56.3117 299.657 56.0317 299.58 55.7184 299.58C55.4051 299.58 55.1217 299.66 54.8684 299.82C54.6217 299.973 54.4284 300.187 54.2884 300.46C54.1484 300.727 54.0817 301.03 54.0884 301.37C54.0817 301.71 54.1484 302.017 54.2884 302.29C54.4284 302.557 54.6217 302.77 54.8684 302.93C55.1217 303.083 55.4051 303.16 55.7184 303.16ZM59.5307 304V296.6H60.5607V304H59.5307ZM64.2828 304.1C63.7695 304.1 63.3095 303.983 62.9028 303.75C62.5028 303.51 62.1862 303.187 61.9528 302.78C61.7195 302.367 61.6028 301.897 61.6028 301.37C61.6028 300.843 61.7195 300.377 61.9528 299.97C62.1862 299.557 62.5028 299.233 62.9028 299C63.3095 298.76 63.7695 298.64 64.2828 298.64C64.7895 298.64 65.2428 298.76 65.6428 299C66.0495 299.233 66.3695 299.557 66.6028 299.97C66.8362 300.377 66.9528 300.843 66.9528 301.37C66.9528 301.897 66.8362 302.367 66.6028 302.78C66.3695 303.187 66.0495 303.51 65.6428 303.75C65.2428 303.983 64.7895 304.1 64.2828 304.1ZM64.2828 303.16C64.5962 303.16 64.8762 303.083 65.1228 302.93C65.3695 302.77 65.5628 302.557 65.7028 302.29C65.8428 302.017 65.9095 301.71 65.9028 301.37C65.9095 301.023 65.8428 300.717 65.7028 300.45C65.5628 300.177 65.3695 299.963 65.1228 299.81C64.8762 299.657 64.5962 299.58 64.2828 299.58C63.9695 299.58 63.6862 299.66 63.4328 299.82C63.1862 299.973 62.9928 300.187 62.8528 300.46C62.7128 300.727 62.6462 301.03 62.6528 301.37C62.6462 301.71 62.7128 302.017 62.8528 302.29C62.9928 302.557 63.1862 302.77 63.4328 302.93C63.6862 303.083 63.9695 303.16 64.2828 303.16ZM70.4252 306.3C70.0519 306.3 69.6785 306.24 69.3052 306.12C68.9385 306.007 68.6419 305.857 68.4152 305.67L68.7952 304.87C68.9285 304.97 69.0852 305.057 69.2652 305.13C69.4452 305.21 69.6352 305.27 69.8352 305.31C70.0352 305.357 70.2319 305.38 70.4252 305.38C70.7919 305.38 71.0985 305.32 71.3452 305.2C71.5919 305.08 71.7785 304.903 71.9052 304.67C72.0319 304.437 72.0952 304.147 72.0952 303.8V302.79L72.2052 302.86C72.1719 303.067 72.0619 303.267 71.8752 303.46C71.6952 303.647 71.4685 303.8 71.1952 303.92C70.9219 304.04 70.6419 304.1 70.3552 304.1C69.8552 304.1 69.4085 303.983 69.0152 303.75C68.6285 303.51 68.3219 303.187 68.0952 302.78C67.8685 302.367 67.7552 301.897 67.7552 301.37C67.7552 300.843 67.8652 300.377 68.0852 299.97C68.3119 299.557 68.6185 299.233 69.0052 299C69.3985 298.76 69.8385 298.64 70.3252 298.64C70.5252 298.64 70.7185 298.667 70.9052 298.72C71.0919 298.767 71.2652 298.837 71.4252 298.93C71.5852 299.017 71.7285 299.113 71.8552 299.22C71.9819 299.327 72.0852 299.44 72.1652 299.56C72.2452 299.68 72.2952 299.793 72.3152 299.9L72.0952 299.98V298.75H73.1252V303.68C73.1252 304.1 73.0619 304.47 72.9352 304.79C72.8152 305.117 72.6385 305.39 72.4052 305.61C72.1719 305.837 71.8885 306.007 71.5552 306.12C71.2219 306.24 70.8452 306.3 70.4252 306.3ZM70.4652 303.15C70.7919 303.15 71.0819 303.073 71.3352 302.92C71.5885 302.767 71.7852 302.557 71.9252 302.29C72.0652 302.023 72.1352 301.717 72.1352 301.37C72.1352 301.023 72.0619 300.717 71.9152 300.45C71.7752 300.177 71.5785 299.963 71.3252 299.81C71.0785 299.657 70.7919 299.58 70.4652 299.58C70.1452 299.58 69.8585 299.66 69.6052 299.82C69.3585 299.973 69.1619 300.187 69.0152 300.46C68.8752 300.727 68.8052 301.03 68.8052 301.37C68.8052 301.71 68.8752 302.017 69.0152 302.29C69.1619 302.557 69.3585 302.767 69.6052 302.92C69.8585 303.073 70.1452 303.15 70.4652 303.15ZM75.4493 306.3L76.5093 303.85L76.5193 304.67L73.8993 298.75H75.0993L76.7393 302.61C76.7727 302.677 76.8127 302.78 76.8593 302.92C76.906 303.053 76.946 303.187 76.9793 303.32L76.7193 303.38C76.7727 303.24 76.8227 303.1 76.8693 302.96C76.9227 302.82 76.9727 302.68 77.0193 302.54L78.3893 298.75H79.6093L77.4493 304L76.5593 306.3H75.4493Z" fill="#667085"/>
<path d="M9.29461 344.1C8.80794 344.1 8.36128 344.013 7.95461 343.84C7.54794 343.667 7.19461 343.42 6.89461 343.1C6.59461 342.773 6.36128 342.39 6.19461 341.95C6.03461 341.51 5.95461 341.027 5.95461 340.5C5.95461 340 6.04128 339.537 6.21461 339.11C6.39461 338.677 6.64128 338.297 6.95461 337.97C7.26794 337.643 7.63128 337.39 8.04461 337.21C8.45794 337.03 8.90461 336.94 9.38461 336.94C9.72461 336.94 10.0546 336.993 10.3746 337.1C10.7013 337.2 10.9946 337.343 11.2546 337.53C11.5213 337.71 11.7379 337.917 11.9046 338.15L11.1846 338.9C10.9913 338.707 10.7946 338.547 10.5946 338.42C10.4013 338.287 10.2013 338.187 9.99461 338.12C9.79461 338.053 9.59128 338.02 9.38461 338.02C9.05794 338.02 8.75128 338.083 8.46461 338.21C8.18461 338.33 7.93794 338.5 7.72461 338.72C7.51794 338.94 7.35461 339.203 7.23461 339.51C7.11461 339.81 7.05461 340.14 7.05461 340.5C7.05461 340.88 7.11128 341.227 7.22461 341.54C7.34461 341.847 7.51128 342.11 7.72461 342.33C7.93794 342.55 8.19128 342.72 8.48461 342.84C8.78461 342.953 9.11461 343.01 9.47461 343.01C9.69461 343.01 9.91128 342.98 10.1246 342.92C10.3379 342.86 10.5379 342.773 10.7246 342.66C10.9113 342.547 11.0813 342.413 11.2346 342.26L11.7746 343.14C11.6213 343.32 11.4113 343.483 11.1446 343.63C10.8846 343.777 10.5913 343.893 10.2646 343.98C9.94461 344.06 9.62128 344.1 9.29461 344.1ZM15.0017 344.1C14.5684 344.1 14.1717 343.98 13.8117 343.74C13.4584 343.5 13.1751 343.173 12.9617 342.76C12.7484 342.347 12.6417 341.88 12.6417 341.36C12.6417 340.833 12.7484 340.367 12.9617 339.96C13.1817 339.547 13.4751 339.223 13.8417 338.99C14.2151 338.757 14.6317 338.64 15.0917 338.64C15.3651 338.64 15.6151 338.68 15.8417 338.76C16.0684 338.84 16.2651 338.953 16.4317 339.1C16.6051 339.24 16.7451 339.403 16.8517 339.59C16.9651 339.777 17.0351 339.977 17.0617 340.19L16.8317 340.11V338.75H17.8717V344H16.8317V342.75L17.0717 342.68C17.0317 342.86 16.9484 343.037 16.8217 343.21C16.7017 343.377 16.5451 343.527 16.3517 343.66C16.1651 343.793 15.9551 343.9 15.7217 343.98C15.4951 344.06 15.2551 344.1 15.0017 344.1ZM15.2717 343.15C15.5851 343.15 15.8617 343.073 16.1017 342.92C16.3417 342.767 16.5284 342.557 16.6617 342.29C16.8017 342.017 16.8717 341.707 16.8717 341.36C16.8717 341.02 16.8017 340.717 16.6617 340.45C16.5284 340.183 16.3417 339.973 16.1017 339.82C15.8617 339.667 15.5851 339.59 15.2717 339.59C14.9651 339.59 14.6917 339.667 14.4517 339.82C14.2184 339.973 14.0317 340.183 13.8917 340.45C13.7584 340.717 13.6917 341.02 13.6917 341.36C13.6917 341.707 13.7584 342.017 13.8917 342.29C14.0317 342.557 14.2184 342.767 14.4517 342.92C14.6917 343.073 14.9651 343.15 15.2717 343.15ZM19.3098 344V338.75H20.3498V340.4L20.2498 340C20.3232 339.747 20.4465 339.517 20.6198 339.31C20.7998 339.103 21.0032 338.94 21.2298 338.82C21.4632 338.7 21.7032 338.64 21.9498 338.64C22.0632 338.64 22.1698 338.65 22.2698 338.67C22.3765 338.69 22.4598 338.713 22.5198 338.74L22.2498 339.86C22.1698 339.827 22.0798 339.8 21.9798 339.78C21.8865 339.753 21.7932 339.74 21.6998 339.74C21.5198 339.74 21.3465 339.777 21.1798 339.85C21.0198 339.917 20.8765 340.013 20.7498 340.14C20.6298 340.26 20.5332 340.403 20.4598 340.57C20.3865 340.73 20.3498 340.907 20.3498 341.1V344H19.3098ZM25.3084 344.1C24.8284 344.1 24.3984 343.983 24.0184 343.75C23.6451 343.51 23.3484 343.187 23.1284 342.78C22.9084 342.367 22.7984 341.897 22.7984 341.37C22.7984 340.843 22.9051 340.377 23.1184 339.97C23.3384 339.557 23.6351 339.233 24.0084 339C24.3818 338.76 24.8051 338.64 25.2784 338.64C25.5384 338.64 25.7884 338.683 26.0284 338.77C26.2751 338.85 26.4951 338.963 26.6884 339.11C26.8818 339.25 27.0318 339.407 27.1384 339.58C27.2518 339.747 27.3084 339.917 27.3084 340.09L27.0084 340.11V336.6H28.0384V344H27.0084V342.75H27.2084C27.2084 342.91 27.1551 343.07 27.0484 343.23C26.9418 343.383 26.7984 343.527 26.6184 343.66C26.4451 343.793 26.2418 343.9 26.0084 343.98C25.7818 344.06 25.5484 344.1 25.3084 344.1ZM25.4484 343.21C25.7618 343.21 26.0384 343.13 26.2784 342.97C26.5184 342.81 26.7051 342.593 26.8384 342.32C26.9784 342.04 27.0484 341.723 27.0484 341.37C27.0484 341.017 26.9784 340.703 26.8384 340.43C26.7051 340.15 26.5184 339.93 26.2784 339.77C26.0384 339.61 25.7618 339.53 25.4484 339.53C25.1351 339.53 24.8584 339.61 24.6184 339.77C24.3784 339.93 24.1884 340.15 24.0484 340.43C23.9151 340.703 23.8484 341.017 23.8484 341.37C23.8484 341.723 23.9151 342.04 24.0484 342.32C24.1884 342.593 24.3784 342.81 24.6184 342.97C24.8584 343.13 25.1351 343.21 25.4484 343.21ZM29.6263 344V338.75H30.6563V344H29.6263ZM30.1263 337.59C29.9063 337.59 29.7363 337.533 29.6163 337.42C29.4963 337.307 29.4363 337.147 29.4363 336.94C29.4363 336.747 29.4963 336.59 29.6163 336.47C29.743 336.35 29.913 336.29 30.1263 336.29C30.3463 336.29 30.5163 336.347 30.6363 336.46C30.7563 336.573 30.8163 336.733 30.8163 336.94C30.8163 337.133 30.753 337.29 30.6263 337.41C30.5063 337.53 30.3397 337.59 30.1263 337.59ZM34.5995 344.1C34.0862 344.1 33.6262 343.983 33.2195 343.75C32.8195 343.51 32.5029 343.187 32.2695 342.78C32.0362 342.367 31.9195 341.897 31.9195 341.37C31.9195 340.843 32.0362 340.377 32.2695 339.97C32.5029 339.557 32.8195 339.233 33.2195 339C33.6262 338.76 34.0862 338.64 34.5995 338.64C35.1062 338.64 35.5595 338.76 35.9595 339C36.3662 339.233 36.6862 339.557 36.9195 339.97C37.1529 340.377 37.2695 340.843 37.2695 341.37C37.2695 341.897 37.1529 342.367 36.9195 342.78C36.6862 343.187 36.3662 343.51 35.9595 343.75C35.5595 343.983 35.1062 344.1 34.5995 344.1ZM34.5995 343.16C34.9129 343.16 35.1929 343.083 35.4395 342.93C35.6862 342.77 35.8795 342.557 36.0195 342.29C36.1595 342.017 36.2262 341.71 36.2195 341.37C36.2262 341.023 36.1595 340.717 36.0195 340.45C35.8795 340.177 35.6862 339.963 35.4395 339.81C35.1929 339.657 34.9129 339.58 34.5995 339.58C34.2862 339.58 34.0029 339.66 33.7495 339.82C33.5029 339.973 33.3095 340.187 33.1695 340.46C33.0295 340.727 32.9629 341.03 32.9695 341.37C32.9629 341.71 33.0295 342.017 33.1695 342.29C33.3095 342.557 33.5029 342.77 33.7495 342.93C34.0029 343.083 34.2862 343.16 34.5995 343.16ZM39.9654 344L37.7454 338.75H38.8554L40.4554 342.68L40.2654 342.77L41.9754 338.75H43.0354L40.7054 344H39.9654ZM45.8513 344.1C45.418 344.1 45.0213 343.98 44.6613 343.74C44.308 343.5 44.0247 343.173 43.8113 342.76C43.598 342.347 43.4913 341.88 43.4913 341.36C43.4913 340.833 43.598 340.367 43.8113 339.96C44.0313 339.547 44.3247 339.223 44.6913 338.99C45.0647 338.757 45.4813 338.64 45.9413 338.64C46.2147 338.64 46.4647 338.68 46.6913 338.76C46.918 338.84 47.1147 338.953 47.2813 339.1C47.4547 339.24 47.5947 339.403 47.7013 339.59C47.8147 339.777 47.8847 339.977 47.9113 340.19L47.6813 340.11V338.75H48.7213V344H47.6813V342.75L47.9213 342.68C47.8813 342.86 47.798 343.037 47.6713 343.21C47.5513 343.377 47.3947 343.527 47.2013 343.66C47.0147 343.793 46.8047 343.9 46.5713 343.98C46.3447 344.06 46.1047 344.1 45.8513 344.1ZM46.1213 343.15C46.4347 343.15 46.7113 343.073 46.9513 342.92C47.1913 342.767 47.378 342.557 47.5113 342.29C47.6513 342.017 47.7213 341.707 47.7213 341.36C47.7213 341.02 47.6513 340.717 47.5113 340.45C47.378 340.183 47.1913 339.973 46.9513 339.82C46.7113 339.667 46.4347 339.59 46.1213 339.59C45.8147 339.59 45.5413 339.667 45.3013 339.82C45.068 339.973 44.8813 340.183 44.7413 340.45C44.608 340.717 44.5413 341.02 44.5413 341.36C44.5413 341.707 44.608 342.017 44.7413 342.29C44.8813 342.557 45.068 342.767 45.3013 342.92C45.5413 343.073 45.8147 343.15 46.1213 343.15ZM51.9095 344.1C51.4695 344.1 51.0728 344.023 50.7195 343.87C50.3661 343.717 50.0728 343.49 49.8395 343.19L50.5395 342.59C50.7395 342.823 50.9561 342.993 51.1895 343.1C51.4295 343.2 51.6995 343.25 51.9995 343.25C52.1195 343.25 52.2295 343.237 52.3295 343.21C52.4361 343.177 52.5261 343.13 52.5995 343.07C52.6795 343.01 52.7395 342.94 52.7795 342.86C52.8195 342.773 52.8395 342.68 52.8395 342.58C52.8395 342.407 52.7761 342.267 52.6495 342.16C52.5828 342.113 52.4761 342.063 52.3295 342.01C52.1895 341.95 52.0061 341.89 51.7795 341.83C51.3928 341.73 51.0761 341.617 50.8295 341.49C50.5828 341.363 50.3928 341.22 50.2595 341.06C50.1595 340.933 50.0861 340.797 50.0395 340.65C49.9928 340.497 49.9695 340.33 49.9695 340.15C49.9695 339.93 50.0161 339.73 50.1095 339.55C50.2095 339.363 50.3428 339.203 50.5095 339.07C50.6828 338.93 50.8828 338.823 51.1095 338.75C51.3428 338.677 51.5895 338.64 51.8495 338.64C52.0961 338.64 52.3395 338.673 52.5795 338.74C52.8261 338.807 53.0528 338.903 53.2595 339.03C53.4661 339.157 53.6395 339.307 53.7795 339.48L53.1895 340.13C53.0628 340.003 52.9228 339.893 52.7695 339.8C52.6228 339.7 52.4728 339.623 52.3195 339.57C52.1661 339.517 52.0261 339.49 51.8995 339.49C51.7595 339.49 51.6328 339.503 51.5195 339.53C51.4061 339.557 51.3095 339.597 51.2295 339.65C51.1561 339.703 51.0995 339.77 51.0595 339.85C51.0195 339.93 50.9995 340.02 50.9995 340.12C51.0061 340.207 51.0261 340.29 51.0595 340.37C51.0995 340.443 51.1528 340.507 51.2195 340.56C51.2928 340.613 51.4028 340.67 51.5495 340.73C51.6961 340.79 51.8828 340.847 52.1095 340.9C52.4428 340.987 52.7161 341.083 52.9295 341.19C53.1495 341.29 53.3228 341.407 53.4495 341.54C53.5828 341.667 53.6761 341.813 53.7295 341.98C53.7828 342.147 53.8095 342.333 53.8095 342.54C53.8095 342.84 53.7228 343.11 53.5495 343.35C53.3828 343.583 53.1561 343.767 52.8695 343.9C52.5828 344.033 52.2628 344.1 51.9095 344.1ZM57.1746 344.1C56.6879 344.1 56.2513 343.98 55.8646 343.74C55.4846 343.5 55.1813 343.173 54.9546 342.76C54.7346 342.347 54.6246 341.883 54.6246 341.37C54.6246 340.857 54.7346 340.393 54.9546 339.98C55.1813 339.567 55.4846 339.24 55.8646 339C56.2513 338.76 56.6879 338.64 57.1746 338.64C57.6413 338.64 58.0646 338.737 58.4446 338.93C58.8313 339.117 59.1246 339.373 59.3246 339.7L58.7546 340.4C58.6479 340.247 58.5113 340.107 58.3446 339.98C58.1779 339.853 58.0013 339.753 57.8146 339.68C57.6279 339.607 57.4479 339.57 57.2746 339.57C56.9546 339.57 56.6679 339.65 56.4146 339.81C56.1679 339.963 55.9713 340.177 55.8246 340.45C55.6779 340.723 55.6046 341.03 55.6046 341.37C55.6046 341.71 55.6813 342.017 55.8346 342.29C55.9879 342.557 56.1913 342.77 56.4446 342.93C56.6979 343.09 56.9779 343.17 57.2846 343.17C57.4646 343.17 57.6379 343.14 57.8046 343.08C57.9779 343.02 58.1446 342.93 58.3046 342.81C58.4646 342.69 58.6146 342.543 58.7546 342.37L59.3246 343.07C59.1113 343.37 58.8046 343.617 58.4046 343.81C58.0113 344.003 57.6013 344.1 57.1746 344.1ZM62.1362 344.1C61.7628 344.1 61.4362 344.013 61.1562 343.84C60.8828 343.667 60.6695 343.423 60.5162 343.11C60.3695 342.797 60.2962 342.423 60.2962 341.99V338.75H61.3262V341.71C61.3262 342.017 61.3728 342.283 61.4662 342.51C61.5662 342.73 61.7062 342.9 61.8862 343.02C62.0728 343.14 62.2962 343.2 62.5562 343.2C62.7495 343.2 62.9262 343.17 63.0862 343.11C63.2462 343.043 63.3828 342.953 63.4962 342.84C63.6162 342.727 63.7095 342.59 63.7762 342.43C63.8428 342.27 63.8762 342.097 63.8762 341.91V338.75H64.9062V344H63.8762V342.9L64.0562 342.78C63.9762 343.027 63.8395 343.25 63.6462 343.45C63.4595 343.65 63.2362 343.81 62.9762 343.93C62.7162 344.043 62.4362 344.1 62.1362 344.1ZM66.3709 344V336.6H67.4009V344H66.3709ZM70.783 344.1C70.3496 344.1 69.953 343.98 69.593 343.74C69.2396 343.5 68.9563 343.173 68.743 342.76C68.5296 342.347 68.423 341.88 68.423 341.36C68.423 340.833 68.5296 340.367 68.743 339.96C68.963 339.547 69.2563 339.223 69.623 338.99C69.9963 338.757 70.413 338.64 70.873 338.64C71.1463 338.64 71.3963 338.68 71.623 338.76C71.8496 338.84 72.0463 338.953 72.213 339.1C72.3863 339.24 72.5263 339.403 72.633 339.59C72.7463 339.777 72.8163 339.977 72.843 340.19L72.613 340.11V338.75H73.653V344H72.613V342.75L72.853 342.68C72.813 342.86 72.7296 343.037 72.603 343.21C72.483 343.377 72.3263 343.527 72.133 343.66C71.9463 343.793 71.7363 343.9 71.503 343.98C71.2763 344.06 71.0363 344.1 70.783 344.1ZM71.053 343.15C71.3663 343.15 71.643 343.073 71.883 342.92C72.123 342.767 72.3096 342.557 72.443 342.29C72.583 342.017 72.653 341.707 72.653 341.36C72.653 341.02 72.583 340.717 72.443 340.45C72.3096 340.183 72.123 339.973 71.883 339.82C71.643 339.667 71.3663 339.59 71.053 339.59C70.7463 339.59 70.473 339.667 70.233 339.82C69.9996 339.973 69.813 340.183 69.673 340.45C69.5396 340.717 69.473 341.02 69.473 341.36C69.473 341.707 69.5396 342.017 69.673 342.29C69.813 342.557 69.9996 342.767 70.233 342.92C70.473 343.073 70.7463 343.15 71.053 343.15ZM75.0911 344V338.75H76.1311V340.4L76.0311 340C76.1044 339.747 76.2278 339.517 76.4011 339.31C76.5811 339.103 76.7844 338.94 77.0111 338.82C77.2444 338.7 77.4844 338.64 77.7311 338.64C77.8444 338.64 77.9511 338.65 78.0511 338.67C78.1578 338.69 78.2411 338.713 78.3011 338.74L78.0311 339.86C77.9511 339.827 77.8611 339.8 77.7611 339.78C77.6678 339.753 77.5744 339.74 77.4811 339.74C77.3011 339.74 77.1278 339.777 76.9611 339.85C76.8011 339.917 76.6578 340.013 76.5311 340.14C76.4111 340.26 76.3144 340.403 76.2411 340.57C76.1678 340.73 76.1311 340.907 76.1311 341.1V344H75.0911Z" fill="#667085"/>
<path d="M19.8968 144.1C19.3902 144.1 18.9168 144.01 18.4768 143.83C18.0368 143.643 17.6502 143.387 17.3168 143.06C16.9835 142.733 16.7235 142.353 16.5368 141.92C16.3568 141.48 16.2668 141.007 16.2668 140.5C16.2668 140 16.3568 139.533 16.5368 139.1C16.7235 138.667 16.9802 138.29 17.3068 137.97C17.6402 137.643 18.0268 137.39 18.4668 137.21C18.9068 137.03 19.3802 136.94 19.8868 136.94C20.2402 136.94 20.5835 136.99 20.9168 137.09C21.2568 137.19 21.5635 137.33 21.8368 137.51C22.1102 137.69 22.3335 137.897 22.5068 138.13L21.8068 138.86C21.6068 138.667 21.4002 138.507 21.1868 138.38C20.9802 138.253 20.7668 138.157 20.5468 138.09C20.3268 138.023 20.1068 137.99 19.8868 137.99C19.5268 137.99 19.1935 138.053 18.8868 138.18C18.5868 138.307 18.3202 138.483 18.0868 138.71C17.8602 138.937 17.6835 139.203 17.5568 139.51C17.4302 139.81 17.3668 140.14 17.3668 140.5C17.3668 140.847 17.4335 141.177 17.5668 141.49C17.7002 141.797 17.8835 142.067 18.1168 142.3C18.3568 142.533 18.6302 142.717 18.9368 142.85C19.2502 142.983 19.5802 143.05 19.9268 143.05C20.1868 143.05 20.4335 143.013 20.6668 142.94C20.9002 142.86 21.1068 142.75 21.2868 142.61C21.4668 142.47 21.6068 142.31 21.7068 142.13C21.8068 141.943 21.8568 141.747 21.8568 141.54V141.34L22.0068 141.48H19.8668V140.41H22.9668C22.9802 140.483 22.9902 140.557 22.9968 140.63C23.0035 140.697 23.0068 140.763 23.0068 140.83C23.0135 140.89 23.0168 140.95 23.0168 141.01C23.0168 141.47 22.9368 141.89 22.7768 142.27C22.6168 142.643 22.3935 142.967 22.1068 143.24C21.8268 143.513 21.4968 143.727 21.1168 143.88C20.7435 144.027 20.3368 144.1 19.8968 144.1ZM25.0431 146.3L26.1031 143.85L26.1131 144.67L23.4931 138.75H24.6931L26.3331 142.61C26.3664 142.677 26.4064 142.78 26.4531 142.92C26.4997 143.053 26.5397 143.187 26.5731 143.32L26.3131 143.38C26.3664 143.24 26.4164 143.1 26.4631 142.96C26.5164 142.82 26.5664 142.68 26.6131 142.54L27.9831 138.75H29.2031L27.0431 144L26.1531 146.3H25.0431ZM31.896 144.1C31.4626 144.1 31.066 143.98 30.706 143.74C30.3526 143.5 30.0693 143.173 29.856 142.76C29.6426 142.347 29.536 141.88 29.536 141.36C29.536 140.833 29.6426 140.367 29.856 139.96C30.076 139.547 30.3693 139.223 30.736 138.99C31.1093 138.757 31.526 138.64 31.986 138.64C32.2593 138.64 32.5093 138.68 32.736 138.76C32.9626 138.84 33.1593 138.953 33.326 139.1C33.4993 139.24 33.6393 139.403 33.746 139.59C33.8593 139.777 33.9293 139.977 33.956 140.19L33.726 140.11V138.75H34.766V144H33.726V142.75L33.966 142.68C33.926 142.86 33.8426 143.037 33.716 143.21C33.596 143.377 33.4393 143.527 33.246 143.66C33.0593 143.793 32.8493 143.9 32.616 143.98C32.3893 144.06 32.1493 144.1 31.896 144.1ZM32.166 143.15C32.4793 143.15 32.756 143.073 32.996 142.92C33.236 142.767 33.4226 142.557 33.556 142.29C33.696 142.017 33.766 141.707 33.766 141.36C33.766 141.02 33.696 140.717 33.556 140.45C33.4226 140.183 33.236 139.973 32.996 139.82C32.756 139.667 32.4793 139.59 32.166 139.59C31.8593 139.59 31.586 139.667 31.346 139.82C31.1126 139.973 30.926 140.183 30.786 140.45C30.6526 140.717 30.586 141.02 30.586 141.36C30.586 141.707 30.6526 142.017 30.786 142.29C30.926 142.557 31.1126 142.767 31.346 142.92C31.586 143.073 31.8593 143.15 32.166 143.15ZM36.2041 144V138.75H37.2341V139.83L37.0541 139.95C37.1208 139.717 37.2508 139.503 37.4441 139.31C37.6374 139.11 37.8674 138.95 38.1341 138.83C38.4008 138.703 38.6741 138.64 38.9541 138.64C39.3541 138.64 39.6874 138.72 39.9541 138.88C40.2208 139.033 40.4208 139.27 40.5541 139.59C40.6874 139.91 40.7541 140.313 40.7541 140.8V144H39.7241V140.87C39.7241 140.57 39.6841 140.323 39.6041 140.13C39.5241 139.93 39.4008 139.787 39.2341 139.7C39.0674 139.607 38.8608 139.567 38.6141 139.58C38.4141 139.58 38.2308 139.613 38.0641 139.68C37.8974 139.74 37.7508 139.827 37.6241 139.94C37.5041 140.053 37.4074 140.187 37.3341 140.34C37.2674 140.487 37.2341 140.647 37.2341 140.82V144H36.7241C36.6374 144 36.5508 144 36.4641 144C36.3774 144 36.2908 144 36.2041 144ZM44.6014 144.1C44.0614 144.1 43.5814 143.987 43.1614 143.76C42.748 143.527 42.4214 143.21 42.1814 142.81C41.948 142.41 41.8314 141.95 41.8314 141.43C41.8314 141.017 41.898 140.64 42.0314 140.3C42.1647 139.96 42.348 139.667 42.5814 139.42C42.8214 139.167 43.1047 138.973 43.4314 138.84C43.7647 138.7 44.1247 138.63 44.5114 138.63C44.8514 138.63 45.168 138.697 45.4614 138.83C45.7547 138.957 46.008 139.133 46.2214 139.36C46.4414 139.587 46.608 139.857 46.7214 140.17C46.8414 140.477 46.898 140.813 46.8914 141.18L46.8814 141.62H42.5914L42.3614 140.8H45.9914L45.8414 140.97V140.73C45.8214 140.51 45.748 140.313 45.6214 140.14C45.4947 139.967 45.3347 139.83 45.1414 139.73C44.948 139.63 44.738 139.58 44.5114 139.58C44.1514 139.58 43.848 139.65 43.6014 139.79C43.3547 139.923 43.168 140.123 43.0414 140.39C42.9147 140.65 42.8514 140.973 42.8514 141.36C42.8514 141.727 42.928 142.047 43.0814 142.32C43.2347 142.587 43.4514 142.793 43.7314 142.94C44.0114 143.087 44.3347 143.16 44.7014 143.16C44.9614 143.16 45.2014 143.117 45.4214 143.03C45.648 142.943 45.8914 142.787 46.1514 142.56L46.6714 143.29C46.5114 143.45 46.3147 143.59 46.0814 143.71C45.8547 143.83 45.6114 143.927 45.3514 144C45.098 144.067 44.848 144.1 44.6014 144.1ZM50.2407 144.1C49.7541 144.1 49.3174 143.98 48.9307 143.74C48.5507 143.5 48.2474 143.173 48.0207 142.76C47.8007 142.347 47.6907 141.883 47.6907 141.37C47.6907 140.857 47.8007 140.393 48.0207 139.98C48.2474 139.567 48.5507 139.24 48.9307 139C49.3174 138.76 49.7541 138.64 50.2407 138.64C50.7074 138.64 51.1307 138.737 51.5107 138.93C51.8974 139.117 52.1907 139.373 52.3907 139.7L51.8207 140.4C51.7141 140.247 51.5774 140.107 51.4107 139.98C51.2441 139.853 51.0674 139.753 50.8807 139.68C50.6941 139.607 50.5141 139.57 50.3407 139.57C50.0207 139.57 49.7341 139.65 49.4807 139.81C49.2341 139.963 49.0374 140.177 48.8907 140.45C48.7441 140.723 48.6707 141.03 48.6707 141.37C48.6707 141.71 48.7474 142.017 48.9007 142.29C49.0541 142.557 49.2574 142.77 49.5107 142.93C49.7641 143.09 50.0441 143.17 50.3507 143.17C50.5307 143.17 50.7041 143.14 50.8707 143.08C51.0441 143.02 51.2107 142.93 51.3707 142.81C51.5307 142.69 51.6807 142.543 51.8207 142.37L52.3907 143.07C52.1774 143.37 51.8707 143.617 51.4707 143.81C51.0774 144.003 50.6674 144.1 50.2407 144.1ZM55.7223 144.1C55.209 144.1 54.749 143.983 54.3423 143.75C53.9423 143.51 53.6256 143.187 53.3923 142.78C53.159 142.367 53.0423 141.897 53.0423 141.37C53.0423 140.843 53.159 140.377 53.3923 139.97C53.6256 139.557 53.9423 139.233 54.3423 139C54.749 138.76 55.209 138.64 55.7223 138.64C56.229 138.64 56.6823 138.76 57.0823 139C57.489 139.233 57.809 139.557 58.0423 139.97C58.2756 140.377 58.3923 140.843 58.3923 141.37C58.3923 141.897 58.2756 142.367 58.0423 142.78C57.809 143.187 57.489 143.51 57.0823 143.75C56.6823 143.983 56.229 144.1 55.7223 144.1ZM55.7223 143.16C56.0356 143.16 56.3156 143.083 56.5623 142.93C56.809 142.77 57.0023 142.557 57.1423 142.29C57.2823 142.017 57.349 141.71 57.3423 141.37C57.349 141.023 57.2823 140.717 57.1423 140.45C57.0023 140.177 56.809 139.963 56.5623 139.81C56.3156 139.657 56.0356 139.58 55.7223 139.58C55.409 139.58 55.1256 139.66 54.8723 139.82C54.6256 139.973 54.4323 140.187 54.2923 140.46C54.1523 140.727 54.0856 141.03 54.0923 141.37C54.0856 141.71 54.1523 142.017 54.2923 142.29C54.4323 142.557 54.6256 142.77 54.8723 142.93C55.1256 143.083 55.409 143.16 55.7223 143.16ZM59.5346 144V136.6H60.5646V144H59.5346ZM64.2868 144.1C63.7734 144.1 63.3134 143.983 62.9068 143.75C62.5068 143.51 62.1901 143.187 61.9568 142.78C61.7234 142.367 61.6068 141.897 61.6068 141.37C61.6068 140.843 61.7234 140.377 61.9568 139.97C62.1901 139.557 62.5068 139.233 62.9068 139C63.3134 138.76 63.7734 138.64 64.2868 138.64C64.7934 138.64 65.2468 138.76 65.6468 139C66.0534 139.233 66.3734 139.557 66.6068 139.97C66.8401 140.377 66.9568 140.843 66.9568 141.37C66.9568 141.897 66.8401 142.367 66.6068 142.78C66.3734 143.187 66.0534 143.51 65.6468 143.75C65.2468 143.983 64.7934 144.1 64.2868 144.1ZM64.2868 143.16C64.6001 143.16 64.8801 143.083 65.1268 142.93C65.3734 142.77 65.5668 142.557 65.7068 142.29C65.8468 142.017 65.9134 141.71 65.9068 141.37C65.9134 141.023 65.8468 140.717 65.7068 140.45C65.5668 140.177 65.3734 139.963 65.1268 139.81C64.8801 139.657 64.6001 139.58 64.2868 139.58C63.9734 139.58 63.6901 139.66 63.4368 139.82C63.1901 139.973 62.9968 140.187 62.8568 140.46C62.7168 140.727 62.6501 141.03 62.6568 141.37C62.6501 141.71 62.7168 142.017 62.8568 142.29C62.9968 142.557 63.1901 142.77 63.4368 142.93C63.6901 143.083 63.9734 143.16 64.2868 143.16ZM70.4291 146.3C70.0558 146.3 69.6824 146.24 69.3091 146.12C68.9424 146.007 68.6458 145.857 68.4191 145.67L68.7991 144.87C68.9324 144.97 69.0891 145.057 69.2691 145.13C69.4491 145.21 69.6391 145.27 69.8391 145.31C70.0391 145.357 70.2358 145.38 70.4291 145.38C70.7958 145.38 71.1024 145.32 71.3491 145.2C71.5958 145.08 71.7824 144.903 71.9091 144.67C72.0358 144.437 72.0991 144.147 72.0991 143.8V142.79L72.2091 142.86C72.1758 143.067 72.0658 143.267 71.8791 143.46C71.6991 143.647 71.4724 143.8 71.1991 143.92C70.9258 144.04 70.6458 144.1 70.3591 144.1C69.8591 144.1 69.4124 143.983 69.0191 143.75C68.6324 143.51 68.3258 143.187 68.0991 142.78C67.8724 142.367 67.7591 141.897 67.7591 141.37C67.7591 140.843 67.8691 140.377 68.0891 139.97C68.3158 139.557 68.6224 139.233 69.0091 139C69.4024 138.76 69.8424 138.64 70.3291 138.64C70.5291 138.64 70.7224 138.667 70.9091 138.72C71.0958 138.767 71.2691 138.837 71.4291 138.93C71.5891 139.017 71.7324 139.113 71.8591 139.22C71.9858 139.327 72.0891 139.44 72.1691 139.56C72.2491 139.68 72.2991 139.793 72.3191 139.9L72.0991 139.98V138.75H73.1291V143.68C73.1291 144.1 73.0658 144.47 72.9391 144.79C72.8191 145.117 72.6424 145.39 72.4091 145.61C72.1758 145.837 71.8924 146.007 71.5591 146.12C71.2258 146.24 70.8491 146.3 70.4291 146.3ZM70.4691 143.15C70.7958 143.15 71.0858 143.073 71.3391 142.92C71.5924 142.767 71.7891 142.557 71.9291 142.29C72.0691 142.023 72.1391 141.717 72.1391 141.37C72.1391 141.023 72.0658 140.717 71.9191 140.45C71.7791 140.177 71.5824 139.963 71.3291 139.81C71.0824 139.657 70.7958 139.58 70.4691 139.58C70.1491 139.58 69.8624 139.66 69.6091 139.82C69.3624 139.973 69.1658 140.187 69.0191 140.46C68.8791 140.727 68.8091 141.03 68.8091 141.37C68.8091 141.71 68.8791 142.017 69.0191 142.29C69.1658 142.557 69.3624 142.767 69.6091 142.92C69.8624 143.073 70.1491 143.15 70.4691 143.15ZM75.4532 146.3L76.5132 143.85L76.5232 144.67L73.9032 138.75H75.1032L76.7432 142.61C76.7766 142.677 76.8166 142.78 76.8632 142.92C76.9099 143.053 76.9499 143.187 76.9832 143.32L76.7232 143.38C76.7766 143.24 76.8266 143.1 76.8732 142.96C76.9266 142.82 76.9766 142.68 77.0232 142.54L78.3932 138.75H79.6132L77.4532 144L76.5632 146.3H75.4532Z" fill="#667085"/>
<path d="M4.85428 104.1C4.34761 104.1 3.87428 104.01 3.43428 103.83C2.99428 103.643 2.60761 103.387 2.27428 103.06C1.94094 102.733 1.68094 102.353 1.49428 101.92C1.31428 101.48 1.22428 101.007 1.22428 100.5C1.22428 100 1.31428 99.5333 1.49428 99.1C1.68094 98.6667 1.93761 98.29 2.26428 97.97C2.59761 97.6433 2.98428 97.39 3.42428 97.21C3.86428 97.03 4.33761 96.94 4.84428 96.94C5.19761 96.94 5.54094 96.99 5.87428 97.09C6.21428 97.19 6.52094 97.33 6.79428 97.51C7.06761 97.69 7.29094 97.8967 7.46428 98.13L6.76428 98.86C6.56428 98.6667 6.35761 98.5067 6.14428 98.38C5.93761 98.2533 5.72428 98.1567 5.50428 98.09C5.28428 98.0233 5.06428 97.99 4.84428 97.99C4.48428 97.99 4.15094 98.0533 3.84428 98.18C3.54428 98.3067 3.27761 98.4833 3.04428 98.71C2.81761 98.9367 2.64094 99.2033 2.51428 99.51C2.38761 99.81 2.32428 100.14 2.32428 100.5C2.32428 100.847 2.39094 101.177 2.52428 101.49C2.65761 101.797 2.84094 102.067 3.07428 102.3C3.31428 102.533 3.58761 102.717 3.89428 102.85C4.20761 102.983 4.53761 103.05 4.88428 103.05C5.14428 103.05 5.39094 103.013 5.62428 102.94C5.85761 102.86 6.06428 102.75 6.24428 102.61C6.42428 102.47 6.56428 102.31 6.66428 102.13C6.76428 101.943 6.81428 101.747 6.81428 101.54V101.34L6.96428 101.48H4.82428V100.41H7.92428C7.93761 100.483 7.94761 100.557 7.95428 100.63C7.96095 100.697 7.96428 100.763 7.96428 100.83C7.97095 100.89 7.97428 100.95 7.97428 101.01C7.97428 101.47 7.89428 101.89 7.73428 102.27C7.57428 102.643 7.35094 102.967 7.06428 103.24C6.78428 103.513 6.45428 103.727 6.07428 103.88C5.70094 104.027 5.29428 104.1 4.85428 104.1ZM11.5705 104.1C11.0305 104.1 10.5505 103.987 10.1305 103.76C9.71719 103.527 9.39053 103.21 9.15053 102.81C8.91719 102.41 8.80053 101.95 8.80053 101.43C8.80053 101.017 8.86719 100.64 9.00053 100.3C9.13386 99.96 9.31719 99.6667 9.55053 99.42C9.79053 99.1667 10.0739 98.9733 10.4005 98.84C10.7339 98.7 11.0939 98.63 11.4805 98.63C11.8205 98.63 12.1372 98.6967 12.4305 98.83C12.7239 98.9567 12.9772 99.1333 13.1905 99.36C13.4105 99.5867 13.5772 99.8567 13.6905 100.17C13.8105 100.477 13.8672 100.813 13.8605 101.18L13.8505 101.62H9.56053L9.33053 100.8H12.9605L12.8105 100.97V100.73C12.7905 100.51 12.7172 100.313 12.5905 100.14C12.4639 99.9667 12.3039 99.83 12.1105 99.73C11.9172 99.63 11.7072 99.58 11.4805 99.58C11.1205 99.58 10.8172 99.65 10.5705 99.79C10.3239 99.9233 10.1372 100.123 10.0105 100.39C9.88386 100.65 9.82053 100.973 9.82053 101.36C9.82053 101.727 9.89719 102.047 10.0505 102.32C10.2039 102.587 10.4205 102.793 10.7005 102.94C10.9805 103.087 11.3039 103.16 11.6705 103.16C11.9305 103.16 12.1705 103.117 12.3905 103.03C12.6172 102.943 12.8605 102.787 13.1205 102.56L13.6405 103.29C13.4805 103.45 13.2839 103.59 13.0505 103.71C12.8239 103.83 12.5805 103.927 12.3205 104C12.0672 104.067 11.8172 104.1 11.5705 104.1ZM14.9799 104V98.75H16.0099V99.83L15.8299 99.95C15.8966 99.7167 16.0266 99.5033 16.2199 99.31C16.4132 99.11 16.6432 98.95 16.9099 98.83C17.1766 98.7033 17.4499 98.64 17.7299 98.64C18.1299 98.64 18.4632 98.72 18.7299 98.88C18.9966 99.0333 19.1966 99.27 19.3299 99.59C19.4632 99.91 19.5299 100.313 19.5299 100.8V104H18.4999V100.87C18.4999 100.57 18.4599 100.323 18.3799 100.13C18.2999 99.93 18.1766 99.7867 18.0099 99.7C17.8432 99.6067 17.6366 99.5667 17.3899 99.58C17.1899 99.58 17.0066 99.6133 16.8399 99.68C16.6732 99.74 16.5266 99.8267 16.3999 99.94C16.2799 100.053 16.1832 100.187 16.1099 100.34C16.0432 100.487 16.0099 100.647 16.0099 100.82V104H15.4999C15.4132 104 15.3266 104 15.2399 104C15.1532 104 15.0666 104 14.9799 104ZM23.3772 104.1C22.8372 104.1 22.3572 103.987 21.9372 103.76C21.5238 103.527 21.1972 103.21 20.9572 102.81C20.7238 102.41 20.6072 101.95 20.6072 101.43C20.6072 101.017 20.6738 100.64 20.8072 100.3C20.9405 99.96 21.1238 99.6667 21.3572 99.42C21.5972 99.1667 21.8805 98.9733 22.2072 98.84C22.5405 98.7 22.9005 98.63 23.2872 98.63C23.6272 98.63 23.9438 98.6967 24.2372 98.83C24.5305 98.9567 24.7838 99.1333 24.9972 99.36C25.2172 99.5867 25.3838 99.8567 25.4972 100.17C25.6172 100.477 25.6738 100.813 25.6672 101.18L25.6572 101.62H21.3672L21.1372 100.8H24.7672L24.6172 100.97V100.73C24.5972 100.51 24.5238 100.313 24.3972 100.14C24.2705 99.9667 24.1105 99.83 23.9172 99.73C23.7238 99.63 23.5138 99.58 23.2872 99.58C22.9272 99.58 22.6238 99.65 22.3772 99.79C22.1305 99.9233 21.9438 100.123 21.8172 100.39C21.6905 100.65 21.6272 100.973 21.6272 101.36C21.6272 101.727 21.7038 102.047 21.8572 102.32C22.0105 102.587 22.2272 102.793 22.5072 102.94C22.7872 103.087 23.1105 103.16 23.4772 103.16C23.7372 103.16 23.9772 103.117 24.1972 103.03C24.4238 102.943 24.6672 102.787 24.9272 102.56L25.4472 103.29C25.2872 103.45 25.0905 103.59 24.8572 103.71C24.6305 103.83 24.3872 103.927 24.1272 104C23.8738 104.067 23.6238 104.1 23.3772 104.1ZM26.7865 104V98.75H27.8265V100.4L27.7265 100C27.7999 99.7467 27.9232 99.5167 28.0965 99.31C28.2765 99.1033 28.4799 98.94 28.7065 98.82C28.9399 98.7 29.1799 98.64 29.4265 98.64C29.5399 98.64 29.6465 98.65 29.7465 98.67C29.8532 98.69 29.9365 98.7133 29.9965 98.74L29.7265 99.86C29.6465 99.8267 29.5565 99.8 29.4565 99.78C29.3632 99.7533 29.2699 99.74 29.1765 99.74C28.9965 99.74 28.8232 99.7767 28.6565 99.85C28.4965 99.9167 28.3532 100.013 28.2265 100.14C28.1065 100.26 28.0099 100.403 27.9365 100.57C27.8632 100.73 27.8265 100.907 27.8265 101.1V104H26.7865ZM32.6151 104.1C32.1818 104.1 31.7851 103.98 31.4251 103.74C31.0718 103.5 30.7885 103.173 30.5751 102.76C30.3618 102.347 30.2551 101.88 30.2551 101.36C30.2551 100.833 30.3618 100.367 30.5751 99.96C30.7951 99.5467 31.0885 99.2233 31.4551 98.99C31.8285 98.7567 32.2451 98.64 32.7051 98.64C32.9785 98.64 33.2285 98.68 33.4551 98.76C33.6818 98.84 33.8785 98.9533 34.0451 99.1C34.2185 99.24 34.3585 99.4033 34.4651 99.59C34.5785 99.7767 34.6485 99.9767 34.6751 100.19L34.4451 100.11V98.75H35.4851V104H34.4451V102.75L34.6851 102.68C34.6451 102.86 34.5618 103.037 34.4351 103.21C34.3151 103.377 34.1585 103.527 33.9651 103.66C33.7785 103.793 33.5685 103.9 33.3351 103.98C33.1085 104.06 32.8685 104.1 32.6151 104.1ZM32.8851 103.15C33.1985 103.15 33.4751 103.073 33.7151 102.92C33.9551 102.767 34.1418 102.557 34.2751 102.29C34.4151 102.017 34.4851 101.707 34.4851 101.36C34.4851 101.02 34.4151 100.717 34.2751 100.45C34.1418 100.183 33.9551 99.9733 33.7151 99.82C33.4751 99.6667 33.1985 99.59 32.8851 99.59C32.5785 99.59 32.3051 99.6667 32.0651 99.82C31.8318 99.9733 31.6451 100.183 31.5051 100.45C31.3718 100.717 31.3051 101.02 31.3051 101.36C31.3051 101.707 31.3718 102.017 31.5051 102.29C31.6451 102.557 31.8318 102.767 32.0651 102.92C32.3051 103.073 32.5785 103.15 32.8851 103.15ZM36.9433 104V96.6H37.9733V104H36.9433ZM44.6558 104.1C44.2758 104.1 43.9224 104.05 43.5958 103.95C43.2758 103.85 42.9824 103.7 42.7158 103.5C42.4558 103.293 42.2224 103.04 42.0158 102.74L42.7558 101.89C43.0824 102.357 43.3958 102.68 43.6958 102.86C43.9958 103.04 44.3524 103.13 44.7658 103.13C45.0191 103.13 45.2491 103.09 45.4558 103.01C45.6624 102.93 45.8258 102.82 45.9458 102.68C46.0658 102.54 46.1258 102.38 46.1258 102.2C46.1258 102.08 46.1058 101.967 46.0658 101.86C46.0258 101.753 45.9624 101.657 45.8758 101.57C45.7958 101.483 45.6891 101.403 45.5558 101.33C45.4291 101.257 45.2791 101.193 45.1058 101.14C44.9324 101.08 44.7324 101.03 44.5058 100.99C44.1458 100.917 43.8324 100.82 43.5658 100.7C43.2991 100.58 43.0758 100.43 42.8958 100.25C42.7158 100.07 42.5824 99.8667 42.4958 99.64C42.4091 99.4067 42.3658 99.1467 42.3658 98.86C42.3658 98.58 42.4258 98.32 42.5458 98.08C42.6724 97.84 42.8424 97.6333 43.0558 97.46C43.2758 97.28 43.5324 97.1433 43.8258 97.05C44.1191 96.95 44.4358 96.9 44.7758 96.9C45.1358 96.9 45.4658 96.9467 45.7658 97.04C46.0658 97.1333 46.3324 97.2733 46.5658 97.46C46.7991 97.64 46.9924 97.8633 47.1458 98.13L46.3858 98.88C46.2524 98.66 46.1024 98.4767 45.9358 98.33C45.7691 98.1767 45.5858 98.0633 45.3858 97.99C45.1858 97.91 44.9724 97.87 44.7458 97.87C44.4858 97.87 44.2591 97.91 44.0658 97.99C43.8724 98.07 43.7191 98.1833 43.6058 98.33C43.4991 98.47 43.4458 98.6367 43.4458 98.83C43.4458 98.97 43.4724 99.1 43.5258 99.22C43.5791 99.3333 43.6591 99.4367 43.7658 99.53C43.8791 99.6167 44.0291 99.6967 44.2158 99.77C44.4024 99.8367 44.6258 99.8967 44.8858 99.95C45.2524 100.03 45.5791 100.133 45.8658 100.26C46.1524 100.38 46.3958 100.523 46.5958 100.69C46.7958 100.857 46.9458 101.043 47.0458 101.25C47.1524 101.457 47.2058 101.68 47.2058 101.92C47.2058 102.367 47.1024 102.753 46.8958 103.08C46.6891 103.407 46.3958 103.66 46.0158 103.84C45.6358 104.013 45.1824 104.1 44.6558 104.1ZM50.316 104.1C49.9427 104.1 49.616 104.013 49.336 103.84C49.0627 103.667 48.8493 103.423 48.696 103.11C48.5493 102.797 48.476 102.423 48.476 101.99V98.75H49.506V101.71C49.506 102.017 49.5527 102.283 49.646 102.51C49.746 102.73 49.886 102.9 50.066 103.02C50.2527 103.14 50.476 103.2 50.736 103.2C50.9293 103.2 51.106 103.17 51.266 103.11C51.426 103.043 51.5627 102.953 51.676 102.84C51.796 102.727 51.8893 102.59 51.956 102.43C52.0227 102.27 52.056 102.097 52.056 101.91V98.75H53.086V104H52.056V102.9L52.236 102.78C52.156 103.027 52.0193 103.25 51.826 103.45C51.6393 103.65 51.416 103.81 51.156 103.93C50.896 104.043 50.616 104.1 50.316 104.1ZM54.5307 104V98.75H55.5707V100.4L55.4707 100C55.544 99.7467 55.6674 99.5167 55.8407 99.31C56.0207 99.1033 56.224 98.94 56.4507 98.82C56.684 98.7 56.924 98.64 57.1707 98.64C57.284 98.64 57.3907 98.65 57.4907 98.67C57.5974 98.69 57.6807 98.7133 57.7407 98.74L57.4707 99.86C57.3907 99.8267 57.3007 99.8 57.2007 99.78C57.1074 99.7533 57.014 99.74 56.9207 99.74C56.7407 99.74 56.5674 99.7767 56.4007 99.85C56.2407 99.9167 56.0974 100.013 55.9707 100.14C55.8507 100.26 55.754 100.403 55.6807 100.57C55.6074 100.73 55.5707 100.907 55.5707 101.1V104H54.5307ZM60.7674 106.3C60.3941 106.3 60.0207 106.24 59.6474 106.12C59.2807 106.007 58.9841 105.857 58.7574 105.67L59.1374 104.87C59.2707 104.97 59.4274 105.057 59.6074 105.13C59.7874 105.21 59.9774 105.27 60.1774 105.31C60.3774 105.357 60.5741 105.38 60.7674 105.38C61.1341 105.38 61.4407 105.32 61.6874 105.2C61.9341 105.08 62.1207 104.903 62.2474 104.67C62.3741 104.437 62.4374 104.147 62.4374 103.8V102.79L62.5474 102.86C62.5141 103.067 62.4041 103.267 62.2174 103.46C62.0374 103.647 61.8107 103.8 61.5374 103.92C61.2641 104.04 60.9841 104.1 60.6974 104.1C60.1974 104.1 59.7507 103.983 59.3574 103.75C58.9707 103.51 58.6641 103.187 58.4374 102.78C58.2107 102.367 58.0974 101.897 58.0974 101.37C58.0974 100.843 58.2074 100.377 58.4274 99.97C58.6541 99.5567 58.9607 99.2333 59.3474 99C59.7407 98.76 60.1807 98.64 60.6674 98.64C60.8674 98.64 61.0607 98.6667 61.2474 98.72C61.4341 98.7667 61.6074 98.8367 61.7674 98.93C61.9274 99.0167 62.0707 99.1133 62.1974 99.22C62.3241 99.3267 62.4274 99.44 62.5074 99.56C62.5874 99.68 62.6374 99.7933 62.6574 99.9L62.4374 99.98V98.75H63.4674V103.68C63.4674 104.1 63.4041 104.47 63.2774 104.79C63.1574 105.117 62.9807 105.39 62.7474 105.61C62.5141 105.837 62.2307 106.007 61.8974 106.12C61.5641 106.24 61.1874 106.3 60.7674 106.3ZM60.8074 103.15C61.1341 103.15 61.4241 103.073 61.6774 102.92C61.9307 102.767 62.1274 102.557 62.2674 102.29C62.4074 102.023 62.4774 101.717 62.4774 101.37C62.4774 101.023 62.4041 100.717 62.2574 100.45C62.1174 100.177 61.9207 99.9633 61.6674 99.81C61.4207 99.6567 61.1341 99.58 60.8074 99.58C60.4874 99.58 60.2007 99.66 59.9474 99.82C59.7007 99.9733 59.5041 100.187 59.3574 100.46C59.2174 100.727 59.1474 101.03 59.1474 101.37C59.1474 101.71 59.2174 102.017 59.3574 102.29C59.5041 102.557 59.7007 102.767 59.9474 102.92C60.2007 103.073 60.4874 103.15 60.8074 103.15ZM67.3615 104.1C66.8215 104.1 66.3415 103.987 65.9215 103.76C65.5082 103.527 65.1815 103.21 64.9415 102.81C64.7082 102.41 64.5915 101.95 64.5915 101.43C64.5915 101.017 64.6582 100.64 64.7915 100.3C64.9249 99.96 65.1082 99.6667 65.3415 99.42C65.5815 99.1667 65.8649 98.9733 66.1915 98.84C66.5249 98.7 66.8849 98.63 67.2715 98.63C67.6115 98.63 67.9282 98.6967 68.2215 98.83C68.5149 98.9567 68.7682 99.1333 68.9815 99.36C69.2015 99.5867 69.3682 99.8567 69.4815 100.17C69.6015 100.477 69.6582 100.813 69.6515 101.18L69.6415 101.62H65.3515L65.1215 100.8H68.7515L68.6015 100.97V100.73C68.5815 100.51 68.5082 100.313 68.3815 100.14C68.2549 99.9667 68.0949 99.83 67.9015 99.73C67.7082 99.63 67.4982 99.58 67.2715 99.58C66.9115 99.58 66.6082 99.65 66.3615 99.79C66.1149 99.9233 65.9282 100.123 65.8015 100.39C65.6749 100.65 65.6115 100.973 65.6115 101.36C65.6115 101.727 65.6882 102.047 65.8415 102.32C65.9949 102.587 66.2115 102.793 66.4915 102.94C66.7715 103.087 67.0949 103.16 67.4615 103.16C67.7215 103.16 67.9615 103.117 68.1815 103.03C68.4082 102.943 68.6515 102.787 68.9115 102.56L69.4315 103.29C69.2715 103.45 69.0749 103.59 68.8415 103.71C68.6149 103.83 68.3715 103.927 68.1115 104C67.8582 104.067 67.6082 104.1 67.3615 104.1ZM70.7709 104V98.75H71.8109V100.4L71.7109 100C71.7843 99.7467 71.9076 99.5167 72.0809 99.31C72.2609 99.1033 72.4643 98.94 72.6909 98.82C72.9243 98.7 73.1643 98.64 73.4109 98.64C73.5243 98.64 73.6309 98.65 73.7309 98.67C73.8376 98.69 73.9209 98.7133 73.9809 98.74L73.7109 99.86C73.6309 99.8267 73.5409 99.8 73.4409 99.78C73.3476 99.7533 73.2543 99.74 73.1609 99.74C72.9809 99.74 72.8076 99.7767 72.6409 99.85C72.4809 99.9167 72.3376 100.013 72.2109 100.14C72.0909 100.26 71.9943 100.403 71.9209 100.57C71.8476 100.73 71.8109 100.907 71.8109 101.1V104H70.7709ZM75.6841 106.3L76.7441 103.85L76.7541 104.67L74.1341 98.75H75.3341L76.9741 102.61C77.0075 102.677 77.0475 102.78 77.0941 102.92C77.1408 103.053 77.1808 103.187 77.2141 103.32L76.9541 103.38C77.0075 103.24 77.0575 103.1 77.1041 102.96C77.1575 102.82 77.2075 102.68 77.2541 102.54L78.6241 98.75H79.8441L77.6841 104L76.7941 106.3H75.6841Z" fill="#667085"/>
<path d="M59.9048 64V57H64.3148V58.04H60.9848V62.96H64.3148V64H59.9048ZM60.3948 60.93V59.89H63.7648V60.93H60.3948ZM66.0474 64V57H67.0174L71.2974 62.73L71.1374 62.82C71.1108 62.6533 71.0874 62.4733 71.0674 62.28C71.0474 62.08 71.0274 61.87 71.0074 61.65C70.9941 61.4233 70.9808 61.1867 70.9674 60.94C70.9608 60.6867 70.9541 60.4233 70.9474 60.15C70.9408 59.8767 70.9374 59.5933 70.9374 59.3V57H72.0174V64H71.0274L66.8174 58.48L66.9274 58.34C66.9608 58.7467 66.9874 59.0933 67.0074 59.38C67.0341 59.66 67.0541 59.9 67.0674 60.1C67.0874 60.2933 67.1008 60.4533 67.1074 60.58C67.1141 60.7 67.1174 60.8 67.1174 60.88C67.1241 60.96 67.1274 61.03 67.1274 61.09V64H66.0474ZM75.3071 64V58.04H73.3471V57H78.4071V58.04H76.3871V64H75.3071Z" fill="#667085"/>
<path d="M30.5243 24.1C30.0376 24.1 29.591 24.0133 29.1843 23.84C28.7776 23.6667 28.4243 23.42 28.1243 23.1C27.8243 22.7733 27.591 22.39 27.4243 21.95C27.2643 21.51 27.1843 21.0267 27.1843 20.5C27.1843 20 27.271 19.5367 27.4443 19.11C27.6243 18.6767 27.871 18.2967 28.1843 17.97C28.4976 17.6433 28.861 17.39 29.2743 17.21C29.6876 17.03 30.1343 16.94 30.6143 16.94C30.9543 16.94 31.2843 16.9933 31.6043 17.1C31.931 17.2 32.2243 17.3433 32.4843 17.53C32.751 17.71 32.9676 17.9167 33.1343 18.15L32.4143 18.9C32.221 18.7067 32.0243 18.5467 31.8243 18.42C31.631 18.2867 31.431 18.1867 31.2243 18.12C31.0243 18.0533 30.821 18.02 30.6143 18.02C30.2876 18.02 29.981 18.0833 29.6943 18.21C29.4143 18.33 29.1676 18.5 28.9543 18.72C28.7476 18.94 28.5843 19.2033 28.4643 19.51C28.3443 19.81 28.2843 20.14 28.2843 20.5C28.2843 20.88 28.341 21.2267 28.4543 21.54C28.5743 21.8467 28.741 22.11 28.9543 22.33C29.1676 22.55 29.421 22.72 29.7143 22.84C30.0143 22.9533 30.3443 23.01 30.7043 23.01C30.9243 23.01 31.141 22.98 31.3543 22.92C31.5676 22.86 31.7676 22.7733 31.9543 22.66C32.141 22.5467 32.311 22.4133 32.4643 22.26L33.0043 23.14C32.851 23.32 32.641 23.4833 32.3743 23.63C32.1143 23.7767 31.821 23.8933 31.4943 23.98C31.1743 24.06 30.851 24.1 30.5243 24.1ZM36.2314 24.1C35.7981 24.1 35.4014 23.98 35.0414 23.74C34.6881 23.5 34.4047 23.1733 34.1914 22.76C33.9781 22.3467 33.8714 21.88 33.8714 21.36C33.8714 20.8333 33.9781 20.3667 34.1914 19.96C34.4114 19.5467 34.7047 19.2233 35.0714 18.99C35.4447 18.7567 35.8614 18.64 36.3214 18.64C36.5947 18.64 36.8447 18.68 37.0714 18.76C37.2981 18.84 37.4947 18.9533 37.6614 19.1C37.8347 19.24 37.9747 19.4033 38.0814 19.59C38.1947 19.7767 38.2647 19.9767 38.2914 20.19L38.0614 20.11V18.75H39.1014V24H38.0614V22.75L38.3014 22.68C38.2614 22.86 38.1781 23.0367 38.0514 23.21C37.9314 23.3767 37.7747 23.5267 37.5814 23.66C37.3947 23.7933 37.1847 23.9 36.9514 23.98C36.7247 24.06 36.4847 24.1 36.2314 24.1ZM36.5014 23.15C36.8147 23.15 37.0914 23.0733 37.3314 22.92C37.5714 22.7667 37.7581 22.5567 37.8914 22.29C38.0314 22.0167 38.1014 21.7067 38.1014 21.36C38.1014 21.02 38.0314 20.7167 37.8914 20.45C37.7581 20.1833 37.5714 19.9733 37.3314 19.82C37.0914 19.6667 36.8147 19.59 36.5014 19.59C36.1947 19.59 35.9214 19.6667 35.6814 19.82C35.4481 19.9733 35.2614 20.1833 35.1214 20.45C34.9881 20.7167 34.9214 21.02 34.9214 21.36C34.9214 21.7067 34.9881 22.0167 35.1214 22.29C35.2614 22.5567 35.4481 22.7667 35.6814 22.92C35.9214 23.0733 36.1947 23.15 36.5014 23.15ZM40.5395 24V18.75H41.5795V20.4L41.4795 20C41.5529 19.7467 41.6762 19.5167 41.8495 19.31C42.0295 19.1033 42.2329 18.94 42.4595 18.82C42.6929 18.7 42.9329 18.64 43.1795 18.64C43.2929 18.64 43.3995 18.65 43.4995 18.67C43.6062 18.69 43.6895 18.7133 43.7495 18.74L43.4795 19.86C43.3995 19.8267 43.3095 19.8 43.2095 19.78C43.1162 19.7533 43.0229 19.74 42.9295 19.74C42.7495 19.74 42.5762 19.7767 42.4095 19.85C42.2495 19.9167 42.1062 20.0133 41.9795 20.14C41.8595 20.26 41.7629 20.4033 41.6895 20.57C41.6162 20.73 41.5795 20.9067 41.5795 21.1V24H40.5395ZM46.5381 24.1C46.0581 24.1 45.6281 23.9833 45.2481 23.75C44.8748 23.51 44.5781 23.1867 44.3581 22.78C44.1381 22.3667 44.0281 21.8967 44.0281 21.37C44.0281 20.8433 44.1348 20.3767 44.3481 19.97C44.5681 19.5567 44.8648 19.2333 45.2381 19C45.6115 18.76 46.0348 18.64 46.5081 18.64C46.7681 18.64 47.0181 18.6833 47.2581 18.77C47.5048 18.85 47.7248 18.9633 47.9181 19.11C48.1115 19.25 48.2615 19.4067 48.3681 19.58C48.4815 19.7467 48.5381 19.9167 48.5381 20.09L48.2381 20.11V16.6H49.2681V24H48.2381V22.75H48.4381C48.4381 22.91 48.3848 23.07 48.2781 23.23C48.1715 23.3833 48.0281 23.5267 47.8481 23.66C47.6748 23.7933 47.4715 23.9 47.2381 23.98C47.0115 24.06 46.7781 24.1 46.5381 24.1ZM46.6781 23.21C46.9915 23.21 47.2681 23.13 47.5081 22.97C47.7481 22.81 47.9348 22.5933 48.0681 22.32C48.2081 22.04 48.2781 21.7233 48.2781 21.37C48.2781 21.0167 48.2081 20.7033 48.0681 20.43C47.9348 20.15 47.7481 19.93 47.5081 19.77C47.2681 19.61 46.9915 19.53 46.6781 19.53C46.3648 19.53 46.0881 19.61 45.8481 19.77C45.6081 19.93 45.4181 20.15 45.2781 20.43C45.1448 20.7033 45.0781 21.0167 45.0781 21.37C45.0781 21.7233 45.1448 22.04 45.2781 22.32C45.4181 22.5933 45.6081 22.81 45.8481 22.97C46.0881 23.13 46.3648 23.21 46.6781 23.21ZM50.856 24V18.75H51.886V24H50.856ZM51.356 17.59C51.136 17.59 50.966 17.5333 50.846 17.42C50.726 17.3067 50.666 17.1467 50.666 16.94C50.666 16.7467 50.726 16.59 50.846 16.47C50.9727 16.35 51.1427 16.29 51.356 16.29C51.576 16.29 51.746 16.3467 51.866 16.46C51.986 16.5733 52.046 16.7333 52.046 16.94C52.046 17.1333 51.9827 17.29 51.856 17.41C51.736 17.53 51.5693 17.59 51.356 17.59ZM55.8292 24.1C55.3159 24.1 54.8559 23.9833 54.4492 23.75C54.0492 23.51 53.7325 23.1867 53.4992 22.78C53.2659 22.3667 53.1492 21.8967 53.1492 21.37C53.1492 20.8433 53.2659 20.3767 53.4992 19.97C53.7325 19.5567 54.0492 19.2333 54.4492 19C54.8559 18.76 55.3159 18.64 55.8292 18.64C56.3359 18.64 56.7892 18.76 57.1892 19C57.5959 19.2333 57.9159 19.5567 58.1492 19.97C58.3825 20.3767 58.4992 20.8433 58.4992 21.37C58.4992 21.8967 58.3825 22.3667 58.1492 22.78C57.9159 23.1867 57.5959 23.51 57.1892 23.75C56.7892 23.9833 56.3359 24.1 55.8292 24.1ZM55.8292 23.16C56.1425 23.16 56.4225 23.0833 56.6692 22.93C56.9159 22.77 57.1092 22.5567 57.2492 22.29C57.3892 22.0167 57.4559 21.71 57.4492 21.37C57.4559 21.0233 57.3892 20.7167 57.2492 20.45C57.1092 20.1767 56.9159 19.9633 56.6692 19.81C56.4225 19.6567 56.1425 19.58 55.8292 19.58C55.5159 19.58 55.2325 19.66 54.9792 19.82C54.7325 19.9733 54.5392 20.1867 54.3992 20.46C54.2592 20.7267 54.1925 21.03 54.1992 21.37C54.1925 21.71 54.2592 22.0167 54.3992 22.29C54.5392 22.5567 54.7325 22.77 54.9792 22.93C55.2325 23.0833 55.5159 23.16 55.8292 23.16ZM59.6416 24V16.6H60.6716V24H59.6416ZM64.3937 24.1C63.8803 24.1 63.4203 23.9833 63.0137 23.75C62.6137 23.51 62.297 23.1867 62.0637 22.78C61.8303 22.3667 61.7137 21.8967 61.7137 21.37C61.7137 20.8433 61.8303 20.3767 62.0637 19.97C62.297 19.5567 62.6137 19.2333 63.0137 19C63.4203 18.76 63.8803 18.64 64.3937 18.64C64.9003 18.64 65.3537 18.76 65.7537 19C66.1603 19.2333 66.4803 19.5567 66.7137 19.97C66.947 20.3767 67.0637 20.8433 67.0637 21.37C67.0637 21.8967 66.947 22.3667 66.7137 22.78C66.4803 23.1867 66.1603 23.51 65.7537 23.75C65.3537 23.9833 64.9003 24.1 64.3937 24.1ZM64.3937 23.16C64.707 23.16 64.987 23.0833 65.2337 22.93C65.4803 22.77 65.6737 22.5567 65.8137 22.29C65.9537 22.0167 66.0203 21.71 66.0137 21.37C66.0203 21.0233 65.9537 20.7167 65.8137 20.45C65.6737 20.1767 65.4803 19.9633 65.2337 19.81C64.987 19.6567 64.707 19.58 64.3937 19.58C64.0803 19.58 63.797 19.66 63.5437 19.82C63.297 19.9733 63.1037 20.1867 62.9637 20.46C62.8237 20.7267 62.757 21.03 62.7637 21.37C62.757 21.71 62.8237 22.0167 62.9637 22.29C63.1037 22.5567 63.297 22.77 63.5437 22.93C63.797 23.0833 64.0803 23.16 64.3937 23.16ZM70.536 26.3C70.1627 26.3 69.7893 26.24 69.416 26.12C69.0493 26.0067 68.7527 25.8567 68.526 25.67L68.906 24.87C69.0393 24.97 69.196 25.0567 69.376 25.13C69.556 25.21 69.746 25.27 69.946 25.31C70.146 25.3567 70.3427 25.38 70.536 25.38C70.9027 25.38 71.2093 25.32 71.456 25.2C71.7027 25.08 71.8893 24.9033 72.016 24.67C72.1427 24.4367 72.206 24.1467 72.206 23.8V22.79L72.316 22.86C72.2827 23.0667 72.1727 23.2667 71.986 23.46C71.806 23.6467 71.5793 23.8 71.306 23.92C71.0327 24.04 70.7527 24.1 70.466 24.1C69.966 24.1 69.5193 23.9833 69.126 23.75C68.7393 23.51 68.4327 23.1867 68.206 22.78C67.9793 22.3667 67.866 21.8967 67.866 21.37C67.866 20.8433 67.976 20.3767 68.196 19.97C68.4227 19.5567 68.7293 19.2333 69.116 19C69.5093 18.76 69.9493 18.64 70.436 18.64C70.636 18.64 70.8293 18.6667 71.016 18.72C71.2027 18.7667 71.376 18.8367 71.536 18.93C71.696 19.0167 71.8393 19.1133 71.966 19.22C72.0927 19.3267 72.196 19.44 72.276 19.56C72.356 19.68 72.406 19.7933 72.426 19.9L72.206 19.98V18.75H73.236V23.68C73.236 24.1 73.1727 24.47 73.046 24.79C72.926 25.1167 72.7493 25.39 72.516 25.61C72.2827 25.8367 71.9993 26.0067 71.666 26.12C71.3327 26.24 70.956 26.3 70.536 26.3ZM70.576 23.15C70.9027 23.15 71.1927 23.0733 71.446 22.92C71.6993 22.7667 71.896 22.5567 72.036 22.29C72.176 22.0233 72.246 21.7167 72.246 21.37C72.246 21.0233 72.1727 20.7167 72.026 20.45C71.886 20.1767 71.6893 19.9633 71.436 19.81C71.1893 19.6567 70.9027 19.58 70.576 19.58C70.256 19.58 69.9693 19.66 69.716 19.82C69.4693 19.9733 69.2727 20.1867 69.126 20.46C68.986 20.7267 68.916 21.03 68.916 21.37C68.916 21.71 68.986 22.0167 69.126 22.29C69.2727 22.5567 69.4693 22.7667 69.716 22.92C69.9693 23.0733 70.256 23.15 70.576 23.15ZM75.5602 26.3L76.6202 23.85L76.6302 24.67L74.0102 18.75H75.2102L76.8502 22.61C76.8835 22.6767 76.9235 22.78 76.9702 22.92C77.0168 23.0533 77.0568 23.1867 77.0902 23.32L76.8302 23.38C76.8835 23.24 76.9335 23.1 76.9802 22.96C77.0335 22.82 77.0835 22.68 77.1302 22.54L78.5002 18.75H79.7202L77.5602 24L76.6702 26.3H75.5602Z" fill="#667085"/>
</svg>
