<svg width="40" height="40" viewBox="0 0 40 40" fill="none" xmlns="http://www.w3.org/2000/svg">
<circle cx="20" cy="20" r="20" fill="#F9FAFB"/>
<path d="M24.125 23.825C23.975 23.675 23.9 23.4917 23.9 23.275C23.9 23.0583 23.975 22.8833 24.125 22.75L26.125 20.75H18.125C17.9083 20.75 17.7292 20.6792 17.5875 20.5375C17.4458 20.3958 17.375 20.2167 17.375 20C17.375 19.7833 17.4458 19.6042 17.5875 19.4625C17.7292 19.3208 17.9083 19.25 18.125 19.25H26.075L24.05 17.225C23.9167 17.0917 23.85 16.9208 23.85 16.7125C23.85 16.5042 23.925 16.325 24.075 16.175C24.225 16.025 24.4042 15.95 24.6125 15.95C24.8208 15.95 25 16.025 25.15 16.175L28.475 19.5C28.5583 19.5833 28.6167 19.6667 28.65 19.75C28.6833 19.8333 28.7 19.925 28.7 20.025C28.7 20.125 28.6833 20.2167 28.65 20.3C28.6167 20.3833 28.5583 20.4667 28.475 20.55L25.175 23.85C25.0417 23.9833 24.8708 24.05 24.6625 24.05C24.4542 24.05 24.275 23.975 24.125 23.825ZM12.5 29C12.1 29 11.75 28.85 11.45 28.55C11.15 28.25 11 27.9 11 27.5V12.5C11 12.1 11.15 11.75 11.45 11.45C11.75 11.15 12.1 11 12.5 11H19.025C19.2417 11 19.4208 11.0708 19.5625 11.2125C19.7042 11.3542 19.775 11.5333 19.775 11.75C19.775 11.9667 19.7042 12.1458 19.5625 12.2875C19.4208 12.4292 19.2417 12.5 19.025 12.5H12.5V27.5H19.025C19.2417 27.5 19.4208 27.5708 19.5625 27.7125C19.7042 27.8542 19.775 28.0333 19.775 28.25C19.775 28.4667 19.7042 28.6458 19.5625 28.7875C19.4208 28.9292 19.2417 29 19.025 29H12.5Z" fill="#667085"/>
</svg>
