<svg width="32" height="32" viewBox="0 0 32 32" fill="none" xmlns="http://www.w3.org/2000/svg">
<path fill-rule="evenodd" clip-rule="evenodd" d="M8.16329 0C7.08573 0 6.2041 0.867857 6.2041 1.92857V30.0714C6.2041 31.1321 7.08573 32 8.16329 32H27.7551C28.8327 32 29.7143 31.1321 29.7143 30.0714V7.71429L21.8776 0H8.16329Z" fill="#E4E7EC"/>
<path opacity="0.3" fill-rule="evenodd" clip-rule="evenodd" d="M23.8371 7.83674H29.7147L21.8779 0V5.87755C21.8779 6.9551 22.7596 7.83674 23.8371 7.83674Z" fill="#1D2939"/>
<path opacity="0.03" fill-rule="evenodd" clip-rule="evenodd" d="M29.7145 13.7142L23.8369 7.83667H29.7145V13.7142Z" fill="black"/>
<path fill-rule="evenodd" clip-rule="evenodd" d="M25.7963 26.0409C25.7963 26.5797 25.3555 27.0205 24.8167 27.0205H3.26572C2.72695 27.0205 2.28613 26.5797 2.28613 26.0409V16.245C2.28613 15.7062 2.72695 15.2654 3.26572 15.2654H24.8167C25.3555 15.2654 25.7963 15.7062 25.7963 16.245V26.0409Z" fill="#00A3FF"/>
<path fill-rule="evenodd" clip-rule="evenodd" d="M5.4541 23.5956C5.4541 23.9394 5.73622 24.0815 5.99484 24.0815H7.85802C11.2886 24.0815 11.3679 18.6614 7.78847 18.6614H5.99484C5.73622 18.6614 5.4541 18.8651 5.4541 19.1473V23.5956ZM6.48855 23.1254V19.6165H7.78847C9.99647 19.6165 9.90341 23.1254 7.78847 23.1254H6.48855Z" fill="white"/>
<path fill-rule="evenodd" clip-rule="evenodd" d="M11.333 21.3397C11.333 23.2587 12.8377 24.2226 14.2865 24.1599C15.6569 24.1599 17.0901 23.197 17.0901 21.3397C17.0901 19.4834 15.6569 18.5351 14.2865 18.4656C12.8367 18.4656 11.333 19.4128 11.333 21.3397ZM12.3675 21.3407C12.3675 20.1035 13.3226 19.4843 14.2003 19.4843C15.1015 19.4843 16.0644 20.1025 16.0644 21.3407C16.0644 22.571 15.1015 23.198 14.2003 23.198C13.3235 23.198 12.3675 22.571 12.3675 21.3407Z" fill="white"/>
<path d="M18.0117 21.3319C18.0117 19.8204 18.96 18.5205 20.7614 18.5205C21.4432 18.5205 21.984 18.7243 22.5551 19.218C22.7667 19.4129 22.7902 19.7577 22.5786 19.9772C22.367 20.1643 22.0457 20.1417 21.8576 19.9537C21.5373 19.6167 21.2081 19.5236 20.7614 19.5236C19.5556 19.5236 18.9766 20.3778 18.9766 21.3329C18.9766 22.3047 19.5477 23.1971 20.7614 23.1971C21.2081 23.1971 21.6235 23.0159 21.984 22.6955C22.2259 22.5074 22.5629 22.6005 22.704 22.7896C22.8294 22.962 22.8911 23.2519 22.6178 23.5252C22.0692 24.0356 21.4119 24.1375 20.7605 24.1375C18.8659 24.1375 18.0117 22.8434 18.0117 21.3319Z" fill="white"/>
<path opacity="0.03" fill-rule="evenodd" clip-rule="evenodd" d="M24.8163 27.0204H6.2041V28H24.8163C25.3551 28 25.7959 27.5591 25.7959 27.0204V26.0408C25.7959 26.5795 25.3551 27.0204 24.8163 27.0204Z" fill="black"/>
</svg>
