<svg width="104" height="104" viewBox="0 0 104 104" fill="none" xmlns="http://www.w3.org/2000/svg">
<rect width="104" height="104" rx="4" fill="#F9FAFB"/>
<path d="M51.9994 51.9477C49.7114 51.9477 47.8394 51.2197 46.3834 49.7637C44.9274 48.3077 44.1994 46.4357 44.1994 44.1477C44.1994 41.8597 44.9274 39.9877 46.3834 38.5317C47.8394 37.0757 49.7114 36.3477 51.9994 36.3477C54.2874 36.3477 56.1594 37.0757 57.6154 38.5317C59.0714 39.9877 59.7994 41.8597 59.7994 44.1477C59.7994 46.4357 59.0714 48.3077 57.6154 49.7637C56.1594 51.2197 54.2874 51.9477 51.9994 51.9477ZM38.4794 68.6397C37.6127 68.6397 36.876 68.3363 36.2694 67.7297C35.6627 67.123 35.3594 66.3863 35.3594 65.5197V63.7517C35.3594 62.4343 35.6887 61.3077 36.3474 60.3717C37.006 59.4357 37.8554 58.725 38.8954 58.2397C41.218 57.1997 43.4454 56.4197 45.5774 55.8997C47.7094 55.3797 49.85 55.1197 51.9994 55.1197C54.1487 55.1197 56.2807 55.3883 58.3954 55.9257C60.51 56.463 62.7287 57.2343 65.0514 58.2397C66.126 58.725 66.9927 59.4357 67.6514 60.3717C68.31 61.3077 68.6394 62.4343 68.6394 63.7517V65.5197C68.6394 66.3863 68.336 67.123 67.7294 67.7297C67.1227 68.3363 66.386 68.6397 65.5194 68.6397H38.4794Z" fill="#667085"/>
</svg>
