<svg width="20" height="20" viewBox="0 0 20 20" fill="none" xmlns="http://www.w3.org/2000/svg">
<path d="M10.0007 6.66683C10.9173 6.66683 11.6673 5.91683 11.6673 5.00016C11.6673 4.0835 10.9173 3.3335 10.0007 3.3335C9.08398 3.3335 8.33398 4.0835 8.33398 5.00016C8.33398 5.91683 9.08398 6.66683 10.0007 6.66683ZM10.0007 8.3335C9.08398 8.3335 8.33398 9.0835 8.33398 10.0002C8.33398 10.9168 9.08398 11.6668 10.0007 11.6668C10.9173 11.6668 11.6673 10.9168 11.6673 10.0002C11.6673 9.0835 10.9173 8.3335 10.0007 8.3335ZM10.0007 13.3335C9.08398 13.3335 8.33398 14.0835 8.33398 15.0002C8.33398 15.9168 9.08398 16.6668 10.0007 16.6668C10.9173 16.6668 11.6673 15.9168 11.6673 15.0002C11.6673 14.0835 10.9173 13.3335 10.0007 13.3335Z" fill="#667085"/>
</svg>
