<svg width="72" height="72" viewBox="0 0 72 72" fill="none" xmlns="http://www.w3.org/2000/svg">
<rect x="16.5" y="51" width="39" height="4.5" fill="#F7D6D2"/>
<rect x="16.5" y="55.5" width="39" height="6" fill="#D7E6E7"/>
<path d="M19.125 63C17.975 63 17 62.6 16.2 61.8C15.4 61 15 60.025 15 58.875V13.125C15 11.975 15.4 11 16.2 10.2C17 9.4 17.975 9 19.125 9H41.85C42.4 9 42.925 9.1125 43.425 9.3375C43.925 9.5625 44.375 9.85 44.775 10.2L55.8 21.225C56.15 21.625 56.4375 22.075 56.6625 22.575C56.8875 23.075 57 23.6 57 24.15V58.875C57 60.025 56.6 61 55.8 61.8C55 62.6 54.025 63 52.875 63H19.125ZM19.125 60.675H52.875C53.325 60.675 53.7375 60.4875 54.1125 60.1125C54.4875 59.7375 54.675 59.325 54.675 58.875V23.55H44.55C44 23.55 43.5125 23.3375 43.0875 22.9125C42.6625 22.4875 42.45 22 42.45 21.45V11.325H19.125C18.675 11.325 18.2625 11.5125 17.8875 11.8875C17.5125 12.2625 17.325 12.675 17.325 13.125V58.875C17.325 59.325 17.5125 59.7375 17.8875 60.1125C18.2625 60.4875 18.675 60.675 19.125 60.675Z" fill="#1D2939"/>
<path d="M38.5909 47.3182C38.5 47.3182 38.4261 47.3068 38.3693 47.2841C38.3125 47.2614 38.25 47.2273 38.1818 47.1818L30.3409 39C30.25 38.9318 30.1761 38.8125 30.1193 38.642C30.0625 38.4716 30.0341 38.3068 30.0341 38.1477C30.0341 37.8295 30.1307 37.5739 30.3239 37.3807C30.517 37.1875 30.7727 37.0909 31.0909 37.0909H33.9545C35.3864 37.0909 36.6875 36.642 37.858 35.7443C39.0284 34.8466 39.625 33.5114 39.6477 31.7386H29.0114C28.875 31.7386 28.7557 31.6875 28.6534 31.5852C28.5511 31.483 28.5 31.3636 28.5 31.2273C28.5 31.0682 28.5511 30.9375 28.6534 30.8352C28.7557 30.733 28.875 30.6818 29.0114 30.6818H39.6136C39.3636 29.5 38.7102 28.517 37.6534 27.733C36.5966 26.9489 35.3636 26.5568 33.9545 26.5568H29.0114C28.875 26.5568 28.7557 26.5057 28.6534 26.4034C28.5511 26.3011 28.5 26.1705 28.5 26.0114C28.5 25.875 28.5511 25.7557 28.6534 25.6534C28.7557 25.5511 28.875 25.5 29.0114 25.5H42.9886C43.125 25.5 43.2443 25.5511 43.3466 25.6534C43.4489 25.7557 43.5 25.875 43.5 26.0114C43.5 26.1705 43.4489 26.3011 43.3466 26.4034C43.2443 26.5057 43.125 26.5568 42.9886 26.5568H37.7386C38.4886 26.9432 39.125 27.5284 39.6477 28.3125C40.1705 29.0966 40.5 29.8864 40.6364 30.6818H42.9886C43.125 30.6818 43.2443 30.733 43.3466 30.8352C43.4489 30.9375 43.5 31.0682 43.5 31.2273C43.5 31.3864 43.4489 31.5114 43.3466 31.6023C43.2443 31.6932 43.125 31.7386 42.9886 31.7386H40.6705C40.6705 33.7386 39.9943 35.3068 38.642 36.4432C37.2898 37.5795 35.7273 38.1477 33.9545 38.1477H30.9886L38.9659 46.4318C39.1477 46.6136 39.1932 46.8068 39.1023 47.0114C39.0114 47.2159 38.8409 47.3182 38.5909 47.3182V47.3182Z" fill="#1D2939"/>
</svg>
