<svg width="14" height="11" viewBox="0 0 14 11" fill="none" xmlns="http://www.w3.org/2000/svg">
<path d="M13.4059 3.9738C12.807 4.44255 12.0518 5.01546 9.39551 6.94255C8.87467 7.33317 7.91113 8.19255 6.99967 8.19255C6.06217 8.19255 5.12467 7.33317 4.5778 6.94255C1.92155 5.01546 1.16634 4.44255 0.567383 3.9738C0.463216 3.89567 0.333008 3.9738 0.333008 4.104V9.4165C0.333008 10.1196 0.879883 10.6665 1.58301 10.6665H12.4163C13.0934 10.6665 13.6663 10.1196 13.6663 9.4165V4.104C13.6663 3.9738 13.5101 3.89567 13.4059 3.9738ZM6.99967 7.33317C7.59863 7.35921 8.45801 6.57796 8.90072 6.26546C12.3643 3.76546 12.6247 3.53109 13.4059 2.90609C13.5622 2.80192 13.6663 2.61963 13.6663 2.4113V1.9165C13.6663 1.23942 13.0934 0.666504 12.4163 0.666504H1.58301C0.879883 0.666504 0.333008 1.23942 0.333008 1.9165V2.4113C0.333008 2.61963 0.411133 2.80192 0.567383 2.90609C1.34863 3.53109 1.60905 3.76546 5.07259 6.26546C5.5153 6.57796 6.37467 7.35921 6.99967 7.33317Z" fill="#667085"/>
</svg>
