<svg width="40" height="40" viewBox="0 0 40 40" fill="none" xmlns="http://www.w3.org/2000/svg">
<rect opacity="0.25" x="0.75" y="0.75" width="38.5" height="38.5" rx="18.75" stroke="white" stroke-width="1.5"/>
<path d="M29.8438 19.6719C29.8438 14.0527 25.291 9.5 19.6719 9.5C14.0527 9.5 9.5 14.0527 9.5 19.6719C9.5 24.7578 13.1914 28.9824 18.0723 29.7207V22.625H15.4883V19.6719H18.0723V17.457C18.0723 14.9141 19.5898 13.4785 21.8867 13.4785C23.0352 13.4785 24.1836 13.6836 24.1836 13.6836V16.1855H22.9121C21.6406 16.1855 21.2305 16.9648 21.2305 17.7852V19.6719H24.0605L23.6094 22.625H21.2305V29.7207C26.1113 28.9824 29.8438 24.7578 29.8438 19.6719Z" fill="white"/>
</svg>
