<svg width="28" height="28" viewBox="0 0 28 28" fill="none" xmlns="http://www.w3.org/2000/svg">
<circle cx="14" cy="14" r="13.5" fill="white" stroke="#F2F4F7"/>
<g clip-path="url(#clip0_2226_26278)">
<path fill-rule="evenodd" clip-rule="evenodd" d="M22.0313 14.4688C21.9912 14.7191 21.9518 14.9696 21.9105 15.2198C21.8995 15.2863 21.8832 15.352 21.8673 15.4274C16.6472 15.4274 11.4284 15.4274 6.18462 15.4274C6.13387 15.1101 6.08257 14.7894 6.03131 14.4687C6.03131 14.2812 6.03131 14.0937 6.03131 13.9062C6.1562 13.6362 6.37023 13.5579 6.6606 13.5583C11.5745 13.5642 16.4884 13.5642 21.4023 13.5583C21.6924 13.5579 21.9069 13.6355 22.0313 13.9062C22.0313 14.0938 22.0313 14.2813 22.0313 14.4688Z" fill="#667085"/>
<path fill-rule="evenodd" clip-rule="evenodd" d="M11.2373 7.0002C11.4113 7.01358 11.5602 7.09463 11.6416 7.27327C11.7285 7.46413 11.6931 7.64178 11.5548 7.79321C11.3972 7.96561 11.3042 8.1603 11.3018 8.39616C11.2992 8.65015 11.403 8.85418 11.5736 9.03824C12.2309 9.7475 12.2381 10.8084 11.5971 11.5012C11.4639 11.6452 11.3068 11.7214 11.1094 11.6716C10.7552 11.5822 10.6348 11.1776 10.8832 10.8946C11.0372 10.7191 11.1326 10.5268 11.1355 10.2911C11.1386 10.0307 11.0274 9.82509 10.8535 9.63724C10.2122 8.94465 10.2009 7.90598 10.8186 7.20877C10.9268 7.08667 11.0516 7.00299 11.2373 7.0002Z" fill="#667085"/>
<path fill-rule="evenodd" clip-rule="evenodd" d="M14.884 10.2784C14.8838 10.7406 14.7264 11.1431 14.4209 11.4877C14.2125 11.7227 13.9268 11.7528 13.718 11.5662C13.5146 11.3843 13.5129 11.1034 13.7136 10.8712C14.0449 10.4882 14.0312 10.0366 13.6766 9.65125C13.0138 8.93095 13.0124 7.83852 13.6729 7.1649C13.8023 7.03292 13.9548 6.96991 14.1386 7.01525C14.3208 7.06018 14.4375 7.17723 14.4844 7.35942C14.5269 7.52428 14.4759 7.66588 14.3698 7.79298C14.0118 8.22215 14.0212 8.63483 14.3968 9.04697C14.7148 9.3958 14.8823 9.80431 14.884 10.2784Z" fill="#667085"/>
<path fill-rule="evenodd" clip-rule="evenodd" d="M17.3403 7.48981C17.2826 7.59657 17.2405 7.71621 17.1644 7.80773C16.8344 8.20536 16.8401 8.64637 17.1928 9.02955C17.8586 9.75301 17.8648 10.8319 17.2078 11.5164C17.0801 11.6495 16.9285 11.7165 16.7444 11.6742C16.5624 11.6325 16.4429 11.518 16.3928 11.3359C16.3475 11.1713 16.3945 11.0287 16.4998 10.9008C16.8687 10.4527 16.8573 10.0599 16.4628 9.62312C15.8231 8.91507 15.8355 7.81744 16.4905 7.15977C16.6473 7.00233 16.845 6.95895 17.0322 7.04088C17.2022 7.11535 17.3137 7.28849 17.3403 7.48981Z" fill="#667085"/>
<path fill-rule="evenodd" clip-rule="evenodd" d="M21.5504 16.3859C21.3554 16.8584 21.1082 17.2837 20.8101 17.6795C20.1738 18.5242 19.3736 19.1652 18.4058 19.5929C18.3102 19.6352 18.2749 19.6839 18.2784 19.7895C18.2871 20.0444 18.2828 20.2997 18.2808 20.5549C18.2784 20.8681 18.0866 21.0618 17.7735 21.0619C15.279 21.0629 12.7845 21.0628 10.29 21.062C9.97629 21.0618 9.78397 20.8684 9.78164 20.5559C9.77976 20.306 9.77481 20.0557 9.7841 19.8061C9.78839 19.6902 9.75176 19.6342 9.64391 19.5859C8.48927 19.069 7.58149 18.2672 6.92191 17.1886C6.76826 16.9374 6.64187 16.6695 6.49048 16.3859C11.5274 16.3859 16.528 16.3859 21.5504 16.3859Z" fill="#667085"/>
</g>
<defs>
<clipPath id="clip0_2226_26278">
<rect width="16" height="16" fill="white" transform="translate(6 6)"/>
</clipPath>
</defs>
</svg>
