<svg width="128" height="128" viewBox="0 0 128 128" fill="none" xmlns="http://www.w3.org/2000/svg">
<g filter="url(#filter0_di_478_12210)">
<circle cx="64" cy="62" r="48" fill="white"/>
<circle cx="64" cy="62" r="47.5" stroke="#F2F4F7"/>
</g>
<path d="M80.9995 60.0002L61.9995 79.5002C63.8329 80.6669 69.1995 81.6002 75.9995 76.0002C82.7995 70.4002 82.1662 63.0002 80.9995 60.0002Z" fill="#9BC0C4"/>
<path d="M64 81C61.3333 81 58.8417 80.5167 56.525 79.55C54.2083 78.5833 52.1917 77.2417 50.475 75.525C48.7583 73.8083 47.4167 71.7917 46.45 69.475C45.4833 67.1583 45 64.6667 45 62C45 59.3667 45.4833 56.8917 46.45 54.575C47.4167 52.2583 48.7583 50.2417 50.475 48.525C52.1917 46.8083 54.2083 45.4583 56.525 44.475C58.8417 43.4917 61.3333 43 64 43C66.6333 43 69.1083 43.4917 71.425 44.475C73.7417 45.4583 75.7583 46.8083 77.475 48.525C79.1917 50.2417 80.5417 52.25 81.525 54.55C82.5083 56.85 83 59.3333 83 62C83 64.6667 82.5083 67.1583 81.525 69.475C80.5417 71.7917 79.1917 73.8083 77.475 75.525C75.7583 77.2417 73.75 78.5833 71.45 79.55C69.15 80.5167 66.6667 81 64 81ZM64 78.75C68.7333 78.75 72.7083 77.1417 75.925 73.925C79.1417 70.7083 80.75 66.7333 80.75 62C80.75 57.2667 79.1417 53.2917 75.925 50.075C72.7083 46.8583 68.7333 45.25 64 45.25C59.2667 45.25 55.2917 46.8583 52.075 50.075C48.8583 53.2917 47.25 57.2667 47.25 62C47.25 66.7333 48.8583 70.7083 52.075 73.925C55.2917 77.1417 59.2667 78.75 64 78.75Z" fill="#1D2939"/>
<path d="M58.1748 73.3498C57.9581 73.5831 57.6998 73.6998 57.3998 73.6998C57.1331 73.6998 56.8831 73.5915 56.6498 73.3748C56.4165 73.1581 56.2998 72.8998 56.2998 72.5998V53.7498C56.2998 53.3165 56.4331 52.9665 56.6998 52.6998C56.9665 52.4331 57.3165 52.2998 57.7498 52.2998H66.8998C67.1665 52.2998 67.4165 52.3748 67.6498 52.5248C67.8831 52.6748 68.0665 52.8665 68.1998 53.0998L69.7998 56.2998H74.2498C74.6831 56.2998 75.0331 56.4331 75.2998 56.6998C75.5665 56.9665 75.6998 57.3165 75.6998 57.7498V66.2498C75.6998 66.6831 75.5665 67.0331 75.2998 67.2998C75.0331 67.5665 74.6831 67.6998 74.2498 67.6998H67.0998C66.8331 67.6998 66.5831 67.6248 66.3498 67.4748C66.1165 67.3248 65.9331 67.1165 65.7998 66.8498L64.1998 63.6998H58.4998V72.5998C58.4998 72.8665 58.3915 73.1165 58.1748 73.3498Z" fill="#1D2939"/>
<path d="M65.65 61.5L67.65 65.5H73.5V58.5H68.35L66.35 54.5H58.5V61.5H65.65Z" fill="#EB998E"/>
<defs>
<filter id="filter0_di_478_12210" x="0" y="0" width="128" height="128" filterUnits="userSpaceOnUse" color-interpolation-filters="sRGB">
<feFlood flood-opacity="0" result="BackgroundImageFix"/>
<feColorMatrix in="SourceAlpha" type="matrix" values="0 0 0 0 0 0 0 0 0 0 0 0 0 0 0 0 0 0 127 0" result="hardAlpha"/>
<feOffset dy="2"/>
<feGaussianBlur stdDeviation="8"/>
<feComposite in2="hardAlpha" operator="out"/>
<feColorMatrix type="matrix" values="0 0 0 0 0 0 0 0 0 0 0 0 0 0 0 0 0 0 0.02 0"/>
<feBlend mode="normal" in2="BackgroundImageFix" result="effect1_dropShadow_478_12210"/>
<feBlend mode="normal" in="SourceGraphic" in2="effect1_dropShadow_478_12210" result="shape"/>
<feColorMatrix in="SourceAlpha" type="matrix" values="0 0 0 0 0 0 0 0 0 0 0 0 0 0 0 0 0 0 127 0" result="hardAlpha"/>
<feOffset dy="1"/>
<feComposite in2="hardAlpha" operator="arithmetic" k2="-1" k3="1"/>
<feColorMatrix type="matrix" values="0 0 0 0 0 0 0 0 0 0 0 0 0 0 0 0 0 0 0.25 0"/>
<feBlend mode="normal" in2="shape" result="effect2_innerShadow_478_12210"/>
</filter>
</defs>
</svg>
