<svg width="23" height="18" viewBox="0 0 23 18" fill="none" xmlns="http://www.w3.org/2000/svg">
<path d="M11.002 0L0.00195312 8.4L1.21195 9.99L3.00195 8.62V18H19.002V8.62L20.792 9.98L22.002 8.4L11.002 0ZM17.002 16H5.00195V7.1L11.002 2.52L17.002 7.1V16ZM8.00195 11C8.00195 11.55 7.55195 12 7.00195 12C6.45195 12 6.00195 11.55 6.00195 11C6.00195 10.45 6.45195 10 7.00195 10C7.55195 10 8.00195 10.45 8.00195 11ZM11.002 10C11.552 10 12.002 10.45 12.002 11C12.002 11.55 11.552 12 11.002 12C10.452 12 10.002 11.55 10.002 11C10.002 10.45 10.452 10 11.002 10ZM14.002 11C14.002 10.45 14.452 10 15.002 10C15.552 10 16.002 10.45 16.002 11C16.002 11.55 15.552 12 15.002 12C14.452 12 14.002 11.55 14.002 11Z" fill="#667085"/>
</svg>
