<svg width="28" height="28" viewBox="0 0 28 28" fill="none" xmlns="http://www.w3.org/2000/svg">
<circle cx="14" cy="14" r="13.5" fill="white" stroke="#F2F4F7"/>
<path d="M13.9993 7.33398C10.446 10.3673 8.66602 12.9873 8.66602 15.2007C8.66602 18.5207 11.1993 20.6673 13.9993 20.6673C16.7993 20.6673 19.3327 18.5207 19.3327 15.2007C19.3327 12.9873 17.5527 10.3673 13.9993 7.33398ZM13.9993 19.334C11.766 19.334 9.99935 17.6207 9.99935 15.2007C9.99935 13.6407 11.2993 11.574 13.9993 9.10732C16.6993 11.574 17.9993 13.634 17.9993 15.2007C17.9993 17.6207 16.2327 19.334 13.9993 19.334ZM11.2193 15.334C11.466 15.334 11.666 15.5073 11.7127 15.7473C11.986 17.2273 13.2327 17.734 14.1393 17.6607C14.426 17.6473 14.666 17.874 14.666 18.1607C14.666 18.4273 14.4527 18.6473 14.186 18.6607C12.766 18.7473 11.106 17.934 10.726 15.914C10.6727 15.614 10.9127 15.334 11.2193 15.334Z" fill="#667085"/>
</svg>
