<svg width="20" height="20" viewBox="0 0 20 20" fill="none" xmlns="http://www.w3.org/2000/svg">
<g clip-path="url(#clip0_2428_29414)">
<path d="M9.16602 5.83332H10.8327V7.49999H9.16602V5.83332ZM9.99935 14.1667C10.4577 14.1667 10.8327 13.7917 10.8327 13.3333V9.99999C10.8327 9.54166 10.4577 9.16666 9.99935 9.16666C9.54102 9.16666 9.16602 9.54166 9.16602 9.99999V13.3333C9.16602 13.7917 9.54102 14.1667 9.99935 14.1667ZM9.99935 1.66666C5.39935 1.66666 1.66602 5.39999 1.66602 9.99999C1.66602 14.6 5.39935 18.3333 9.99935 18.3333C14.5993 18.3333 18.3327 14.6 18.3327 9.99999C18.3327 5.39999 14.5993 1.66666 9.99935 1.66666ZM9.99935 16.6667C6.32435 16.6667 3.33268 13.675 3.33268 9.99999C3.33268 6.32499 6.32435 3.33332 9.99935 3.33332C13.6743 3.33332 16.666 6.32499 16.666 9.99999C16.666 13.675 13.6743 16.6667 9.99935 16.6667Z" fill="#D7321D"/>
</g>
<defs>
<clipPath id="clip0_2428_29414">
<rect width="20" height="20" fill="white"/>
</clipPath>
</defs>
</svg>
