<svg width="40" height="40" viewBox="0 0 40 40" fill="none" xmlns="http://www.w3.org/2000/svg">
<rect opacity="0.25" x="0.75" y="0.75" width="38.5" height="38.5" rx="18.75" stroke="white" stroke-width="1.5"/>
<path d="M28.0625 11H12.2715C11.5742 11 11 11.6152 11 12.3535V28.0625C11 28.8008 11.5742 29.375 12.2715 29.375H28.0625C28.7598 29.375 29.375 28.8008 29.375 28.0625V12.3535C29.375 11.6152 28.7598 11 28.0625 11ZM16.5371 26.75H13.8301V18.0137H16.5371V26.75ZM15.1836 16.7832C14.2812 16.7832 13.584 16.0859 13.584 15.2246C13.584 14.3633 14.2812 13.625 15.1836 13.625C16.0449 13.625 16.7422 14.3633 16.7422 15.2246C16.7422 16.0859 16.0449 16.7832 15.1836 16.7832ZM26.75 26.75H24.002V22.4844C24.002 21.5 24.002 20.1875 22.6074 20.1875C21.1719 20.1875 20.9668 21.2949 20.9668 22.4434V26.75H18.2598V18.0137H20.8438V19.2031H20.8848C21.2539 18.5059 22.1562 17.7676 23.4688 17.7676C26.2168 17.7676 26.75 19.6133 26.75 21.9512V26.75Z" fill="white"/>
</svg>
