<svg width="28" height="28" viewBox="0 0 28 28" fill="none" xmlns="http://www.w3.org/2000/svg">
<circle cx="14" cy="14" r="14" fill="#F5F9F9"/>
<g clip-path="url(#clip0_2427_30110)">
<path d="M18.82 16.1733L17.1267 15.98C16.72 15.9333 16.32 16.0733 16.0334 16.36L14.8067 17.5867C12.92 16.6267 11.3734 15.0867 10.4134 13.1933L11.6467 11.96C11.9334 11.6733 12.0734 11.2733 12.0267 10.8667L11.8334 9.18667C11.7534 8.51333 11.1867 8.00667 10.5067 8.00667H9.35336C8.60003 8.00667 7.97336 8.63333 8.02003 9.38667C8.37336 15.08 12.9267 19.6267 18.6134 19.98C19.3667 20.0267 19.9934 19.4 19.9934 18.6467V17.4933C20 16.82 19.4934 16.2533 18.82 16.1733Z" fill="#667085"/>
<path d="M14.6667 8H19.3333C19.7 8 20 8.3 20 8.66667V12C20 12.3667 19.7 12.6667 19.3333 12.6667H16L14 14.6667V8.66667C14 8.3 14.3 8 14.6667 8Z" fill="#98A2B3"/>
</g>
<defs>
<clipPath id="clip0_2427_30110">
<rect width="16" height="16" fill="white" transform="translate(6 6)"/>
</clipPath>
</defs>
</svg>
