<svg width="12" height="12" viewBox="0 0 12 12" fill="none" xmlns="http://www.w3.org/2000/svg">
<path d="M6 1.5L0.5 5.7L1.105 6.495L2 5.81V10.5H10V5.81L10.895 6.49L11.5 5.7L6 1.5ZM9 9.5H3V5.05L6 2.76L9 5.05V9.5ZM4.5 7C4.5 7.275 4.275 7.5 4 7.5C3.725 7.5 3.5 7.275 3.5 7C3.5 6.725 3.725 6.5 4 6.5C4.275 6.5 4.5 6.725 4.5 7ZM6 6.5C6.275 6.5 6.5 6.725 6.5 7C6.5 7.275 6.275 7.5 6 7.5C5.725 7.5 5.5 7.275 5.5 7C5.5 6.725 5.725 6.5 6 6.5ZM7.5 7C7.5 6.725 7.725 6.5 8 6.5C8.275 6.5 8.5 6.725 8.5 7C8.5 7.275 8.275 7.5 8 7.5C7.725 7.5 7.5 7.275 7.5 7Z" fill="#667085"/>
</svg>
