<svg width="28" height="28" viewBox="0 0 28 28" fill="none" xmlns="http://www.w3.org/2000/svg">
<circle cx="14" cy="14" r="14" fill="#F5F9F9"/>
<g clip-path="url(#clip0_2427_30102)">
<path d="M14.0007 10.6673C13.2673 10.6673 12.6673 11.2673 12.6673 12.0007C12.6673 12.734 13.2673 13.334 14.0007 13.334C14.734 13.334 15.334 12.734 15.334 12.0007C15.334 11.2673 14.734 10.6673 14.0007 10.6673ZM14.0007 7.33398C16.1807 7.33398 18.6673 8.97398 18.6673 12.1007C18.6673 14.0873 17.2473 16.1807 14.4073 18.3607C14.1673 18.5473 13.834 18.5473 13.594 18.3607C10.754 16.174 9.33398 14.0873 9.33398 12.1007C9.33398 8.97398 11.8207 7.33398 14.0007 7.33398Z" fill="#667085"/>
<path d="M18.0007 19H10.0007C9.63398 19 9.33398 19.3 9.33398 19.6667C9.33398 20.0333 9.63398 20.3333 10.0007 20.3333H18.0007C18.3673 20.3333 18.6673 20.0333 18.6673 19.6667C18.6673 19.3 18.3673 19 18.0007 19Z" fill="#98A2B3"/>
</g>
<defs>
<clipPath id="clip0_2427_30102">
<rect width="16" height="16" fill="white" transform="translate(6 6)"/>
</clipPath>
</defs>
</svg>
