<svg width="12" height="12" viewBox="0 0 12 12" fill="none" xmlns="http://www.w3.org/2000/svg">
<path d="M7.5 6H8.5C8.5 4.62 7.38 3.5 6 3.5V4.5C6.83 4.5 7.5 5.17 7.5 6ZM9.5 6H10.5C10.5 3.515 8.485 1.5 6 1.5V2.5C7.935 2.5 9.5 4.065 9.5 6ZM10 7.75C9.375 7.75 8.775 7.65 8.215 7.465C8.165 7.45 8.11 7.44 8.06 7.44C7.93 7.44 7.805 7.49 7.705 7.585L6.605 8.685C5.19 7.965 4.03 6.81 3.31 5.39L4.41 4.285C4.55 4.155 4.59 3.96 4.535 3.785C4.35 3.225 4.25 2.625 4.25 2C4.25 1.725 4.025 1.5 3.75 1.5H2C1.725 1.5 1.5 1.725 1.5 2C1.5 6.695 5.305 10.5 10 10.5C10.275 10.5 10.5 10.275 10.5 10V8.25C10.5 7.975 10.275 7.75 10 7.75ZM2.515 2.5H3.265C3.3 2.94 3.375 3.375 3.49 3.79L2.89 4.395C2.69 3.79 2.56 3.16 2.515 2.5ZM9.5 9.485C8.84 9.44 8.2 9.31 7.6 9.105L8.2 8.505C8.625 8.625 9.06 8.7 9.5 8.73V9.485Z" fill="#667085"/>
</svg>
