<svg width="48" height="48" viewBox="0 0 48 48" fill="none" xmlns="http://www.w3.org/2000/svg">
<path d="M35 12H7V14.5H35V12Z" fill="#EB998E"/>
<path d="M7.4 37.5C6.6 37.5 5.91667 37.2167 5.35 36.65C4.78333 36.0833 4.5 35.4 4.5 34.6V13.4C4.5 12.6 4.78333 11.9167 5.35 11.35C5.91667 10.7833 6.6 10.5 7.4 10.5H34.6C35.4 10.5 36.0833 10.7833 36.65 11.35C37.2167 11.9167 37.5 12.6 37.5 13.4V21.325C37.5 21.9463 36.9963 22.45 36.375 22.45C35.7537 22.45 35.25 21.9463 35.25 21.325V14.6L21.3906 24.527C21.0384 24.7792 20.5639 24.7761 20.2151 24.5192L6.75 14.6V34.6C6.75 34.8 6.80833 34.9583 6.925 35.075C7.04167 35.1917 7.2 35.25 7.4 35.25H25.325C25.9463 35.25 26.45 35.7537 26.45 36.375C26.45 36.9963 25.9463 37.5 25.325 37.5H7.4ZM8.05 12.75L20.2146 21.7184C20.5636 21.9757 21.0387 21.9788 21.391 21.726L33.9 12.75H8.05Z" fill="black"/>
<path d="M40.8996 35.6002L37.7044 38.9168C37.2853 39.3518 37.2917 40.0423 37.7188 40.4694C38.1505 40.9011 38.85 40.9024 39.2833 40.4723L44.5873 35.2073C44.9803 34.8172 44.9814 34.182 44.5899 33.7905L39.3046 28.5052C38.8621 28.0627 38.1429 28.0684 37.7075 28.5179C37.2855 28.9535 37.2866 29.6458 37.7101 30.0799L40.8996 33.3502H32.4746C31.8533 33.3502 31.3496 33.8539 31.3496 34.4752C31.3496 35.0965 31.8533 35.6002 32.4746 35.6002H40.8996Z" fill="#9BC0C4"/>
</svg>
