<svg width="18" height="18" viewBox="0 0 18 18" fill="none" xmlns="http://www.w3.org/2000/svg">
<rect x="3.26074" y="3.18652" width="4.44289" height="5.5159" fill="#F7D6D2"/>
<rect x="10.4883" y="9.28955" width="4.44289" height="5.5159" fill="#D7E6E7"/>
<path d="M9.80625 6.61875V3.16875C9.80625 3.00625 9.85625 2.875 9.95625 2.775C10.0562 2.675 10.1875 2.625 10.35 2.625H14.8312C14.9937 2.625 15.125 2.675 15.225 2.775C15.325 2.875 15.375 3.00625 15.375 3.16875V6.61875C15.375 6.76875 15.3219 6.89687 15.2156 7.00312C15.1094 7.10937 14.9812 7.1625 14.8312 7.1625H10.3312C10.1812 7.1625 10.0562 7.10937 9.95625 7.00312C9.85625 6.89687 9.80625 6.76875 9.80625 6.61875ZM2.625 8.7V3.16875C2.625 3.00625 2.67813 2.875 2.78438 2.775C2.89063 2.675 3.01875 2.625 3.16875 2.625H7.66875C7.81875 2.625 7.94375 2.675 8.04375 2.775C8.14375 2.875 8.19375 3.00625 8.19375 3.16875V8.7C8.19375 8.85 8.14375 8.97813 8.04375 9.08438C7.94375 9.19063 7.8125 9.24375 7.65 9.24375H3.16875C3.00625 9.24375 2.875 9.19063 2.775 9.08438C2.675 8.97813 2.625 8.85 2.625 8.7ZM9.80625 14.8312V9.3C9.80625 9.15 9.85625 9.02187 9.95625 8.91562C10.0562 8.80937 10.1875 8.75625 10.35 8.75625H14.8312C14.9937 8.75625 15.125 8.80937 15.225 8.91562C15.325 9.02187 15.375 9.15 15.375 9.3V14.8312C15.375 14.9937 15.3219 15.125 15.2156 15.225C15.1094 15.325 14.9812 15.375 14.8312 15.375H10.3312C10.1812 15.375 10.0562 15.325 9.95625 15.225C9.85625 15.125 9.80625 14.9937 9.80625 14.8312ZM2.625 14.8312V11.3813C2.625 11.2313 2.67813 11.1031 2.78438 10.9969C2.89063 10.8906 3.01875 10.8375 3.16875 10.8375H7.66875C7.81875 10.8375 7.94375 10.8906 8.04375 10.9969C8.14375 11.1031 8.19375 11.2313 8.19375 11.3813V14.8312C8.19375 14.9937 8.14375 15.125 8.04375 15.225C7.94375 15.325 7.8125 15.375 7.65 15.375H3.16875C3.00625 15.375 2.875 15.325 2.775 15.225C2.675 15.125 2.625 14.9937 2.625 14.8312ZM3.46875 8.38125H7.35V3.46875H3.46875V8.38125ZM10.65 14.5312H14.5312V9.61875H10.65V14.5312ZM10.65 6.31875H14.5312V3.46875H10.65V6.31875ZM3.46875 14.5312H7.35V11.6812H3.46875V14.5312Z" fill="#1D2939"/>
</svg>
