<svg width="13" height="13" viewBox="0 0 13 13" fill="none" xmlns="http://www.w3.org/2000/svg">
<rect x="0.335571" y="2.68408" width="2.68421" height="9.39474" fill="#D7E6E7"/>
<rect x="9.73022" y="2.68408" width="2.68421" height="9.39474" fill="#F7D6D2"/>
<path d="M0.973026 12.4145C0.704605 12.4145 0.475329 12.3194 0.285197 12.1293C0.0950658 11.9391 0 11.7099 0 11.4414V3.15395C0 2.89671 0.0950658 2.67023 0.285197 2.47451C0.475329 2.27878 0.704605 2.18092 0.973026 2.18092H4.14375V0.973026C4.14375 0.704605 4.23882 0.475329 4.42895 0.285197C4.61908 0.0950658 4.84836 0 5.11678 0H7.63322C7.90164 0 8.13092 0.0950658 8.32105 0.285197C8.51118 0.475329 8.60625 0.704605 8.60625 0.973026V2.18092H11.777C12.0454 2.18092 12.2747 2.27878 12.4648 2.47451C12.6549 2.67023 12.75 2.89671 12.75 3.15395V11.4414C12.75 11.7099 12.6549 11.9391 12.4648 12.1293C12.2747 12.3194 12.0454 12.4145 11.777 12.4145H0.973026ZM4.91546 2.18092H7.83454V0.973026C7.83454 0.917105 7.81497 0.866776 7.77582 0.822039C7.73668 0.777303 7.68914 0.754934 7.63322 0.754934H5.11678C5.06086 0.754934 5.01332 0.777303 4.97418 0.822039C4.93503 0.866776 4.91546 0.917105 4.91546 0.973026V2.18092ZM0.973026 11.6595H11.777C11.8329 11.6595 11.8832 11.6372 11.928 11.5924C11.9727 11.5477 11.9951 11.4974 11.9951 11.4414V3.15395C11.9951 3.10921 11.9727 3.06447 11.928 3.01974C11.8832 2.975 11.8329 2.95263 11.777 2.95263H0.973026C0.917105 2.95263 0.866776 2.975 0.822039 3.01974C0.777303 3.06447 0.754934 3.10921 0.754934 3.15395V11.4414C0.754934 11.4974 0.777303 11.5477 0.822039 11.5924C0.866776 11.6372 0.917105 11.6595 0.973026 11.6595Z" fill="#1D2939"/>
<path d="M6.76143 7.76729V9.39459C6.76143 9.6077 6.58868 9.78045 6.37558 9.78045C6.16247 9.78045 5.98972 9.6077 5.98972 9.39459V7.76729H4.36242C4.14932 7.76729 3.97656 7.59454 3.97656 7.38143C3.97656 7.16833 4.14932 6.99558 4.36242 6.99558H5.98972V5.36828C5.98972 5.15518 6.16247 4.98242 6.37558 4.98242C6.58868 4.98242 6.76143 5.15518 6.76143 5.36828V6.99558H8.38873C8.60184 6.99558 8.77459 7.16833 8.77459 7.38143C8.77459 7.59454 8.60184 7.76729 8.38873 7.76729H6.76143Z" fill="#1D2939"/>
</svg>
