<svg width="16" height="14" viewBox="0 0 16 14" fill="none" xmlns="http://www.w3.org/2000/svg">
<path d="M14.75 11.302V5.302L8.75 11.302H14.75Z" fill="#F7D6D2"/>
<path d="M1.25 0.802002V6.802L7.25 0.802002H1.25Z" fill="#D7E6E7"/>
<path d="M0.875 13.027V1.5145C0.875 1.227 0.98125 0.973877 1.19375 0.755127C1.40625 0.536377 1.6625 0.427002 1.9625 0.427002H14.0375C14.325 0.427002 14.5781 0.536377 14.7969 0.755127C15.0156 0.973877 15.125 1.227 15.125 1.5145V10.5895C15.125 10.877 15.0156 11.1301 14.7969 11.3489C14.5781 11.5676 14.325 11.677 14.0375 11.677H3.5375L1.79375 13.402C1.61875 13.577 1.42188 13.6176 1.20312 13.5239C0.984375 13.4301 0.875 13.2645 0.875 13.027ZM1.71875 12.277L3.1625 10.8333H14.0375C14.1125 10.8333 14.1719 10.8114 14.2156 10.7676C14.2594 10.7239 14.2812 10.6645 14.2812 10.5895V1.5145C14.2812 1.4395 14.2594 1.38013 14.2156 1.33638C14.1719 1.29263 14.1125 1.27075 14.0375 1.27075H1.9625C1.8875 1.27075 1.82813 1.29263 1.78438 1.33638C1.74063 1.38013 1.71875 1.4395 1.71875 1.5145V12.277ZM1.71875 1.5145V10.5895C1.71875 10.6645 1.71875 10.7239 1.71875 10.7676C1.71875 10.8114 1.71875 10.8333 1.71875 10.8333V12.277V1.5145Z" fill="#1D2939"/>
<path d="M9.07239 9.0895H5.6838C5.50145 9.0895 5.3419 9.01859 5.20514 8.87677C5.06838 8.73494 5 8.57792 5 8.4057V5.33621C5 5.2653 5.0152 5.19692 5.04559 5.13107C5.07598 5.06523 5.10637 5.00191 5.13676 4.94113L7.03647 2.88999C7.14293 2.77505 7.32467 2.77493 7.43128 2.88974C7.50219 2.94039 7.52752 3.07007 7.52245 3.1106C7.51739 3.15112 7.52245 3.1278 7.52245 3.20884V3.33041L7.12737 5.21465H10.44C10.5413 5.21465 10.6147 5.23744 10.6603 5.28303C10.7059 5.32862 10.7287 5.40206 10.7287 5.50336V5.80727C10.7287 5.85793 10.7211 5.93137 10.7059 6.02761C10.6907 6.12385 10.673 6.20236 10.6527 6.26314L9.55865 8.80079C9.49787 8.90209 9.42949 8.97553 9.35351 9.02112C9.27753 9.06671 9.18383 9.0895 9.07239 9.0895Z" fill="#1D2939"/>
</svg>
