<svg width="100" height="40" viewBox="0 0 100 40" fill="none" xmlns="http://www.w3.org/2000/svg">
<path d="M19.1835 26.7766C18.0633 26.7766 17.0211 26.5781 16.0569 26.1811C15.0927 25.7841 14.249 25.2311 13.5258 24.5221C12.8168 23.8131 12.2568 22.9907 11.8455 22.0548C11.4485 21.1048 11.25 20.0839 11.25 18.9921C11.25 17.886 11.4485 16.8651 11.8455 15.9293C12.2426 14.9934 12.7956 14.1781 13.5046 13.4833C14.2277 12.7743 15.0643 12.2284 16.0143 11.8455C16.9786 11.4485 18.0208 11.25 19.1409 11.25C20.2753 11.25 21.3175 11.4485 22.2675 11.8455C23.2318 12.2284 24.0683 12.7743 24.7773 13.4833C25.5005 14.1781 26.0606 15.0005 26.4576 15.9505C26.8546 16.8864 27.0531 17.9073 27.0531 19.0133C27.0531 20.1052 26.8546 21.1261 26.4576 22.0761C26.0606 23.012 25.5005 23.8344 24.7773 24.5434C24.0683 25.2382 23.2388 25.7841 22.2888 26.1811C21.3388 26.5781 20.3037 26.7766 19.1835 26.7766ZM19.1409 23.7351C20.0484 23.7351 20.8354 23.5366 21.5018 23.1396C22.1683 22.7426 22.6858 22.1896 23.0545 21.4806C23.4374 20.7574 23.6288 19.9279 23.6288 18.9921C23.6288 18.2831 23.5224 17.645 23.3097 17.0778C23.097 16.4964 22.7922 16.0002 22.3952 15.589C21.9981 15.1636 21.5231 14.8445 20.9701 14.6318C20.4313 14.405 19.8216 14.2915 19.1409 14.2915C18.2476 14.2915 17.4677 14.49 16.8013 14.8871C16.1349 15.2699 15.6102 15.8158 15.2274 16.5248C14.8587 17.2196 14.6744 18.042 14.6744 18.9921C14.6744 19.701 14.7807 20.3462 14.9934 20.9276C15.2061 21.5089 15.511 22.0123 15.908 22.4377C16.305 22.8489 16.7729 23.1679 17.3118 23.3948C17.8648 23.6217 18.4745 23.7351 19.1409 23.7351ZM25.8833 27.7125L21.9272 23.7564L23.8627 21.8208L27.8188 25.777L25.8833 27.7125Z" fill="white"/>
<path d="M36.5464 26.7554C35.3128 26.7554 34.221 26.4931 33.271 25.9684C32.3351 25.4438 31.5978 24.7206 31.0589 23.7989C30.5343 22.8631 30.272 21.7996 30.272 20.6085V11.5052H33.6325V20.8C33.6325 21.3955 33.7601 21.913 34.0154 22.3526C34.2706 22.7922 34.618 23.1325 35.0576 23.3735C35.5113 23.6004 36.0076 23.7139 36.5464 23.7139C37.1136 23.7139 37.6099 23.6004 38.0353 23.3735C38.4607 23.1325 38.7939 22.7993 39.035 22.3739C39.2902 21.9343 39.4178 21.4168 39.4178 20.8212V11.5052H42.7784V20.6298C42.7784 21.8209 42.516 22.8773 41.9914 23.7989C41.4668 24.7206 40.7365 25.4438 39.8007 25.9684C38.8648 26.4931 37.7801 26.7554 36.5464 26.7554Z" fill="white"/>
<path d="M49.056 20.332V17.8648H52.2251C52.8916 17.8648 53.402 17.6946 53.7565 17.3543C54.1252 17.014 54.3095 16.5532 54.3095 15.9718C54.3095 15.433 54.1323 14.9863 53.7778 14.6318C53.4233 14.2773 52.9128 14.1001 52.2464 14.1001H49.056V11.5052H52.6292C53.6218 11.5052 54.4939 11.6967 55.2454 12.0795C55.9969 12.4482 56.5854 12.9657 57.0107 13.6322C57.4361 14.2986 57.6488 15.0643 57.6488 15.9293C57.6488 16.8084 57.4361 17.5812 57.0107 18.2476C56.5854 18.8999 55.9898 19.4104 55.2241 19.779C54.4584 20.1477 53.558 20.332 52.5229 20.332H49.056ZM46.5037 26.5214V11.5052H49.843V26.5214H46.5037ZM54.6711 26.5214L49.9918 20.0555L53.0546 19.226L58.6272 26.5214H54.6711Z" fill="white"/>
<path d="M61.1504 26.5201V11.5039H64.4897V26.5201H61.1504ZM63.7027 20.6285V17.7571H71.2108V20.6285H63.7027ZM63.7027 14.3753V11.5039H71.5511V14.3753H63.7027Z" fill="white"/>
<path d="M79.3749 20.9262L73.5897 11.5039H77.4607L81.906 19.1183H79.4175L83.8628 11.5039H87.6487L81.8209 20.9262H79.3749ZM78.9708 26.5201V19.3948H82.3101V26.5201H78.9708Z" fill="white"/>
</svg>
