<svg width="24" height="24" viewBox="0 0 24 24" fill="none" xmlns="http://www.w3.org/2000/svg">
<path d="M19 19.5H5C5.66667 18.3333 8 16 12 16C16 16 18.3333 18.3333 19 19.5Z" fill="#F7D6D2"/>
<circle cx="12" cy="10.1001" r="2.5" fill="#D7E6E7"/>
<path d="M4.625 18.575C5.60833 17.6583 6.72083 16.9208 7.9625 16.3625C9.20417 15.8042 10.55 15.525 12 15.525C13.45 15.525 14.7958 15.8042 16.0375 16.3625C17.2792 16.9208 18.3917 17.6583 19.375 18.575V4.95C19.375 4.86667 19.3417 4.79167 19.275 4.725C19.2083 4.65833 19.1333 4.625 19.05 4.625H4.95C4.86667 4.625 4.79167 4.65833 4.725 4.725C4.65833 4.79167 4.625 4.86667 4.625 4.95V18.575ZM12.025 13.4C12.925 13.4 13.6875 13.0875 14.3125 12.4625C14.9375 11.8375 15.25 11.075 15.25 10.175C15.25 9.275 14.9375 8.5125 14.3125 7.8875C13.6875 7.2625 12.925 6.95 12.025 6.95C11.125 6.95 10.3667 7.2625 9.75 7.8875C9.13333 8.5125 8.825 9.275 8.825 10.175C8.825 11.075 9.13333 11.8375 9.75 12.4625C10.3667 13.0875 11.125 13.4 12.025 13.4ZM4.95 20.5C4.55 20.5 4.20833 20.3583 3.925 20.075C3.64167 19.7917 3.5 19.45 3.5 19.05V4.95C3.5 4.55 3.64167 4.20833 3.925 3.925C4.20833 3.64167 4.55 3.5 4.95 3.5H19.05C19.45 3.5 19.7917 3.64167 20.075 3.925C20.3583 4.20833 20.5 4.55 20.5 4.95V19.05C20.5 19.45 20.3583 19.7917 20.075 20.075C19.7917 20.3583 19.45 20.5 19.05 20.5H4.95ZM5.625 19.375H18.375C18.375 19.325 18.375 19.2875 18.375 19.2625C18.375 19.2375 18.375 19.2083 18.375 19.175C17.4417 18.3417 16.4375 17.7125 15.3625 17.2875C14.2875 16.8625 13.1667 16.65 12 16.65C10.85 16.65 9.73333 16.8583 8.65 17.275C7.56667 17.6917 6.55833 18.3167 5.625 19.15C5.625 19.2 5.625 19.2375 5.625 19.2625C5.625 19.2875 5.625 19.325 5.625 19.375ZM12.05 12.25C11.4667 12.25 10.9708 12.05 10.5625 11.65C10.1542 11.25 9.95 10.7583 9.95 10.175C9.95 9.59167 10.1542 9.1 10.5625 8.7C10.9708 8.3 11.4583 8.1 12.025 8.1C12.6083 8.1 13.1042 8.30417 13.5125 8.7125C13.9208 9.12083 14.125 9.60833 14.125 10.175C14.125 10.7583 13.9208 11.25 13.5125 11.65C13.1042 12.05 12.6167 12.25 12.05 12.25Z" fill="#1D2939"/>
</svg>
