<svg width="24" height="24" viewBox="0 0 24 24" fill="none" xmlns="http://www.w3.org/2000/svg">
<rect x="4.44727" y="7.5791" width="3.57895" height="12.5263" fill="#D7E6E7"/>
<rect x="16.9736" y="7.5791" width="3.57895" height="12.5263" fill="#F7D6D2"/>
<path d="M5.29737 20.5526C4.93947 20.5526 4.63377 20.4259 4.38026 20.1724C4.12675 19.9189 4 19.6132 4 19.2553V8.20526C4 7.86228 4.12675 7.56031 4.38026 7.29934C4.63377 7.03838 4.93947 6.90789 5.29737 6.90789H9.525V5.29737C9.525 4.93947 9.65175 4.63377 9.90526 4.38026C10.1588 4.12675 10.4645 4 10.8224 4H14.1776C14.5355 4 14.8412 4.12675 15.0947 4.38026C15.3482 4.63377 15.475 4.93947 15.475 5.29737V6.90789H19.7026C20.0605 6.90789 20.3662 7.03838 20.6197 7.29934C20.8732 7.56031 21 7.86228 21 8.20526V19.2553C21 19.6132 20.8732 19.9189 20.6197 20.1724C20.3662 20.4259 20.0605 20.5526 19.7026 20.5526H5.29737ZM10.5539 6.90789H14.4461V5.29737C14.4461 5.22281 14.42 5.1557 14.3678 5.09605C14.3156 5.0364 14.2522 5.00658 14.1776 5.00658H10.8224C10.7478 5.00658 10.6844 5.0364 10.6322 5.09605C10.58 5.1557 10.5539 5.22281 10.5539 5.29737V6.90789ZM5.29737 19.5461H19.7026C19.7772 19.5461 19.8443 19.5162 19.9039 19.4566C19.9636 19.3969 19.9934 19.3298 19.9934 19.2553V8.20526C19.9934 8.14561 19.9636 8.08596 19.9039 8.02632C19.8443 7.96667 19.7772 7.93684 19.7026 7.93684H5.29737C5.22281 7.93684 5.1557 7.96667 5.09605 8.02632C5.0364 8.08596 5.00658 8.14561 5.00658 8.20526V19.2553C5.00658 19.3298 5.0364 19.3969 5.09605 19.4566C5.1557 19.5162 5.22281 19.5461 5.29737 19.5461Z" fill="#1D2939"/>
<path d="M13.0154 14.3562V16.526C13.0154 16.8101 12.7851 17.0404 12.5009 17.0404C12.2168 17.0404 11.9865 16.8101 11.9865 16.526V14.3562H9.81672C9.53258 14.3562 9.30225 14.1259 9.30225 13.8418C9.30225 13.5576 9.53258 13.3273 9.81672 13.3273H11.9865V11.1575C11.9865 10.8734 12.2168 10.6431 12.5009 10.6431C12.7851 10.6431 13.0154 10.8734 13.0154 11.1575V13.3273H15.1851C15.4693 13.3273 15.6996 13.5576 15.6996 13.8418C15.6996 14.1259 15.4693 14.3562 15.1851 14.3562H13.0154Z" fill="#1D2939"/>
</svg>
