<svg width="24" height="24" viewBox="0 0 24 24" fill="none" xmlns="http://www.w3.org/2000/svg">
<rect x="4.34766" y="4.24854" width="5.92385" height="7.35453" fill="#F7D6D2"/>
<rect x="13.9844" y="12.3862" width="5.92385" height="7.35453" fill="#D7E6E7"/>
<path d="M13.075 8.825V4.225C13.075 4.00833 13.1417 3.83333 13.275 3.7C13.4083 3.56667 13.5833 3.5 13.8 3.5H19.775C19.9917 3.5 20.1667 3.56667 20.3 3.7C20.4333 3.83333 20.5 4.00833 20.5 4.225V8.825C20.5 9.025 20.4292 9.19583 20.2875 9.3375C20.1458 9.47917 19.975 9.55 19.775 9.55H13.775C13.575 9.55 13.4083 9.47917 13.275 9.3375C13.1417 9.19583 13.075 9.025 13.075 8.825ZM3.5 11.6V4.225C3.5 4.00833 3.57083 3.83333 3.7125 3.7C3.85417 3.56667 4.025 3.5 4.225 3.5H10.225C10.425 3.5 10.5917 3.56667 10.725 3.7C10.8583 3.83333 10.925 4.00833 10.925 4.225V11.6C10.925 11.8 10.8583 11.9708 10.725 12.1125C10.5917 12.2542 10.4167 12.325 10.2 12.325H4.225C4.00833 12.325 3.83333 12.2542 3.7 12.1125C3.56667 11.9708 3.5 11.8 3.5 11.6ZM13.075 19.775V12.4C13.075 12.2 13.1417 12.0292 13.275 11.8875C13.4083 11.7458 13.5833 11.675 13.8 11.675H19.775C19.9917 11.675 20.1667 11.7458 20.3 11.8875C20.4333 12.0292 20.5 12.2 20.5 12.4V19.775C20.5 19.9917 20.4292 20.1667 20.2875 20.3C20.1458 20.4333 19.975 20.5 19.775 20.5H13.775C13.575 20.5 13.4083 20.4333 13.275 20.3C13.1417 20.1667 13.075 19.9917 13.075 19.775ZM3.5 19.775V15.175C3.5 14.975 3.57083 14.8042 3.7125 14.6625C3.85417 14.5208 4.025 14.45 4.225 14.45H10.225C10.425 14.45 10.5917 14.5208 10.725 14.6625C10.8583 14.8042 10.925 14.975 10.925 15.175V19.775C10.925 19.9917 10.8583 20.1667 10.725 20.3C10.5917 20.4333 10.4167 20.5 10.2 20.5H4.225C4.00833 20.5 3.83333 20.4333 3.7 20.3C3.56667 20.1667 3.5 19.9917 3.5 19.775ZM4.625 11.175H9.8V4.625H4.625V11.175ZM14.2 19.375H19.375V12.825H14.2V19.375ZM14.2 8.425H19.375V4.625H14.2V8.425ZM4.625 19.375H9.8V15.575H4.625V19.375Z" fill="#1D2939"/>
</svg>
