<svg width="24" height="24" viewBox="0 0 24 24" fill="none" xmlns="http://www.w3.org/2000/svg">
<rect x="8" y="5" width="9" height="3" fill="#F7D6D2"/>
<rect x="5" y="11" width="3" height="8" fill="#D7E6E7"/>
<rect x="17" y="11" width="3" height="8" fill="#D7E6E7"/>
<path d="M14.625 8.24974C14.625 8.54194 14.3859 8.78094 14.0938 8.78094H13.0313V9.84336C13.0313 10.1356 12.7923 10.3746 12.5001 10.3746C12.208 10.3746 11.9689 10.1355 11.9689 9.84336V8.78094H10.9065C10.6143 8.78094 10.3753 8.54192 10.3753 8.24974C10.3753 7.95754 10.6143 7.71853 10.9065 7.71853H11.9689V6.65612C11.9689 6.36392 12.208 6.12492 12.5001 6.12492C12.7923 6.12492 13.0313 6.36394 13.0313 6.65612V7.71853H14.0938C14.386 7.71853 14.625 7.95755 14.625 8.24974ZM21 11.9686V19.4061C21 19.6983 20.761 19.9374 20.4688 19.9374H4.53121C4.23901 19.9374 4 19.6983 4 19.4061V11.9686C4 11.3842 4.47803 10.9062 5.06241 10.9062H7.71868V5.06241C7.71868 4.47803 8.19671 4 8.78109 4H16.2186C16.803 4 17.281 4.47803 17.281 5.06241V10.9062H19.9373C20.5219 10.9062 20.9999 11.3844 20.9999 11.9688L21 11.9686ZM5.06241 18.8749H7.71868V11.9686H5.06241V18.8749ZM13.5625 14.625H11.4374V18.8751H13.5625V14.625ZM16.2187 5.06241H8.78118V18.875H10.375L10.3748 14.6251C10.3748 14.0407 10.8529 13.5626 11.4373 13.5626H13.5623C14.1467 13.5626 14.6247 14.0407 14.6247 14.6251V18.8752H16.2186L16.2187 5.06241ZM19.9376 11.9687H17.2813V18.875H19.9376V11.9687Z" fill="#1D2939"/>
</svg>
