<svg width="24" height="24" viewBox="0 0 24 24" fill="none" xmlns="http://www.w3.org/2000/svg">
<path d="M21 17.7358V9.73584L13 17.7358H21Z" fill="#F7D6D2"/>
<path d="M3 3.73584V11.7358L11 3.73584H3Z" fill="#D7E6E7"/>
<path d="M2.5 20.0358V4.68584C2.5 4.30251 2.64167 3.96501 2.925 3.67334C3.20833 3.38167 3.55 3.23584 3.95 3.23584H20.05C20.4333 3.23584 20.7708 3.38167 21.0625 3.67334C21.3542 3.96501 21.5 4.30251 21.5 4.68584V16.7858C21.5 17.1692 21.3542 17.5067 21.0625 17.7983C20.7708 18.09 20.4333 18.2358 20.05 18.2358H6.05L3.725 20.5358C3.49167 20.7692 3.22917 20.8233 2.9375 20.6983C2.64583 20.5733 2.5 20.3525 2.5 20.0358ZM3.625 19.0358L5.55 17.1108H20.05C20.15 17.1108 20.2292 17.0817 20.2875 17.0233C20.3458 16.965 20.375 16.8858 20.375 16.7858V4.68584C20.375 4.58584 20.3458 4.50667 20.2875 4.44834C20.2292 4.39001 20.15 4.36084 20.05 4.36084H3.95C3.85 4.36084 3.77083 4.39001 3.7125 4.44834C3.65417 4.50667 3.625 4.58584 3.625 4.68584V19.0358ZM3.625 4.68584V16.7858C3.625 16.8858 3.625 16.965 3.625 17.0233C3.625 17.0817 3.625 17.1108 3.625 17.1108V19.0358V4.68584Z" fill="#1D2939"/>
<path d="M13.4299 14.7858H8.91173C8.6686 14.7858 8.45586 14.6913 8.27352 14.5022C8.09117 14.3131 8 14.1037 8 13.8741V9.78146C8 9.68691 8.02026 9.59573 8.06078 9.50794C8.1013 9.42014 8.14182 9.33572 8.18235 9.25468L10.7153 6.51983C10.8572 6.36657 11.0996 6.36641 11.2417 6.51949C11.3363 6.58702 11.37 6.75994 11.3633 6.81396C11.3565 6.86799 11.3633 6.83691 11.3633 6.94496V7.10705L10.8365 9.61937H15.2533C15.3884 9.61937 15.4863 9.64976 15.5471 9.71054C15.6079 9.77133 15.6383 9.86925 15.6383 10.0043V10.4095C15.6383 10.4771 15.6281 10.575 15.6079 10.7033C15.5876 10.8316 15.564 10.9363 15.537 11.0174L14.0782 14.4009C13.9972 14.536 13.906 14.6339 13.8047 14.6947C13.7034 14.7554 13.5784 14.7858 13.4299 14.7858Z" fill="#1D2939"/>
</svg>
