<svg width="52" height="52" viewBox="0 0 52 52" fill="none" xmlns="http://www.w3.org/2000/svg">
<rect width="52" height="52" rx="26" fill="#FEF0C7"/>
<path d="M33.1993 38.6667C31.5993 38.6667 30.2438 38.1111 29.1327 37C28.0216 35.8889 27.466 34.5333 27.466 32.9333C27.466 31.3556 28.0216 30.0056 29.1327 28.8833C30.2438 27.7611 31.5993 27.2 33.1993 27.2C34.7771 27.2 36.1271 27.7611 37.2493 28.8833C38.3716 30.0056 38.9327 31.3556 38.9327 32.9333C38.9327 34.5333 38.3716 35.8889 37.2493 37C36.1271 38.1111 34.7771 38.6667 33.1993 38.6667ZM34.766 35.7C34.8994 35.8333 35.0438 35.9 35.1993 35.9C35.3549 35.9 35.4882 35.8333 35.5993 35.7C35.7327 35.5889 35.7994 35.4556 35.7994 35.3C35.7994 35.1444 35.7327 35 35.5993 34.8667L33.566 32.8333V29.7333C33.566 29.5778 33.5105 29.4444 33.3993 29.3333C33.2882 29.2222 33.1549 29.1667 32.9993 29.1667C32.8438 29.1667 32.7049 29.2222 32.5827 29.3333C32.4605 29.4444 32.3993 29.5778 32.3993 29.7333V32.9C32.3993 33.0111 32.4216 33.1222 32.466 33.2333C32.5105 33.3444 32.5771 33.4556 32.666 33.5667L34.766 35.7ZM16.5993 37C16.066 37 15.6105 36.8111 15.2327 36.4333C14.8549 36.0556 14.666 35.6 14.666 35.0667V16.7C14.666 16.1667 14.8382 15.7111 15.1827 15.3333C15.5271 14.9556 15.8549 14.7667 16.166 14.7667H22.866C22.9993 14.1222 23.3105 13.5833 23.7993 13.15C24.2882 12.7167 24.8771 12.5 25.566 12.5C26.2327 12.5 26.816 12.7167 27.316 13.15C27.816 13.5833 28.1216 14.1222 28.2327 14.7667H34.966C35.4993 14.7667 35.9549 14.9556 36.3327 15.3333C36.7105 15.7111 36.8993 16.1667 36.8993 16.7V25.9667C36.6327 25.8333 36.3771 25.7167 36.1327 25.6167C35.8882 25.5167 35.6438 25.4222 35.3993 25.3333V16.7C35.3993 16.5889 35.3549 16.4889 35.266 16.4C35.1771 16.3111 35.0771 16.2667 34.966 16.2667H31.4327V18.0667C31.4327 18.6 31.2382 19.0556 30.8493 19.4333C30.4605 19.8111 30.0105 20 29.4993 20H22.066C21.5327 20 21.0771 19.8111 20.6993 19.4333C20.3216 19.0556 20.1327 18.6 20.1327 18.0667V16.2667H16.5993C16.466 16.2667 16.3605 16.3111 16.2827 16.4C16.2049 16.4889 16.166 16.5889 16.166 16.7V35.0667C16.166 35.1778 16.2049 35.2722 16.2827 35.35C16.3605 35.4278 16.466 35.4667 16.5993 35.4667H25.6993C25.7882 35.7333 25.8882 35.9889 25.9993 36.2333C26.1105 36.4778 26.2549 36.7333 26.4327 37H16.5993Z" fill="#FDB022"/>
<path d="M26.5168 15.9836C26.2835 16.2169 26.0001 16.3336 25.6668 16.3336C25.3335 16.3336 25.0501 16.2169 24.8168 15.9836C24.5835 15.7503 24.4668 15.4669 24.4668 15.1336C24.4668 14.8003 24.5835 14.5169 24.8168 14.2836C25.0501 14.0503 25.3335 13.9336 25.6668 13.9336C26.0001 13.9336 26.2835 14.0447 26.5168 14.2669C26.7501 14.4891 26.8668 14.778 26.8668 15.1336C26.8668 15.4669 26.7501 15.7503 26.5168 15.9836Z" fill="#FDB022"/>
</svg>
