<svg width="96" height="96" viewBox="0 0 96 96" fill="none" xmlns="http://www.w3.org/2000/svg">
<g filter="url(#filter0_di_3375_61714)">
<circle cx="48" cy="46" r="32" fill="white"/>
<circle cx="48" cy="46" r="31.5" stroke="#F2F4F7"/>
</g>
<path d="M60.5158 47.5171C59.9492 48.209 57.4437 50.4766 57.2168 53.3681C57.2168 55.1874 58.6969 56.6672 60.5158 56.6672C62.3351 56.6672 63.8149 55.1871 63.8149 53.3681C63.5846 50.4702 61.0869 48.2155 60.5158 47.5171ZM60.5158 55.4376C59.3749 55.4376 58.4466 54.5092 58.4466 53.3683C58.4466 52.1098 59.6904 50.3409 60.5161 49.3459C61.3421 50.3397 62.5851 52.1065 62.5851 53.3683C62.5851 54.5092 61.6567 55.4376 60.5158 55.4376Z" fill="#98A2B3"/>
<path d="M29.3438 51.3186L30.2135 52.1883C32.7818 49.62 36.9609 49.62 39.5296 52.1883L40.3994 51.3186C37.3515 48.2708 32.3918 48.2708 29.3442 51.3186H29.3438Z" fill="#98A2B3"/>
<path d="M31.047 53.0165L31.9167 53.8862C33.5488 52.2539 36.2047 52.2539 37.837 53.8862L38.7067 53.0165C36.5949 50.9047 33.1588 50.9047 31.0469 53.0165H31.047Z" fill="#98A2B3"/>
<path d="M32.7422 54.7141L33.6119 55.5839C34.3082 54.8873 35.4412 54.887 36.1372 55.5833L37.0069 54.7135C35.8311 53.5381 33.9182 53.5381 32.7422 54.7141Z" fill="#98A2B3"/>
<path d="M60.8963 44.0298C59.6466 41.9717 57.923 40.224 55.8822 38.9461C55.707 34.5716 52.0943 31.0669 47.6778 31.0669C43.2446 31.0669 39.6213 34.5981 39.4711 38.9956C37.454 40.2759 35.7445 42.0238 34.5109 44.0694C30.1514 44.261 26.6641 47.867 26.6641 52.273C26.6641 56.801 30.3478 60.485 34.876 60.485C39.4042 60.485 43.0879 56.8013 43.0879 52.273C43.0879 48.1022 39.9623 44.6478 35.93 44.1287C36.8974 42.6873 38.1281 41.4265 39.5463 40.4245C40.1053 44.4125 43.5384 47.4912 47.6778 47.4912C51.8337 47.4912 55.2783 44.3879 55.8162 40.3769C57.2511 41.3778 58.4943 42.6384 59.474 44.0876C55.4376 44.6026 52.3073 48.0592 52.3073 52.2335C52.3073 56.7614 55.991 60.4454 60.5192 60.4454C65.0472 60.4454 68.7312 56.7617 68.7312 52.2335C68.7312 47.832 65.2505 44.2288 60.8971 44.0305L60.8963 44.0298ZM41.8576 52.2725C41.8576 56.1223 38.7255 59.2544 34.8757 59.2544C31.0259 59.2544 27.8938 56.1223 27.8938 52.2725C27.8938 48.4227 31.0259 45.2906 34.8757 45.2906C38.7255 45.2906 41.8576 48.4227 41.8576 52.2725ZM47.6775 46.2607C43.8277 46.2607 40.6957 43.1287 40.6957 39.2788C40.6957 35.429 43.8277 32.297 47.6775 32.297C51.5273 32.297 54.6594 35.429 54.6594 39.2788C54.6594 43.1287 51.5273 46.2607 47.6775 46.2607ZM60.5183 59.2149C56.6685 59.2149 53.5364 56.0828 53.5364 52.233C53.5364 48.3832 56.6685 45.2511 60.5183 45.2511C64.3681 45.2511 67.5001 48.3832 67.5001 52.233C67.5001 56.0828 64.3681 59.2149 60.5183 59.2149Z" fill="#98A2B3"/>
<path d="M47.6755 33.564C45.3365 33.564 43.4336 35.4669 43.4336 37.8058C43.4336 39.2442 44.1537 40.5168 45.2517 41.2842V44.5252H50.1599V41.2408C51.2236 40.4693 51.9173 39.2172 51.9173 37.8058C51.9173 35.4669 50.0144 33.564 47.6755 33.564ZM48.9302 43.2955H46.4817V41.876C46.8606 41.9872 47.2611 42.0482 47.6755 42.0482C48.1121 42.0482 48.5335 41.9819 48.9302 41.8587V43.2955ZM47.6755 40.8181C46.0147 40.8181 44.6634 39.4669 44.6634 37.806C44.6634 36.1452 46.0146 34.794 47.6755 34.794C49.3363 34.794 50.6876 36.1452 50.6876 37.806C50.6876 39.4669 49.3363 40.8181 47.6755 40.8181Z" fill="#98A2B3"/>
<defs>
<filter id="filter0_di_3375_61714" x="0" y="0" width="96" height="96" filterUnits="userSpaceOnUse" color-interpolation-filters="sRGB">
<feFlood flood-opacity="0" result="BackgroundImageFix"/>
<feColorMatrix in="SourceAlpha" type="matrix" values="0 0 0 0 0 0 0 0 0 0 0 0 0 0 0 0 0 0 127 0" result="hardAlpha"/>
<feOffset dy="2"/>
<feGaussianBlur stdDeviation="8"/>
<feComposite in2="hardAlpha" operator="out"/>
<feColorMatrix type="matrix" values="0 0 0 0 0 0 0 0 0 0 0 0 0 0 0 0 0 0 0.02 0"/>
<feBlend mode="normal" in2="BackgroundImageFix" result="effect1_dropShadow_3375_61714"/>
<feBlend mode="normal" in="SourceGraphic" in2="effect1_dropShadow_3375_61714" result="shape"/>
<feColorMatrix in="SourceAlpha" type="matrix" values="0 0 0 0 0 0 0 0 0 0 0 0 0 0 0 0 0 0 127 0" result="hardAlpha"/>
<feOffset dy="1"/>
<feComposite in2="hardAlpha" operator="arithmetic" k2="-1" k3="1"/>
<feColorMatrix type="matrix" values="0 0 0 0 0 0 0 0 0 0 0 0 0 0 0 0 0 0 0.25 0"/>
<feBlend mode="normal" in2="shape" result="effect2_innerShadow_3375_61714"/>
</filter>
</defs>
</svg>
