<svg width="72" height="72" viewBox="0 0 72 72" fill="none" xmlns="http://www.w3.org/2000/svg">
<rect x="50" y="22" width="11" height="39" fill="#F7D6D2"/>
<rect x="11" y="22" width="11" height="39" fill="#D7E6E7"/>
<path d="M34.875 43.125V51C34.875 51.35 34.9875 51.625 35.2125 51.825C35.4375 52.025 35.7 52.125 36 52.125C36.35 52.125 36.625 52.025 36.825 51.825C37.025 51.625 37.125 51.35 37.125 51V43.125H45C45.35 43.125 45.625 43.0125 45.825 42.7875C46.025 42.5625 46.125 42.3 46.125 42C46.125 41.65 46.025 41.375 45.825 41.175C45.625 40.975 45.35 40.875 45 40.875H37.125V33C37.125 32.65 37.0125 32.375 36.7875 32.175C36.5625 31.975 36.3 31.875 36 31.875C35.65 31.875 35.375 31.975 35.175 32.175C34.975 32.375 34.875 32.65 34.875 33V40.875H27C26.65 40.875 26.375 40.9875 26.175 41.2125C25.975 41.4375 25.875 41.7 25.875 42C25.875 42.35 25.975 42.625 26.175 42.825C26.375 43.025 26.65 43.125 27 43.125H34.875ZM13.125 63C11.975 63 11 62.6 10.2 61.8C9.4 61 9 60.025 9 58.875V24.675C9 23.525 9.4 22.55 10.2 21.75C11 20.95 11.975 20.55 13.125 20.55H27.375V16.125C27.375 14.975 27.775 14 28.575 13.2C29.375 12.4 30.35 12 31.5 12H40.5C41.65 12 42.625 12.4 43.425 13.2C44.225 14 44.625 14.975 44.625 16.125V20.55H58.875C60.025 20.55 61 20.95 61.8 21.75C62.6 22.55 63 23.525 63 24.675V58.875C63 60.025 62.6 61 61.8 61.8C61 62.6 60.025 63 58.875 63H13.125ZM29.625 20.55H42.375V16.125C42.375 15.625 42.2 15.2 41.85 14.85C41.5 14.5 41.05 14.325 40.5 14.325H31.5C30.95 14.325 30.5 14.5 30.15 14.85C29.8 15.2 29.625 15.625 29.625 16.125V20.55ZM13.125 60.675H58.875C59.375 60.675 59.8 60.5 60.15 60.15C60.5 59.8 60.675 59.375 60.675 58.875V24.675C60.675 24.175 60.5 23.75 60.15 23.4C59.8 23.05 59.375 22.875 58.875 22.875H13.125C12.625 22.875 12.2 23.05 11.85 23.4C11.5 23.75 11.325 24.175 11.325 24.675V58.875C11.325 59.375 11.5 59.8 11.85 60.15C12.2 60.5 12.625 60.675 13.125 60.675ZM11.325 60.675V22.875V60.675Z" fill="black"/>
</svg>
