<svg width="110" height="110" viewBox="0 0 110 110" fill="none" xmlns="http://www.w3.org/2000/svg">
<path d="M52.709 52.7083V36.6667H95.1048V71.8437H76.5423V89.375H52.709V74.4792H61.8757V71.0417H52.709V56.1458H61.8757V52.7083H52.709Z" fill="#9BC0C4"/>
<path d="M16.041 94.3021C14.5896 94.3021 13.3674 93.7865 12.3743 92.7552C11.3813 91.724 10.8848 90.5208 10.8848 89.1458V19.25C10.8848 17.875 11.3813 16.6719 12.3743 15.6406C13.3674 14.6094 14.5896 14.0938 16.041 14.0938H48.3535C49.7285 14.0938 50.9316 14.6094 51.9629 15.6406C52.9941 16.6719 53.5098 17.875 53.5098 19.25V32.8854H93.9577C95.4091 32.8854 96.6313 33.401 97.6243 34.4323C98.6174 35.4635 99.1139 36.6667 99.1139 38.0417V71.8438H93.9577V38.0417H53.5098V51.5625H63.5931V56.8333H53.5098V70.3542H63.5931V75.5104H53.5098V89.1458H76.541V94.3021H16.041ZM16.041 89.1458H29.5618V75.5104H16.041V89.1458ZM16.041 70.3542H29.5618V56.8333H16.041V70.3542ZM16.041 51.5625H29.5618V38.0417H16.041V51.5625ZM16.041 32.8854H29.5618V19.25H16.041V32.8854ZM34.8327 89.1458H48.3535V75.5104H34.8327V89.1458ZM34.8327 70.3542H48.3535V56.8333H34.8327V70.3542ZM34.8327 51.5625H48.3535V38.0417H34.8327V51.5625ZM34.8327 32.8854H48.3535V19.25H34.8327V32.8854ZM75.7389 56.8333V51.5625H81.0098V56.8333H75.7389ZM75.7389 75.5104V70.3542H81.0098V75.5104H75.7389Z" fill="#1D2939"/>
<path d="M94.1302 102.724C94.6267 103.221 95.2187 103.469 95.9062 103.469C96.6701 103.469 97.3003 103.221 97.7969 102.724C98.2934 102.228 98.5417 101.597 98.5417 100.834V93.7294H105.76C106.448 93.7294 107.04 93.4811 107.536 92.9846C108.033 92.4881 108.281 91.896 108.281 91.2085C108.281 90.4447 108.033 89.8144 107.536 89.3179C107.04 88.8214 106.448 88.5731 105.76 88.5731H98.5417V81.2398C98.5417 80.5523 98.3125 79.9603 97.8542 79.4638C97.3958 78.9672 96.7847 78.719 96.0208 78.719C95.2569 78.719 94.6267 78.9672 94.1302 79.4638C93.6337 79.9603 93.3854 80.5523 93.3854 81.2398V88.5731H86.1667C85.4028 88.5731 84.7726 88.8023 84.276 89.2606C83.7795 89.719 83.5312 90.3301 83.5312 91.094C83.5312 91.8579 83.7795 92.4881 84.276 92.9846C84.7726 93.4811 85.4028 93.7294 86.1667 93.7294H93.3854V100.834C93.3854 101.597 93.6337 102.228 94.1302 102.724Z" fill="#EB998E"/>
</svg>
