<svg width="72" height="72" viewBox="0 0 72 72" fill="none" xmlns="http://www.w3.org/2000/svg">
<circle cx="36" cy="30.3008" r="7.5" fill="#D7E6E7"/>
<path d="M57 58.5H15C17 55 24 48 36 48C48 48 55 55 57 58.5Z" fill="#F7D6D2"/>
<path d="M14.325 55.725C17.175 53.025 20.425 50.85 24.075 49.2C27.725 47.55 31.7 46.725 36 46.725C40.3 46.725 44.275 47.55 47.925 49.2C51.575 50.85 54.825 53.025 57.675 55.725V16.125C57.675 15.675 57.4875 15.2625 57.1125 14.8875C56.7375 14.5125 56.325 14.325 55.875 14.325H16.125C15.675 14.325 15.2625 14.5125 14.8875 14.8875C14.5125 15.2625 14.325 15.675 14.325 16.125V55.725ZM36.075 39.9C38.575 39.9 40.6875 39.0375 42.4125 37.3125C44.1375 35.5875 45 33.475 45 30.975C45 28.475 44.1375 26.3625 42.4125 24.6375C40.6875 22.9125 38.575 22.05 36.075 22.05C33.575 22.05 31.4625 22.9125 29.7375 24.6375C28.0125 26.3625 27.15 28.475 27.15 30.975C27.15 33.475 28.0125 35.5875 29.7375 37.3125C31.4625 39.0375 33.575 39.9 36.075 39.9ZM16.125 60C14.975 60 14 59.6 13.2 58.8C12.4 58 12 57.025 12 55.875V16.125C12 14.975 12.4 14 13.2 13.2C14 12.4 14.975 12 16.125 12H55.875C57.025 12 58 12.4 58.8 13.2C59.6 14 60 14.975 60 16.125V55.875C60 57.025 59.6 58 58.8 58.8C58 59.6 57.025 60 55.875 60H16.125ZM16.125 57.675H55.95V57.225C53 54.475 49.8375 52.425 46.4625 51.075C43.0875 49.725 39.6 49.05 36 49.05C32.4 49.05 28.925 49.7125 25.575 51.0375C22.225 52.3625 19.075 54.375 16.125 57.075V57.675ZM36.075 37.575C34.225 37.575 32.65 36.9375 31.35 35.6625C30.05 34.3875 29.4 32.825 29.4 30.975C29.4 29.125 30.05 27.5625 31.35 26.2875C32.65 25.0125 34.225 24.375 36.075 24.375C37.925 24.375 39.4875 25.025 40.7625 26.325C42.0375 27.625 42.675 29.175 42.675 30.975C42.675 32.825 42.025 34.3875 40.725 35.6625C39.425 36.9375 37.875 37.575 36.075 37.575Z" fill="#1D2939"/>
</svg>
