<svg width="36" height="36" viewBox="0 0 36 36" fill="none" xmlns="http://www.w3.org/2000/svg">
<rect width="36" height="36" rx="4" fill="#F9FAFB"/>
<path d="M25.168 20.9204H10.832C10.3092 20.9204 9.86133 21.3435 9.86133 21.8911V22.9612H26.1138V21.8911C26.1388 21.3437 25.6907 20.9204 25.1681 20.9204H25.168Z" fill="#667085"/>
<path d="M28.4781 14.0011H7.52165C6.77493 14.0011 6.17773 14.5984 6.17773 15.345V21.6419C6.17773 22.3886 6.77511 22.9858 7.52165 22.9858H8.74125V21.9156C8.74125 20.7459 9.68707 19.825 10.8319 19.825H25.1679C26.3376 19.825 27.2585 20.7708 27.2585 21.9156V22.9858H28.4781C29.2248 22.9858 29.822 22.3884 29.822 21.6419L29.8222 15.3201C29.8222 14.5984 29.2248 14.001 28.4783 14.001L28.4781 14.0011ZM23.2016 17.2367H21.8327C21.5091 17.2367 21.2603 16.9877 21.2603 16.6643C21.2603 16.3407 21.5093 16.0919 21.8327 16.0919H23.2016C23.5253 16.0919 23.774 16.3408 23.774 16.6643C23.7492 16.9629 23.5004 17.2367 23.2016 17.2367ZM26.6862 17.2367H25.3172C24.9936 17.2367 24.7448 16.9877 24.7448 16.6643C24.7448 16.3407 24.9938 16.0919 25.3172 16.0919H26.6862C27.0098 16.0919 27.2586 16.3408 27.2586 16.6643C27.2586 16.9629 27.0096 17.2367 26.6862 17.2367Z" fill="#667085"/>
<path d="M10 9L25.5 27" stroke="white" stroke-width="3" stroke-linecap="round" stroke-linejoin="round"/>
<path d="M10 9L25.5 27" stroke="#667085" stroke-linecap="round" stroke-linejoin="round"/>
</svg>
