<svg width="18" height="18" viewBox="0 0 18 18" fill="none" xmlns="http://www.w3.org/2000/svg">
<path fill-rule="evenodd" clip-rule="evenodd" d="M12.5996 1.80005H3.59961V4.50005V5.40005V16.2H15.2996V4.50005H12.5996V1.80005Z" fill="#F04438"/>
<path d="M15.5038 4.2965L12.2638 1.05649C12.1618 0.955479 12.0239 0.899066 11.8803 0.899912H4.53077C4.04526 0.899912 3.57963 1.09277 3.23634 1.43606C2.89305 1.77934 2.7002 2.24498 2.7002 2.73049V15.2693C2.7002 15.7548 2.89305 16.2205 3.23634 16.5638C3.57963 16.907 4.04526 17.0999 4.53077 17.0999H13.8296C14.3151 17.0999 14.7807 16.907 15.124 16.5638C15.4673 16.2205 15.6602 15.7548 15.6602 15.2693V4.67974C15.661 4.53618 15.6046 4.39829 15.5036 4.29631L15.5038 4.2965ZM13.8298 16.0201H4.53096C4.33195 16.0201 4.14101 15.941 4.00024 15.8002C3.85947 15.6594 3.78038 15.4685 3.78038 15.2695V2.73068C3.78038 2.53167 3.85946 2.34074 4.00024 2.19996C4.14103 2.05919 4.33196 1.98011 4.53096 1.98011H11.3405V4.68012C11.3405 4.82331 11.3974 4.96072 11.4987 5.06197C11.5999 5.16322 11.7373 5.22012 11.8805 5.22012H14.5805V15.2697C14.5805 15.4687 14.5015 15.6596 14.3607 15.8004C14.2199 15.9412 14.029 16.0203 13.83 16.0203L13.8298 16.0201Z" fill="#F04438"/>
<path d="M9.18051 6.29989C8.60762 6.29989 8.05821 6.52746 7.6532 6.93258C7.24808 7.33759 7.02051 7.887 7.02051 8.45989C7.02051 8.65287 7.12344 8.83114 7.29051 8.92757C7.45757 9.024 7.66345 9.024 7.83051 8.92757C7.99757 8.83114 8.10051 8.65287 8.10051 8.45989C8.10051 8.1735 8.2143 7.89879 8.4168 7.69618C8.61942 7.49368 8.89413 7.37989 9.18051 7.37989C9.4669 7.37989 9.74162 7.49368 9.94423 7.69618C10.1467 7.8988 10.2605 8.17351 10.2605 8.45989C10.2603 8.78763 10.1113 9.09753 9.85552 9.30233C9.10458 9.87306 8.65677 10.7567 8.64051 11.6999C8.64051 11.8431 8.69741 11.9805 8.79866 12.0818C8.89991 12.183 9.03732 12.2399 9.18051 12.2399C9.32371 12.2399 9.46112 12.183 9.56237 12.0818C9.66362 11.9805 9.72052 11.8431 9.72052 11.6999C9.73896 11.0895 10.0378 10.5217 10.5305 10.1609C11.0074 9.78784 11.3056 9.2317 11.3528 8.62816C11.3999 8.02462 11.1918 7.42895 10.7787 6.98621C10.3657 6.5436 9.78584 6.29458 9.18051 6.29989Z" fill="white"/>
<path d="M9.72063 13.3203C9.72063 13.6185 9.47883 13.8603 9.18063 13.8603C8.88242 13.8603 8.64062 13.6185 8.64062 13.3203C8.64062 13.0221 8.88242 12.7803 9.18063 12.7803C9.47883 12.7803 9.72063 13.0221 9.72063 13.3203Z" fill="white"/>
</svg>
