<svg width="280" height="232" viewBox="0 0 280 232" fill="none" xmlns="http://www.w3.org/2000/svg">
<path d="M101.493 181.106C94.4299 190.796 77.7878 205.435 58.4814 205.685C31.291 206.038 14.7429 181.04 18.3234 154.084V154.084C24.4504 107.955 97.8769 145.81 140.884 163.579C151.828 168.101 163.507 171.687 175.457 173.539C192.414 176.167 210.133 173.576 224.925 164.877C246.705 152.069 268.541 127.061 261.733 85.2189C254.476 54.0073 206.995 8.09231 135.053 41.1734" stroke="#E4E7EC" stroke-width="2" stroke-linecap="round" stroke-dasharray="8 8"/>
<path d="M194 71L167 43V71H194Z" fill="#CCD0D9"/>
<path d="M89.8064 182.585V43.208H164.014V73.3435H193.613V184.677L185.275 175.051L176.52 184.677L169.016 175.051L159.011 184.677L150.673 175.051L140.251 184.677L132.746 175.051L124.409 184.677L116.071 175.051L106.065 184.677L97.3105 175.051L89.8064 182.585Z" fill="#F1F3F5" stroke="#F1F3F5"/>
<path d="M119.135 127.47V107.118L122.407 107.19L113.31 118.337L112.447 117.258H129.131V122.292H109.715L107.27 117.582L120.106 102.084H125.032V127.47H119.135Z" fill="#1C4145"/>
<path d="M142.511 127.83C140.258 127.83 138.328 127.314 136.722 126.283C135.14 125.253 133.93 123.778 133.091 121.861C132.252 119.919 131.832 117.594 131.832 114.885C131.832 112.176 132.252 109.863 133.091 107.945C133.93 106.004 135.14 104.517 136.722 103.487C138.328 102.456 140.258 101.94 142.511 101.94C144.765 101.94 146.694 102.456 148.301 103.487C149.907 104.517 151.129 106.004 151.968 107.945C152.807 109.863 153.227 112.176 153.227 114.885C153.227 117.594 152.807 119.919 151.968 121.861C151.129 123.778 149.907 125.253 148.301 126.283C146.694 127.314 144.765 127.83 142.511 127.83ZM142.511 122.652C144.07 122.652 145.268 121.981 146.107 120.638C146.97 119.296 147.402 117.378 147.402 114.885C147.402 112.32 146.97 110.354 146.107 108.988C145.268 107.598 144.07 106.903 142.511 106.903C140.953 106.903 139.743 107.598 138.88 108.988C138.041 110.354 137.621 112.32 137.621 114.885C137.621 117.378 138.041 119.296 138.88 120.638C139.743 121.981 140.953 122.652 142.511 122.652Z" fill="#1C4145"/>
<path d="M167.207 127.47V107.118L170.479 107.19L161.382 118.337L160.519 117.258H177.203V122.292H157.786L155.341 117.582L168.178 102.084H173.104V127.47H167.207Z" fill="#1C4145"/>
<path d="M102.714 187.002L109.067 182.79L127.254 210.225C128.416 211.979 127.937 214.344 126.183 215.507C124.428 216.67 122.063 216.191 120.9 214.436L102.714 187.002Z" fill="#9C9C9C"/>
<rect x="103.863" y="188.735" width="7.62238" height="6.92944" transform="rotate(-33.5402 103.863 188.735)" fill="#5E5E5E"/>
<path fill-rule="evenodd" clip-rule="evenodd" d="M106.556 187.782C115.487 181.861 117.928 169.821 112.007 160.89C106.087 151.958 94.0468 149.517 85.1153 155.438C76.1838 161.359 73.743 173.399 79.6636 182.33C85.5843 191.262 97.6243 193.702 106.556 187.782ZM104.259 184.316C111.276 179.665 113.194 170.204 108.542 163.187C103.89 156.169 94.4301 154.252 87.4125 158.903C80.3949 163.555 78.4772 173.015 83.1291 180.033C87.781 187.051 97.241 188.968 104.259 184.316Z" fill="#D9D9D9"/>
<path fill-rule="evenodd" clip-rule="evenodd" d="M29.8845 120.769C30.0897 120.447 29.995 120.019 29.6729 119.814C29.3508 119.609 28.9234 119.703 28.7182 120.026L27.5292 121.892L25.663 120.703C25.3409 120.498 24.9135 120.592 24.7083 120.914C24.5031 121.236 24.5978 121.664 24.9199 121.869L26.7861 123.058L25.5971 124.924C25.3919 125.246 25.4866 125.674 25.8087 125.879C26.1308 126.084 26.5582 125.989 26.7634 125.667L27.9524 123.801L29.8186 124.99C30.1407 125.195 30.5681 125.101 30.7733 124.779C30.9785 124.456 30.8838 124.029 30.5617 123.824L28.6955 122.635L29.8845 120.769Z" fill="#E4E7EC"/>
<path fill-rule="evenodd" clip-rule="evenodd" d="M153.847 17.6915C154.052 17.3694 153.957 16.942 153.635 16.7368C153.313 16.5316 152.886 16.6263 152.681 16.9484L151.492 18.8146L149.625 17.6256C149.303 17.4204 148.876 17.5151 148.671 17.8372C148.465 18.1593 148.56 18.5867 148.882 18.7919L150.748 19.9809L149.559 21.8471C149.354 22.1692 149.449 22.5966 149.771 22.8018C150.093 23.007 150.521 22.9123 150.726 22.5902L151.915 20.724L153.781 21.913C154.103 22.1182 154.531 22.0235 154.736 21.7014C154.941 21.3793 154.846 20.9519 154.524 20.7467L152.658 19.5577L153.847 17.6915Z" fill="#E4E7EC"/>
<path fill-rule="evenodd" clip-rule="evenodd" d="M65.7522 139.347C65.9574 139.025 65.8626 138.597 65.5406 138.392C65.2185 138.187 64.791 138.282 64.5858 138.604L63.3969 140.47L61.5307 139.281C61.2086 139.076 60.7812 139.17 60.576 139.492C60.3708 139.815 60.4655 140.242 60.7876 140.447L62.6537 141.636L61.4648 143.502C61.2596 143.824 61.3543 144.252 61.6764 144.457C61.9985 144.662 62.4259 144.568 62.6311 144.245L63.8201 142.379L65.6863 143.568C66.0083 143.773 66.4358 143.679 66.641 143.357C66.8462 143.035 66.7514 142.607 66.4294 142.402L64.5632 141.213L65.7522 139.347Z" fill="#E4E7EC"/>
<path fill-rule="evenodd" clip-rule="evenodd" d="M223.364 74.0245C223.569 73.7024 223.474 73.275 223.152 73.0698C222.83 72.8646 222.403 72.9593 222.198 73.2814L221.009 75.1476L219.143 73.9586C218.82 73.7534 218.393 73.8481 218.188 74.1702C217.983 74.4923 218.077 74.9197 218.399 75.1249L220.266 76.3139L219.077 78.1801C218.871 78.5022 218.966 78.9296 219.288 79.1348C219.61 79.34 220.038 79.2453 220.243 78.9232L221.432 77.057L223.298 78.246C223.62 78.4512 224.048 78.3565 224.253 78.0344C224.458 77.7123 224.363 77.2849 224.041 77.0797L222.175 75.8907L223.364 74.0245Z" fill="#E4E7EC"/>
<path fill-rule="evenodd" clip-rule="evenodd" d="M253.328 110.58C253.533 110.258 253.439 109.831 253.116 109.625C252.794 109.42 252.367 109.515 252.162 109.837L250.973 111.703L249.107 110.514C248.785 110.309 248.357 110.404 248.152 110.726C247.947 111.048 248.041 111.475 248.364 111.681L250.23 112.87L249.041 114.736C248.835 115.058 248.93 115.485 249.252 115.69C249.574 115.896 250.002 115.801 250.207 115.479L251.396 113.613L253.262 114.802C253.584 115.007 254.012 114.912 254.217 114.59C254.422 114.268 254.327 113.841 254.005 113.635L252.139 112.446L253.328 110.58Z" fill="#E4E7EC"/>
<path d="M63.1664 210.454C63.4405 209.611 64.6339 209.611 64.908 210.454C65.0306 210.832 65.3822 211.087 65.7788 211.087C66.6658 211.087 67.0346 212.222 66.317 212.744C65.9961 212.977 65.8618 213.39 65.9844 213.767C66.2585 214.611 65.293 215.312 64.5754 214.791C64.2545 214.558 63.8199 214.558 63.499 214.791C62.7814 215.312 61.8159 214.611 62.09 213.767C62.2126 213.39 62.0783 212.977 61.7574 212.744C61.0398 212.222 61.4086 211.087 62.2956 211.087C62.6922 211.087 63.0438 210.832 63.1664 210.454Z" fill="#D9D9D9"/>
<path d="M250.743 43.2543C251.017 42.4107 252.21 42.4107 252.484 43.2543C252.607 43.6316 252.958 43.887 253.355 43.887C254.242 43.887 254.611 45.022 253.893 45.5434C253.572 45.7765 253.438 46.1898 253.561 46.5671C253.835 47.4106 252.869 48.1121 252.152 47.5908C251.831 47.3576 251.396 47.3576 251.075 47.5908C250.358 48.1121 249.392 47.4106 249.666 46.5671C249.789 46.1898 249.654 45.7765 249.334 45.5434C248.616 45.022 248.985 43.887 249.872 43.887C250.268 43.887 250.62 43.6316 250.743 43.2543Z" fill="#D9D9D9"/>
<circle cx="31.0767" cy="178.41" r="2.99643" fill="#E4E7EC"/>
<circle cx="213.259" cy="161.03" r="2.99643" fill="#E4E7EC"/>
</svg>
