<svg width="48" height="49" viewBox="0 0 48 49" fill="none" xmlns="http://www.w3.org/2000/svg">
<path d="M38.6504 41.0992C34.9171 41.0992 31.1671 40.1409 27.4004 38.2242C23.6337 36.3076 20.2337 33.8326 17.2004 30.7992C14.1671 27.7659 11.6921 24.3742 9.77539 20.6242C7.85872 16.8742 6.90039 13.1326 6.90039 9.39922C6.90039 8.76589 7.11706 8.24089 7.55039 7.82422C7.98372 7.40755 8.51706 7.19922 9.15039 7.19922H14.8504C15.3504 7.19922 15.7921 7.36589 16.1754 7.69922C16.5587 8.03255 16.8004 8.48255 16.9004 9.04922L18.1004 14.3992C18.2004 14.8992 18.2004 15.3492 18.1004 15.7492C18.0004 16.1492 17.8004 16.4826 17.5004 16.7492L12.8004 21.3492C14.7004 24.5492 16.8171 27.3076 19.1504 29.6242C21.4837 31.9409 24.1837 33.9326 27.2504 35.5992L31.7504 30.8992C32.0837 30.5326 32.4587 30.2742 32.8754 30.1242C33.2921 29.9742 33.7171 29.9492 34.1504 30.0492L39.0004 31.1492C39.5671 31.2492 40.0171 31.4992 40.3504 31.8992C40.6837 32.2992 40.8504 32.7826 40.8504 33.3492V38.8492C40.8504 39.4826 40.6421 40.0159 40.2254 40.4492C39.8087 40.8826 39.2837 41.0992 38.6504 41.0992ZM11.6004 19.2992L15.7504 15.2992C15.8171 15.2326 15.8587 15.1576 15.8754 15.0742C15.8921 14.9909 15.8837 14.9159 15.8504 14.8492L14.7504 9.79922C14.7504 9.66589 14.7171 9.57422 14.6504 9.52422C14.5837 9.47422 14.5004 9.44922 14.4004 9.44922H9.45039C9.38372 9.44922 9.31706 9.47422 9.25039 9.52422C9.18372 9.57422 9.15039 9.64922 9.15039 9.74922C9.15039 11.0492 9.35872 12.4909 9.77539 14.0742C10.1921 15.6576 10.8004 17.3992 11.6004 19.2992ZM38.3004 38.8492C38.3671 38.8492 38.4337 38.8242 38.5004 38.7742C38.5671 38.7242 38.6004 38.6492 38.6004 38.5492V33.6492C38.6004 33.5492 38.5671 33.4659 38.5004 33.3992C38.4337 33.3326 38.3504 33.2826 38.2504 33.2492L33.7504 32.3492C33.6504 32.3159 33.5754 32.3159 33.5254 32.3492C33.4754 32.3826 33.4171 32.4159 33.3504 32.4492L29.3504 36.6492C30.7171 37.3159 32.2171 37.8326 33.8504 38.1992C35.4837 38.5659 36.9671 38.7826 38.3004 38.8492Z" fill="#1D2939"/>
<path d="M38.9742 23.0988C39.1909 23.2988 39.4326 23.3988 39.6992 23.3988C40.0659 23.3988 40.3659 23.2905 40.5992 23.0738C40.8325 22.8571 40.9159 22.5821 40.8492 22.2488C40.3825 18.1488 38.7076 14.6488 35.8242 11.7488C32.9409 8.84878 29.4492 7.18212 25.3492 6.74878C25.0159 6.68212 24.7409 6.76545 24.5242 6.99878C24.3076 7.23212 24.1992 7.51545 24.1992 7.84878C24.1992 8.14878 24.2992 8.40712 24.4992 8.62378C24.6992 8.84045 24.9492 8.96545 25.2492 8.99878C28.7492 9.46545 31.7326 10.9405 34.1992 13.4238C36.6659 15.9071 38.1326 18.8821 38.5992 22.3488C38.6326 22.6488 38.7575 22.8988 38.9742 23.0988Z" fill="#9BC0C4"/>
<path d="M30.5742 23.1491C30.7909 23.3158 31.0159 23.3991 31.2492 23.3991C31.6492 23.3991 31.9576 23.2741 32.1742 23.0241C32.3909 22.7741 32.4659 22.4658 32.3992 22.0991C31.9659 20.3991 31.1242 18.9324 29.8742 17.6991C28.6242 16.4658 27.1492 15.6491 25.4492 15.2491C25.1159 15.1491 24.8242 15.2158 24.5742 15.4491C24.3242 15.6824 24.1992 15.9824 24.1992 16.3491C24.1992 16.6158 24.2826 16.8491 24.4492 17.0491C24.6159 17.2491 24.8326 17.3824 25.0992 17.4491C26.3326 17.7824 27.3909 18.3991 28.2742 19.2991C29.1576 20.1991 29.7659 21.2658 30.0992 22.4991C30.1992 22.7658 30.3576 22.9824 30.5742 23.1491Z" fill="#EB998E"/>
</svg>
