<svg width="14" height="14" viewBox="0 0 14 14" fill="none" xmlns="http://www.w3.org/2000/svg">
<path d="M13.2757 9.76033L10.359 8.51033C10.2809 8.48429 10.2028 8.45825 10.0986 8.45825C9.91634 8.45825 9.73405 8.56242 9.62988 8.69263L8.3278 10.2812C6.29655 9.31763 4.68197 7.70304 3.71842 5.67179L5.30697 4.36971C5.43717 4.26554 5.54134 4.08325 5.54134 3.87492C5.54134 3.79679 5.5153 3.71867 5.48926 3.64054L4.23926 0.723877C4.13509 0.489502 3.90072 0.333252 3.6403 0.333252C3.61426 0.333252 3.56217 0.359294 3.51009 0.359294L0.801758 0.984294C0.515299 1.06242 0.333008 1.29679 0.333008 1.58325C0.333008 8.27596 5.72363 13.6666 12.4163 13.6666C12.7028 13.6666 12.9372 13.4843 13.0153 13.1978L13.6403 10.4895C13.6403 10.4374 13.6403 10.3853 13.6403 10.3593C13.6403 10.0989 13.484 9.8645 13.2757 9.76033Z" fill="#667085"/>
</svg>
