<svg width="496" height="286" viewBox="0 0 496 286" fill="none" xmlns="http://www.w3.org/2000/svg">
<path d="M3.68328 255.66V249.62L3.97328 249.84L2.67328 250.62L2.44328 249.92L4.17328 248.9H4.47328V255.66H3.68328ZM2.65328 256V255.24H5.52328V256H2.65328ZM8.76336 256.07C8.30336 256.07 7.88669 255.967 7.51336 255.76C7.14003 255.547 6.83003 255.243 6.58336 254.85L7.05336 254.34C7.33336 254.713 7.61336 254.973 7.89336 255.12C8.18003 255.26 8.47336 255.33 8.77336 255.33C9.09336 255.33 9.38336 255.257 9.64336 255.11C9.91003 254.957 10.12 254.753 10.2734 254.5C10.4267 254.247 10.5034 253.967 10.5034 253.66C10.5034 253.36 10.4334 253.09 10.2934 252.85C10.1534 252.603 9.96336 252.41 9.72336 252.27C9.48336 252.123 9.20669 252.05 8.89336 252.05C8.72669 252.05 8.56003 252.07 8.39336 252.11C8.22669 252.143 8.05336 252.2 7.87336 252.28C7.70003 252.353 7.51336 252.447 7.31336 252.56L6.87336 251.97L7.28336 249H11.0634V249.73H7.69336L7.94336 249.55L7.57336 252L7.34336 251.84C7.45003 251.753 7.59336 251.67 7.77336 251.59C7.95336 251.51 8.15003 251.447 8.36336 251.4C8.58336 251.347 8.79669 251.32 9.00336 251.32C9.43669 251.32 9.82336 251.42 10.1634 251.62C10.5034 251.813 10.7734 252.083 10.9734 252.43C11.1734 252.77 11.2734 253.163 11.2734 253.61C11.2734 254.077 11.1634 254.497 10.9434 254.87C10.7234 255.237 10.4234 255.53 10.0434 255.75C9.66336 255.963 9.23669 256.07 8.76336 256.07ZM14.937 256.1C14.3903 256.1 13.9236 255.957 13.537 255.67C13.157 255.383 12.8636 254.973 12.657 254.44C12.457 253.9 12.357 253.253 12.357 252.5C12.357 251.747 12.457 251.103 12.657 250.57C12.8636 250.03 13.157 249.617 13.537 249.33C13.9236 249.043 14.3903 248.9 14.937 248.9C15.477 248.9 15.9403 249.043 16.327 249.33C16.7136 249.617 17.007 250.03 17.207 250.57C17.4136 251.103 17.517 251.747 17.517 252.5C17.517 253.253 17.4136 253.9 17.207 254.44C17.007 254.973 16.7136 255.383 16.327 255.67C15.9403 255.957 15.477 256.1 14.937 256.1ZM14.937 255.37C15.5103 255.37 15.9503 255.12 16.257 254.62C16.5703 254.12 16.727 253.413 16.727 252.5C16.727 251.587 16.5703 250.88 16.257 250.38C15.9503 249.88 15.5103 249.63 14.937 249.63C14.357 249.63 13.9103 249.88 13.597 250.38C13.2903 250.88 13.137 251.587 13.137 252.5C13.137 253.413 13.2903 254.12 13.597 254.62C13.9103 255.12 14.357 255.37 14.937 255.37Z" fill="#667085"/>
<path d="M46.6208 282.1C46.2674 282.1 45.9341 282.05 45.6208 281.95C45.3074 281.85 45.0208 281.7 44.7608 281.5C44.5008 281.3 44.2708 281.053 44.0708 280.76L44.6108 280.16C44.9241 280.607 45.2441 280.92 45.5708 281.1C45.9041 281.28 46.2774 281.37 46.6908 281.37C46.9908 281.37 47.2641 281.32 47.5108 281.22C47.7574 281.12 47.9508 280.98 48.0908 280.8C48.2308 280.62 48.3008 280.413 48.3008 280.18C48.3008 280.027 48.2741 279.89 48.2208 279.77C48.1741 279.65 48.1008 279.543 48.0008 279.45C47.9008 279.357 47.7774 279.273 47.6308 279.2C47.4841 279.127 47.3141 279.06 47.1208 279C46.9341 278.94 46.7241 278.88 46.4908 278.82C46.1508 278.74 45.8508 278.647 45.5908 278.54C45.3374 278.427 45.1208 278.29 44.9408 278.13C44.7674 277.97 44.6341 277.787 44.5408 277.58C44.4541 277.367 44.4108 277.117 44.4108 276.83C44.4108 276.557 44.4674 276.303 44.5808 276.07C44.7008 275.837 44.8641 275.637 45.0708 275.47C45.2774 275.297 45.5208 275.163 45.8008 275.07C46.0808 274.977 46.3808 274.93 46.7008 274.93C47.0608 274.93 47.3808 274.98 47.6608 275.08C47.9474 275.173 48.2008 275.313 48.4208 275.5C48.6408 275.687 48.8308 275.91 48.9908 276.17L48.4408 276.71C48.3008 276.49 48.1408 276.3 47.9608 276.14C47.7874 275.98 47.5941 275.86 47.3808 275.78C47.1741 275.693 46.9441 275.65 46.6908 275.65C46.3974 275.65 46.1374 275.7 45.9108 275.8C45.6908 275.9 45.5174 276.04 45.3908 276.22C45.2641 276.393 45.2008 276.593 45.2008 276.82C45.2008 276.987 45.2308 277.137 45.2908 277.27C45.3508 277.397 45.4441 277.51 45.5708 277.61C45.7041 277.703 45.8741 277.79 46.0808 277.87C46.2941 277.943 46.5474 278.013 46.8408 278.08C47.1874 278.16 47.4974 278.257 47.7708 278.37C48.0508 278.483 48.2874 278.62 48.4808 278.78C48.6808 278.933 48.8308 279.113 48.9308 279.32C49.0374 279.527 49.0908 279.763 49.0908 280.03C49.0908 280.443 48.9874 280.807 48.7808 281.12C48.5741 281.427 48.2841 281.667 47.9108 281.84C47.5441 282.013 47.1141 282.1 46.6208 282.1ZM52.2148 282.1C51.8148 282.1 51.4748 282.02 51.1948 281.86C50.9214 281.693 50.7114 281.453 50.5648 281.14C50.4248 280.827 50.3548 280.437 50.3548 279.97V276.78H51.1148V279.82C51.1148 280.173 51.1614 280.47 51.2548 280.71C51.3548 280.943 51.5014 281.12 51.6948 281.24C51.8948 281.36 52.1381 281.42 52.4248 281.42C52.6448 281.42 52.8481 281.383 53.0348 281.31C53.2214 281.23 53.3848 281.123 53.5248 280.99C53.6648 280.857 53.7748 280.7 53.8548 280.52C53.9348 280.34 53.9748 280.15 53.9748 279.95V276.78H54.7248V282H53.9848L53.9548 280.9L54.0748 280.84C53.9948 281.073 53.8614 281.287 53.6748 281.48C53.4881 281.667 53.2648 281.817 53.0048 281.93C52.7514 282.043 52.4881 282.1 52.2148 282.1ZM56.1851 282V276.78H56.9251L56.9551 277.87L56.8351 277.92C56.9017 277.693 57.0317 277.487 57.2251 277.3C57.4184 277.113 57.6484 276.963 57.9151 276.85C58.1884 276.73 58.4684 276.67 58.7551 276.67C59.1417 276.67 59.4651 276.747 59.7251 276.9C59.9851 277.053 60.1817 277.29 60.3151 277.61C60.4484 277.93 60.5151 278.337 60.5151 278.83V282H59.7551V278.87C59.7551 278.523 59.7084 278.24 59.6151 278.02C59.5284 277.793 59.3917 277.627 59.2051 277.52C59.0184 277.413 58.7884 277.363 58.5151 277.37C58.2884 277.37 58.0784 277.41 57.8851 277.49C57.6917 277.563 57.5251 277.667 57.3851 277.8C57.2451 277.933 57.1351 278.087 57.0551 278.26C56.9751 278.433 56.9351 278.62 56.9351 278.82V282H56.5651C56.5184 282 56.4651 282 56.4051 282C56.3451 282 56.2717 282 56.1851 282ZM64.0668 282.1C63.5935 282.1 63.1668 281.983 62.7868 281.75C62.4135 281.517 62.1168 281.197 61.8968 280.79C61.6835 280.377 61.5768 279.91 61.5768 279.39C61.5768 278.863 61.6868 278.397 61.9068 277.99C62.1268 277.577 62.4235 277.253 62.7968 277.02C63.1701 276.787 63.5901 276.67 64.0568 276.67C64.3168 276.67 64.5668 276.71 64.8068 276.79C65.0535 276.87 65.2735 276.983 65.4668 277.13C65.6601 277.27 65.8201 277.433 65.9468 277.62C66.0735 277.8 66.1501 277.99 66.1768 278.19L65.9468 278.11V274.6H66.6968V282H65.9568L65.9368 280.7L66.1268 280.63C66.1001 280.817 66.0235 281 65.8968 281.18C65.7768 281.353 65.6235 281.51 65.4368 281.65C65.2501 281.79 65.0368 281.9 64.7968 281.98C64.5635 282.06 64.3201 282.1 64.0668 282.1ZM64.1768 281.41C64.5235 281.41 64.8335 281.323 65.1068 281.15C65.3801 280.977 65.5935 280.737 65.7468 280.43C65.9068 280.123 65.9868 279.773 65.9868 279.38C65.9868 278.987 65.9068 278.64 65.7468 278.34C65.5935 278.033 65.3801 277.793 65.1068 277.62C64.8335 277.44 64.5235 277.35 64.1768 277.35C63.8168 277.35 63.5001 277.44 63.2268 277.62C62.9601 277.793 62.7468 278.033 62.5868 278.34C62.4335 278.64 62.3568 278.987 62.3568 279.38C62.3568 279.767 62.4335 280.113 62.5868 280.42C62.7401 280.727 62.9535 280.97 63.2268 281.15C63.5001 281.323 63.8168 281.41 64.1768 281.41ZM70.1977 282.1C69.7444 282.1 69.3344 281.983 68.9677 281.75C68.6011 281.51 68.3111 281.187 68.0977 280.78C67.8844 280.367 67.7777 279.9 67.7777 279.38C67.7777 278.853 67.8877 278.387 68.1077 277.98C68.3277 277.573 68.6211 277.253 68.9877 277.02C69.3611 276.787 69.7777 276.67 70.2377 276.67C70.5111 276.67 70.7644 276.71 70.9977 276.79C71.2311 276.87 71.4377 276.983 71.6177 277.13C71.8044 277.27 71.9577 277.437 72.0777 277.63C72.2044 277.817 72.2911 278.02 72.3377 278.24L72.1177 278.13L72.1477 276.78H72.8977V282H72.1377V280.72L72.3377 280.59C72.2911 280.79 72.2011 280.983 72.0677 281.17C71.9344 281.35 71.7711 281.51 71.5777 281.65C71.3911 281.79 71.1777 281.9 70.9377 281.98C70.7044 282.06 70.4577 282.1 70.1977 282.1ZM70.3677 281.38C70.7144 281.38 71.0244 281.297 71.2977 281.13C71.5711 280.957 71.7844 280.72 71.9377 280.42C72.0977 280.113 72.1777 279.767 72.1777 279.38C72.1777 278.993 72.0977 278.65 71.9377 278.35C71.7844 278.05 71.5711 277.813 71.2977 277.64C71.0244 277.467 70.7144 277.38 70.3677 277.38C70.0144 277.38 69.7011 277.467 69.4277 277.64C69.1611 277.813 68.9477 278.05 68.7877 278.35C68.6344 278.65 68.5577 278.993 68.5577 279.38C68.5577 279.76 68.6344 280.103 68.7877 280.41C68.9411 280.71 69.1544 280.947 69.4277 281.12C69.7011 281.293 70.0144 281.38 70.3677 281.38ZM75.1217 284.3L76.1317 281.84L76.2017 282.55L73.5817 276.78H74.4317L76.2217 280.78C76.2751 280.887 76.3284 281.013 76.3817 281.16C76.4351 281.3 76.4851 281.44 76.5317 281.58L76.2517 281.55C76.2984 281.437 76.3417 281.32 76.3817 281.2C76.4284 281.08 76.4717 280.963 76.5117 280.85L78.0817 276.78H78.9417L76.8317 282L75.9317 284.3H75.1217Z" fill="#667085"/>
<path d="M109.827 282V275H110.587L113.277 279.37L112.917 279.36L115.637 275H116.347V282H115.567V278.8C115.567 278.2 115.577 277.66 115.597 277.18C115.617 276.7 115.654 276.223 115.707 275.75L115.847 276.03L113.337 279.97H112.797L110.357 276.08L110.467 275.75C110.52 276.197 110.557 276.657 110.577 277.13C110.597 277.597 110.607 278.153 110.607 278.8V282H109.827ZM120.421 282.1C119.901 282.1 119.438 281.983 119.031 281.75C118.631 281.517 118.314 281.193 118.081 280.78C117.854 280.367 117.741 279.897 117.741 279.37C117.741 278.85 117.854 278.387 118.081 277.98C118.314 277.573 118.631 277.253 119.031 277.02C119.438 276.787 119.901 276.67 120.421 276.67C120.934 276.67 121.391 276.787 121.791 277.02C122.198 277.253 122.514 277.573 122.741 277.98C122.974 278.387 123.091 278.85 123.091 279.37C123.091 279.897 122.974 280.367 122.741 280.78C122.514 281.193 122.198 281.517 121.791 281.75C121.391 281.983 120.934 282.1 120.421 282.1ZM120.421 281.39C120.788 281.39 121.114 281.303 121.401 281.13C121.688 280.95 121.911 280.71 122.071 280.41C122.231 280.103 122.311 279.757 122.311 279.37C122.311 278.983 122.231 278.64 122.071 278.34C121.911 278.04 121.688 277.807 121.401 277.64C121.114 277.467 120.788 277.38 120.421 277.38C120.054 277.38 119.724 277.467 119.431 277.64C119.144 277.807 118.918 278.043 118.751 278.35C118.591 278.65 118.514 278.99 118.521 279.37C118.514 279.757 118.591 280.103 118.751 280.41C118.918 280.71 119.144 280.95 119.431 281.13C119.724 281.303 120.054 281.39 120.421 281.39ZM124.185 282V276.78H124.925L124.955 277.87L124.835 277.92C124.902 277.693 125.032 277.487 125.225 277.3C125.418 277.113 125.648 276.963 125.915 276.85C126.188 276.73 126.468 276.67 126.755 276.67C127.142 276.67 127.465 276.747 127.725 276.9C127.985 277.053 128.182 277.29 128.315 277.61C128.448 277.93 128.515 278.337 128.515 278.83V282H127.755V278.87C127.755 278.523 127.708 278.24 127.615 278.02C127.528 277.793 127.392 277.627 127.205 277.52C127.018 277.413 126.788 277.363 126.515 277.37C126.288 277.37 126.078 277.41 125.885 277.49C125.692 277.563 125.525 277.667 125.385 277.8C125.245 277.933 125.135 278.087 125.055 278.26C124.975 278.433 124.935 278.62 124.935 278.82V282H124.565C124.518 282 124.465 282 124.405 282C124.345 282 124.272 282 124.185 282ZM132.067 282.1C131.593 282.1 131.167 281.983 130.787 281.75C130.413 281.517 130.117 281.197 129.897 280.79C129.683 280.377 129.577 279.91 129.577 279.39C129.577 278.863 129.687 278.397 129.907 277.99C130.127 277.577 130.423 277.253 130.797 277.02C131.17 276.787 131.59 276.67 132.057 276.67C132.317 276.67 132.567 276.71 132.807 276.79C133.053 276.87 133.273 276.983 133.467 277.13C133.66 277.27 133.82 277.433 133.947 277.62C134.073 277.8 134.15 277.99 134.177 278.19L133.947 278.11V274.6H134.697V282H133.957L133.937 280.7L134.127 280.63C134.1 280.817 134.023 281 133.897 281.18C133.777 281.353 133.623 281.51 133.437 281.65C133.25 281.79 133.037 281.9 132.797 281.98C132.563 282.06 132.32 282.1 132.067 282.1ZM132.177 281.41C132.523 281.41 132.833 281.323 133.107 281.15C133.38 280.977 133.593 280.737 133.747 280.43C133.907 280.123 133.987 279.773 133.987 279.38C133.987 278.987 133.907 278.64 133.747 278.34C133.593 278.033 133.38 277.793 133.107 277.62C132.833 277.44 132.523 277.35 132.177 277.35C131.817 277.35 131.5 277.44 131.227 277.62C130.96 277.793 130.747 278.033 130.587 278.34C130.433 278.64 130.357 278.987 130.357 279.38C130.357 279.767 130.433 280.113 130.587 280.42C130.74 280.727 130.953 280.97 131.227 281.15C131.5 281.323 131.817 281.41 132.177 281.41ZM138.198 282.1C137.744 282.1 137.334 281.983 136.968 281.75C136.601 281.51 136.311 281.187 136.098 280.78C135.884 280.367 135.778 279.9 135.778 279.38C135.778 278.853 135.888 278.387 136.108 277.98C136.328 277.573 136.621 277.253 136.988 277.02C137.361 276.787 137.778 276.67 138.238 276.67C138.511 276.67 138.764 276.71 138.998 276.79C139.231 276.87 139.438 276.983 139.618 277.13C139.804 277.27 139.958 277.437 140.078 277.63C140.204 277.817 140.291 278.02 140.338 278.24L140.118 278.13L140.148 276.78H140.898V282H140.138V280.72L140.338 280.59C140.291 280.79 140.201 280.983 140.068 281.17C139.934 281.35 139.771 281.51 139.578 281.65C139.391 281.79 139.178 281.9 138.938 281.98C138.704 282.06 138.458 282.1 138.198 282.1ZM138.368 281.38C138.714 281.38 139.024 281.297 139.298 281.13C139.571 280.957 139.784 280.72 139.938 280.42C140.098 280.113 140.178 279.767 140.178 279.38C140.178 278.993 140.098 278.65 139.938 278.35C139.784 278.05 139.571 277.813 139.298 277.64C139.024 277.467 138.714 277.38 138.368 277.38C138.014 277.38 137.701 277.467 137.428 277.64C137.161 277.813 136.948 278.05 136.788 278.35C136.634 278.65 136.558 278.993 136.558 279.38C136.558 279.76 136.634 280.103 136.788 280.41C136.941 280.71 137.154 280.947 137.428 281.12C137.701 281.293 138.014 281.38 138.368 281.38ZM143.122 284.3L144.132 281.84L144.202 282.55L141.582 276.78H142.432L144.222 280.78C144.275 280.887 144.328 281.013 144.382 281.16C144.435 281.3 144.485 281.44 144.532 281.58L144.252 281.55C144.298 281.437 144.342 281.32 144.382 281.2C144.428 281.08 144.472 280.963 144.512 280.85L146.082 276.78H146.942L144.832 282L143.932 284.3H143.122Z" fill="#667085"/>
<path d="M176.843 282V275.76H174.843V275H179.703V275.76H177.623V282H176.843ZM181.576 282.1C181.176 282.1 180.836 282.02 180.556 281.86C180.283 281.693 180.073 281.453 179.926 281.14C179.786 280.827 179.716 280.437 179.716 279.97V276.78H180.476V279.82C180.476 280.173 180.523 280.47 180.616 280.71C180.716 280.943 180.863 281.12 181.056 281.24C181.256 281.36 181.499 281.42 181.786 281.42C182.006 281.42 182.209 281.383 182.396 281.31C182.583 281.23 182.746 281.123 182.886 280.99C183.026 280.857 183.136 280.7 183.216 280.52C183.296 280.34 183.336 280.15 183.336 279.95V276.78H184.086V282H183.346L183.316 280.9L183.436 280.84C183.356 281.073 183.223 281.287 183.036 281.48C182.849 281.667 182.626 281.817 182.366 281.93C182.113 282.043 181.849 282.1 181.576 282.1ZM187.846 282.1C187.326 282.1 186.863 281.987 186.456 281.76C186.056 281.533 185.743 281.217 185.516 280.81C185.29 280.403 185.176 279.937 185.176 279.41C185.176 279.003 185.24 278.637 185.366 278.31C185.493 277.977 185.67 277.687 185.896 277.44C186.13 277.193 186.406 277.003 186.726 276.87C187.046 276.73 187.393 276.66 187.766 276.66C188.12 276.66 188.44 276.723 188.726 276.85C189.02 276.977 189.27 277.153 189.476 277.38C189.69 277.6 189.85 277.863 189.956 278.17C190.063 278.477 190.11 278.813 190.096 279.18L190.086 279.53H185.736L185.626 278.9H189.516L189.336 279.07V278.83C189.323 278.59 189.253 278.36 189.126 278.14C189 277.913 188.82 277.73 188.586 277.59C188.36 277.45 188.086 277.38 187.766 277.38C187.393 277.38 187.07 277.457 186.796 277.61C186.523 277.757 186.313 277.977 186.166 278.27C186.02 278.563 185.946 278.927 185.946 279.36C185.946 279.773 186.026 280.133 186.186 280.44C186.346 280.74 186.573 280.973 186.866 281.14C187.166 281.307 187.526 281.39 187.946 281.39C188.193 281.39 188.436 281.35 188.676 281.27C188.923 281.183 189.193 281.017 189.486 280.77L189.876 281.31C189.723 281.463 189.54 281.6 189.326 281.72C189.113 281.833 188.88 281.927 188.626 282C188.373 282.067 188.113 282.1 187.846 282.1ZM192.872 282.1C192.425 282.1 192.025 282.017 191.672 281.85C191.318 281.683 191.038 281.463 190.832 281.19L191.362 280.73C191.555 280.963 191.782 281.14 192.042 281.26C192.308 281.38 192.605 281.44 192.932 281.44C193.098 281.44 193.248 281.423 193.382 281.39C193.515 281.35 193.632 281.293 193.732 281.22C193.832 281.147 193.908 281.06 193.962 280.96C194.015 280.86 194.042 280.75 194.042 280.63C194.042 280.41 193.945 280.227 193.752 280.08C193.665 280.02 193.542 279.96 193.382 279.9C193.222 279.833 193.028 279.77 192.802 279.71C192.428 279.603 192.118 279.497 191.872 279.39C191.625 279.277 191.432 279.147 191.292 279C191.192 278.88 191.115 278.75 191.062 278.61C191.015 278.47 190.992 278.317 190.992 278.15C190.992 277.937 191.035 277.74 191.122 277.56C191.215 277.38 191.342 277.223 191.502 277.09C191.668 276.95 191.862 276.847 192.082 276.78C192.308 276.707 192.552 276.67 192.812 276.67C193.058 276.67 193.302 276.703 193.542 276.77C193.782 276.837 194.005 276.933 194.212 277.06C194.418 277.187 194.595 277.337 194.742 277.51L194.282 278.01C194.155 277.877 194.015 277.757 193.862 277.65C193.708 277.543 193.545 277.46 193.372 277.4C193.205 277.34 193.032 277.31 192.852 277.31C192.692 277.31 192.542 277.33 192.402 277.37C192.268 277.41 192.152 277.467 192.052 277.54C191.958 277.607 191.885 277.69 191.832 277.79C191.785 277.89 191.762 278 191.762 278.12C191.762 278.22 191.782 278.31 191.822 278.39C191.862 278.47 191.918 278.54 191.992 278.6C192.085 278.673 192.215 278.743 192.382 278.81C192.555 278.87 192.768 278.933 193.022 279C193.315 279.08 193.562 279.163 193.762 279.25C193.968 279.33 194.138 279.427 194.272 279.54C194.452 279.673 194.578 279.827 194.652 280C194.732 280.173 194.772 280.37 194.772 280.59C194.772 280.883 194.688 281.143 194.522 281.37C194.362 281.597 194.138 281.777 193.852 281.91C193.565 282.037 193.238 282.1 192.872 282.1ZM198.067 282.1C197.593 282.1 197.167 281.983 196.787 281.75C196.413 281.517 196.117 281.197 195.897 280.79C195.683 280.377 195.577 279.91 195.577 279.39C195.577 278.863 195.687 278.397 195.907 277.99C196.127 277.577 196.423 277.253 196.797 277.02C197.17 276.787 197.59 276.67 198.057 276.67C198.317 276.67 198.567 276.71 198.807 276.79C199.053 276.87 199.273 276.983 199.467 277.13C199.66 277.27 199.82 277.433 199.947 277.62C200.073 277.8 200.15 277.99 200.177 278.19L199.947 278.11V274.6H200.697V282H199.957L199.937 280.7L200.127 280.63C200.1 280.817 200.023 281 199.897 281.18C199.777 281.353 199.623 281.51 199.437 281.65C199.25 281.79 199.037 281.9 198.797 281.98C198.563 282.06 198.32 282.1 198.067 282.1ZM198.177 281.41C198.523 281.41 198.833 281.323 199.107 281.15C199.38 280.977 199.593 280.737 199.747 280.43C199.907 280.123 199.987 279.773 199.987 279.38C199.987 278.987 199.907 278.64 199.747 278.34C199.593 278.033 199.38 277.793 199.107 277.62C198.833 277.44 198.523 277.35 198.177 277.35C197.817 277.35 197.5 277.44 197.227 277.62C196.96 277.793 196.747 278.033 196.587 278.34C196.433 278.64 196.357 278.987 196.357 279.38C196.357 279.767 196.433 280.113 196.587 280.42C196.74 280.727 196.953 280.97 197.227 281.15C197.5 281.323 197.817 281.41 198.177 281.41ZM204.198 282.1C203.744 282.1 203.334 281.983 202.968 281.75C202.601 281.51 202.311 281.187 202.098 280.78C201.884 280.367 201.778 279.9 201.778 279.38C201.778 278.853 201.888 278.387 202.108 277.98C202.328 277.573 202.621 277.253 202.988 277.02C203.361 276.787 203.778 276.67 204.238 276.67C204.511 276.67 204.764 276.71 204.998 276.79C205.231 276.87 205.438 276.983 205.618 277.13C205.804 277.27 205.958 277.437 206.078 277.63C206.204 277.817 206.291 278.02 206.338 278.24L206.118 278.13L206.148 276.78H206.898V282H206.138V280.72L206.338 280.59C206.291 280.79 206.201 280.983 206.068 281.17C205.934 281.35 205.771 281.51 205.578 281.65C205.391 281.79 205.178 281.9 204.938 281.98C204.704 282.06 204.458 282.1 204.198 282.1ZM204.368 281.38C204.714 281.38 205.024 281.297 205.298 281.13C205.571 280.957 205.784 280.72 205.938 280.42C206.098 280.113 206.178 279.767 206.178 279.38C206.178 278.993 206.098 278.65 205.938 278.35C205.784 278.05 205.571 277.813 205.298 277.64C205.024 277.467 204.714 277.38 204.368 277.38C204.014 277.38 203.701 277.467 203.428 277.64C203.161 277.813 202.948 278.05 202.788 278.35C202.634 278.65 202.558 278.993 202.558 279.38C202.558 279.76 202.634 280.103 202.788 280.41C202.941 280.71 203.154 280.947 203.428 281.12C203.701 281.293 204.014 281.38 204.368 281.38ZM209.122 284.3L210.132 281.84L210.202 282.55L207.582 276.78H208.432L210.222 280.78C210.275 280.887 210.328 281.013 210.382 281.16C210.435 281.3 210.485 281.44 210.532 281.58L210.252 281.55C210.298 281.437 210.342 281.32 210.382 281.2C210.428 281.08 210.472 280.963 210.512 280.85L212.082 276.78H212.942L210.832 282L209.932 284.3H209.122Z" fill="#667085"/>
<path d="M235.292 282L233.182 275H234.022L235.372 279.62C235.425 279.78 235.468 279.933 235.502 280.08C235.542 280.22 235.575 280.357 235.602 280.49C235.628 280.617 235.655 280.747 235.682 280.88C235.708 281.007 235.735 281.14 235.762 281.28L235.592 281.27C235.678 280.963 235.748 280.72 235.802 280.54C235.862 280.36 235.918 280.2 235.972 280.06C236.025 279.92 236.085 279.76 236.152 279.58L237.332 276.61H238.062L239.252 279.61C239.332 279.797 239.402 279.973 239.462 280.14C239.522 280.307 239.578 280.477 239.632 280.65C239.692 280.823 239.748 281.017 239.802 281.23L239.642 281.26C239.675 281.093 239.702 280.957 239.722 280.85C239.742 280.743 239.762 280.65 239.782 280.57C239.802 280.483 239.822 280.4 239.842 280.32C239.862 280.233 239.888 280.133 239.922 280.02C239.955 279.9 239.998 279.75 240.052 279.57L241.402 275H242.242L240.112 282H239.462L237.572 277.5L237.752 277.53L235.932 282H235.292ZM245.259 282.1C244.739 282.1 244.275 281.987 243.869 281.76C243.469 281.533 243.155 281.217 242.929 280.81C242.702 280.403 242.589 279.937 242.589 279.41C242.589 279.003 242.652 278.637 242.779 278.31C242.905 277.977 243.082 277.687 243.309 277.44C243.542 277.193 243.819 277.003 244.139 276.87C244.459 276.73 244.805 276.66 245.179 276.66C245.532 276.66 245.852 276.723 246.139 276.85C246.432 276.977 246.682 277.153 246.889 277.38C247.102 277.6 247.262 277.863 247.369 278.17C247.475 278.477 247.522 278.813 247.509 279.18L247.499 279.53H243.149L243.039 278.9H246.929L246.749 279.07V278.83C246.735 278.59 246.665 278.36 246.539 278.14C246.412 277.913 246.232 277.73 245.999 277.59C245.772 277.45 245.499 277.38 245.179 277.38C244.805 277.38 244.482 277.457 244.209 277.61C243.935 277.757 243.725 277.977 243.579 278.27C243.432 278.563 243.359 278.927 243.359 279.36C243.359 279.773 243.439 280.133 243.599 280.44C243.759 280.74 243.985 280.973 244.279 281.14C244.579 281.307 244.939 281.39 245.359 281.39C245.605 281.39 245.849 281.35 246.089 281.27C246.335 281.183 246.605 281.017 246.899 280.77L247.289 281.31C247.135 281.463 246.952 281.6 246.739 281.72C246.525 281.833 246.292 281.927 246.039 282C245.785 282.067 245.525 282.1 245.259 282.1ZM250.694 282.1C250.22 282.1 249.794 281.983 249.414 281.75C249.04 281.517 248.744 281.197 248.524 280.79C248.31 280.377 248.204 279.91 248.204 279.39C248.204 278.863 248.314 278.397 248.534 277.99C248.754 277.577 249.05 277.253 249.424 277.02C249.797 276.787 250.217 276.67 250.684 276.67C250.944 276.67 251.194 276.71 251.434 276.79C251.68 276.87 251.9 276.983 252.094 277.13C252.287 277.27 252.447 277.433 252.574 277.62C252.7 277.8 252.777 277.99 252.804 278.19L252.574 278.11V274.6H253.324V282H252.584L252.564 280.7L252.754 280.63C252.727 280.817 252.65 281 252.524 281.18C252.404 281.353 252.25 281.51 252.064 281.65C251.877 281.79 251.664 281.9 251.424 281.98C251.19 282.06 250.947 282.1 250.694 282.1ZM250.804 281.41C251.15 281.41 251.46 281.323 251.734 281.15C252.007 280.977 252.22 280.737 252.374 280.43C252.534 280.123 252.614 279.773 252.614 279.38C252.614 278.987 252.534 278.64 252.374 278.34C252.22 278.033 252.007 277.793 251.734 277.62C251.46 277.44 251.15 277.35 250.804 277.35C250.444 277.35 250.127 277.44 249.854 277.62C249.587 277.793 249.374 278.033 249.214 278.34C249.06 278.64 248.984 278.987 248.984 279.38C248.984 279.767 249.06 280.113 249.214 280.42C249.367 280.727 249.58 280.97 249.854 281.15C250.127 281.323 250.444 281.41 250.804 281.41ZM254.785 282V276.78H255.525L255.555 277.87L255.435 277.92C255.501 277.693 255.631 277.487 255.825 277.3C256.018 277.113 256.248 276.963 256.515 276.85C256.788 276.73 257.068 276.67 257.355 276.67C257.741 276.67 258.065 276.747 258.325 276.9C258.585 277.053 258.781 277.29 258.915 277.61C259.048 277.93 259.115 278.337 259.115 278.83V282H258.355V278.87C258.355 278.523 258.308 278.24 258.215 278.02C258.128 277.793 257.991 277.627 257.805 277.52C257.618 277.413 257.388 277.363 257.115 277.37C256.888 277.37 256.678 277.41 256.485 277.49C256.291 277.563 256.125 277.667 255.985 277.8C255.845 277.933 255.735 278.087 255.655 278.26C255.575 278.433 255.535 278.62 255.535 278.82V282H255.165C255.118 282 255.065 282 255.005 282C254.945 282 254.871 282 254.785 282ZM262.846 282.1C262.326 282.1 261.863 281.987 261.456 281.76C261.056 281.533 260.743 281.217 260.516 280.81C260.29 280.403 260.176 279.937 260.176 279.41C260.176 279.003 260.24 278.637 260.366 278.31C260.493 277.977 260.67 277.687 260.896 277.44C261.13 277.193 261.406 277.003 261.726 276.87C262.046 276.73 262.393 276.66 262.766 276.66C263.12 276.66 263.44 276.723 263.726 276.85C264.02 276.977 264.27 277.153 264.476 277.38C264.69 277.6 264.85 277.863 264.956 278.17C265.063 278.477 265.11 278.813 265.096 279.18L265.086 279.53H260.736L260.626 278.9H264.516L264.336 279.07V278.83C264.323 278.59 264.253 278.36 264.126 278.14C264 277.913 263.82 277.73 263.586 277.59C263.36 277.45 263.086 277.38 262.766 277.38C262.393 277.38 262.07 277.457 261.796 277.61C261.523 277.757 261.313 277.977 261.166 278.27C261.02 278.563 260.946 278.927 260.946 279.36C260.946 279.773 261.026 280.133 261.186 280.44C261.346 280.74 261.573 280.973 261.866 281.14C262.166 281.307 262.526 281.39 262.946 281.39C263.193 281.39 263.436 281.35 263.676 281.27C263.923 281.183 264.193 281.017 264.486 280.77L264.876 281.31C264.723 281.463 264.54 281.6 264.326 281.72C264.113 281.833 263.88 281.927 263.626 282C263.373 282.067 263.113 282.1 262.846 282.1ZM267.872 282.1C267.425 282.1 267.025 282.017 266.672 281.85C266.318 281.683 266.038 281.463 265.832 281.19L266.362 280.73C266.555 280.963 266.782 281.14 267.042 281.26C267.308 281.38 267.605 281.44 267.932 281.44C268.098 281.44 268.248 281.423 268.382 281.39C268.515 281.35 268.632 281.293 268.732 281.22C268.832 281.147 268.908 281.06 268.962 280.96C269.015 280.86 269.042 280.75 269.042 280.63C269.042 280.41 268.945 280.227 268.752 280.08C268.665 280.02 268.542 279.96 268.382 279.9C268.222 279.833 268.028 279.77 267.802 279.71C267.428 279.603 267.118 279.497 266.872 279.39C266.625 279.277 266.432 279.147 266.292 279C266.192 278.88 266.115 278.75 266.062 278.61C266.015 278.47 265.992 278.317 265.992 278.15C265.992 277.937 266.035 277.74 266.122 277.56C266.215 277.38 266.342 277.223 266.502 277.09C266.668 276.95 266.862 276.847 267.082 276.78C267.308 276.707 267.552 276.67 267.812 276.67C268.058 276.67 268.302 276.703 268.542 276.77C268.782 276.837 269.005 276.933 269.212 277.06C269.418 277.187 269.595 277.337 269.742 277.51L269.282 278.01C269.155 277.877 269.015 277.757 268.862 277.65C268.708 277.543 268.545 277.46 268.372 277.4C268.205 277.34 268.032 277.31 267.852 277.31C267.692 277.31 267.542 277.33 267.402 277.37C267.268 277.41 267.152 277.467 267.052 277.54C266.958 277.607 266.885 277.69 266.832 277.79C266.785 277.89 266.762 278 266.762 278.12C266.762 278.22 266.782 278.31 266.822 278.39C266.862 278.47 266.918 278.54 266.992 278.6C267.085 278.673 267.215 278.743 267.382 278.81C267.555 278.87 267.768 278.933 268.022 279C268.315 279.08 268.562 279.163 268.762 279.25C268.968 279.33 269.138 279.427 269.272 279.54C269.452 279.673 269.578 279.827 269.652 280C269.732 280.173 269.772 280.37 269.772 280.59C269.772 280.883 269.688 281.143 269.522 281.37C269.362 281.597 269.138 281.777 268.852 281.91C268.565 282.037 268.238 282.1 267.872 282.1ZM273.067 282.1C272.593 282.1 272.167 281.983 271.787 281.75C271.413 281.517 271.117 281.197 270.897 280.79C270.683 280.377 270.577 279.91 270.577 279.39C270.577 278.863 270.687 278.397 270.907 277.99C271.127 277.577 271.423 277.253 271.797 277.02C272.17 276.787 272.59 276.67 273.057 276.67C273.317 276.67 273.567 276.71 273.807 276.79C274.053 276.87 274.273 276.983 274.467 277.13C274.66 277.27 274.82 277.433 274.947 277.62C275.073 277.8 275.15 277.99 275.177 278.19L274.947 278.11V274.6H275.697V282H274.957L274.937 280.7L275.127 280.63C275.1 280.817 275.023 281 274.897 281.18C274.777 281.353 274.623 281.51 274.437 281.65C274.25 281.79 274.037 281.9 273.797 281.98C273.563 282.06 273.32 282.1 273.067 282.1ZM273.177 281.41C273.523 281.41 273.833 281.323 274.107 281.15C274.38 280.977 274.593 280.737 274.747 280.43C274.907 280.123 274.987 279.773 274.987 279.38C274.987 278.987 274.907 278.64 274.747 278.34C274.593 278.033 274.38 277.793 274.107 277.62C273.833 277.44 273.523 277.35 273.177 277.35C272.817 277.35 272.5 277.44 272.227 277.62C271.96 277.793 271.747 278.033 271.587 278.34C271.433 278.64 271.357 278.987 271.357 279.38C271.357 279.767 271.433 280.113 271.587 280.42C271.74 280.727 271.953 280.97 272.227 281.15C272.5 281.323 272.817 281.41 273.177 281.41ZM279.198 282.1C278.744 282.1 278.334 281.983 277.968 281.75C277.601 281.51 277.311 281.187 277.098 280.78C276.884 280.367 276.778 279.9 276.778 279.38C276.778 278.853 276.888 278.387 277.108 277.98C277.328 277.573 277.621 277.253 277.988 277.02C278.361 276.787 278.778 276.67 279.238 276.67C279.511 276.67 279.764 276.71 279.998 276.79C280.231 276.87 280.438 276.983 280.618 277.13C280.804 277.27 280.958 277.437 281.078 277.63C281.204 277.817 281.291 278.02 281.338 278.24L281.118 278.13L281.148 276.78H281.898V282H281.138V280.72L281.338 280.59C281.291 280.79 281.201 280.983 281.068 281.17C280.934 281.35 280.771 281.51 280.578 281.65C280.391 281.79 280.178 281.9 279.938 281.98C279.704 282.06 279.458 282.1 279.198 282.1ZM279.368 281.38C279.714 281.38 280.024 281.297 280.298 281.13C280.571 280.957 280.784 280.72 280.938 280.42C281.098 280.113 281.178 279.767 281.178 279.38C281.178 278.993 281.098 278.65 280.938 278.35C280.784 278.05 280.571 277.813 280.298 277.64C280.024 277.467 279.714 277.38 279.368 277.38C279.014 277.38 278.701 277.467 278.428 277.64C278.161 277.813 277.948 278.05 277.788 278.35C277.634 278.65 277.558 278.993 277.558 279.38C277.558 279.76 277.634 280.103 277.788 280.41C277.941 280.71 278.154 280.947 278.428 281.12C278.701 281.293 279.014 281.38 279.368 281.38ZM284.122 284.3L285.132 281.84L285.202 282.55L282.582 276.78H283.432L285.222 280.78C285.275 280.887 285.328 281.013 285.382 281.16C285.435 281.3 285.485 281.44 285.532 281.58L285.252 281.55C285.298 281.437 285.342 281.32 285.382 281.2C285.428 281.08 285.472 280.963 285.512 280.85L287.082 276.78H287.942L285.832 282L284.932 284.3H284.122Z" fill="#667085"/>
<path d="M307.97 282V275.76H305.97V275H310.83V275.76H308.75V282H307.97ZM311.849 282V274.6H312.599V277.92L312.449 278.07C312.522 277.797 312.659 277.557 312.859 277.35C313.059 277.137 313.292 276.97 313.559 276.85C313.832 276.73 314.109 276.67 314.389 276.67C314.789 276.67 315.122 276.747 315.389 276.9C315.656 277.053 315.852 277.29 315.979 277.61C316.112 277.93 316.179 278.337 316.179 278.83V282H315.419V278.87C315.419 278.523 315.372 278.24 315.279 278.02C315.192 277.793 315.056 277.627 314.869 277.52C314.682 277.413 314.449 277.363 314.169 277.37C313.949 277.37 313.742 277.41 313.549 277.49C313.356 277.563 313.189 277.667 313.049 277.8C312.909 277.933 312.799 278.087 312.719 278.26C312.639 278.433 312.599 278.62 312.599 278.82V282H312.229C312.182 282 312.129 282 312.069 282C312.009 282 311.936 282 311.849 282ZM319.461 282.1C319.061 282.1 318.721 282.02 318.441 281.86C318.168 281.693 317.958 281.453 317.811 281.14C317.671 280.827 317.601 280.437 317.601 279.97V276.78H318.361V279.82C318.361 280.173 318.408 280.47 318.501 280.71C318.601 280.943 318.748 281.12 318.941 281.24C319.141 281.36 319.384 281.42 319.671 281.42C319.891 281.42 320.094 281.383 320.281 281.31C320.468 281.23 320.631 281.123 320.771 280.99C320.911 280.857 321.021 280.7 321.101 280.52C321.181 280.34 321.221 280.15 321.221 279.95V276.78H321.971V282H321.231L321.201 280.9L321.321 280.84C321.241 281.073 321.108 281.287 320.921 281.48C320.734 281.667 320.511 281.817 320.251 281.93C319.998 282.043 319.734 282.1 319.461 282.1ZM323.431 282V276.78H324.181L324.201 278.17L324.121 277.98C324.195 277.747 324.311 277.53 324.471 277.33C324.638 277.13 324.835 276.97 325.061 276.85C325.288 276.73 325.538 276.67 325.811 276.67C325.925 276.67 326.031 276.68 326.131 276.7C326.231 276.713 326.315 276.733 326.381 276.76L326.171 277.6C326.085 277.56 325.995 277.533 325.901 277.52C325.815 277.5 325.731 277.49 325.651 277.49C325.425 277.49 325.221 277.53 325.041 277.61C324.861 277.69 324.708 277.803 324.581 277.95C324.455 278.09 324.358 278.253 324.291 278.44C324.225 278.627 324.191 278.827 324.191 279.04V282H323.431ZM328.872 282.1C328.425 282.1 328.025 282.017 327.672 281.85C327.318 281.683 327.038 281.463 326.832 281.19L327.362 280.73C327.555 280.963 327.782 281.14 328.042 281.26C328.308 281.38 328.605 281.44 328.932 281.44C329.098 281.44 329.248 281.423 329.382 281.39C329.515 281.35 329.632 281.293 329.732 281.22C329.832 281.147 329.908 281.06 329.962 280.96C330.015 280.86 330.042 280.75 330.042 280.63C330.042 280.41 329.945 280.227 329.752 280.08C329.665 280.02 329.542 279.96 329.382 279.9C329.222 279.833 329.028 279.77 328.802 279.71C328.428 279.603 328.118 279.497 327.872 279.39C327.625 279.277 327.432 279.147 327.292 279C327.192 278.88 327.115 278.75 327.062 278.61C327.015 278.47 326.992 278.317 326.992 278.15C326.992 277.937 327.035 277.74 327.122 277.56C327.215 277.38 327.342 277.223 327.502 277.09C327.668 276.95 327.862 276.847 328.082 276.78C328.308 276.707 328.552 276.67 328.812 276.67C329.058 276.67 329.302 276.703 329.542 276.77C329.782 276.837 330.005 276.933 330.212 277.06C330.418 277.187 330.595 277.337 330.742 277.51L330.282 278.01C330.155 277.877 330.015 277.757 329.862 277.65C329.708 277.543 329.545 277.46 329.372 277.4C329.205 277.34 329.032 277.31 328.852 277.31C328.692 277.31 328.542 277.33 328.402 277.37C328.268 277.41 328.152 277.467 328.052 277.54C327.958 277.607 327.885 277.69 327.832 277.79C327.785 277.89 327.762 278 327.762 278.12C327.762 278.22 327.782 278.31 327.822 278.39C327.862 278.47 327.918 278.54 327.992 278.6C328.085 278.673 328.215 278.743 328.382 278.81C328.555 278.87 328.768 278.933 329.022 279C329.315 279.08 329.562 279.163 329.762 279.25C329.968 279.33 330.138 279.427 330.272 279.54C330.452 279.673 330.578 279.827 330.652 280C330.732 280.173 330.772 280.37 330.772 280.59C330.772 280.883 330.688 281.143 330.522 281.37C330.362 281.597 330.138 281.777 329.852 281.91C329.565 282.037 329.238 282.1 328.872 282.1ZM334.067 282.1C333.593 282.1 333.167 281.983 332.787 281.75C332.413 281.517 332.117 281.197 331.897 280.79C331.683 280.377 331.577 279.91 331.577 279.39C331.577 278.863 331.687 278.397 331.907 277.99C332.127 277.577 332.423 277.253 332.797 277.02C333.17 276.787 333.59 276.67 334.057 276.67C334.317 276.67 334.567 276.71 334.807 276.79C335.053 276.87 335.273 276.983 335.467 277.13C335.66 277.27 335.82 277.433 335.947 277.62C336.073 277.8 336.15 277.99 336.177 278.19L335.947 278.11V274.6H336.697V282H335.957L335.937 280.7L336.127 280.63C336.1 280.817 336.023 281 335.897 281.18C335.777 281.353 335.623 281.51 335.437 281.65C335.25 281.79 335.037 281.9 334.797 281.98C334.563 282.06 334.32 282.1 334.067 282.1ZM334.177 281.41C334.523 281.41 334.833 281.323 335.107 281.15C335.38 280.977 335.593 280.737 335.747 280.43C335.907 280.123 335.987 279.773 335.987 279.38C335.987 278.987 335.907 278.64 335.747 278.34C335.593 278.033 335.38 277.793 335.107 277.62C334.833 277.44 334.523 277.35 334.177 277.35C333.817 277.35 333.5 277.44 333.227 277.62C332.96 277.793 332.747 278.033 332.587 278.34C332.433 278.64 332.357 278.987 332.357 279.38C332.357 279.767 332.433 280.113 332.587 280.42C332.74 280.727 332.953 280.97 333.227 281.15C333.5 281.323 333.817 281.41 334.177 281.41ZM340.198 282.1C339.744 282.1 339.334 281.983 338.968 281.75C338.601 281.51 338.311 281.187 338.098 280.78C337.884 280.367 337.778 279.9 337.778 279.38C337.778 278.853 337.888 278.387 338.108 277.98C338.328 277.573 338.621 277.253 338.988 277.02C339.361 276.787 339.778 276.67 340.238 276.67C340.511 276.67 340.764 276.71 340.998 276.79C341.231 276.87 341.438 276.983 341.618 277.13C341.804 277.27 341.958 277.437 342.078 277.63C342.204 277.817 342.291 278.02 342.338 278.24L342.118 278.13L342.148 276.78H342.898V282H342.138V280.72L342.338 280.59C342.291 280.79 342.201 280.983 342.068 281.17C341.934 281.35 341.771 281.51 341.578 281.65C341.391 281.79 341.178 281.9 340.938 281.98C340.704 282.06 340.458 282.1 340.198 282.1ZM340.368 281.38C340.714 281.38 341.024 281.297 341.298 281.13C341.571 280.957 341.784 280.72 341.938 280.42C342.098 280.113 342.178 279.767 342.178 279.38C342.178 278.993 342.098 278.65 341.938 278.35C341.784 278.05 341.571 277.813 341.298 277.64C341.024 277.467 340.714 277.38 340.368 277.38C340.014 277.38 339.701 277.467 339.428 277.64C339.161 277.813 338.948 278.05 338.788 278.35C338.634 278.65 338.558 278.993 338.558 279.38C338.558 279.76 338.634 280.103 338.788 280.41C338.941 280.71 339.154 280.947 339.428 281.12C339.701 281.293 340.014 281.38 340.368 281.38ZM345.122 284.3L346.132 281.84L346.202 282.55L343.582 276.78H344.432L346.222 280.78C346.275 280.887 346.328 281.013 346.382 281.16C346.435 281.3 346.485 281.44 346.532 281.58L346.252 281.55C346.298 281.437 346.342 281.32 346.382 281.2C346.428 281.08 346.472 280.963 346.512 280.85L348.082 276.78H348.942L346.832 282L345.932 284.3H345.122Z" fill="#667085"/>
<path d="M379.089 282V275H379.869V282H379.089ZM379.479 278.88V278.11H383.019V278.88H379.479ZM379.479 275.76V275H383.489V275.76H379.479ZM384.628 282V276.78H385.378L385.398 278.17L385.318 277.98C385.392 277.747 385.508 277.53 385.668 277.33C385.835 277.13 386.032 276.97 386.258 276.85C386.485 276.73 386.735 276.67 387.008 276.67C387.122 276.67 387.228 276.68 387.328 276.7C387.428 276.713 387.512 276.733 387.578 276.76L387.368 277.6C387.282 277.56 387.192 277.533 387.098 277.52C387.012 277.5 386.928 277.49 386.848 277.49C386.622 277.49 386.418 277.53 386.238 277.61C386.058 277.69 385.905 277.803 385.778 277.95C385.652 278.09 385.555 278.253 385.488 278.44C385.422 278.627 385.388 278.827 385.388 279.04V282H384.628ZM388.559 282V276.78H389.309V282H388.559ZM388.929 275.65C388.742 275.65 388.599 275.603 388.499 275.51C388.406 275.41 388.359 275.277 388.359 275.11C388.359 274.943 388.409 274.81 388.509 274.71C388.609 274.61 388.749 274.56 388.929 274.56C389.109 274.56 389.249 274.61 389.349 274.71C389.449 274.803 389.499 274.937 389.499 275.11C389.499 275.27 389.449 275.4 389.349 275.5C389.249 275.6 389.109 275.65 388.929 275.65ZM393.067 282.1C392.593 282.1 392.167 281.983 391.787 281.75C391.413 281.517 391.117 281.197 390.897 280.79C390.683 280.377 390.577 279.91 390.577 279.39C390.577 278.863 390.687 278.397 390.907 277.99C391.127 277.577 391.423 277.253 391.797 277.02C392.17 276.787 392.59 276.67 393.057 276.67C393.317 276.67 393.567 276.71 393.807 276.79C394.053 276.87 394.273 276.983 394.467 277.13C394.66 277.27 394.82 277.433 394.947 277.62C395.073 277.8 395.15 277.99 395.177 278.19L394.947 278.11V274.6H395.697V282H394.957L394.937 280.7L395.127 280.63C395.1 280.817 395.023 281 394.897 281.18C394.777 281.353 394.623 281.51 394.437 281.65C394.25 281.79 394.037 281.9 393.797 281.98C393.563 282.06 393.32 282.1 393.067 282.1ZM393.177 281.41C393.523 281.41 393.833 281.323 394.107 281.15C394.38 280.977 394.593 280.737 394.747 280.43C394.907 280.123 394.987 279.773 394.987 279.38C394.987 278.987 394.907 278.64 394.747 278.34C394.593 278.033 394.38 277.793 394.107 277.62C393.833 277.44 393.523 277.35 393.177 277.35C392.817 277.35 392.5 277.44 392.227 277.62C391.96 277.793 391.747 278.033 391.587 278.34C391.433 278.64 391.357 278.987 391.357 279.38C391.357 279.767 391.433 280.113 391.587 280.42C391.74 280.727 391.953 280.97 392.227 281.15C392.5 281.323 392.817 281.41 393.177 281.41ZM399.198 282.1C398.744 282.1 398.334 281.983 397.968 281.75C397.601 281.51 397.311 281.187 397.098 280.78C396.884 280.367 396.778 279.9 396.778 279.38C396.778 278.853 396.888 278.387 397.108 277.98C397.328 277.573 397.621 277.253 397.988 277.02C398.361 276.787 398.778 276.67 399.238 276.67C399.511 276.67 399.764 276.71 399.998 276.79C400.231 276.87 400.438 276.983 400.618 277.13C400.804 277.27 400.958 277.437 401.078 277.63C401.204 277.817 401.291 278.02 401.338 278.24L401.118 278.13L401.148 276.78H401.898V282H401.138V280.72L401.338 280.59C401.291 280.79 401.201 280.983 401.068 281.17C400.934 281.35 400.771 281.51 400.578 281.65C400.391 281.79 400.178 281.9 399.938 281.98C399.704 282.06 399.458 282.1 399.198 282.1ZM399.368 281.38C399.714 281.38 400.024 281.297 400.298 281.13C400.571 280.957 400.784 280.72 400.938 280.42C401.098 280.113 401.178 279.767 401.178 279.38C401.178 278.993 401.098 278.65 400.938 278.35C400.784 278.05 400.571 277.813 400.298 277.64C400.024 277.467 399.714 277.38 399.368 277.38C399.014 277.38 398.701 277.467 398.428 277.64C398.161 277.813 397.948 278.05 397.788 278.35C397.634 278.65 397.558 278.993 397.558 279.38C397.558 279.76 397.634 280.103 397.788 280.41C397.941 280.71 398.154 280.947 398.428 281.12C398.701 281.293 399.014 281.38 399.368 281.38ZM404.122 284.3L405.132 281.84L405.202 282.55L402.582 276.78H403.432L405.222 280.78C405.275 280.887 405.328 281.013 405.382 281.16C405.435 281.3 405.485 281.44 405.532 281.58L405.252 281.55C405.298 281.437 405.342 281.32 405.382 281.2C405.428 281.08 405.472 280.963 405.512 280.85L407.082 276.78H407.942L405.832 282L404.932 284.3H404.122Z" fill="#667085"/>
<path d="M439.965 282.1C439.611 282.1 439.278 282.05 438.965 281.95C438.651 281.85 438.365 281.7 438.105 281.5C437.845 281.3 437.615 281.053 437.415 280.76L437.955 280.16C438.268 280.607 438.588 280.92 438.915 281.1C439.248 281.28 439.621 281.37 440.035 281.37C440.335 281.37 440.608 281.32 440.855 281.22C441.101 281.12 441.295 280.98 441.435 280.8C441.575 280.62 441.645 280.413 441.645 280.18C441.645 280.027 441.618 279.89 441.565 279.77C441.518 279.65 441.445 279.543 441.345 279.45C441.245 279.357 441.121 279.273 440.975 279.2C440.828 279.127 440.658 279.06 440.465 279C440.278 278.94 440.068 278.88 439.835 278.82C439.495 278.74 439.195 278.647 438.935 278.54C438.681 278.427 438.465 278.29 438.285 278.13C438.111 277.97 437.978 277.787 437.885 277.58C437.798 277.367 437.755 277.117 437.755 276.83C437.755 276.557 437.811 276.303 437.925 276.07C438.045 275.837 438.208 275.637 438.415 275.47C438.621 275.297 438.865 275.163 439.145 275.07C439.425 274.977 439.725 274.93 440.045 274.93C440.405 274.93 440.725 274.98 441.005 275.08C441.291 275.173 441.545 275.313 441.765 275.5C441.985 275.687 442.175 275.91 442.335 276.17L441.785 276.71C441.645 276.49 441.485 276.3 441.305 276.14C441.131 275.98 440.938 275.86 440.725 275.78C440.518 275.693 440.288 275.65 440.035 275.65C439.741 275.65 439.481 275.7 439.255 275.8C439.035 275.9 438.861 276.04 438.735 276.22C438.608 276.393 438.545 276.593 438.545 276.82C438.545 276.987 438.575 277.137 438.635 277.27C438.695 277.397 438.788 277.51 438.915 277.61C439.048 277.703 439.218 277.79 439.425 277.87C439.638 277.943 439.891 278.013 440.185 278.08C440.531 278.16 440.841 278.257 441.115 278.37C441.395 278.483 441.631 278.62 441.825 278.78C442.025 278.933 442.175 279.113 442.275 279.32C442.381 279.527 442.435 279.763 442.435 280.03C442.435 280.443 442.331 280.807 442.125 281.12C441.918 281.427 441.628 281.667 441.255 281.84C440.888 282.013 440.458 282.1 439.965 282.1ZM445.749 282.1C445.295 282.1 444.885 281.983 444.519 281.75C444.152 281.51 443.862 281.187 443.649 280.78C443.435 280.367 443.329 279.9 443.329 279.38C443.329 278.853 443.439 278.387 443.659 277.98C443.879 277.573 444.172 277.253 444.539 277.02C444.912 276.787 445.329 276.67 445.789 276.67C446.062 276.67 446.315 276.71 446.549 276.79C446.782 276.87 446.989 276.983 447.169 277.13C447.355 277.27 447.509 277.437 447.629 277.63C447.755 277.817 447.842 278.02 447.889 278.24L447.669 278.13L447.699 276.78H448.449V282H447.689V280.72L447.889 280.59C447.842 280.79 447.752 280.983 447.619 281.17C447.485 281.35 447.322 281.51 447.129 281.65C446.942 281.79 446.729 281.9 446.489 281.98C446.255 282.06 446.009 282.1 445.749 282.1ZM445.919 281.38C446.265 281.38 446.575 281.297 446.849 281.13C447.122 280.957 447.335 280.72 447.489 280.42C447.649 280.113 447.729 279.767 447.729 279.38C447.729 278.993 447.649 278.65 447.489 278.35C447.335 278.05 447.122 277.813 446.849 277.64C446.575 277.467 446.265 277.38 445.919 277.38C445.565 277.38 445.252 277.467 444.979 277.64C444.712 277.813 444.499 278.05 444.339 278.35C444.185 278.65 444.109 278.993 444.109 279.38C444.109 279.76 444.185 280.103 444.339 280.41C444.492 280.71 444.705 280.947 444.979 281.12C445.252 281.293 445.565 281.38 445.919 281.38ZM450.63 282V275.41H451.38V282H450.63ZM449.45 277.5V276.78H452.7V277.5H449.45ZM455.471 282.1C455.071 282.1 454.731 282.02 454.451 281.86C454.177 281.693 453.967 281.453 453.821 281.14C453.681 280.827 453.611 280.437 453.611 279.97V276.78H454.371V279.82C454.371 280.173 454.417 280.47 454.511 280.71C454.611 280.943 454.757 281.12 454.951 281.24C455.151 281.36 455.394 281.42 455.681 281.42C455.901 281.42 456.104 281.383 456.291 281.31C456.477 281.23 456.641 281.123 456.781 280.99C456.921 280.857 457.031 280.7 457.111 280.52C457.191 280.34 457.231 280.15 457.231 279.95V276.78H457.981V282H457.241L457.211 280.9L457.331 280.84C457.251 281.073 457.117 281.287 456.931 281.48C456.744 281.667 456.521 281.817 456.261 281.93C456.007 282.043 455.744 282.1 455.471 282.1ZM459.441 282V276.78H460.191L460.211 278.17L460.131 277.98C460.204 277.747 460.321 277.53 460.481 277.33C460.648 277.13 460.844 276.97 461.071 276.85C461.298 276.73 461.548 276.67 461.821 276.67C461.934 276.67 462.041 276.68 462.141 276.7C462.241 276.713 462.324 276.733 462.391 276.76L462.181 277.6C462.094 277.56 462.004 277.533 461.911 277.52C461.824 277.5 461.741 277.49 461.661 277.49C461.434 277.49 461.231 277.53 461.051 277.61C460.871 277.69 460.718 277.803 460.591 277.95C460.464 278.09 460.368 278.253 460.301 278.44C460.234 278.627 460.201 278.827 460.201 279.04V282H459.441ZM465.067 282.1C464.593 282.1 464.167 281.983 463.787 281.75C463.413 281.517 463.117 281.197 462.897 280.79C462.683 280.377 462.577 279.91 462.577 279.39C462.577 278.863 462.687 278.397 462.907 277.99C463.127 277.577 463.423 277.253 463.797 277.02C464.17 276.787 464.59 276.67 465.057 276.67C465.317 276.67 465.567 276.71 465.807 276.79C466.053 276.87 466.273 276.983 466.467 277.13C466.66 277.27 466.82 277.433 466.947 277.62C467.073 277.8 467.15 277.99 467.177 278.19L466.947 278.11V274.6H467.697V282H466.957L466.937 280.7L467.127 280.63C467.1 280.817 467.023 281 466.897 281.18C466.777 281.353 466.623 281.51 466.437 281.65C466.25 281.79 466.037 281.9 465.797 281.98C465.563 282.06 465.32 282.1 465.067 282.1ZM465.177 281.41C465.523 281.41 465.833 281.323 466.107 281.15C466.38 280.977 466.593 280.737 466.747 280.43C466.907 280.123 466.987 279.773 466.987 279.38C466.987 278.987 466.907 278.64 466.747 278.34C466.593 278.033 466.38 277.793 466.107 277.62C465.833 277.44 465.523 277.35 465.177 277.35C464.817 277.35 464.5 277.44 464.227 277.62C463.96 277.793 463.747 278.033 463.587 278.34C463.433 278.64 463.357 278.987 463.357 279.38C463.357 279.767 463.433 280.113 463.587 280.42C463.74 280.727 463.953 280.97 464.227 281.15C464.5 281.323 464.817 281.41 465.177 281.41ZM471.198 282.1C470.744 282.1 470.334 281.983 469.968 281.75C469.601 281.51 469.311 281.187 469.098 280.78C468.884 280.367 468.778 279.9 468.778 279.38C468.778 278.853 468.888 278.387 469.108 277.98C469.328 277.573 469.621 277.253 469.988 277.02C470.361 276.787 470.778 276.67 471.238 276.67C471.511 276.67 471.764 276.71 471.998 276.79C472.231 276.87 472.438 276.983 472.618 277.13C472.804 277.27 472.958 277.437 473.078 277.63C473.204 277.817 473.291 278.02 473.338 278.24L473.118 278.13L473.148 276.78H473.898V282H473.138V280.72L473.338 280.59C473.291 280.79 473.201 280.983 473.068 281.17C472.934 281.35 472.771 281.51 472.578 281.65C472.391 281.79 472.178 281.9 471.938 281.98C471.704 282.06 471.458 282.1 471.198 282.1ZM471.368 281.38C471.714 281.38 472.024 281.297 472.298 281.13C472.571 280.957 472.784 280.72 472.938 280.42C473.098 280.113 473.178 279.767 473.178 279.38C473.178 278.993 473.098 278.65 472.938 278.35C472.784 278.05 472.571 277.813 472.298 277.64C472.024 277.467 471.714 277.38 471.368 277.38C471.014 277.38 470.701 277.467 470.428 277.64C470.161 277.813 469.948 278.05 469.788 278.35C469.634 278.65 469.558 278.993 469.558 279.38C469.558 279.76 469.634 280.103 469.788 280.41C469.941 280.71 470.154 280.947 470.428 281.12C470.701 281.293 471.014 281.38 471.368 281.38ZM476.122 284.3L477.132 281.84L477.202 282.55L474.582 276.78H475.432L477.222 280.78C477.275 280.887 477.328 281.013 477.382 281.16C477.435 281.3 477.485 281.44 477.532 281.58L477.252 281.55C477.298 281.437 477.342 281.32 477.382 281.2C477.428 281.08 477.472 280.963 477.512 280.85L479.082 276.78H479.942L477.832 282L476.932 284.3H476.122Z" fill="#667085"/>
<path d="M3.56 195.1C3.06667 195.1 2.63 194.99 2.25 194.77C1.87667 194.543 1.52667 194.16 1.2 193.62L1.84 193.22C2.02 193.507 2.20333 193.737 2.39 193.91C2.58333 194.077 2.78 194.197 2.98 194.27C3.18 194.343 3.39333 194.38 3.62 194.38C3.9 194.38 4.15667 194.313 4.39 194.18C4.62333 194.04 4.81 193.853 4.95 193.62C5.09 193.38 5.16 193.113 5.16 192.82C5.16 192.52 5.09667 192.257 4.97 192.03C4.84333 191.803 4.66667 191.627 4.44 191.5C4.22 191.373 3.96333 191.31 3.67 191.31C3.56333 191.31 3.44667 191.323 3.32 191.35C3.2 191.37 3.06667 191.413 2.92 191.48C2.78 191.54 2.62667 191.63 2.46 191.75L2.23 191.13L4.7 188.44L4.87 188.73H1.69V188H5.47L5.67 188.4L3.27 190.96L3.07 190.76C3.15667 190.707 3.26 190.663 3.38 190.63C3.5 190.59 3.62 190.57 3.74 190.57C4.04667 190.57 4.33333 190.627 4.6 190.74C4.86667 190.853 5.09667 191.013 5.29 191.22C5.49 191.42 5.64667 191.653 5.76 191.92C5.87333 192.187 5.93 192.477 5.93 192.79C5.93 193.223 5.82667 193.617 5.62 193.97C5.41333 194.317 5.13 194.593 4.77 194.8C4.41 195 4.00667 195.1 3.56 195.1ZM8.86297 195.07C8.40297 195.07 7.9863 194.967 7.61297 194.76C7.23964 194.547 6.92964 194.243 6.68297 193.85L7.15297 193.34C7.43297 193.713 7.71297 193.973 7.99297 194.12C8.27964 194.26 8.57297 194.33 8.87297 194.33C9.19297 194.33 9.48297 194.257 9.74297 194.11C10.0096 193.957 10.2196 193.753 10.373 193.5C10.5263 193.247 10.603 192.967 10.603 192.66C10.603 192.36 10.533 192.09 10.393 191.85C10.253 191.603 10.063 191.41 9.82297 191.27C9.58297 191.123 9.3063 191.05 8.99297 191.05C8.8263 191.05 8.65964 191.07 8.49297 191.11C8.3263 191.143 8.15297 191.2 7.97297 191.28C7.79964 191.353 7.61297 191.447 7.41297 191.56L6.97297 190.97L7.38297 188H11.163V188.73H7.79297L8.04297 188.55L7.67297 191L7.44297 190.84C7.54964 190.753 7.69297 190.67 7.87297 190.59C8.05297 190.51 8.24964 190.447 8.46297 190.4C8.68297 190.347 8.8963 190.32 9.10297 190.32C9.5363 190.32 9.92297 190.42 10.263 190.62C10.603 190.813 10.873 191.083 11.073 191.43C11.273 191.77 11.373 192.163 11.373 192.61C11.373 193.077 11.263 193.497 11.043 193.87C10.823 194.237 10.523 194.53 10.143 194.75C9.76297 194.963 9.3363 195.07 8.86297 195.07ZM15.0366 195.1C14.4899 195.1 14.0232 194.957 13.6366 194.67C13.2566 194.383 12.9632 193.973 12.7566 193.44C12.5566 192.9 12.4566 192.253 12.4566 191.5C12.4566 190.747 12.5566 190.103 12.7566 189.57C12.9632 189.03 13.2566 188.617 13.6366 188.33C14.0232 188.043 14.4899 187.9 15.0366 187.9C15.5766 187.9 16.0399 188.043 16.4266 188.33C16.8132 188.617 17.1066 189.03 17.3066 189.57C17.5132 190.103 17.6166 190.747 17.6166 191.5C17.6166 192.253 17.5132 192.9 17.3066 193.44C17.1066 193.973 16.8132 194.383 16.4266 194.67C16.0399 194.957 15.5766 195.1 15.0366 195.1ZM15.0366 194.37C15.6099 194.37 16.0499 194.12 16.3566 193.62C16.6699 193.12 16.8266 192.413 16.8266 191.5C16.8266 190.587 16.6699 189.88 16.3566 189.38C16.0499 188.88 15.6099 188.63 15.0366 188.63C14.4566 188.63 14.0099 188.88 13.6966 189.38C13.3899 189.88 13.2366 190.587 13.2366 191.5C13.2366 192.413 13.3899 193.12 13.6966 193.62C14.0099 194.12 14.4566 194.37 15.0366 194.37Z" fill="#667085"/>
<path d="M3.07977 134.07C2.61977 134.07 2.2031 133.967 1.82977 133.76C1.45643 133.547 1.14643 133.243 0.899766 132.85L1.36977 132.34C1.64977 132.713 1.92977 132.973 2.20977 133.12C2.49643 133.26 2.78977 133.33 3.08977 133.33C3.40977 133.33 3.69977 133.257 3.95977 133.11C4.22643 132.957 4.43643 132.753 4.58977 132.5C4.7431 132.247 4.81977 131.967 4.81977 131.66C4.81977 131.36 4.74977 131.09 4.60977 130.85C4.46977 130.603 4.27977 130.41 4.03977 130.27C3.79977 130.123 3.5231 130.05 3.20977 130.05C3.0431 130.05 2.87643 130.07 2.70977 130.11C2.5431 130.143 2.36977 130.2 2.18977 130.28C2.01643 130.353 1.82977 130.447 1.62977 130.56L1.18977 129.97L1.59977 127H5.37977V127.73H2.00977L2.25977 127.55L1.88977 130L1.65977 129.84C1.76643 129.753 1.90977 129.67 2.08977 129.59C2.26977 129.51 2.46643 129.447 2.67977 129.4C2.89977 129.347 3.1131 129.32 3.31977 129.32C3.7531 129.32 4.13977 129.42 4.47977 129.62C4.81977 129.813 5.08977 130.083 5.28977 130.43C5.48977 130.77 5.58977 131.163 5.58977 131.61C5.58977 132.077 5.47977 132.497 5.25977 132.87C5.03977 133.237 4.73977 133.53 4.35977 133.75C3.97977 133.963 3.5531 134.07 3.07977 134.07ZM8.76336 134.07C8.30336 134.07 7.88669 133.967 7.51336 133.76C7.14003 133.547 6.83003 133.243 6.58336 132.85L7.05336 132.34C7.33336 132.713 7.61336 132.973 7.89336 133.12C8.18003 133.26 8.47336 133.33 8.77336 133.33C9.09336 133.33 9.38336 133.257 9.64336 133.11C9.91003 132.957 10.12 132.753 10.2734 132.5C10.4267 132.247 10.5034 131.967 10.5034 131.66C10.5034 131.36 10.4334 131.09 10.2934 130.85C10.1534 130.603 9.96336 130.41 9.72336 130.27C9.48336 130.123 9.20669 130.05 8.89336 130.05C8.72669 130.05 8.56003 130.07 8.39336 130.11C8.22669 130.143 8.05336 130.2 7.87336 130.28C7.70003 130.353 7.51336 130.447 7.31336 130.56L6.87336 129.97L7.28336 127H11.0634V127.73H7.69336L7.94336 127.55L7.57336 130L7.34336 129.84C7.45003 129.753 7.59336 129.67 7.77336 129.59C7.95336 129.51 8.15003 129.447 8.36336 129.4C8.58336 129.347 8.79669 129.32 9.00336 129.32C9.43669 129.32 9.82336 129.42 10.1634 129.62C10.5034 129.813 10.7734 130.083 10.9734 130.43C11.1734 130.77 11.2734 131.163 11.2734 131.61C11.2734 132.077 11.1634 132.497 10.9434 132.87C10.7234 133.237 10.4234 133.53 10.0434 133.75C9.66336 133.963 9.23669 134.07 8.76336 134.07ZM14.937 134.1C14.3903 134.1 13.9236 133.957 13.537 133.67C13.157 133.383 12.8636 132.973 12.657 132.44C12.457 131.9 12.357 131.253 12.357 130.5C12.357 129.747 12.457 129.103 12.657 128.57C12.8636 128.03 13.157 127.617 13.537 127.33C13.9236 127.043 14.3903 126.9 14.937 126.9C15.477 126.9 15.9403 127.043 16.327 127.33C16.7136 127.617 17.007 128.03 17.207 128.57C17.4136 129.103 17.517 129.747 17.517 130.5C17.517 131.253 17.4136 131.9 17.207 132.44C17.007 132.973 16.7136 133.383 16.327 133.67C15.9403 133.957 15.477 134.1 14.937 134.1ZM14.937 133.37C15.5103 133.37 15.9503 133.12 16.257 132.62C16.5703 132.12 16.727 131.413 16.727 130.5C16.727 129.587 16.5703 128.88 16.257 128.38C15.9503 127.88 15.5103 127.63 14.937 127.63C14.357 127.63 13.9103 127.88 13.597 128.38C13.2903 128.88 13.137 129.587 13.137 130.5C13.137 131.413 13.2903 132.12 13.597 132.62C13.9103 133.12 14.357 133.37 14.937 133.37Z" fill="#667085"/>
<path d="M2.10711 73L5.04711 66.46L5.17711 66.73H1.42711V66H5.64711L5.77711 66.61L2.95711 73H2.10711ZM8.76336 73.07C8.30336 73.07 7.88669 72.9667 7.51336 72.76C7.14003 72.5467 6.83003 72.2433 6.58336 71.85L7.05336 71.34C7.33336 71.7133 7.61336 71.9733 7.89336 72.12C8.18003 72.26 8.47336 72.33 8.77336 72.33C9.09336 72.33 9.38336 72.2567 9.64336 72.11C9.91003 71.9567 10.12 71.7533 10.2734 71.5C10.4267 71.2467 10.5034 70.9667 10.5034 70.66C10.5034 70.36 10.4334 70.09 10.2934 69.85C10.1534 69.6033 9.96336 69.41 9.72336 69.27C9.48336 69.1233 9.20669 69.05 8.89336 69.05C8.72669 69.05 8.56003 69.07 8.39336 69.11C8.22669 69.1433 8.05336 69.2 7.87336 69.28C7.70003 69.3533 7.51336 69.4467 7.31336 69.56L6.87336 68.97L7.28336 66H11.0634V66.73H7.69336L7.94336 66.55L7.57336 69L7.34336 68.84C7.45003 68.7533 7.59336 68.67 7.77336 68.59C7.95336 68.51 8.15003 68.4467 8.36336 68.4C8.58336 68.3467 8.79669 68.32 9.00336 68.32C9.43669 68.32 9.82336 68.42 10.1634 68.62C10.5034 68.8133 10.7734 69.0833 10.9734 69.43C11.1734 69.77 11.2734 70.1633 11.2734 70.61C11.2734 71.0767 11.1634 71.4967 10.9434 71.87C10.7234 72.2367 10.4234 72.53 10.0434 72.75C9.66336 72.9633 9.23669 73.07 8.76336 73.07ZM14.937 73.1C14.3903 73.1 13.9236 72.9567 13.537 72.67C13.157 72.3833 12.8636 71.9733 12.657 71.44C12.457 70.9 12.357 70.2533 12.357 69.5C12.357 68.7467 12.457 68.1033 12.657 67.57C12.8636 67.03 13.157 66.6167 13.537 66.33C13.9236 66.0433 14.3903 65.9 14.937 65.9C15.477 65.9 15.9403 66.0433 16.327 66.33C16.7136 66.6167 17.007 67.03 17.207 67.57C17.4136 68.1033 17.517 68.7467 17.517 69.5C17.517 70.2533 17.4136 70.9 17.207 71.44C17.007 71.9733 16.7136 72.3833 16.327 72.67C15.9403 72.9567 15.477 73.1 14.937 73.1ZM14.937 72.37C15.5103 72.37 15.9503 72.12 16.257 71.62C16.5703 71.12 16.727 70.4133 16.727 69.5C16.727 68.5867 16.5703 67.88 16.257 67.38C15.9503 66.88 15.5103 66.63 14.937 66.63C14.357 66.63 13.9103 66.88 13.597 67.38C13.2903 67.88 13.137 68.5867 13.137 69.5C13.137 70.4133 13.2903 71.12 13.597 71.62C13.9103 72.12 14.357 72.37 14.937 72.37Z" fill="#667085"/>
<path d="M3.23531 12L3.19531 11.9L5.23531 7.66L5.30531 8.14C5.17198 8.37333 5.02865 8.58 4.87531 8.76C4.72198 8.93333 4.55531 9.08 4.37531 9.2C4.20198 9.32 4.01865 9.41333 3.82531 9.48C3.63198 9.54 3.43198 9.57 3.22531 9.57C2.82531 9.57 2.45865 9.46667 2.12531 9.26C1.79865 9.05333 1.53531 8.78 1.33531 8.44C1.14198 8.1 1.04531 7.72333 1.04531 7.31C1.04531 6.85 1.15198 6.43667 1.36531 6.07C1.57865 5.70333 1.86865 5.41667 2.23531 5.21C2.60198 4.99667 3.00865 4.89 3.45531 4.89C3.78865 4.89 4.09531 4.95 4.37531 5.07C4.66198 5.19 4.91198 5.35667 5.12531 5.57C5.34531 5.78333 5.51531 6.03333 5.63531 6.32C5.75531 6.6 5.81531 6.90333 5.81531 7.23C5.81531 7.42333 5.78865 7.63667 5.73531 7.87C5.68865 8.09667 5.61865 8.34 5.52531 8.6C5.43198 8.85333 5.32531 9.12 5.20531 9.4C5.08531 9.68 4.95531 9.96667 4.81531 10.26L3.98531 12H3.23531ZM3.39531 8.83C3.69531 8.83 3.96531 8.76 4.20531 8.62C4.44531 8.47333 4.63531 8.28 4.77531 8.04C4.91531 7.8 4.98531 7.53333 4.98531 7.24C4.98531 6.94 4.91531 6.66667 4.77531 6.42C4.64198 6.17333 4.45531 5.98 4.21531 5.84C3.97531 5.7 3.70531 5.63 3.40531 5.63C3.11198 5.63 2.84865 5.7 2.61531 5.84C2.38198 5.98 2.19531 6.17 2.05531 6.41C1.92198 6.65 1.85531 6.92333 1.85531 7.23C1.85531 7.52333 1.92198 7.79 2.05531 8.03C2.19531 8.27 2.38198 8.46333 2.61531 8.61C2.84865 8.75667 3.10865 8.83 3.39531 8.83ZM8.76336 12.07C8.30336 12.07 7.88669 11.9667 7.51336 11.76C7.14003 11.5467 6.83003 11.2433 6.58336 10.85L7.05336 10.34C7.33336 10.7133 7.61336 10.9733 7.89336 11.12C8.18003 11.26 8.47336 11.33 8.77336 11.33C9.09336 11.33 9.38336 11.2567 9.64336 11.11C9.91003 10.9567 10.12 10.7533 10.2734 10.5C10.4267 10.2467 10.5034 9.96667 10.5034 9.66C10.5034 9.36 10.4334 9.09 10.2934 8.85C10.1534 8.60333 9.96336 8.41 9.72336 8.27C9.48336 8.12333 9.20669 8.05 8.89336 8.05C8.72669 8.05 8.56003 8.07 8.39336 8.11C8.22669 8.14333 8.05336 8.2 7.87336 8.28C7.70003 8.35333 7.51336 8.44667 7.31336 8.56L6.87336 7.97L7.28336 5H11.0634V5.73H7.69336L7.94336 5.55L7.57336 8L7.34336 7.84C7.45003 7.75333 7.59336 7.67 7.77336 7.59C7.95336 7.51 8.15003 7.44667 8.36336 7.4C8.58336 7.34667 8.79669 7.32 9.00336 7.32C9.43669 7.32 9.82336 7.42 10.1634 7.62C10.5034 7.81333 10.7734 8.08333 10.9734 8.43C11.1734 8.77 11.2734 9.16333 11.2734 9.61C11.2734 10.0767 11.1634 10.4967 10.9434 10.87C10.7234 11.2367 10.4234 11.53 10.0434 11.75C9.66336 11.9633 9.23669 12.07 8.76336 12.07ZM14.937 12.1C14.3903 12.1 13.9236 11.9567 13.537 11.67C13.157 11.3833 12.8636 10.9733 12.657 10.44C12.457 9.9 12.357 9.25333 12.357 8.5C12.357 7.74667 12.457 7.10333 12.657 6.57C12.8636 6.03 13.157 5.61667 13.537 5.33C13.9236 5.04333 14.3903 4.9 14.937 4.9C15.477 4.9 15.9403 5.04333 16.327 5.33C16.7136 5.61667 17.007 6.03 17.207 6.57C17.4136 7.10333 17.517 7.74667 17.517 8.5C17.517 9.25333 17.4136 9.9 17.207 10.44C17.007 10.9733 16.7136 11.3833 16.327 11.67C15.9403 11.9567 15.477 12.1 14.937 12.1ZM14.937 11.37C15.5103 11.37 15.9503 11.12 16.257 10.62C16.5703 10.12 16.727 9.41333 16.727 8.5C16.727 7.58667 16.5703 6.88 16.257 6.38C15.9503 5.88 15.5103 5.63 14.937 5.63C14.357 5.63 13.9103 5.88 13.597 6.38C13.2903 6.88 13.137 7.58667 13.137 8.5C13.137 9.41333 13.2903 10.12 13.597 10.62C13.9103 11.12 14.357 11.37 14.937 11.37Z" fill="#667085"/>
<g opacity="0.5">
<rect x="30" y="253" width="465" height="1" rx="0.5" fill="#E4E7EC"/>
<rect x="61.1191" y="262" width="9" height="0.437604" rx="0.218802" transform="rotate(-90 61.1191 262)" fill="#E4E7EC"/>
<rect x="127.783" y="262" width="9" height="0.437604" rx="0.218802" transform="rotate(-90 127.783 262)" fill="#E4E7EC"/>
<rect x="193.912" y="262" width="9" height="0.437604" rx="0.218802" transform="rotate(-90 193.912 262)" fill="#E4E7EC"/>
<rect x="260.039" y="262" width="9" height="0.437604" rx="0.218802" transform="rotate(-90 260.039 262)" fill="#E4E7EC"/>
<rect x="326.164" y="262" width="9" height="0.437604" rx="0.218802" transform="rotate(-90 326.164 262)" fill="#E4E7EC"/>
<rect x="392.291" y="262" width="9" height="0.437604" rx="0.218802" transform="rotate(-90 392.291 262)" fill="#E4E7EC"/>
<rect x="458.42" y="262" width="9" height="0.437604" rx="0.218802" transform="rotate(-90 458.42 262)" fill="#E4E7EC"/>
<rect x="30" y="192" width="465" height="1" rx="0.5" fill="#E4E7EC"/>
<rect x="30" y="131" width="465" height="1" rx="0.5" fill="#E4E7EC"/>
<rect x="30" y="70" width="465" height="1" rx="0.5" fill="#E4E7EC"/>
<rect x="30" y="9" width="465" height="1" rx="0.5" fill="#E4E7EC"/>
</g>
<path d="M31 209.5L61 225.5L128.5 190.5L194.5 202L257 156L325 173L395.5 125L457.5 156L495 145" stroke="url(#paint0_linear_3423_59520)" stroke-width="2" stroke-linecap="round"/>
<path d="M128.5 191.5L61 226.5L31 210.5V255H495V146L457.5 157L395.5 126L325 174L257 157L194.5 203L128.5 191.5Z" fill="url(#paint1_linear_3423_59520)"/>
<line x1="326.5" y1="172.5" x2="326.5" y2="249.5" stroke="#E4E7EC" stroke-linecap="round" stroke-dasharray="3 6"/>
<circle cx="327" cy="171" r="6" fill="#9B8AFB" stroke="white" stroke-width="2"/>
<g filter="url(#filter0_d_3423_59520)">
<mask id="path-29-outside-1_3423_59520" maskUnits="userSpaceOnUse" x="284" y="125" width="94" height="34" fill="black">
<rect fill="white" x="284" y="125" width="94" height="34"/>
<path fill-rule="evenodd" clip-rule="evenodd" d="M289 126C286.791 126 285 127.791 285 130V149C285 151.209 286.791 153 289 153H373C375.209 153 377 151.209 377 149V130C377 127.791 375.209 126 373 126H289ZM329.652 157.58L333.243 153.399H324.757L328.348 157.58C328.708 157.999 329.292 157.999 329.652 157.58Z"/>
</mask>
<path fill-rule="evenodd" clip-rule="evenodd" d="M289 126C286.791 126 285 127.791 285 130V149C285 151.209 286.791 153 289 153H373C375.209 153 377 151.209 377 149V130C377 127.791 375.209 126 373 126H289ZM329.652 157.58L333.243 153.399H324.757L328.348 157.58C328.708 157.999 329.292 157.999 329.652 157.58Z" fill="white"/>
<path d="M333.243 153.399L333.622 153.725L334.331 152.899H333.243V153.399ZM329.652 157.58L329.272 157.254L329.652 157.58ZM324.757 153.399V152.899H323.669L324.378 153.725L324.757 153.399ZM328.348 157.58L328.728 157.254V157.254L328.348 157.58ZM285.5 130C285.5 128.067 287.067 126.5 289 126.5V125.5C286.515 125.5 284.5 127.515 284.5 130H285.5ZM285.5 149V130H284.5V149H285.5ZM289 152.5C287.067 152.5 285.5 150.933 285.5 149H284.5C284.5 151.485 286.515 153.5 289 153.5V152.5ZM373 152.5H289V153.5H373V152.5ZM376.5 149C376.5 150.933 374.933 152.5 373 152.5V153.5C375.485 153.5 377.5 151.485 377.5 149H376.5ZM376.5 130V149H377.5V130H376.5ZM373 126.5C374.933 126.5 376.5 128.067 376.5 130H377.5C377.5 127.515 375.485 125.5 373 125.5V126.5ZM289 126.5H373V125.5H289V126.5ZM332.863 153.073L329.272 157.254L330.031 157.906L333.622 153.725L332.863 153.073ZM324.757 153.899H333.243V152.899H324.757V153.899ZM328.728 157.254L325.137 153.073L324.378 153.725L327.969 157.906L328.728 157.254ZM329.272 157.254C329.112 157.441 328.888 157.441 328.728 157.254L327.969 157.906C328.529 158.557 329.471 158.557 330.031 157.906L329.272 157.254Z" fill="#BAB7CC" mask="url(#path-29-outside-1_3423_59520)"/>
</g>
<path d="M303.072 144.12C302.48 144.12 301.956 143.988 301.5 143.724C301.052 143.452 300.632 142.992 300.24 142.344L301.008 141.864C301.224 142.208 301.444 142.484 301.668 142.692C301.9 142.892 302.136 143.036 302.376 143.124C302.616 143.212 302.872 143.256 303.144 143.256C303.48 143.256 303.788 143.176 304.068 143.016C304.348 142.848 304.572 142.624 304.74 142.344C304.908 142.056 304.992 141.736 304.992 141.384C304.992 141.024 304.916 140.708 304.764 140.436C304.612 140.164 304.4 139.952 304.128 139.8C303.864 139.648 303.556 139.572 303.204 139.572C303.076 139.572 302.936 139.588 302.784 139.62C302.64 139.644 302.48 139.696 302.304 139.776C302.136 139.848 301.952 139.956 301.752 140.1L301.476 139.356L304.44 136.128L304.644 136.476H300.828V135.6H305.364L305.604 136.08L302.724 139.152L302.484 138.912C302.588 138.848 302.712 138.796 302.856 138.756C303 138.708 303.144 138.684 303.288 138.684C303.656 138.684 304 138.752 304.32 138.888C304.64 139.024 304.916 139.216 305.148 139.464C305.388 139.704 305.576 139.984 305.712 140.304C305.848 140.624 305.916 140.972 305.916 141.348C305.916 141.868 305.792 142.34 305.544 142.764C305.296 143.18 304.956 143.512 304.524 143.76C304.092 144 303.608 144.12 303.072 144.12ZM307.636 144L311.164 136.152L311.32 136.476H306.82V135.6H311.884L312.04 136.332L308.656 144H307.636ZM316.211 144.12C315.555 144.12 314.995 143.948 314.531 143.604C314.075 143.26 313.723 142.768 313.475 142.128C313.235 141.48 313.115 140.704 313.115 139.8C313.115 138.896 313.235 138.124 313.475 137.484C313.723 136.836 314.075 136.34 314.531 135.996C314.995 135.652 315.555 135.48 316.211 135.48C316.859 135.48 317.415 135.652 317.879 135.996C318.343 136.34 318.695 136.836 318.935 137.484C319.183 138.124 319.307 138.896 319.307 139.8C319.307 140.704 319.183 141.48 318.935 142.128C318.695 142.768 318.343 143.26 317.879 143.604C317.415 143.948 316.859 144.12 316.211 144.12ZM316.211 143.244C316.899 143.244 317.427 142.944 317.795 142.344C318.171 141.744 318.359 140.896 318.359 139.8C318.359 138.704 318.171 137.856 317.795 137.256C317.427 136.656 316.899 136.356 316.211 136.356C315.515 136.356 314.979 136.656 314.603 137.256C314.235 137.856 314.051 138.704 314.051 139.8C314.051 140.896 314.235 141.744 314.603 142.344C314.979 142.944 315.515 143.244 316.211 143.244ZM326.802 144L323.55 135.6H324.606L326.694 141.072C326.79 141.32 326.874 141.54 326.946 141.732C327.018 141.924 327.082 142.108 327.138 142.284C327.202 142.452 327.262 142.62 327.318 142.788C327.374 142.956 327.434 143.14 327.498 143.34L327.186 143.352C327.266 143.08 327.342 142.828 327.414 142.596C327.494 142.364 327.574 142.128 327.654 141.888C327.742 141.64 327.85 141.352 327.978 141.024L330.054 135.6H331.11L327.762 144H326.802ZM332.522 144V137.736H333.422V144H332.522ZM332.966 136.38C332.742 136.38 332.57 136.324 332.45 136.212C332.338 136.092 332.282 135.932 332.282 135.732C332.282 135.532 332.342 135.372 332.462 135.252C332.582 135.132 332.75 135.072 332.966 135.072C333.182 135.072 333.35 135.132 333.47 135.252C333.59 135.364 333.65 135.524 333.65 135.732C333.65 135.924 333.59 136.08 333.47 136.2C333.35 136.32 333.182 136.38 332.966 136.38ZM338.148 144.12C337.524 144.12 336.968 143.984 336.48 143.712C336 143.44 335.624 143.06 335.352 142.572C335.08 142.084 334.944 141.524 334.944 140.892C334.944 140.404 335.02 139.964 335.172 139.572C335.324 139.172 335.536 138.824 335.808 138.528C336.088 138.232 336.42 138.004 336.804 137.844C337.188 137.676 337.604 137.592 338.052 137.592C338.476 137.592 338.86 137.668 339.204 137.82C339.556 137.972 339.856 138.184 340.104 138.456C340.36 138.72 340.552 139.036 340.68 139.404C340.808 139.772 340.864 140.176 340.848 140.616L340.836 141.036H335.616L335.484 140.28H340.152L339.936 140.484V140.196C339.92 139.908 339.836 139.632 339.684 139.368C339.532 139.096 339.316 138.876 339.036 138.708C338.764 138.54 338.436 138.456 338.052 138.456C337.604 138.456 337.216 138.548 336.888 138.732C336.56 138.908 336.308 139.172 336.132 139.524C335.956 139.876 335.868 140.312 335.868 140.832C335.868 141.328 335.964 141.76 336.156 142.128C336.348 142.488 336.62 142.768 336.972 142.968C337.332 143.168 337.764 143.268 338.268 143.268C338.564 143.268 338.856 143.22 339.144 143.124C339.44 143.02 339.764 142.82 340.116 142.524L340.584 143.172C340.4 143.356 340.18 143.52 339.924 143.664C339.668 143.8 339.388 143.912 339.084 144C338.78 144.08 338.468 144.12 338.148 144.12ZM343.485 144L341.313 137.736L342.273 137.724L343.965 142.824L343.665 142.8L345.501 138.696H346.041L347.889 142.8L347.529 142.824L349.257 137.736H350.205L348.033 144H347.505L345.561 139.536L345.921 139.56L344.037 144H343.485ZM353.26 144.12C352.724 144.12 352.244 144.02 351.82 143.82C351.396 143.62 351.06 143.356 350.812 143.028L351.448 142.476C351.68 142.756 351.952 142.968 352.264 143.112C352.584 143.256 352.94 143.328 353.332 143.328C353.532 143.328 353.712 143.308 353.872 143.268C354.032 143.22 354.172 143.152 354.292 143.064C354.412 142.976 354.504 142.872 354.568 142.752C354.632 142.632 354.664 142.5 354.664 142.356C354.664 142.092 354.548 141.872 354.316 141.696C354.212 141.624 354.064 141.552 353.872 141.48C353.68 141.4 353.448 141.324 353.176 141.252C352.728 141.124 352.356 140.996 352.06 140.868C351.764 140.732 351.532 140.576 351.364 140.4C351.244 140.256 351.152 140.1 351.088 139.932C351.032 139.764 351.004 139.58 351.004 139.38C351.004 139.124 351.056 138.888 351.16 138.672C351.272 138.456 351.424 138.268 351.616 138.108C351.816 137.94 352.048 137.816 352.312 137.736C352.584 137.648 352.876 137.604 353.188 137.604C353.484 137.604 353.776 137.644 354.064 137.724C354.352 137.804 354.62 137.92 354.868 138.072C355.116 138.224 355.328 138.404 355.504 138.612L354.952 139.212C354.8 139.052 354.632 138.908 354.448 138.78C354.264 138.652 354.068 138.552 353.86 138.48C353.66 138.408 353.452 138.372 353.236 138.372C353.044 138.372 352.864 138.396 352.696 138.444C352.536 138.492 352.396 138.56 352.276 138.648C352.164 138.728 352.076 138.828 352.012 138.948C351.956 139.068 351.928 139.2 351.928 139.344C351.928 139.464 351.952 139.572 352 139.668C352.048 139.764 352.116 139.848 352.204 139.92C352.316 140.008 352.472 140.092 352.672 140.172C352.88 140.244 353.136 140.32 353.44 140.4C353.792 140.496 354.088 140.596 354.328 140.7C354.576 140.796 354.78 140.912 354.94 141.048C355.156 141.208 355.308 141.392 355.396 141.6C355.492 141.808 355.54 142.044 355.54 142.308C355.54 142.66 355.44 142.972 355.24 143.244C355.048 143.516 354.78 143.732 354.436 143.892C354.092 144.044 353.7 144.12 353.26 144.12Z" fill="#667085"/>
<defs>
<filter id="filter0_d_3423_59520" x="274.5" y="119.5" width="113" height="52.8945" filterUnits="userSpaceOnUse" color-interpolation-filters="sRGB">
<feFlood flood-opacity="0" result="BackgroundImageFix"/>
<feColorMatrix in="SourceAlpha" type="matrix" values="0 0 0 0 0 0 0 0 0 0 0 0 0 0 0 0 0 0 127 0" result="hardAlpha"/>
<feOffset dy="4"/>
<feGaussianBlur stdDeviation="5"/>
<feColorMatrix type="matrix" values="0 0 0 0 0 0 0 0 0 0 0 0 0 0 0 0 0 0 0.06 0"/>
<feBlend mode="normal" in2="BackgroundImageFix" result="effect1_dropShadow_3423_59520"/>
<feBlend mode="normal" in="SourceGraphic" in2="effect1_dropShadow_3423_59520" result="shape"/>
</filter>
<linearGradient id="paint0_linear_3423_59520" x1="49.831" y1="175.578" x2="487.922" y2="140.97" gradientUnits="userSpaceOnUse">
<stop stop-color="#B9E6FE" stop-opacity="0.91"/>
<stop offset="1" stop-color="#715EE0"/>
</linearGradient>
<linearGradient id="paint1_linear_3423_59520" x1="267.779" y1="255" x2="266.979" y2="167.582" gradientUnits="userSpaceOnUse">
<stop stop-color="#B9E6FE" stop-opacity="0.22"/>
<stop offset="1" stop-color="#9B8AFB" stop-opacity="0.11"/>
</linearGradient>
</defs>
</svg>
