<svg width="130" height="54" viewBox="0 0 130 54" fill="none" xmlns="http://www.w3.org/2000/svg">
<g clip-path="url(#clip0_278_896)">
<path d="M89.5443 23.4087H84.8301V31.3031H89.5443V23.4087Z" fill="#D7321D"/>
<path d="M89.5443 10.1646H84.8301V17.9093H89.5443V10.1646Z" fill="#D7321D"/>
<path d="M97.857 18.4702H90V22.96H97.857V18.4702Z" fill="#D7321D"/>
<path d="M97.86 10.1646H90V14.6543H97.86V10.1646Z" fill="#D7321D"/>
<path d="M84.4553 18.4702H76.5234V22.96H84.4553V18.4702Z" fill="#D7321D"/>
<path d="M21.1509 31.64C19.6397 31.6559 18.1399 31.3763 16.736 30.8169C15.417 30.2718 14.2116 29.485 13.1816 28.4972C12.1798 27.4994 11.3795 26.3181 10.8245 25.0176C10.2825 23.6347 10.0034 22.1628 10.0014 20.6775C9.97781 19.2021 10.258 17.7375 10.8245 16.3749C11.3709 15.0808 12.1726 13.9101 13.1816 12.9327C14.1979 11.9456 15.391 11.1586 16.6986 10.613C18.1025 10.0537 19.6023 9.77405 21.1135 9.78993C22.6253 9.76654 24.1265 10.0464 25.5284 10.613C26.8433 11.1448 28.0389 11.9334 29.0454 12.9327C30.0633 13.917 30.866 15.1019 31.4025 16.4123C31.9656 17.789 32.2456 19.2651 32.2256 20.7524C32.242 22.2272 31.9621 23.6904 31.4025 25.055C30.8567 26.3605 30.0553 27.5436 29.0454 28.5346C28.0291 29.5218 26.8359 30.3087 25.5284 30.8543C24.132 31.3906 22.6466 31.6572 21.1509 31.64ZM21.1135 27.3747C22.2779 27.4105 23.4297 27.1258 24.4434 26.5516C25.3862 25.9892 26.1513 25.1722 26.6508 24.1945C27.1907 23.1154 27.4603 21.9213 27.4365 20.715C27.4523 19.7972 27.3001 18.8842 26.9876 18.0211C26.7137 17.2419 26.2804 16.5284 25.7155 15.9259C25.1616 15.3365 24.4845 14.8766 23.7325 14.579C22.9067 14.2726 22.0317 14.1204 21.1509 14.13C19.9984 14.0948 18.8587 14.3797 17.8584 14.9531C16.9174 15.5013 16.1518 16.3058 15.651 17.2728C15.1029 18.349 14.8328 19.5451 14.8653 20.7524C14.8528 21.6821 15.0048 22.6068 15.3142 23.4836C15.5787 24.2672 16.0131 24.9827 16.5863 25.5788C17.1402 26.1683 17.8173 26.6282 18.5693 26.9258C19.386 27.2176 20.2462 27.3694 21.1135 27.3747ZM30.5793 32.9495L24.8549 27.2251L27.5862 24.4938L33.348 30.2557L30.5793 32.9495Z" fill="#388289"/>
<path d="M44.8352 31.603C43.2302 31.6317 41.6449 31.245 40.2333 30.4806C38.9385 29.7592 37.8649 28.6986 37.1279 27.4126C36.3637 26.0415 35.9764 24.4923 36.0054 22.9229V10.1646H40.7196V23.2596C40.7063 24.0158 40.8866 24.7628 41.2435 25.4297C41.595 26.0378 42.1147 26.5315 42.74 26.8514C43.3864 27.1872 44.107 27.3545 44.8352 27.3378C45.5639 27.359 46.2857 27.1915 46.9305 26.8514C47.5344 26.5283 48.0291 26.0336 48.3522 25.4297C48.709 24.7628 48.8894 24.0158 48.876 23.2596V10.1646H53.5902V22.9977C53.624 24.5558 53.2362 26.0941 52.4678 27.45C51.745 28.7341 50.6838 29.7952 49.3998 30.518C47.9952 31.2616 46.4242 31.635 44.8352 31.603Z" fill="#388289"/>
<path d="M58.1172 31.2662V10.1645H62.8314V31.3036H58.1172V31.2662ZM61.709 22.5861V19.1065H66.1613C66.9496 19.1608 67.728 18.9058 68.3313 18.3956C68.5896 18.1449 68.7902 17.8411 68.9194 17.5051C69.0486 17.1692 69.1033 16.8092 69.0796 16.4501C69.0875 16.1039 69.0253 15.7597 68.8967 15.4382C68.7681 15.1167 68.5758 14.8246 68.3313 14.5794C68.0367 14.318 67.6933 14.1173 67.3209 13.9889C66.9485 13.8605 66.5545 13.8069 66.1613 13.8311H61.6716V10.1645H66.6851C67.9518 10.1374 69.2074 10.4064 70.3517 10.9502C71.3613 11.4462 72.2154 12.2097 72.8211 13.1576C73.4259 14.1205 73.7379 15.2384 73.719 16.3753C73.7428 17.5245 73.4307 18.6558 72.8211 19.6303C72.2085 20.577 71.339 21.3297 70.3143 21.8004C69.1181 22.3478 67.8132 22.6165 66.498 22.5861H61.709ZM69.6034 31.2662L63.0185 22.1745L67.3212 21.0147L75.1782 31.2662H69.6034Z" fill="#388289"/>
<path d="M108.363 23.4093L100.207 10.1646H105.67L111.918 20.8651H108.401L114.649 10.1646H119.999L111.806 23.4093H108.363ZM107.765 31.2663V21.2392H112.479V31.2663H107.765Z" fill="#D7321D"/>
<path d="M12.5352 43.263C13.8152 43.263 14.4712 42.551 14.4712 41.679C14.4712 40.711 13.7192 40.335 12.6712 40.087C11.7352 39.863 11.1912 39.663 11.1912 39.095C11.1912 38.591 11.6872 38.143 12.3672 38.143C12.9432 38.143 13.4872 38.407 13.9432 38.847L14.3272 38.359C13.8232 37.895 13.2152 37.575 12.3992 37.575C11.3432 37.575 10.5592 38.263 10.5592 39.143C10.5592 40.095 11.2552 40.439 12.3592 40.695C13.3192 40.919 13.8392 41.151 13.8392 41.735C13.8392 42.231 13.4072 42.695 12.5592 42.695C11.7912 42.695 11.2232 42.367 10.7592 41.903L10.3672 42.391C10.9192 42.935 11.6312 43.263 12.5352 43.263Z" fill="#1D2939"/>
<path d="M16.1694 38.287C16.3854 38.287 16.5614 38.103 16.5614 37.887C16.5614 37.679 16.3854 37.495 16.1694 37.495C15.9454 37.495 15.7694 37.679 15.7694 37.887C15.7694 38.103 15.9454 38.287 16.1694 38.287ZM15.8654 43.175H16.4654V39.039H15.8654V43.175Z" fill="#1D2939"/>
<path d="M22.5023 38.943C21.8783 38.943 21.3343 39.287 21.1663 39.823C20.9423 39.287 20.4543 38.943 19.8303 38.943C19.2863 38.943 18.8383 39.215 18.6303 39.647V39.039H18.0303V43.175H18.6303V40.543C18.6303 39.919 19.0943 39.479 19.7503 39.479C20.3103 39.479 20.7023 39.951 20.7023 40.623V43.175H21.3023V40.543C21.3023 39.919 21.7663 39.479 22.4223 39.479C22.9823 39.479 23.3743 39.951 23.3743 40.623V43.175H23.9743V40.543C23.9743 39.607 23.3663 38.943 22.5023 38.943Z" fill="#1D2939"/>
<path d="M27.7066 38.943C27.0426 38.943 26.5146 39.271 26.2026 39.815V39.039H25.6026V44.551H26.2026V42.399C26.5146 42.943 27.0426 43.271 27.7066 43.271C28.7946 43.271 29.6106 42.375 29.6106 41.103C29.6106 39.839 28.7946 38.943 27.7066 38.943ZM27.5946 42.735C26.7786 42.735 26.2026 42.055 26.2026 41.103C26.2026 40.151 26.7786 39.479 27.5946 39.479C28.4026 39.479 28.9786 40.151 28.9786 41.103C28.9786 42.055 28.4026 42.735 27.5946 42.735Z" fill="#1D2939"/>
<path d="M31.0081 43.175H31.6081V37.583H31.0081V43.175Z" fill="#1D2939"/>
<path d="M33.4766 38.287C33.6926 38.287 33.8686 38.103 33.8686 37.887C33.8686 37.679 33.6926 37.495 33.4766 37.495C33.2526 37.495 33.0766 37.679 33.0766 37.887C33.0766 38.103 33.2526 38.287 33.4766 38.287ZM33.1726 43.175H33.7726V39.039H33.1726V43.175Z" fill="#1D2939"/>
<path d="M36.2735 38.471C36.2735 38.167 36.4815 37.951 36.7215 37.951C36.9055 37.951 37.0655 38.023 37.1535 38.119L37.4495 37.679C37.2335 37.511 36.9615 37.415 36.6815 37.415C36.0895 37.415 35.6735 37.855 35.6735 38.471V39.039H35.0255V39.575H35.6735V43.175H36.2735V39.575H37.2895V39.039H36.2735V38.471Z" fill="#1D2939"/>
<path d="M39.1182 44.615C39.6862 44.607 40.0862 44.343 40.3742 43.639L42.2622 39.039H41.6142L40.2462 42.479L38.7982 39.039H38.1342L39.9342 43.191L39.6942 43.703C39.5342 43.983 39.3582 44.071 39.0942 44.071C38.9182 44.071 38.7502 44.039 38.6062 43.967L38.4622 44.479C38.6542 44.567 38.8782 44.615 39.1182 44.615Z" fill="#1D2939"/>
<path d="M43.9004 38.287C44.1164 38.287 44.2924 38.103 44.2924 37.887C44.2924 37.679 44.1164 37.495 43.9004 37.495C43.6764 37.495 43.5004 37.679 43.5004 37.887C43.5004 38.103 43.6764 38.287 43.9004 38.287ZM43.5964 43.175H44.1964V39.039H43.5964V43.175Z" fill="#1D2939"/>
<path d="M47.7292 38.943C47.1452 38.943 46.6092 39.263 46.3693 39.703V39.039H45.7692V43.175H46.3693V40.543C46.3693 39.967 46.9533 39.479 47.6493 39.479C48.2572 39.479 48.6812 39.951 48.6812 40.623V43.175H49.2812V40.543C49.2812 39.607 48.6413 38.943 47.7292 38.943Z" fill="#1D2939"/>
<path d="M54.0716 39.039V39.751C53.7516 39.247 53.2236 38.943 52.5676 38.943C51.4556 38.943 50.6636 39.751 50.6636 40.903C50.6636 42.055 51.4556 42.871 52.5676 42.871C53.2236 42.871 53.7516 42.567 54.0716 42.063V42.735C54.0716 43.543 53.5116 44.015 52.5596 44.015C52.0476 44.015 51.5516 43.831 51.2316 43.527L50.9676 43.999C51.3436 44.319 51.9676 44.551 52.6396 44.551C53.8316 44.551 54.6716 43.799 54.6716 42.735V39.039H54.0716ZM52.6796 42.335C51.8716 42.335 51.2956 41.743 51.2956 40.903C51.2956 40.071 51.8716 39.479 52.6796 39.479C53.4956 39.479 54.0716 40.071 54.0716 40.903C54.0716 41.743 53.4956 42.335 52.6796 42.335Z" fill="#1D2939"/>
<path d="M62.8699 37.679V40.079H59.6299V37.679H59.0059V43.175H59.6299V40.671H62.8699V43.175H63.4939V37.679H62.8699Z" fill="#1D2939"/>
<path d="M67.0119 43.271C68.1719 43.271 69.1479 42.279 69.1479 41.103C69.1479 39.927 68.1719 38.943 67.0119 38.943C65.8519 38.943 64.8679 39.927 64.8679 41.103C64.8679 42.279 65.8519 43.271 67.0119 43.271ZM67.0119 42.735C66.1879 42.735 65.4999 41.991 65.4999 41.103C65.4999 40.223 66.1879 39.479 67.0119 39.479C67.8279 39.479 68.5159 40.223 68.5159 41.103C68.5159 41.991 67.8279 42.735 67.0119 42.735Z" fill="#1D2939"/>
<path d="M71.9627 43.271C72.8187 43.271 73.4748 42.783 73.4748 42.023C73.4748 41.239 72.7867 41.015 72.1227 40.807C71.3547 40.559 71.0507 40.447 71.0507 40.087C71.0507 39.687 71.4347 39.479 71.8988 39.479C72.2668 39.479 72.6747 39.607 73.0907 39.871L73.3787 39.407C72.9387 39.119 72.4107 38.943 71.8988 38.943C71.0747 38.943 70.4507 39.407 70.4507 40.159C70.4507 40.751 70.8348 41.047 71.8348 41.335C72.3948 41.495 72.8747 41.639 72.8747 42.087C72.8747 42.479 72.5067 42.735 71.9627 42.735C71.5067 42.735 71.0347 42.559 70.5627 42.215L70.2508 42.655C70.7467 43.055 71.3867 43.271 71.9627 43.271Z" fill="#1D2939"/>
<path d="M76.9875 38.943C76.3235 38.943 75.7955 39.271 75.4835 39.815V39.039H74.8835V44.551H75.4835V42.399C75.7955 42.943 76.3235 43.271 76.9875 43.271C78.0755 43.271 78.8915 42.375 78.8915 41.103C78.8915 39.839 78.0755 38.943 76.9875 38.943ZM76.8755 42.735C76.0595 42.735 75.4835 42.055 75.4835 41.103C75.4835 40.151 76.0595 39.479 76.8755 39.479C77.6835 39.479 78.2595 40.151 78.2595 41.103C78.2595 42.055 77.6835 42.735 76.8755 42.735Z" fill="#1D2939"/>
<path d="M80.5851 38.287C80.8011 38.287 80.9771 38.103 80.9771 37.887C80.9771 37.679 80.8011 37.495 80.5851 37.495C80.3611 37.495 80.1851 37.679 80.1851 37.887C80.1851 38.103 80.3611 38.287 80.5851 38.287ZM80.2811 43.175H80.8811V39.039H80.2811V43.175Z" fill="#1D2939"/>
<path d="M84.2619 42.567C84.1739 42.663 84.0139 42.735 83.8299 42.735C83.5899 42.735 83.3819 42.519 83.3819 42.215V39.575H84.3979V39.039H83.3819V37.903H82.7819V39.039H82.1339V39.575H82.7819V42.215C82.7819 42.831 83.1979 43.271 83.7899 43.271C84.0699 43.271 84.3419 43.175 84.5579 43.007L84.2619 42.567Z" fill="#1D2939"/>
<path d="M87.4469 38.943C87.0469 38.943 86.5509 39.047 85.9589 39.343L86.1989 39.831C86.5749 39.639 86.9909 39.455 87.4069 39.455C88.3029 39.455 88.5269 40.095 88.5269 40.655V40.807C88.1029 40.671 87.6309 40.575 87.1829 40.575C86.2949 40.575 85.5589 41.127 85.5589 41.951C85.5589 42.767 86.1989 43.271 87.0709 43.271C87.6149 43.271 88.2309 43.015 88.5269 42.527V43.175H89.1269V40.655C89.1269 39.655 88.5749 38.943 87.4469 38.943ZM87.1749 42.743C86.5909 42.743 86.1429 42.439 86.1429 41.927C86.1429 41.431 86.6629 41.079 87.2789 41.079C87.7269 41.079 88.1509 41.143 88.5269 41.247V41.879C88.3669 42.463 87.7189 42.743 87.1749 42.743Z" fill="#1D2939"/>
<path d="M90.7128 43.175H91.3128V37.583H90.7128V43.175Z" fill="#1D2939"/>
<path d="M93.1813 38.287C93.3973 38.287 93.5733 38.103 93.5733 37.887C93.5733 37.679 93.3973 37.495 93.1813 37.495C92.9573 37.495 92.7813 37.679 92.7813 37.887C92.7813 38.103 92.9573 38.287 93.1813 38.287ZM92.8773 43.175H93.4773V39.039H92.8773V43.175Z" fill="#1D2939"/>
<path d="M94.8662 43.175H98.1302V42.607H95.6662L98.1142 39.511V39.039H94.9142V39.607H97.3062L94.8662 42.703V43.175Z" fill="#1D2939"/>
<path d="M101.192 38.943C100.792 38.943 100.296 39.047 99.7036 39.343L99.9436 39.831C100.32 39.639 100.736 39.455 101.152 39.455C102.048 39.455 102.272 40.095 102.272 40.655V40.807C101.848 40.671 101.376 40.575 100.928 40.575C100.04 40.575 99.3036 41.127 99.3036 41.951C99.3036 42.767 99.9436 43.271 100.816 43.271C101.36 43.271 101.976 43.015 102.272 42.527V43.175H102.872V40.655C102.872 39.655 102.32 38.943 101.192 38.943ZM100.92 42.743C100.336 42.743 99.8876 42.439 99.8876 41.927C99.8876 41.431 100.408 41.079 101.024 41.079C101.472 41.079 101.896 41.143 102.272 41.247V41.879C102.112 42.463 101.464 42.743 100.92 42.743Z" fill="#1D2939"/>
<path d="M106.273 42.567C106.186 42.663 106.025 42.735 105.841 42.735C105.602 42.735 105.393 42.519 105.393 42.215V39.575H106.41V39.039H105.393V37.903H104.794V39.039H104.146V39.575H104.794V42.215C104.794 42.831 105.21 43.271 105.802 43.271C106.082 43.271 106.354 43.175 106.569 43.007L106.273 42.567Z" fill="#1D2939"/>
<path d="M108.074 38.287C108.29 38.287 108.466 38.103 108.466 37.887C108.466 37.679 108.29 37.495 108.074 37.495C107.85 37.495 107.674 37.679 107.674 37.887C107.674 38.103 107.85 38.287 108.074 38.287ZM107.77 43.175H108.37V39.039H107.77V43.175Z" fill="#1D2939"/>
<path d="M111.855 43.271C113.015 43.271 113.991 42.279 113.991 41.103C113.991 39.927 113.015 38.943 111.855 38.943C110.695 38.943 109.711 39.927 109.711 41.103C109.711 42.279 110.695 43.271 111.855 43.271ZM111.855 42.735C111.031 42.735 110.343 41.991 110.343 41.103C110.343 40.223 111.031 39.479 111.855 39.479C112.671 39.479 113.359 40.223 113.359 41.103C113.359 41.991 112.671 42.735 111.855 42.735Z" fill="#1D2939"/>
<path d="M117.31 38.943C116.726 38.943 116.19 39.263 115.95 39.703V39.039H115.35V43.175H115.95V40.543C115.95 39.967 116.534 39.479 117.23 39.479C117.838 39.479 118.262 39.951 118.262 40.623V43.175H118.862V40.543C118.862 39.607 118.222 38.943 117.31 38.943Z" fill="#1D2939"/>
</g>
<defs>
<clipPath id="clip0_278_896">
<rect width="110" height="34.4227" fill="white" transform="translate(10 9.78857)"/>
</clipPath>
</defs>
</svg>
