<svg width="24" height="24" viewBox="0 0 24 24" fill="none" xmlns="http://www.w3.org/2000/svg">
<path d="M10.525 14.275L8.075 11.825C7.925 11.675 7.74167 11.6 7.525 11.6C7.30833 11.6 7.11667 11.6833 6.95 11.85C6.78333 12.0167 6.7 12.2083 6.7 12.425C6.7 12.6417 6.78333 12.825 6.95 12.975L10 16.025C10.15 16.175 10.325 16.25 10.525 16.25C10.725 16.25 10.9 16.175 11.05 16.025L17.05 10.025C17.2 9.875 17.2708 9.69167 17.2625 9.475C17.2542 9.25833 17.175 9.075 17.025 8.925C16.875 8.75833 16.6875 8.675 16.4625 8.675C16.2375 8.675 16.0417 8.75833 15.875 8.925L10.525 14.275ZM12 22C10.5833 22 9.26667 21.7458 8.05 21.2375C6.83333 20.7292 5.775 20.025 4.875 19.125C3.975 18.225 3.27083 17.1667 2.7625 15.95C2.25417 14.7333 2 13.4167 2 12C2 10.6 2.25417 9.29167 2.7625 8.075C3.27083 6.85833 3.975 5.8 4.875 4.9C5.775 4 6.83333 3.29167 8.05 2.775C9.26667 2.25833 10.5833 2 12 2C13.4 2 14.7083 2.25833 15.925 2.775C17.1417 3.29167 18.2 4 19.1 4.9C20 5.8 20.7083 6.85833 21.225 8.075C21.7417 9.29167 22 10.6 22 12C22 13.4167 21.7417 14.7333 21.225 15.95C20.7083 17.1667 20 18.225 19.1 19.125C18.2 20.025 17.1417 20.7292 15.925 21.2375C14.7083 21.7458 13.4 22 12 22ZM12 20.5C14.4167 20.5 16.4375 19.6875 18.0625 18.0625C19.6875 16.4375 20.5 14.4167 20.5 12C20.5 9.58333 19.6875 7.5625 18.0625 5.9375C16.4375 4.3125 14.4167 3.5 12 3.5C9.58333 3.5 7.5625 4.3125 5.9375 5.9375C4.3125 7.5625 3.5 9.58333 3.5 12C3.5 14.4167 4.3125 16.4375 5.9375 18.0625C7.5625 19.6875 9.58333 20.5 12 20.5Z" fill="#12B76A"/>
</svg>
