<svg width="130" height="54" viewBox="0 0 130 54" fill="none" xmlns="http://www.w3.org/2000/svg">
<g clip-path="url(#clip0_2275_26577)">
<path d="M89.5443 23.4082H84.8301V31.3027H89.5443V23.4082Z" fill="white"/>
<path d="M89.5443 10.1641H84.8301V17.9089H89.5443V10.1641Z" fill="white"/>
<path d="M97.857 18.4707H90V22.9604H97.857V18.4707Z" fill="white"/>
<path d="M97.86 10.1641H90V14.6538H97.86V10.1641Z" fill="white"/>
<path d="M84.4553 18.4707H76.5234V22.9604H84.4553V18.4707Z" fill="white"/>
<path d="M21.1509 31.6405C19.6397 31.6564 18.1399 31.3767 16.736 30.8174C15.417 30.2723 14.2116 29.4855 13.1816 28.4977C12.1798 27.4999 11.3795 26.3185 10.8245 25.0181C10.2825 23.6352 10.0034 22.1633 10.0014 20.678C9.97781 19.2025 10.258 17.738 10.8245 16.3754C11.3709 15.0813 12.1726 13.9106 13.1816 12.9332C14.1979 11.9461 15.391 11.1591 16.6986 10.6135C18.1025 10.0541 19.6023 9.77454 21.1135 9.79042C22.6253 9.76703 24.1265 10.0469 25.5284 10.6135C26.8433 11.1453 28.0389 11.9339 29.0454 12.9332C30.0633 13.9175 30.866 15.1023 31.4025 16.4128C31.9656 17.7895 32.2456 19.2656 32.2256 20.7529C32.242 22.2277 31.9621 23.6909 31.4025 25.0555C30.8567 26.361 30.0553 27.5441 29.0454 28.5351C28.0291 29.5222 26.8359 30.3092 25.5284 30.8548C24.132 31.3911 22.6466 31.6577 21.1509 31.6405ZM21.1135 27.3752C22.2779 27.411 23.4297 27.1262 24.4434 26.5521C25.3862 25.9897 26.1513 25.1727 26.6508 24.195C27.1907 23.1159 27.4603 21.9218 27.4365 20.7154C27.4523 19.7976 27.3001 18.8847 26.9876 18.0216C26.7137 17.2424 26.2804 16.5289 25.7155 15.9264C25.1616 15.337 24.4845 14.8771 23.7325 14.5795C22.9067 14.2731 22.0317 14.1209 21.1509 14.1305C19.9984 14.0953 18.8587 14.3802 17.8584 14.9536C16.9174 15.5018 16.1518 16.3063 15.651 17.2733C15.1029 18.3495 14.8328 19.5456 14.8653 20.7529C14.8528 21.6826 15.0048 22.6073 15.3142 23.4841C15.5787 24.2677 16.0131 24.9832 16.5863 25.5793C17.1402 26.1687 17.8173 26.6287 18.5693 26.9263C19.386 27.2181 20.2462 27.3699 21.1135 27.3752ZM30.5793 32.95L24.8549 27.2256L27.5862 24.4943L33.348 30.2561L30.5793 32.95Z" fill="white"/>
<path d="M44.8352 31.6026C43.2302 31.6312 41.6449 31.2445 40.2333 30.4801C38.9385 29.7588 37.8649 28.6981 37.1279 27.4121C36.3637 26.041 35.9764 24.4918 36.0054 22.9224V10.1641H40.7196V23.2591C40.7063 24.0153 40.8866 24.7623 41.2435 25.4292C41.595 26.0373 42.1147 26.531 42.74 26.8509C43.3864 27.1867 44.107 27.354 44.8352 27.3373C45.5639 27.3585 46.2857 27.191 46.9305 26.8509C47.5344 26.5278 48.0291 26.0331 48.3522 25.4292C48.709 24.7623 48.8894 24.0153 48.876 23.2591V10.1641H53.5902V22.9972C53.624 24.5554 53.2362 26.0937 52.4678 27.4496C51.745 28.7336 50.6838 29.7947 49.3998 30.5175C47.9952 31.2611 46.4242 31.6346 44.8352 31.6026Z" fill="white"/>
<path d="M58.1172 31.2657V10.164H62.8314V31.3032H58.1172V31.2657ZM61.709 22.5856V19.106H66.1613C66.9496 19.1603 67.728 18.9053 68.3313 18.3952C68.5896 18.1444 68.7902 17.8406 68.9194 17.5047C69.0486 17.1687 69.1033 16.8087 69.0796 16.4496C69.0875 16.1034 69.0253 15.7592 68.8967 15.4377C68.7681 15.1163 68.5758 14.8241 68.3313 14.5789C68.0367 14.3175 67.6933 14.1169 67.3209 13.9884C66.9485 13.86 66.5545 13.8064 66.1613 13.8306H61.6716V10.164H66.6851C67.9518 10.1369 69.2074 10.4059 70.3517 10.9497C71.3613 11.4457 72.2154 12.2092 72.8211 13.1571C73.4259 14.12 73.7379 15.2379 73.719 16.3748C73.7428 17.5241 73.4307 18.6553 72.8211 19.6298C72.2085 20.5765 71.339 21.3292 70.3143 21.7999C69.1181 22.3473 67.8132 22.616 66.498 22.5856H61.709ZM69.6034 31.2657L63.0185 22.174L67.3212 21.0142L75.1782 31.2657H69.6034Z" fill="white"/>
<path d="M108.363 23.4088L100.207 10.1641H105.67L111.918 20.8646H108.401L114.649 10.1641H119.999L111.806 23.4088H108.363ZM107.765 31.2658V21.2388H112.479V31.2658H107.765Z" fill="white"/>
<path d="M12.5362 43.264C13.8162 43.264 14.4722 42.552 14.4722 41.68C14.4722 40.712 13.7202 40.336 12.6722 40.088C11.7362 39.864 11.1922 39.664 11.1922 39.096C11.1922 38.592 11.6882 38.144 12.3682 38.144C12.9442 38.144 13.4882 38.408 13.9442 38.848L14.3282 38.36C13.8242 37.896 13.2162 37.576 12.4002 37.576C11.3442 37.576 10.5602 38.264 10.5602 39.144C10.5602 40.096 11.2562 40.44 12.3602 40.696C13.3202 40.92 13.8402 41.152 13.8402 41.736C13.8402 42.232 13.4082 42.696 12.5602 42.696C11.7922 42.696 11.2242 42.368 10.7602 41.904L10.3682 42.392C10.9202 42.936 11.6322 43.264 12.5362 43.264Z" fill="white"/>
<path d="M16.1704 38.288C16.3864 38.288 16.5624 38.104 16.5624 37.888C16.5624 37.68 16.3864 37.496 16.1704 37.496C15.9464 37.496 15.7704 37.68 15.7704 37.888C15.7704 38.104 15.9464 38.288 16.1704 38.288ZM15.8664 43.176H16.4664V39.04H15.8664V43.176Z" fill="white"/>
<path d="M22.5033 38.944C21.8793 38.944 21.3353 39.288 21.1673 39.824C20.9433 39.288 20.4553 38.944 19.8313 38.944C19.2873 38.944 18.8393 39.216 18.6313 39.648V39.04H18.0313V43.176H18.6313V40.544C18.6313 39.92 19.0953 39.48 19.7513 39.48C20.3113 39.48 20.7033 39.952 20.7033 40.624V43.176H21.3033V40.544C21.3033 39.92 21.7673 39.48 22.4233 39.48C22.9833 39.48 23.3753 39.952 23.3753 40.624V43.176H23.9753V40.544C23.9753 39.608 23.3673 38.944 22.5033 38.944Z" fill="white"/>
<path d="M27.7075 38.944C27.0435 38.944 26.5155 39.272 26.2035 39.816V39.04H25.6035V44.552H26.2035V42.4C26.5155 42.944 27.0435 43.272 27.7075 43.272C28.7955 43.272 29.6115 42.376 29.6115 41.104C29.6115 39.84 28.7955 38.944 27.7075 38.944ZM27.5955 42.736C26.7795 42.736 26.2035 42.056 26.2035 41.104C26.2035 40.152 26.7795 39.48 27.5955 39.48C28.4035 39.48 28.9795 40.152 28.9795 41.104C28.9795 42.056 28.4035 42.736 27.5955 42.736Z" fill="white"/>
<path d="M31.0091 43.176H31.6091V37.584H31.0091V43.176Z" fill="white"/>
<path d="M33.4776 38.288C33.6936 38.288 33.8696 38.104 33.8696 37.888C33.8696 37.68 33.6936 37.496 33.4776 37.496C33.2536 37.496 33.0776 37.68 33.0776 37.888C33.0776 38.104 33.2536 38.288 33.4776 38.288ZM33.1736 43.176H33.7736V39.04H33.1736V43.176Z" fill="white"/>
<path d="M36.2745 38.472C36.2745 38.168 36.4825 37.952 36.7225 37.952C36.9065 37.952 37.0665 38.024 37.1545 38.12L37.4505 37.68C37.2345 37.512 36.9625 37.416 36.6825 37.416C36.0905 37.416 35.6745 37.856 35.6745 38.472V39.04H35.0265V39.576H35.6745V43.176H36.2745V39.576H37.2905V39.04H36.2745V38.472Z" fill="white"/>
<path d="M39.1192 44.616C39.6872 44.608 40.0872 44.344 40.3752 43.64L42.2632 39.04H41.6152L40.2472 42.48L38.7992 39.04H38.1352L39.9352 43.192L39.6952 43.704C39.5352 43.984 39.3592 44.072 39.0952 44.072C38.9192 44.072 38.7512 44.04 38.6072 43.968L38.4632 44.48C38.6552 44.568 38.8792 44.616 39.1192 44.616Z" fill="white"/>
<path d="M43.9014 38.288C44.1174 38.288 44.2934 38.104 44.2934 37.888C44.2934 37.68 44.1174 37.496 43.9014 37.496C43.6774 37.496 43.5014 37.68 43.5014 37.888C43.5014 38.104 43.6774 38.288 43.9014 38.288ZM43.5974 43.176H44.1974V39.04H43.5974V43.176Z" fill="white"/>
<path d="M47.7302 38.944C47.1462 38.944 46.6102 39.264 46.3702 39.704V39.04H45.7702V43.176H46.3702V40.544C46.3702 39.968 46.9542 39.48 47.6502 39.48C48.2582 39.48 48.6822 39.952 48.6822 40.624V43.176H49.2822V40.544C49.2822 39.608 48.6422 38.944 47.7302 38.944Z" fill="white"/>
<path d="M54.0726 39.04V39.752C53.7526 39.248 53.2246 38.944 52.5686 38.944C51.4566 38.944 50.6646 39.752 50.6646 40.904C50.6646 42.056 51.4566 42.872 52.5686 42.872C53.2246 42.872 53.7526 42.568 54.0726 42.064V42.736C54.0726 43.544 53.5126 44.016 52.5606 44.016C52.0486 44.016 51.5526 43.832 51.2326 43.528L50.9686 44C51.3446 44.32 51.9686 44.552 52.6406 44.552C53.8326 44.552 54.6726 43.8 54.6726 42.736V39.04H54.0726ZM52.6806 42.336C51.8726 42.336 51.2966 41.744 51.2966 40.904C51.2966 40.072 51.8726 39.48 52.6806 39.48C53.4966 39.48 54.0726 40.072 54.0726 40.904C54.0726 41.744 53.4966 42.336 52.6806 42.336Z" fill="white"/>
<path d="M62.8709 37.68V40.08H59.6309V37.68H59.0069V43.176H59.6309V40.672H62.8709V43.176H63.4949V37.68H62.8709Z" fill="white"/>
<path d="M67.0129 43.272C68.1729 43.272 69.1488 42.28 69.1488 41.104C69.1488 39.928 68.1729 38.944 67.0129 38.944C65.8528 38.944 64.8689 39.928 64.8689 41.104C64.8689 42.28 65.8528 43.272 67.0129 43.272ZM67.0129 42.736C66.1889 42.736 65.5009 41.992 65.5009 41.104C65.5009 40.224 66.1889 39.48 67.0129 39.48C67.8288 39.48 68.5168 40.224 68.5168 41.104C68.5168 41.992 67.8288 42.736 67.0129 42.736Z" fill="white"/>
<path d="M71.9637 43.272C72.8197 43.272 73.4757 42.784 73.4757 42.024C73.4757 41.24 72.7877 41.016 72.1237 40.808C71.3557 40.56 71.0517 40.448 71.0517 40.088C71.0517 39.688 71.4357 39.48 71.8997 39.48C72.2677 39.48 72.6757 39.608 73.0917 39.872L73.3797 39.408C72.9397 39.12 72.4117 38.944 71.8997 38.944C71.0757 38.944 70.4517 39.408 70.4517 40.16C70.4517 40.752 70.8357 41.048 71.8357 41.336C72.3957 41.496 72.8757 41.64 72.8757 42.088C72.8757 42.48 72.5077 42.736 71.9637 42.736C71.5077 42.736 71.0357 42.56 70.5637 42.216L70.2517 42.656C70.7477 43.056 71.3877 43.272 71.9637 43.272Z" fill="white"/>
<path d="M76.9885 38.944C76.3245 38.944 75.7965 39.272 75.4845 39.816V39.04H74.8845V44.552H75.4845V42.4C75.7965 42.944 76.3245 43.272 76.9885 43.272C78.0765 43.272 78.8925 42.376 78.8925 41.104C78.8925 39.84 78.0765 38.944 76.9885 38.944ZM76.8765 42.736C76.0605 42.736 75.4845 42.056 75.4845 41.104C75.4845 40.152 76.0605 39.48 76.8765 39.48C77.6845 39.48 78.2605 40.152 78.2605 41.104C78.2605 42.056 77.6845 42.736 76.8765 42.736Z" fill="white"/>
<path d="M80.586 38.288C80.802 38.288 80.978 38.104 80.978 37.888C80.978 37.68 80.802 37.496 80.586 37.496C80.362 37.496 80.186 37.68 80.186 37.888C80.186 38.104 80.362 38.288 80.586 38.288ZM80.282 43.176H80.882V39.04H80.282V43.176Z" fill="white"/>
<path d="M84.2629 42.568C84.1749 42.664 84.0149 42.736 83.8309 42.736C83.5909 42.736 83.3829 42.52 83.3829 42.216V39.576H84.3989V39.04H83.3829V37.904H82.7829V39.04H82.1349V39.576H82.7829V42.216C82.7829 42.832 83.1989 43.272 83.7909 43.272C84.0709 43.272 84.3429 43.176 84.5589 43.008L84.2629 42.568Z" fill="white"/>
<path d="M87.4478 38.944C87.0478 38.944 86.5518 39.048 85.9598 39.344L86.1998 39.832C86.5758 39.64 86.9918 39.456 87.4078 39.456C88.3038 39.456 88.5278 40.096 88.5278 40.656V40.808C88.1038 40.672 87.6319 40.576 87.1838 40.576C86.2958 40.576 85.5598 41.128 85.5598 41.952C85.5598 42.768 86.1998 43.272 87.0718 43.272C87.6158 43.272 88.2318 43.016 88.5278 42.528V43.176H89.1278V40.656C89.1278 39.656 88.5758 38.944 87.4478 38.944ZM87.1758 42.744C86.5919 42.744 86.1438 42.44 86.1438 41.928C86.1438 41.432 86.6638 41.08 87.2798 41.08C87.7278 41.08 88.1518 41.144 88.5278 41.248V41.88C88.3678 42.464 87.7198 42.744 87.1758 42.744Z" fill="white"/>
<path d="M90.7138 43.176H91.3138V37.584H90.7138V43.176Z" fill="white"/>
<path d="M93.1823 38.288C93.3983 38.288 93.5743 38.104 93.5743 37.888C93.5743 37.68 93.3983 37.496 93.1823 37.496C92.9583 37.496 92.7823 37.68 92.7823 37.888C92.7823 38.104 92.9583 38.288 93.1823 38.288ZM92.8783 43.176H93.4783V39.04H92.8783V43.176Z" fill="white"/>
<path d="M94.8672 43.176H98.1312V42.608H95.6672L98.1152 39.512V39.04H94.9152V39.608H97.3072L94.8672 42.704V43.176Z" fill="white"/>
<path d="M101.193 38.944C100.793 38.944 100.297 39.048 99.7045 39.344L99.9445 39.832C100.321 39.64 100.737 39.456 101.153 39.456C102.049 39.456 102.273 40.096 102.273 40.656V40.808C101.849 40.672 101.377 40.576 100.929 40.576C100.041 40.576 99.3045 41.128 99.3045 41.952C99.3045 42.768 99.9445 43.272 100.817 43.272C101.361 43.272 101.977 43.016 102.273 42.528V43.176H102.873V40.656C102.873 39.656 102.321 38.944 101.193 38.944ZM100.921 42.744C100.337 42.744 99.8885 42.44 99.8885 41.928C99.8885 41.432 100.409 41.08 101.025 41.08C101.473 41.08 101.897 41.144 102.273 41.248V41.88C102.113 42.464 101.465 42.744 100.921 42.744Z" fill="white"/>
<path d="M106.274 42.568C106.186 42.664 106.026 42.736 105.842 42.736C105.602 42.736 105.394 42.52 105.394 42.216V39.576H106.41V39.04H105.394V37.904H104.794V39.04H104.146V39.576H104.794V42.216C104.794 42.832 105.21 43.272 105.802 43.272C106.082 43.272 106.354 43.176 106.57 43.008L106.274 42.568Z" fill="white"/>
<path d="M108.075 38.288C108.291 38.288 108.467 38.104 108.467 37.888C108.467 37.68 108.291 37.496 108.075 37.496C107.851 37.496 107.675 37.68 107.675 37.888C107.675 38.104 107.851 38.288 108.075 38.288ZM107.771 43.176H108.371V39.04H107.771V43.176Z" fill="white"/>
<path d="M111.856 43.272C113.016 43.272 113.992 42.28 113.992 41.104C113.992 39.928 113.016 38.944 111.856 38.944C110.696 38.944 109.712 39.928 109.712 41.104C109.712 42.28 110.696 43.272 111.856 43.272ZM111.856 42.736C111.032 42.736 110.344 41.992 110.344 41.104C110.344 40.224 111.032 39.48 111.856 39.48C112.672 39.48 113.36 40.224 113.36 41.104C113.36 41.992 112.672 42.736 111.856 42.736Z" fill="white"/>
<path d="M117.311 38.944C116.727 38.944 116.191 39.264 115.951 39.704V39.04H115.351V43.176H115.951V40.544C115.951 39.968 116.535 39.48 117.231 39.48C117.839 39.48 118.263 39.952 118.263 40.624V43.176H118.863V40.544C118.863 39.608 118.223 38.944 117.311 38.944Z" fill="white"/>
</g>
<defs>
<clipPath id="clip0_2275_26577">
<rect width="110" height="34.4227" fill="white" transform="translate(10 9.78906)"/>
</clipPath>
</defs>
</svg>
