<svg width="40" height="40" viewBox="0 0 40 40" fill="none" xmlns="http://www.w3.org/2000/svg">
<circle cx="20" cy="20" r="20" fill="#F9FAFB"/>
<path d="M12.916 28.3337C12.5827 28.3337 12.291 28.2087 12.041 27.9587C11.791 27.7087 11.666 27.417 11.666 27.0837V17.0837C11.666 16.7503 11.791 16.4587 12.041 16.2087C12.291 15.9587 12.5827 15.8337 12.916 15.8337H17.8535V12.917C17.8535 12.5837 17.9785 12.292 18.2285 12.042C18.4785 11.792 18.7702 11.667 19.1035 11.667H20.916C21.2493 11.667 21.541 11.792 21.791 12.042C22.041 12.292 22.166 12.5837 22.166 12.917V15.8337H27.0827C27.416 15.8337 27.7077 15.9587 27.9577 16.2087C28.2077 16.4587 28.3327 16.7503 28.3327 17.0837V27.0837C28.3327 27.417 28.2077 27.7087 27.9577 27.9587C27.7077 28.2087 27.416 28.3337 27.0827 28.3337H12.916ZM12.916 27.0837H27.0827V17.0837H22.166C22.166 17.4725 22.0375 17.7781 21.7806 18.0003C21.5237 18.2225 21.2007 18.3337 20.8118 18.3337H19.1868C18.8118 18.3337 18.4959 18.2225 18.2389 18.0003C17.982 17.7781 17.8535 17.4725 17.8535 17.0837H12.916V27.0837ZM14.8327 24.8545H19.8118V24.5628C19.8118 24.3128 19.7493 24.0906 19.6243 23.8962C19.4993 23.7017 19.3396 23.5698 19.1452 23.5003C18.7007 23.3475 18.3535 23.2469 18.1035 23.1982C17.8535 23.1496 17.6105 23.1253 17.3743 23.1253C17.1105 23.1253 16.8292 23.1566 16.5306 23.2191C16.232 23.2816 15.8952 23.3753 15.5202 23.5003C15.3118 23.5698 15.1452 23.7017 15.0202 23.8962C14.8952 24.0906 14.8327 24.3128 14.8327 24.5628V24.8545ZM21.8327 23.4587H25.3743V22.417H21.8327V23.4587ZM17.3743 22.417C17.6938 22.417 17.9612 22.3059 18.1764 22.0837C18.3917 21.8614 18.4993 21.5975 18.4993 21.292C18.4993 20.9725 18.3917 20.7052 18.1764 20.4899C17.9612 20.2746 17.6938 20.167 17.3743 20.167C17.0688 20.167 16.8049 20.2746 16.5827 20.4899C16.3605 20.7052 16.2493 20.9725 16.2493 21.292C16.2493 21.5975 16.3605 21.8614 16.5827 22.0837C16.8049 22.3059 17.0688 22.417 17.3743 22.417ZM21.8327 21.1045H25.3743V20.0628H21.8327V21.1045ZM19.1035 17.0837H20.916V12.917H19.1035V17.0837Z" fill="#667085"/>
</svg>
