<svg width="28" height="28" viewBox="0 0 28 28" fill="none" xmlns="http://www.w3.org/2000/svg">
<circle cx="14" cy="14" r="13.5" fill="white" stroke="#F2F4F7"/>
<path d="M17.9993 7.34065L9.99935 7.33398C9.26602 7.33398 8.66602 7.92732 8.66602 8.66732V19.334C8.66602 20.0673 9.26602 20.6673 9.99935 20.6673H17.9993C18.7327 20.6673 19.3327 20.0673 19.3327 19.334V8.66732C19.3327 7.92732 18.7327 7.34065 17.9993 7.34065ZM17.3327 19.334H10.666C10.2993 19.334 9.99935 19.034 9.99935 18.6673V13.9873C9.99935 13.6207 10.2993 13.3207 10.666 13.3207H17.3327C17.6993 13.3207 17.9993 13.6207 17.9993 13.9873V18.6673C17.9993 19.034 17.6993 19.334 17.3327 19.334ZM17.3327 12.0007H10.666C10.2993 12.0007 9.99935 11.7007 9.99935 11.334V9.33398C9.99935 8.96732 10.2993 8.66732 10.666 8.66732H17.3327C17.6993 8.66732 17.9993 8.96732 17.9993 9.33398V11.334C17.9993 11.7007 17.6993 12.0007 17.3327 12.0007ZM11.9993 9.33398C12.366 9.33398 12.666 9.63398 12.666 10.0007V10.6673C12.666 11.034 12.366 11.334 11.9993 11.334C11.6327 11.334 11.3327 11.034 11.3327 10.6673V10.0007C11.3327 9.63398 11.6327 9.33398 11.9993 9.33398ZM11.9993 14.0007C12.366 14.0007 12.666 14.3007 12.666 14.6673V16.6673C12.666 17.034 12.366 17.334 11.9993 17.334C11.6327 17.334 11.3327 17.034 11.3327 16.6673V14.6673C11.3327 14.3007 11.6327 14.0007 11.9993 14.0007Z" fill="#667085"/>
</svg>
