<svg width="24" height="24" viewBox="0 0 24 24" fill="none" xmlns="http://www.w3.org/2000/svg">
<circle cx="12" cy="12" r="12" fill="white"/>
<g clip-path="url(#clip0_536_14710)">
<path d="M12 7.50002V8.84252C12 9.18002 12.405 9.34502 12.6375 9.10502L14.73 7.01252C14.88 6.86252 14.88 6.63002 14.73 6.48002L12.6375 4.38752C12.405 4.15502 12 4.32002 12 4.65752V6.00002C8.685 6.00002 6 8.68502 6 12C6 12.78 6.15 13.53 6.4275 14.2125C6.63 14.715 7.275 14.85 7.6575 14.4675C7.86 14.265 7.9425 13.9575 7.83 13.6875C7.6125 13.17 7.5 12.5925 7.5 12C7.5 9.51752 9.5175 7.50002 12 7.50002ZM16.3425 9.53252C16.14 9.73502 16.0575 10.05 16.17 10.3125C16.38 10.8375 16.5 11.4075 16.5 12C16.5 14.4825 14.4825 16.5 12 16.5V15.1575C12 14.82 11.595 14.655 11.3625 14.895L9.27 16.9875C9.12 17.1375 9.12 17.37 9.27 17.52L11.3625 19.6125C11.595 19.845 12 19.68 12 19.35V18C15.315 18 18 15.315 18 12C18 11.22 17.85 10.47 17.5725 9.78752C17.37 9.28502 16.725 9.15002 16.3425 9.53252Z" fill="#388289"/>
</g>
<defs>
<clipPath id="clip0_536_14710">
<rect width="18" height="18" fill="white" transform="translate(3 3)"/>
</clipPath>
</defs>
</svg>
