<svg width="24" height="24" viewBox="0 0 24 24" fill="none" xmlns="http://www.w3.org/2000/svg">
<circle cx="12" cy="12" r="12" fill="white"/>
<g clip-path="url(#clip0_2513_29849)">
<path d="M12.0003 8.00004V9.19338C12.0003 9.49338 12.3603 9.64004 12.567 9.42671L14.427 7.56671C14.5603 7.43338 14.5603 7.22671 14.427 7.09338L12.567 5.23338C12.3603 5.02671 12.0003 5.17338 12.0003 5.47338V6.66671C9.05366 6.66671 6.66699 9.05338 6.66699 12C6.66699 12.6934 6.80033 13.36 7.04699 13.9667C7.22699 14.4134 7.80033 14.5334 8.14033 14.1934C8.32033 14.0134 8.39366 13.74 8.29366 13.5C8.10033 13.04 8.00033 12.5267 8.00033 12C8.00033 9.79338 9.79366 8.00004 12.0003 8.00004ZM15.8603 9.80671C15.6803 9.98671 15.607 10.2667 15.707 10.5C15.8937 10.9667 16.0003 11.4734 16.0003 12C16.0003 14.2067 14.207 16 12.0003 16V14.8067C12.0003 14.5067 11.6403 14.36 11.4337 14.5734L9.57366 16.4334C9.44033 16.5667 9.44033 16.7734 9.57366 16.9067L11.4337 18.7667C11.6403 18.9734 12.0003 18.8267 12.0003 18.5334V17.3334C14.947 17.3334 17.3337 14.9467 17.3337 12C17.3337 11.3067 17.2003 10.64 16.9537 10.0334C16.7737 9.58671 16.2003 9.46671 15.8603 9.80671Z" fill="#667085"/>
</g>
<defs>
<clipPath id="clip0_2513_29849">
<rect width="16" height="16" fill="white" transform="translate(4 4)"/>
</clipPath>
</defs>
</svg>
