<svg width="24" height="24" viewBox="0 0 24 24" fill="none" xmlns="http://www.w3.org/2000/svg">
<circle cx="12" cy="12" r="12" fill="white"/>
<g clip-path="url(#clip0_2513_29844)">
<path d="M7.99967 16.6667C7.99967 17.4 8.59967 18 9.33301 18H14.6663C15.3997 18 15.9997 17.4 15.9997 16.6667V10C15.9997 9.26667 15.3997 8.66667 14.6663 8.66667H9.33301C8.59967 8.66667 7.99967 9.26667 7.99967 10V16.6667ZM9.99967 10H13.9997C14.3663 10 14.6663 10.3 14.6663 10.6667V16C14.6663 16.3667 14.3663 16.6667 13.9997 16.6667H9.99967C9.63301 16.6667 9.33301 16.3667 9.33301 16V10.6667C9.33301 10.3 9.63301 10 9.99967 10ZM14.333 6.66667L13.8597 6.19333C13.7397 6.07333 13.5663 6 13.393 6H10.6063C10.433 6 10.2597 6.07333 10.1397 6.19333L9.66634 6.66667H7.99967C7.63301 6.66667 7.33301 6.96667 7.33301 7.33333C7.33301 7.7 7.63301 8 7.99967 8H15.9997C16.3663 8 16.6663 7.7 16.6663 7.33333C16.6663 6.96667 16.3663 6.66667 15.9997 6.66667H14.333Z" fill="#667085"/>
</g>
<defs>
<clipPath id="clip0_2513_29844">
<rect width="16" height="16" fill="white" transform="translate(4 4)"/>
</clipPath>
</defs>
</svg>
