<svg width="24" height="24" viewBox="0 0 24 24" fill="none" xmlns="http://www.w3.org/2000/svg">
<circle cx="12" cy="12" r="12" fill="#9B8AFB"/>
<path d="M9.72 13.92L8.68 12.816V12.096H10.6C11.0373 12.096 11.3893 11.952 11.656 11.664C11.9227 11.3653 12.056 10.9867 12.056 10.528C12.056 10.208 11.9813 9.93067 11.832 9.696C11.6933 9.46133 11.4907 9.28 11.224 9.152C10.9573 9.01333 10.648 8.944 10.296 8.944H7.784V6.864H15.8V8.688H12.392L11 7.504C11.4587 7.568 11.896 7.68 12.312 7.84C12.728 7.98933 13.096 8.192 13.416 8.448C13.736 8.69333 13.9867 8.98667 14.168 9.328C14.3493 9.66933 14.44 10.0587 14.44 10.496C14.44 10.976 14.344 11.424 14.152 11.84C13.96 12.2453 13.6933 12.608 13.352 12.928C13.0213 13.2373 12.6267 13.4827 12.168 13.664C11.72 13.8347 11.2347 13.92 10.712 13.92H9.72ZM12.232 18.064L8.712 12.832L11.176 12.432L15.016 18.08L12.232 18.064ZM10.232 11.152V9.904H15.832V11.152H10.232Z" fill="white"/>
</svg>
