<svg width="20" height="20" viewBox="0 0 20 20" fill="none" xmlns="http://www.w3.org/2000/svg">
<path d="M12.7611 11.7163H12.2125L12.018 11.5288C12.8513 10.5566 13.2819 9.23024 13.0458 7.82052C12.7194 5.88996 11.1083 4.34829 9.16385 4.11218C6.22635 3.75107 3.75412 6.22329 4.11523 9.16079C4.35135 11.1052 5.89301 12.7163 7.82357 13.0427C9.23329 13.2788 10.5597 12.8483 11.5319 12.015L11.7194 12.2094V12.758L14.6708 15.7094C14.9555 15.9941 15.4208 15.9941 15.7055 15.7094C15.9902 15.4247 15.9902 14.9594 15.7055 14.6747L12.7611 11.7163ZM8.5944 11.7163C6.86523 11.7163 5.4694 10.3205 5.4694 8.59135C5.4694 6.86218 6.86523 5.46635 8.5944 5.46635C10.3236 5.46635 11.7194 6.86218 11.7194 8.59135C11.7194 10.3205 10.3236 11.7163 8.5944 11.7163Z" fill="#667085"/>
</svg>
