<svg width="20" height="20" viewBox="0 0 20 20" fill="none" xmlns="http://www.w3.org/2000/svg">
<path d="M12.7611 11.7165H12.2125L12.018 11.529C12.8513 10.5567 13.2819 9.23036 13.0458 7.82064C12.7194 5.89008 11.1083 4.34842 9.16385 4.11231C6.22635 3.75119 3.75412 6.22342 4.11523 9.16092C4.35135 11.1054 5.89301 12.7165 7.82357 13.0429C9.23329 13.279 10.5597 12.8484 11.5319 12.0151L11.7194 12.2095V12.7581L14.6708 15.7095C14.9555 15.9942 15.4208 15.9942 15.7055 15.7095C15.9902 15.4248 15.9902 14.9595 15.7055 14.6748L12.7611 11.7165ZM8.5944 11.7165C6.86523 11.7165 5.4694 10.3206 5.4694 8.59147C5.4694 6.8623 6.86523 5.46647 8.5944 5.46647C10.3236 5.46647 11.7194 6.8623 11.7194 8.59147C11.7194 10.3206 10.3236 11.7165 8.5944 11.7165Z" fill="white"/>
</svg>
