<svg width="128" height="128" viewBox="0 0 128 128" fill="none" xmlns="http://www.w3.org/2000/svg">
<g filter="url(#filter0_di_478_12214)">
<circle cx="64" cy="62" r="48" fill="white"/>
<circle cx="64" cy="62" r="47.5" stroke="#F2F4F7"/>
</g>
<path d="M63 61V54H81.5V69.35H73.4V77H63V70.5H67V69H63V62.5H67V61H63Z" fill="#9BC0C4"/>
<path d="M47 79.1499C46.3667 79.1499 45.8333 78.9249 45.4 78.4749C44.9667 78.0249 44.75 77.4999 44.75 76.8999V46.3999C44.75 45.7999 44.9667 45.2749 45.4 44.8249C45.8333 44.3749 46.3667 44.1499 47 44.1499H61.1C61.7 44.1499 62.225 44.3749 62.675 44.8249C63.125 45.2749 63.35 45.7999 63.35 46.3999V52.3499H81C81.6333 52.3499 82.1667 52.5749 82.6 53.0249C83.0333 53.4749 83.25 53.9999 83.25 54.5999V69.3499H81V54.5999H63.35V60.4999H67.75V62.7999H63.35V68.6999H67.75V70.9499H63.35V76.8999H73.4V79.1499H47ZM47 76.8999H52.9V70.9499H47V76.8999ZM47 68.6999H52.9V62.7999H47V68.6999ZM47 60.4999H52.9V54.5999H47V60.4999ZM47 52.3499H52.9V46.3999H47V52.3499ZM55.2 76.8999H61.1V70.9499H55.2V76.8999ZM55.2 68.6999H61.1V62.7999H55.2V68.6999ZM55.2 60.4999H61.1V54.5999H55.2V60.4999ZM55.2 52.3499H61.1V46.3999H55.2V52.3499ZM73.05 62.7999V60.4999H75.35V62.7999H73.05ZM73.05 70.9499V68.6999H75.35V70.9499H73.05Z" fill="#1D2939"/>
<path d="M81.0752 82.8251C81.2919 83.0418 81.5502 83.1501 81.8502 83.1501C82.1835 83.1501 82.4585 83.0418 82.6752 82.8251C82.8919 82.6084 83.0002 82.3334 83.0002 82.0001V78.9001H86.1502C86.4502 78.9001 86.7085 78.7918 86.9252 78.5751C87.1419 78.3584 87.2502 78.1001 87.2502 77.8001C87.2502 77.4668 87.1419 77.1918 86.9252 76.9751C86.7085 76.7584 86.4502 76.6501 86.1502 76.6501H83.0002V73.4501C83.0002 73.1501 82.9002 72.8918 82.7002 72.6751C82.5002 72.4584 82.2335 72.3501 81.9002 72.3501C81.5669 72.3501 81.2919 72.4584 81.0752 72.6751C80.8585 72.8918 80.7502 73.1501 80.7502 73.4501V76.6501H77.6002C77.2669 76.6501 76.9919 76.7501 76.7752 76.9501C76.5585 77.1501 76.4502 77.4168 76.4502 77.7501C76.4502 78.0834 76.5585 78.3584 76.7752 78.5751C76.9919 78.7918 77.2669 78.9001 77.6002 78.9001H80.7502V82.0001C80.7502 82.3334 80.8585 82.6084 81.0752 82.8251Z" fill="#EB998E"/>
<defs>
<filter id="filter0_di_478_12214" x="0" y="0" width="128" height="128" filterUnits="userSpaceOnUse" color-interpolation-filters="sRGB">
<feFlood flood-opacity="0" result="BackgroundImageFix"/>
<feColorMatrix in="SourceAlpha" type="matrix" values="0 0 0 0 0 0 0 0 0 0 0 0 0 0 0 0 0 0 127 0" result="hardAlpha"/>
<feOffset dy="2"/>
<feGaussianBlur stdDeviation="8"/>
<feComposite in2="hardAlpha" operator="out"/>
<feColorMatrix type="matrix" values="0 0 0 0 0 0 0 0 0 0 0 0 0 0 0 0 0 0 0.02 0"/>
<feBlend mode="normal" in2="BackgroundImageFix" result="effect1_dropShadow_478_12214"/>
<feBlend mode="normal" in="SourceGraphic" in2="effect1_dropShadow_478_12214" result="shape"/>
<feColorMatrix in="SourceAlpha" type="matrix" values="0 0 0 0 0 0 0 0 0 0 0 0 0 0 0 0 0 0 127 0" result="hardAlpha"/>
<feOffset dy="1"/>
<feComposite in2="hardAlpha" operator="arithmetic" k2="-1" k3="1"/>
<feColorMatrix type="matrix" values="0 0 0 0 0 0 0 0 0 0 0 0 0 0 0 0 0 0 0.25 0"/>
<feBlend mode="normal" in2="shape" result="effect2_innerShadow_478_12214"/>
</filter>
</defs>
</svg>
