<svg width="28" height="28" viewBox="0 0 28 28" fill="none" xmlns="http://www.w3.org/2000/svg">
<path d="M23.393 5.83203H16.568H11.4346H4.60964C4.14297 5.83203 3.74436 5.99731 3.4138 6.32786C3.08325 6.65842 2.91797 7.05703 2.91797 7.5237V20.4737C2.91797 20.9404 3.08325 21.339 3.4138 21.6695C3.74436 22.0001 4.14297 22.1654 4.60964 22.1654H23.393C23.8596 22.1654 24.2582 22.0001 24.5888 21.6695C24.9194 21.339 25.0846 20.9404 25.0846 20.4737V7.5237C25.0846 7.05703 24.9194 6.65842 24.5888 6.32786C24.2582 5.99731 23.8596 5.83203 23.393 5.83203Z" fill="#1D2939"/>
<path d="M4.60964 7.14453H11.4346H16.568H23.393C23.5096 7.14453 23.602 7.17856 23.6701 7.24661C23.7381 7.31467 23.7721 7.40703 23.7721 7.5237V20.4737C23.7721 20.5904 23.7381 20.6827 23.6701 20.7508C23.602 20.8188 23.5096 20.8529 23.393 20.8529H4.60964C4.49297 20.8529 4.40061 20.8188 4.33255 20.7508C4.2645 20.6827 4.23047 20.5904 4.23047 20.4737V7.5237C4.23047 7.40703 4.2645 7.31467 4.33255 7.24661C4.40061 7.17856 4.49297 7.14453 4.60964 7.14453Z" fill="#F9FAFB"/>
<path d="M4.43438 21C4.32392 21 4.23437 20.9105 4.23437 20.8L4.23437 19.25L23.7819 19.25L23.7819 20.8C23.7819 20.9105 23.6923 21 23.5819 21L4.43438 21Z" fill="#D7E6E7"/>
<path d="M20.7953 12.6862C20.9703 12.6862 21.1113 12.6279 21.2182 12.5112C21.3252 12.3945 21.3786 12.2487 21.3786 12.0737C21.3786 11.9181 21.3252 11.7869 21.2182 11.6799C21.1113 11.573 20.9703 11.5195 20.7953 11.5195H17.0911C16.9356 11.5195 16.7995 11.573 16.6828 11.6799C16.5661 11.7869 16.5078 11.9279 16.5078 12.1029C16.5078 12.2779 16.5661 12.4188 16.6828 12.5258C16.7995 12.6327 16.9356 12.6862 17.0911 12.6862H20.7953ZM20.7953 15.6904C20.9703 15.6904 21.1113 15.632 21.2182 15.5154C21.3252 15.3987 21.3786 15.2529 21.3786 15.0779C21.3786 14.9029 21.3252 14.7619 21.2182 14.6549C21.1113 14.548 20.9703 14.4945 20.7953 14.4945H17.0911C16.9356 14.4945 16.7995 14.5529 16.6828 14.6695C16.5661 14.7862 16.5078 14.9223 16.5078 15.0779C16.5078 15.2529 16.5661 15.3987 16.6828 15.5154C16.7995 15.632 16.9356 15.6904 17.0911 15.6904H20.7953Z" fill="#1D2939"/>
<path d="M11.3896 14.072C11.1076 14.354 10.7722 14.4949 10.3833 14.4949C9.975 14.4949 9.62986 14.354 9.34792 14.072C9.06597 13.7901 8.925 13.4546 8.925 13.0658C8.925 12.6574 9.06597 12.3123 9.34792 12.0303C9.62986 11.7484 9.975 11.6074 10.3833 11.6074C10.7722 11.6074 11.1076 11.7484 11.3896 12.0303C11.6715 12.3123 11.8125 12.6574 11.8125 13.0658C11.8125 13.4546 11.6715 13.7901 11.3896 14.072Z" fill="#1D2939"/>
<path d="M13.6208 17.5866H7V17.3241C7 17.013 7.07778 16.7359 7.23333 16.4928C7.38889 16.2498 7.60278 16.0796 7.875 15.9824C8.36111 15.8074 8.80833 15.681 9.21667 15.6033C9.625 15.5255 10.0139 15.4866 10.3833 15.4866C10.7139 15.4866 11.059 15.5206 11.4188 15.5887C11.7785 15.6567 12.2306 15.788 12.775 15.9824C13.0278 16.0796 13.2319 16.2498 13.3875 16.4928C13.5431 16.7359 13.6208 17.013 13.6208 17.3241V17.5866Z" fill="#1D2939"/>
</svg>
