<svg width="24" height="24" viewBox="0 0 24 24" fill="none" xmlns="http://www.w3.org/2000/svg">
<path d="M19.3242 20.45C17.4576 20.45 15.5826 19.9708 13.6992 19.0125C11.8159 18.0542 10.1159 16.8167 8.59922 15.3C7.08255 13.7833 5.84505 12.0875 4.88672 10.2125C3.92839 8.3375 3.44922 6.46667 3.44922 4.6C3.44922 4.28333 3.55755 4.02083 3.77422 3.8125C3.99089 3.60417 4.25755 3.5 4.57422 3.5H7.42422C7.67422 3.5 7.89505 3.58333 8.08672 3.75C8.27839 3.91667 8.39922 4.14167 8.44922 4.425L9.04922 7.1C9.09922 7.35 9.09922 7.575 9.04922 7.775C8.99922 7.975 8.89922 8.14167 8.74922 8.275L6.39922 10.575C7.34922 12.175 8.40755 13.5542 9.57422 14.7125C10.7409 15.8708 12.0909 16.8667 13.6242 17.7L15.8742 15.35C16.0409 15.1667 16.2284 15.0375 16.4367 14.9625C16.6451 14.8875 16.8576 14.875 17.0742 14.925L19.4992 15.475C19.7826 15.525 20.0076 15.65 20.1742 15.85C20.3409 16.05 20.4242 16.2917 20.4242 16.575V19.325C20.4242 19.6417 20.3201 19.9083 20.1117 20.125C19.9034 20.3417 19.6409 20.45 19.3242 20.45ZM5.79922 9.55L7.87422 7.55C7.90755 7.51667 7.92839 7.47917 7.93672 7.4375C7.94505 7.39583 7.94089 7.35833 7.92422 7.325L7.37422 4.8C7.37422 4.73333 7.35755 4.6875 7.32422 4.6625C7.29089 4.6375 7.24922 4.625 7.19922 4.625H4.72422C4.69089 4.625 4.65755 4.6375 4.62422 4.6625C4.59089 4.6875 4.57422 4.725 4.57422 4.775C4.57422 5.425 4.67839 6.14583 4.88672 6.9375C5.09505 7.72917 5.39922 8.6 5.79922 9.55ZM19.1492 19.325C19.1826 19.325 19.2159 19.3125 19.2492 19.2875C19.2826 19.2625 19.2992 19.225 19.2992 19.175V16.725C19.2992 16.675 19.2826 16.6333 19.2492 16.6C19.2159 16.5667 19.1742 16.5417 19.1242 16.525L16.8742 16.075C16.8242 16.0583 16.7867 16.0583 16.7617 16.075C16.7367 16.0917 16.7076 16.1083 16.6742 16.125L14.6742 18.225C15.3576 18.5583 16.1076 18.8167 16.9242 19C17.7409 19.1833 18.4826 19.2917 19.1492 19.325Z" fill="#1D2939"/>
<path d="M19.4871 11.4498C19.5954 11.5498 19.7163 11.5998 19.8496 11.5998C20.0329 11.5998 20.1829 11.5456 20.2996 11.4373C20.4163 11.3289 20.4579 11.1914 20.4246 11.0248C20.1913 8.97478 19.3538 7.22478 17.9121 5.77478C16.4704 4.32478 14.7246 3.49145 12.6746 3.27478C12.5079 3.24145 12.3704 3.28312 12.2621 3.39978C12.1538 3.51645 12.0996 3.65812 12.0996 3.82478C12.0996 3.97478 12.1496 4.10395 12.2496 4.21228C12.3496 4.32062 12.4746 4.38312 12.6246 4.39978C14.3746 4.63312 15.8663 5.37062 17.0996 6.61228C18.3329 7.85395 19.0663 9.34145 19.2996 11.0748C19.3163 11.2248 19.3788 11.3498 19.4871 11.4498Z" fill="#9BC0C4"/>
<path d="M15.2871 11.4745C15.3954 11.5578 15.5079 11.5995 15.6246 11.5995C15.8246 11.5995 15.9788 11.537 16.0871 11.412C16.1954 11.287 16.2329 11.1328 16.1996 10.9495C15.9829 10.0995 15.5621 9.36612 14.9371 8.74945C14.3121 8.13279 13.5746 7.72445 12.7246 7.52445C12.5579 7.47445 12.4121 7.50779 12.2871 7.62445C12.1621 7.74112 12.0996 7.89112 12.0996 8.07445C12.0996 8.20779 12.1413 8.32445 12.2246 8.42445C12.3079 8.52445 12.4163 8.59112 12.5496 8.62445C13.1663 8.79112 13.6954 9.09945 14.1371 9.54945C14.5788 9.99945 14.8829 10.5328 15.0496 11.1495C15.0996 11.2828 15.1788 11.3911 15.2871 11.4745Z" fill="#EB998E"/>
</svg>
