<svg width="701" height="282" viewBox="0 0 701 282" fill="none" xmlns="http://www.w3.org/2000/svg">
<path d="M12.3825 252.07C11.9225 252.07 11.5058 251.967 11.1325 251.76C10.7592 251.547 10.4492 251.243 10.2025 250.85L10.6725 250.34C10.9525 250.713 11.2325 250.973 11.5125 251.12C11.7992 251.26 12.0925 251.33 12.3925 251.33C12.7125 251.33 13.0025 251.257 13.2625 251.11C13.5292 250.957 13.7392 250.753 13.8925 250.5C14.0458 250.247 14.1225 249.967 14.1225 249.66C14.1225 249.36 14.0525 249.09 13.9125 248.85C13.7725 248.603 13.5825 248.41 13.3425 248.27C13.1025 248.123 12.8258 248.05 12.5125 248.05C12.3458 248.05 12.1792 248.07 12.0125 248.11C11.8458 248.143 11.6725 248.2 11.4925 248.28C11.3192 248.353 11.1325 248.447 10.9325 248.56L10.4925 247.97L10.9025 245H14.6825V245.73H11.3125L11.5625 245.55L11.1925 248L10.9625 247.84C11.0692 247.753 11.2125 247.67 11.3925 247.59C11.5725 247.51 11.7692 247.447 11.9825 247.4C12.2025 247.347 12.4158 247.32 12.6225 247.32C13.0558 247.32 13.4425 247.42 13.7825 247.62C14.1225 247.813 14.3925 248.083 14.5925 248.43C14.7925 248.77 14.8925 249.163 14.8925 249.61C14.8925 250.077 14.7825 250.497 14.5625 250.87C14.3425 251.237 14.0425 251.53 13.6625 251.75C13.2825 251.963 12.8558 252.07 12.3825 252.07ZM18.5561 252.1C18.0094 252.1 17.5428 251.957 17.1561 251.67C16.7761 251.383 16.4828 250.973 16.2761 250.44C16.0761 249.9 15.9761 249.253 15.9761 248.5C15.9761 247.747 16.0761 247.103 16.2761 246.57C16.4828 246.03 16.7761 245.617 17.1561 245.33C17.5428 245.043 18.0094 244.9 18.5561 244.9C19.0961 244.9 19.5594 245.043 19.9461 245.33C20.3328 245.617 20.6261 246.03 20.8261 246.57C21.0328 247.103 21.1361 247.747 21.1361 248.5C21.1361 249.253 21.0328 249.9 20.8261 250.44C20.6261 250.973 20.3328 251.383 19.9461 251.67C19.5594 251.957 19.0961 252.1 18.5561 252.1ZM18.5561 251.37C19.1294 251.37 19.5694 251.12 19.8761 250.62C20.1894 250.12 20.3461 249.413 20.3461 248.5C20.3461 247.587 20.1894 246.88 19.8761 246.38C19.5694 245.88 19.1294 245.63 18.5561 245.63C17.9761 245.63 17.5294 245.88 17.2161 246.38C16.9094 246.88 16.7561 247.587 16.7561 248.5C16.7561 249.413 16.9094 250.12 17.2161 250.62C17.5294 251.12 17.9761 251.37 18.5561 251.37ZM23.0191 250.32L22.9891 249.45L25.7191 246.78H26.7291L23.0191 250.32ZM22.3491 252V244.6H23.0991V252H22.3491ZM25.9291 252L23.7291 249.45L24.2591 248.93L26.9091 252H25.9291Z" fill="#667085"/>
<path d="M42.6066 279.1C42.3799 279.1 42.1666 279.07 41.9666 279.01C41.7666 278.957 41.5799 278.877 41.4066 278.77C41.2332 278.657 41.0766 278.52 40.9366 278.36C40.7966 278.2 40.6732 278.023 40.5666 277.83L41.0866 277.29C41.2066 277.49 41.3266 277.657 41.4466 277.79C41.5732 277.923 41.6966 278.03 41.8166 278.11C41.9432 278.19 42.0699 278.247 42.1966 278.28C42.3299 278.313 42.4666 278.33 42.6066 278.33C42.8799 278.33 43.1199 278.267 43.3266 278.14C43.5399 278.007 43.7032 277.827 43.8166 277.6C43.9366 277.367 43.9966 277.103 43.9966 276.81V272.74H42.7266V272H45.8266V272.74H44.7966V276.87C44.7966 277.19 44.7432 277.487 44.6366 277.76C44.5299 278.033 44.3799 278.27 44.1866 278.47C43.9932 278.67 43.7632 278.827 43.4966 278.94C43.2299 279.047 42.9332 279.1 42.6066 279.1ZM48.5669 279.1C48.1135 279.1 47.7035 278.983 47.3369 278.75C46.9702 278.51 46.6802 278.187 46.4669 277.78C46.2535 277.367 46.1469 276.9 46.1469 276.38C46.1469 275.853 46.2569 275.387 46.4769 274.98C46.6969 274.573 46.9902 274.253 47.3569 274.02C47.7302 273.787 48.1469 273.67 48.6069 273.67C48.8802 273.67 49.1335 273.71 49.3669 273.79C49.6002 273.87 49.8069 273.983 49.9869 274.13C50.1735 274.27 50.3269 274.437 50.4469 274.63C50.5735 274.817 50.6602 275.02 50.7069 275.24L50.4869 275.13L50.5169 273.78H51.2669V279H50.5069V277.72L50.7069 277.59C50.6602 277.79 50.5702 277.983 50.4369 278.17C50.3035 278.35 50.1402 278.51 49.9469 278.65C49.7602 278.79 49.5469 278.9 49.3069 278.98C49.0735 279.06 48.8269 279.1 48.5669 279.1ZM48.7369 278.38C49.0835 278.38 49.3935 278.297 49.6669 278.13C49.9402 277.957 50.1535 277.72 50.3069 277.42C50.4669 277.113 50.5469 276.767 50.5469 276.38C50.5469 275.993 50.4669 275.65 50.3069 275.35C50.1535 275.05 49.9402 274.813 49.6669 274.64C49.3935 274.467 49.0835 274.38 48.7369 274.38C48.3835 274.38 48.0702 274.467 47.7969 274.64C47.5302 274.813 47.3169 275.05 47.1569 275.35C47.0035 275.65 46.9269 275.993 46.9269 276.38C46.9269 276.76 47.0035 277.103 47.1569 277.41C47.3102 277.71 47.5235 277.947 47.7969 278.12C48.0702 278.293 48.3835 278.38 48.7369 278.38ZM52.728 279V273.78H53.468L53.498 274.87L53.378 274.92C53.4447 274.693 53.5747 274.487 53.768 274.3C53.9614 274.113 54.1914 273.963 54.458 273.85C54.7314 273.73 55.0114 273.67 55.298 273.67C55.6847 273.67 56.008 273.747 56.268 273.9C56.528 274.053 56.7247 274.29 56.858 274.61C56.9914 274.93 57.058 275.337 57.058 275.83V279H56.298V275.87C56.298 275.523 56.2514 275.24 56.158 275.02C56.0714 274.793 55.9347 274.627 55.748 274.52C55.5614 274.413 55.3314 274.363 55.058 274.37C54.8314 274.37 54.6214 274.41 54.428 274.49C54.2347 274.563 54.068 274.667 53.928 274.8C53.788 274.933 53.678 275.087 53.598 275.26C53.518 275.433 53.478 275.62 53.478 275.82V279H53.108C53.0614 279 53.008 279 52.948 279C52.888 279 52.8147 279 52.728 279ZM60.3398 279.1C59.9398 279.1 59.5998 279.02 59.3198 278.86C59.0464 278.693 58.8364 278.453 58.6898 278.14C58.5498 277.827 58.4798 277.437 58.4798 276.97V273.78H59.2398V276.82C59.2398 277.173 59.2864 277.47 59.3798 277.71C59.4798 277.943 59.6264 278.12 59.8198 278.24C60.0198 278.36 60.2631 278.42 60.5498 278.42C60.7698 278.42 60.9731 278.383 61.1598 278.31C61.3464 278.23 61.5098 278.123 61.6498 277.99C61.7898 277.857 61.8998 277.7 61.9798 277.52C62.0598 277.34 62.0998 277.15 62.0998 276.95V273.78H62.8498V279H62.1098L62.0798 277.9L62.1998 277.84C62.1198 278.073 61.9864 278.287 61.7998 278.48C61.6131 278.667 61.3898 278.817 61.1298 278.93C60.8764 279.043 60.6131 279.1 60.3398 279.1ZM66.3501 279.1C65.8967 279.1 65.4867 278.983 65.1201 278.75C64.7534 278.51 64.4634 278.187 64.2501 277.78C64.0367 277.367 63.9301 276.9 63.9301 276.38C63.9301 275.853 64.0401 275.387 64.2601 274.98C64.4801 274.573 64.7734 274.253 65.1401 274.02C65.5134 273.787 65.9301 273.67 66.3901 273.67C66.6634 273.67 66.9167 273.71 67.1501 273.79C67.3834 273.87 67.5901 273.983 67.7701 274.13C67.9567 274.27 68.1101 274.437 68.2301 274.63C68.3567 274.817 68.4434 275.02 68.4901 275.24L68.2701 275.13L68.3001 273.78H69.0501V279H68.2901V277.72L68.4901 277.59C68.4434 277.79 68.3534 277.983 68.2201 278.17C68.0867 278.35 67.9234 278.51 67.7301 278.65C67.5434 278.79 67.3301 278.9 67.0901 278.98C66.8567 279.06 66.6101 279.1 66.3501 279.1ZM66.5201 278.38C66.8667 278.38 67.1767 278.297 67.4501 278.13C67.7234 277.957 67.9367 277.72 68.0901 277.42C68.2501 277.113 68.3301 276.767 68.3301 276.38C68.3301 275.993 68.2501 275.65 68.0901 275.35C67.9367 275.05 67.7234 274.813 67.4501 274.64C67.1767 274.467 66.8667 274.38 66.5201 274.38C66.1667 274.38 65.8534 274.467 65.5801 274.64C65.3134 274.813 65.1001 275.05 64.9401 275.35C64.7867 275.65 64.7101 275.993 64.7101 276.38C64.7101 276.76 64.7867 277.103 64.9401 277.41C65.0934 277.71 65.3067 277.947 65.5801 278.12C65.8534 278.293 66.1667 278.38 66.5201 278.38ZM70.5113 279V273.78H71.2613L71.2813 275.17L71.2013 274.98C71.2746 274.747 71.3913 274.53 71.5513 274.33C71.7179 274.13 71.9146 273.97 72.1413 273.85C72.3679 273.73 72.6179 273.67 72.8913 273.67C73.0046 273.67 73.1113 273.68 73.2113 273.7C73.3113 273.713 73.3946 273.733 73.4613 273.76L73.2513 274.6C73.1646 274.56 73.0746 274.533 72.9813 274.52C72.8946 274.5 72.8113 274.49 72.7313 274.49C72.5046 274.49 72.3013 274.53 72.1213 274.61C71.9413 274.69 71.7879 274.803 71.6613 274.95C71.5346 275.09 71.4379 275.253 71.3713 275.44C71.3046 275.627 71.2713 275.827 71.2713 276.04V279H70.5113ZM75.1217 281.3L76.1317 278.84L76.2017 279.55L73.5817 273.78H74.4317L76.2217 277.78C76.2751 277.887 76.3284 278.013 76.3817 278.16C76.4351 278.3 76.4851 278.44 76.5317 278.58L76.2517 278.55C76.2984 278.437 76.3417 278.32 76.3817 278.2C76.4284 278.08 76.4717 277.963 76.5117 277.85L78.0817 273.78H78.9417L76.8317 279L75.9317 281.3H75.1217Z" fill="#667085"/>
<path d="M176.471 279V272H177.251V279H176.471ZM176.861 275.88V275.11H180.401V275.88H176.861ZM176.861 272.76V272H180.871V272.76H176.861ZM184.253 279.1C183.733 279.1 183.269 278.987 182.863 278.76C182.463 278.533 182.149 278.217 181.923 277.81C181.696 277.403 181.583 276.937 181.583 276.41C181.583 276.003 181.646 275.637 181.773 275.31C181.899 274.977 182.076 274.687 182.303 274.44C182.536 274.193 182.813 274.003 183.133 273.87C183.453 273.73 183.799 273.66 184.173 273.66C184.526 273.66 184.846 273.723 185.133 273.85C185.426 273.977 185.676 274.153 185.883 274.38C186.096 274.6 186.256 274.863 186.363 275.17C186.469 275.477 186.516 275.813 186.503 276.18L186.493 276.53H182.143L182.033 275.9H185.923L185.743 276.07V275.83C185.729 275.59 185.659 275.36 185.533 275.14C185.406 274.913 185.226 274.73 184.993 274.59C184.766 274.45 184.493 274.38 184.173 274.38C183.799 274.38 183.476 274.457 183.203 274.61C182.929 274.757 182.719 274.977 182.573 275.27C182.426 275.563 182.353 275.927 182.353 276.36C182.353 276.773 182.433 277.133 182.593 277.44C182.753 277.74 182.979 277.973 183.273 278.14C183.573 278.307 183.933 278.39 184.353 278.39C184.599 278.39 184.843 278.35 185.083 278.27C185.329 278.183 185.599 278.017 185.893 277.77L186.283 278.31C186.129 278.463 185.946 278.6 185.733 278.72C185.519 278.833 185.286 278.927 185.033 279C184.779 279.067 184.519 279.1 184.253 279.1ZM190.218 279.1C189.971 279.1 189.731 279.063 189.498 278.99C189.265 278.91 189.051 278.803 188.858 278.67C188.671 278.537 188.511 278.383 188.378 278.21C188.251 278.037 188.165 277.857 188.118 277.67L188.338 277.68L188.308 278.99H187.568V271.6H188.318V275.03L188.168 275.07C188.215 274.883 188.298 274.707 188.418 274.54C188.545 274.367 188.701 274.217 188.888 274.09C189.075 273.957 189.278 273.853 189.498 273.78C189.725 273.707 189.958 273.67 190.198 273.67C190.665 273.67 191.081 273.787 191.448 274.02C191.821 274.253 192.118 274.573 192.338 274.98C192.558 275.387 192.668 275.853 192.668 276.38C192.668 276.907 192.561 277.377 192.348 277.79C192.135 278.197 191.841 278.517 191.468 278.75C191.101 278.983 190.685 279.1 190.218 279.1ZM190.098 278.39C190.451 278.39 190.765 278.303 191.038 278.13C191.311 277.95 191.525 277.71 191.678 277.41C191.838 277.103 191.918 276.76 191.918 276.38C191.918 275.993 191.838 275.65 191.678 275.35C191.525 275.05 191.311 274.813 191.038 274.64C190.765 274.467 190.451 274.38 190.098 274.38C189.745 274.38 189.431 274.467 189.158 274.64C188.885 274.813 188.668 275.05 188.508 275.35C188.355 275.65 188.278 275.993 188.278 276.38C188.278 276.767 188.355 277.113 188.508 277.42C188.668 277.72 188.885 277.957 189.158 278.13C189.431 278.303 189.745 278.39 190.098 278.39ZM193.759 279V273.78H194.509L194.529 275.17L194.449 274.98C194.523 274.747 194.639 274.53 194.799 274.33C194.966 274.13 195.163 273.97 195.389 273.85C195.616 273.73 195.866 273.67 196.139 273.67C196.253 273.67 196.359 273.68 196.459 273.7C196.559 273.713 196.643 273.733 196.709 273.76L196.499 274.6C196.413 274.56 196.323 274.533 196.229 274.52C196.143 274.5 196.059 274.49 195.979 274.49C195.753 274.49 195.549 274.53 195.369 274.61C195.189 274.69 195.036 274.803 194.909 274.95C194.783 275.09 194.686 275.253 194.619 275.44C194.553 275.627 194.519 275.827 194.519 276.04V279H193.759ZM199.34 279.1C198.94 279.1 198.6 279.02 198.32 278.86C198.046 278.693 197.836 278.453 197.69 278.14C197.55 277.827 197.48 277.437 197.48 276.97V273.78H198.24V276.82C198.24 277.173 198.286 277.47 198.38 277.71C198.48 277.943 198.626 278.12 198.82 278.24C199.02 278.36 199.263 278.42 199.55 278.42C199.77 278.42 199.973 278.383 200.16 278.31C200.346 278.23 200.51 278.123 200.65 277.99C200.79 277.857 200.9 277.7 200.98 277.52C201.06 277.34 201.1 277.15 201.1 276.95V273.78H201.85V279H201.11L201.08 277.9L201.2 277.84C201.12 278.073 200.986 278.287 200.8 278.48C200.613 278.667 200.39 278.817 200.13 278.93C199.876 279.043 199.613 279.1 199.34 279.1ZM205.35 279.1C204.897 279.1 204.487 278.983 204.12 278.75C203.753 278.51 203.463 278.187 203.25 277.78C203.037 277.367 202.93 276.9 202.93 276.38C202.93 275.853 203.04 275.387 203.26 274.98C203.48 274.573 203.773 274.253 204.14 274.02C204.513 273.787 204.93 273.67 205.39 273.67C205.663 273.67 205.917 273.71 206.15 273.79C206.383 273.87 206.59 273.983 206.77 274.13C206.957 274.27 207.11 274.437 207.23 274.63C207.357 274.817 207.443 275.02 207.49 275.24L207.27 275.13L207.3 273.78H208.05V279H207.29V277.72L207.49 277.59C207.443 277.79 207.353 277.983 207.22 278.17C207.087 278.35 206.923 278.51 206.73 278.65C206.543 278.79 206.33 278.9 206.09 278.98C205.857 279.06 205.61 279.1 205.35 279.1ZM205.52 278.38C205.867 278.38 206.177 278.297 206.45 278.13C206.723 277.957 206.937 277.72 207.09 277.42C207.25 277.113 207.33 276.767 207.33 276.38C207.33 275.993 207.25 275.65 207.09 275.35C206.937 275.05 206.723 274.813 206.45 274.64C206.177 274.467 205.867 274.38 205.52 274.38C205.167 274.38 204.853 274.467 204.58 274.64C204.313 274.813 204.1 275.05 203.94 275.35C203.787 275.65 203.71 275.993 203.71 276.38C203.71 276.76 203.787 277.103 203.94 277.41C204.093 277.71 204.307 277.947 204.58 278.12C204.853 278.293 205.167 278.38 205.52 278.38ZM209.511 279V273.78H210.261L210.281 275.17L210.201 274.98C210.275 274.747 210.391 274.53 210.551 274.33C210.718 274.13 210.915 273.97 211.141 273.85C211.368 273.73 211.618 273.67 211.891 273.67C212.005 273.67 212.111 273.68 212.211 273.7C212.311 273.713 212.395 273.733 212.461 273.76L212.251 274.6C212.165 274.56 212.075 274.533 211.981 274.52C211.895 274.5 211.811 274.49 211.731 274.49C211.505 274.49 211.301 274.53 211.121 274.61C210.941 274.69 210.788 274.803 210.661 274.95C210.535 275.09 210.438 275.253 210.371 275.44C210.305 275.627 210.271 275.827 210.271 276.04V279H209.511ZM214.122 281.3L215.132 278.84L215.202 279.55L212.582 273.78H213.432L215.222 277.78C215.275 277.887 215.328 278.013 215.382 278.16C215.435 278.3 215.485 278.44 215.532 278.58L215.252 278.55C215.298 278.437 215.342 278.32 215.382 278.2C215.428 278.08 215.472 277.963 215.512 277.85L217.082 273.78H217.942L215.832 279L214.932 281.3H214.122Z" fill="#667085"/>
<path d="M315.714 279V272H316.474L319.164 276.37L318.804 276.36L321.524 272H322.234V279H321.454V275.8C321.454 275.2 321.464 274.66 321.484 274.18C321.504 273.7 321.54 273.223 321.594 272.75L321.734 273.03L319.224 276.97H318.684L316.244 273.08L316.354 272.75C316.407 273.197 316.444 273.657 316.464 274.13C316.484 274.597 316.494 275.153 316.494 275.8V279H315.714ZM326.038 279.1C325.584 279.1 325.174 278.983 324.808 278.75C324.441 278.51 324.151 278.187 323.938 277.78C323.724 277.367 323.618 276.9 323.618 276.38C323.618 275.853 323.728 275.387 323.948 274.98C324.168 274.573 324.461 274.253 324.828 274.02C325.201 273.787 325.618 273.67 326.078 273.67C326.351 273.67 326.604 273.71 326.838 273.79C327.071 273.87 327.278 273.983 327.458 274.13C327.644 274.27 327.798 274.437 327.918 274.63C328.044 274.817 328.131 275.02 328.178 275.24L327.958 275.13L327.988 273.78H328.738V279H327.978V277.72L328.178 277.59C328.131 277.79 328.041 277.983 327.908 278.17C327.774 278.35 327.611 278.51 327.418 278.65C327.231 278.79 327.018 278.9 326.778 278.98C326.544 279.06 326.298 279.1 326.038 279.1ZM326.208 278.38C326.554 278.38 326.864 278.297 327.138 278.13C327.411 277.957 327.624 277.72 327.778 277.42C327.938 277.113 328.018 276.767 328.018 276.38C328.018 275.993 327.938 275.65 327.778 275.35C327.624 275.05 327.411 274.813 327.138 274.64C326.864 274.467 326.554 274.38 326.208 274.38C325.854 274.38 325.541 274.467 325.268 274.64C325.001 274.813 324.788 275.05 324.628 275.35C324.474 275.65 324.398 275.993 324.398 276.38C324.398 276.76 324.474 277.103 324.628 277.41C324.781 277.71 324.994 277.947 325.268 278.12C325.541 278.293 325.854 278.38 326.208 278.38ZM330.199 279V273.78H330.949L330.969 275.17L330.889 274.98C330.962 274.747 331.079 274.53 331.239 274.33C331.405 274.13 331.602 273.97 331.829 273.85C332.055 273.73 332.305 273.67 332.579 273.67C332.692 273.67 332.799 273.68 332.899 273.7C332.999 273.713 333.082 273.733 333.149 273.76L332.939 274.6C332.852 274.56 332.762 274.533 332.669 274.52C332.582 274.5 332.499 274.49 332.419 274.49C332.192 274.49 331.989 274.53 331.809 274.61C331.629 274.69 331.475 274.803 331.349 274.95C331.222 275.09 331.125 275.253 331.059 275.44C330.992 275.627 330.959 275.827 330.959 276.04V279H330.199ZM335.905 279.1C335.411 279.1 334.971 278.983 334.585 278.75C334.198 278.51 333.891 278.187 333.665 277.78C333.445 277.367 333.335 276.9 333.335 276.38C333.335 275.86 333.445 275.397 333.665 274.99C333.891 274.577 334.198 274.253 334.585 274.02C334.971 273.787 335.415 273.67 335.915 273.67C336.361 273.67 336.768 273.76 337.135 273.94C337.501 274.113 337.795 274.357 338.015 274.67L337.575 275.21C337.448 275.043 337.295 274.897 337.115 274.77C336.941 274.643 336.751 274.547 336.545 274.48C336.345 274.407 336.145 274.37 335.945 274.37C335.591 274.37 335.275 274.46 334.995 274.64C334.715 274.813 334.491 275.05 334.325 275.35C334.165 275.65 334.085 275.993 334.085 276.38C334.085 276.767 334.165 277.113 334.325 277.42C334.491 277.72 334.715 277.957 334.995 278.13C335.275 278.303 335.588 278.39 335.935 278.39C336.135 278.39 336.331 278.36 336.525 278.3C336.718 278.233 336.901 278.14 337.075 278.02C337.248 277.9 337.408 277.75 337.555 277.57L337.995 278.11C337.768 278.41 337.465 278.65 337.085 278.83C336.705 279.01 336.311 279.1 335.905 279.1ZM338.968 279V271.6H339.718V274.92L339.568 275.07C339.642 274.797 339.778 274.557 339.978 274.35C340.178 274.137 340.412 273.97 340.678 273.85C340.952 273.73 341.228 273.67 341.508 273.67C341.908 273.67 342.242 273.747 342.508 273.9C342.775 274.053 342.972 274.29 343.098 274.61C343.232 274.93 343.298 275.337 343.298 275.83V279H342.538V275.87C342.538 275.523 342.492 275.24 342.398 275.02C342.312 274.793 342.175 274.627 341.988 274.52C341.802 274.413 341.568 274.363 341.288 274.37C341.068 274.37 340.862 274.41 340.668 274.49C340.475 274.563 340.308 274.667 340.168 274.8C340.028 274.933 339.918 275.087 339.838 275.26C339.758 275.433 339.718 275.62 339.718 275.82V279H339.348C339.302 279 339.248 279 339.188 279C339.128 279 339.055 279 338.968 279Z" fill="#667085"/>
<path d="M440.736 279L443.416 272H444.306L446.966 279H446.116L444.406 274.46C444.36 274.333 444.306 274.187 444.246 274.02C444.193 273.847 444.133 273.67 444.066 273.49C444.006 273.303 443.946 273.123 443.886 272.95C443.833 272.777 443.783 272.623 443.736 272.49H443.936C443.883 272.657 443.826 272.827 443.766 273C443.713 273.167 443.656 273.337 443.596 273.51C443.536 273.677 443.476 273.843 443.416 274.01C443.356 274.177 443.296 274.343 443.236 274.51L441.536 279H440.736ZM441.876 277.07L442.166 276.31H445.476L445.796 277.07H441.876ZM447.945 281.2V273.78H448.695L448.715 275.05L448.575 275.07C448.635 274.817 448.765 274.587 448.965 274.38C449.165 274.167 449.408 273.997 449.695 273.87C449.982 273.743 450.285 273.68 450.605 273.68C451.072 273.68 451.488 273.797 451.855 274.03C452.228 274.263 452.525 274.583 452.745 274.99C452.965 275.397 453.075 275.863 453.075 276.39C453.075 276.91 452.968 277.373 452.755 277.78C452.542 278.187 452.248 278.51 451.875 278.75C451.502 278.983 451.082 279.1 450.615 279.1C450.288 279.1 449.978 279.033 449.685 278.9C449.392 278.767 449.142 278.593 448.935 278.38C448.728 278.16 448.592 277.923 448.525 277.67H448.705V281.2H447.945ZM450.495 278.38C450.848 278.38 451.162 278.293 451.435 278.12C451.708 277.947 451.925 277.71 452.085 277.41C452.245 277.11 452.325 276.77 452.325 276.39C452.325 276.003 452.245 275.66 452.085 275.36C451.925 275.06 451.708 274.823 451.435 274.65C451.162 274.477 450.848 274.39 450.495 274.39C450.142 274.39 449.825 274.477 449.545 274.65C449.272 274.817 449.055 275.05 448.895 275.35C448.735 275.65 448.655 275.993 448.655 276.38C448.655 276.767 448.735 277.11 448.895 277.41C449.055 277.71 449.272 277.947 449.545 278.12C449.825 278.293 450.142 278.38 450.495 278.38ZM454.166 279V273.78H454.916L454.936 275.17L454.856 274.98C454.929 274.747 455.046 274.53 455.206 274.33C455.372 274.13 455.569 273.97 455.796 273.85C456.022 273.73 456.272 273.67 456.546 273.67C456.659 273.67 456.766 273.68 456.866 273.7C456.966 273.713 457.049 273.733 457.116 273.76L456.906 274.6C456.819 274.56 456.729 274.533 456.636 274.52C456.549 274.5 456.466 274.49 456.386 274.49C456.159 274.49 455.956 274.53 455.776 274.61C455.596 274.69 455.442 274.803 455.316 274.95C455.189 275.09 455.092 275.253 455.026 275.44C454.959 275.627 454.926 275.827 454.926 276.04V279H454.166ZM458.096 279V273.78H458.846V279H458.096ZM458.466 272.65C458.279 272.65 458.136 272.603 458.036 272.51C457.943 272.41 457.896 272.277 457.896 272.11C457.896 271.943 457.946 271.81 458.046 271.71C458.146 271.61 458.286 271.56 458.466 271.56C458.646 271.56 458.786 271.61 458.886 271.71C458.986 271.803 459.036 271.937 459.036 272.11C459.036 272.27 458.986 272.4 458.886 272.5C458.786 272.6 458.646 272.65 458.466 272.65ZM460.504 279V271.6H461.254V279H460.504Z" fill="#667085"/>
<path d="M559.874 279V272H560.634L563.324 276.37L562.964 276.36L565.684 272H566.394V279H565.614V275.8C565.614 275.2 565.624 274.66 565.644 274.18C565.664 273.7 565.7 273.223 565.754 272.75L565.894 273.03L563.384 276.97H562.844L560.404 273.08L560.514 272.75C560.567 273.197 560.604 273.657 560.624 274.13C560.644 274.597 560.654 275.153 560.654 275.8V279H559.874ZM570.198 279.1C569.744 279.1 569.334 278.983 568.968 278.75C568.601 278.51 568.311 278.187 568.098 277.78C567.884 277.367 567.778 276.9 567.778 276.38C567.778 275.853 567.888 275.387 568.108 274.98C568.328 274.573 568.621 274.253 568.988 274.02C569.361 273.787 569.778 273.67 570.238 273.67C570.511 273.67 570.764 273.71 570.998 273.79C571.231 273.87 571.438 273.983 571.618 274.13C571.804 274.27 571.958 274.437 572.078 274.63C572.204 274.817 572.291 275.02 572.338 275.24L572.118 275.13L572.148 273.78H572.898V279H572.138V277.72L572.338 277.59C572.291 277.79 572.201 277.983 572.068 278.17C571.934 278.35 571.771 278.51 571.578 278.65C571.391 278.79 571.178 278.9 570.938 278.98C570.704 279.06 570.458 279.1 570.198 279.1ZM570.368 278.38C570.714 278.38 571.024 278.297 571.298 278.13C571.571 277.957 571.784 277.72 571.938 277.42C572.098 277.113 572.178 276.767 572.178 276.38C572.178 275.993 572.098 275.65 571.938 275.35C571.784 275.05 571.571 274.813 571.298 274.64C571.024 274.467 570.714 274.38 570.368 274.38C570.014 274.38 569.701 274.467 569.428 274.64C569.161 274.813 568.948 275.05 568.788 275.35C568.634 275.65 568.558 275.993 568.558 276.38C568.558 276.76 568.634 277.103 568.788 277.41C568.941 277.71 569.154 277.947 569.428 278.12C569.701 278.293 570.014 278.38 570.368 278.38ZM575.122 281.3L576.132 278.84L576.202 279.55L573.582 273.78H574.432L576.222 277.78C576.275 277.887 576.328 278.013 576.382 278.16C576.435 278.3 576.485 278.44 576.532 278.58L576.252 278.55C576.298 278.437 576.342 278.32 576.382 278.2C576.428 278.08 576.472 277.963 576.512 277.85L578.082 273.78H578.942L576.832 279L575.932 281.3H575.122Z" fill="#667085"/>
<path d="M678.612 279.1C678.386 279.1 678.172 279.07 677.972 279.01C677.772 278.957 677.586 278.877 677.412 278.77C677.239 278.657 677.082 278.52 676.942 278.36C676.802 278.2 676.679 278.023 676.572 277.83L677.092 277.29C677.212 277.49 677.332 277.657 677.452 277.79C677.579 277.923 677.702 278.03 677.822 278.11C677.949 278.19 678.076 278.247 678.202 278.28C678.336 278.313 678.472 278.33 678.612 278.33C678.886 278.33 679.126 278.267 679.332 278.14C679.546 278.007 679.709 277.827 679.822 277.6C679.942 277.367 680.002 277.103 680.002 276.81V272.74H678.732V272H681.832V272.74H680.802V276.87C680.802 277.19 680.749 277.487 680.642 277.76C680.536 278.033 680.386 278.27 680.192 278.47C679.999 278.67 679.769 278.827 679.502 278.94C679.236 279.047 678.939 279.1 678.612 279.1ZM684.383 279.1C683.983 279.1 683.643 279.02 683.363 278.86C683.089 278.693 682.879 278.453 682.733 278.14C682.593 277.827 682.523 277.437 682.523 276.97V273.78H683.283V276.82C683.283 277.173 683.329 277.47 683.423 277.71C683.523 277.943 683.669 278.12 683.863 278.24C684.063 278.36 684.306 278.42 684.593 278.42C684.813 278.42 685.016 278.383 685.203 278.31C685.389 278.23 685.553 278.123 685.693 277.99C685.833 277.857 685.943 277.7 686.023 277.52C686.103 277.34 686.143 277.15 686.143 276.95V273.78H686.893V279H686.153L686.123 277.9L686.243 277.84C686.163 278.073 686.029 278.287 685.843 278.48C685.656 278.667 685.433 278.817 685.173 278.93C684.919 279.043 684.656 279.1 684.383 279.1ZM688.353 279V273.78H689.093L689.123 274.87L689.003 274.92C689.07 274.693 689.2 274.487 689.393 274.3C689.586 274.113 689.816 273.963 690.083 273.85C690.356 273.73 690.636 273.67 690.923 273.67C691.31 273.67 691.633 273.747 691.893 273.9C692.153 274.053 692.35 274.29 692.483 274.61C692.616 274.93 692.683 275.337 692.683 275.83V279H691.923V275.87C691.923 275.523 691.876 275.24 691.783 275.02C691.696 274.793 691.56 274.627 691.373 274.52C691.186 274.413 690.956 274.363 690.683 274.37C690.456 274.37 690.246 274.41 690.053 274.49C689.86 274.563 689.693 274.667 689.553 274.8C689.413 274.933 689.303 275.087 689.223 275.26C689.143 275.433 689.103 275.62 689.103 275.82V279H688.733C688.686 279 688.633 279 688.573 279C688.513 279 688.44 279 688.353 279ZM696.415 279.1C695.895 279.1 695.431 278.987 695.025 278.76C694.625 278.533 694.311 278.217 694.085 277.81C693.858 277.403 693.745 276.937 693.745 276.41C693.745 276.003 693.808 275.637 693.935 275.31C694.061 274.977 694.238 274.687 694.465 274.44C694.698 274.193 694.975 274.003 695.295 273.87C695.615 273.73 695.961 273.66 696.335 273.66C696.688 273.66 697.008 273.723 697.295 273.85C697.588 273.977 697.838 274.153 698.045 274.38C698.258 274.6 698.418 274.863 698.525 275.17C698.631 275.477 698.678 275.813 698.665 276.18L698.655 276.53H694.305L694.195 275.9H698.085L697.905 276.07V275.83C697.891 275.59 697.821 275.36 697.695 275.14C697.568 274.913 697.388 274.73 697.155 274.59C696.928 274.45 696.655 274.38 696.335 274.38C695.961 274.38 695.638 274.457 695.365 274.61C695.091 274.757 694.881 274.977 694.735 275.27C694.588 275.563 694.515 275.927 694.515 276.36C694.515 276.773 694.595 277.133 694.755 277.44C694.915 277.74 695.141 277.973 695.435 278.14C695.735 278.307 696.095 278.39 696.515 278.39C696.761 278.39 697.005 278.35 697.245 278.27C697.491 278.183 697.761 278.017 698.055 277.77L698.445 278.31C698.291 278.463 698.108 278.6 697.895 278.72C697.681 278.833 697.448 278.927 697.195 279C696.941 279.067 696.681 279.1 696.415 279.1Z" fill="#667085"/>
<path d="M12.07 190.66V184.62L12.36 184.84L11.06 185.62L10.83 184.92L12.56 183.9H12.86V190.66H12.07ZM11.04 191V190.24H13.91V191H11.04ZM18.1328 191V183.6H18.8828V191H18.1328ZM22.3013 191.1C21.8479 191.1 21.4379 190.983 21.0713 190.75C20.7046 190.51 20.4146 190.187 20.2013 189.78C19.9879 189.367 19.8813 188.9 19.8813 188.38C19.8813 187.853 19.9913 187.387 20.2113 186.98C20.4313 186.573 20.7246 186.253 21.0913 186.02C21.4646 185.787 21.8813 185.67 22.3413 185.67C22.6146 185.67 22.8679 185.71 23.1013 185.79C23.3346 185.87 23.5413 185.983 23.7213 186.13C23.9079 186.27 24.0613 186.437 24.1813 186.63C24.3079 186.817 24.3946 187.02 24.4413 187.24L24.2213 187.13L24.2513 185.78H25.0013V191H24.2413V189.72L24.4413 189.59C24.3946 189.79 24.3046 189.983 24.1713 190.17C24.0379 190.35 23.8746 190.51 23.6813 190.65C23.4946 190.79 23.2813 190.9 23.0413 190.98C22.8079 191.06 22.5613 191.1 22.3013 191.1ZM22.4712 190.38C22.8179 190.38 23.1279 190.297 23.4013 190.13C23.6746 189.957 23.8879 189.72 24.0413 189.42C24.2013 189.113 24.2813 188.767 24.2813 188.38C24.2813 187.993 24.2013 187.65 24.0413 187.35C23.8879 187.05 23.6746 186.813 23.4013 186.64C23.1279 186.467 22.8179 186.38 22.4712 186.38C22.1179 186.38 21.8046 186.467 21.5313 186.64C21.2646 186.813 21.0513 187.05 20.8913 187.35C20.7379 187.65 20.6613 187.993 20.6613 188.38C20.6613 188.76 20.7379 189.103 20.8913 189.41C21.0446 189.71 21.2579 189.947 21.5313 190.12C21.8046 190.293 22.1179 190.38 22.4712 190.38ZM28.6624 191.1C28.1691 191.1 27.7291 190.983 27.3424 190.75C26.9558 190.51 26.6491 190.187 26.4224 189.78C26.2024 189.367 26.0924 188.9 26.0924 188.38C26.0924 187.86 26.2024 187.397 26.4224 186.99C26.6491 186.577 26.9558 186.253 27.3424 186.02C27.7291 185.787 28.1724 185.67 28.6724 185.67C29.1191 185.67 29.5258 185.76 29.8924 185.94C30.2591 186.113 30.5524 186.357 30.7724 186.67L30.3324 187.21C30.2058 187.043 30.0524 186.897 29.8724 186.77C29.6991 186.643 29.5091 186.547 29.3024 186.48C29.1024 186.407 28.9024 186.37 28.7024 186.37C28.3491 186.37 28.0324 186.46 27.7524 186.64C27.4724 186.813 27.2491 187.05 27.0824 187.35C26.9224 187.65 26.8424 187.993 26.8424 188.38C26.8424 188.767 26.9224 189.113 27.0824 189.42C27.2491 189.72 27.4724 189.957 27.7524 190.13C28.0324 190.303 28.3458 190.39 28.6924 190.39C28.8924 190.39 29.0891 190.36 29.2824 190.3C29.4758 190.233 29.6591 190.14 29.8324 190.02C30.0058 189.9 30.1658 189.75 30.3124 189.57L30.7524 190.11C30.5258 190.41 30.2224 190.65 29.8424 190.83C29.4624 191.01 29.0691 191.1 28.6624 191.1Z" fill="#667085"/>
<path d="M6.03547 130L5.79547 129.42L8.15547 126.77C8.2688 126.643 8.38547 126.5 8.50547 126.34C8.63214 126.18 8.7488 126.013 8.85547 125.84C8.9688 125.66 9.0588 125.483 9.12547 125.31C9.19214 125.137 9.22547 124.967 9.22547 124.8C9.22547 124.553 9.17214 124.347 9.06547 124.18C8.9588 124.007 8.80547 123.873 8.60547 123.78C8.41214 123.687 8.18547 123.64 7.92547 123.64C7.6988 123.64 7.47547 123.693 7.25547 123.8C7.03547 123.907 6.83547 124.07 6.65547 124.29C6.47547 124.51 6.33547 124.79 6.23547 125.13L5.61547 124.76C5.73547 124.353 5.91214 124.013 6.14547 123.74C6.3788 123.46 6.65547 123.25 6.97547 123.11C7.29547 122.97 7.6388 122.9 8.00547 122.9C8.39214 122.9 8.7388 122.98 9.04547 123.14C9.35214 123.293 9.59547 123.513 9.77547 123.8C9.95547 124.08 10.0455 124.403 10.0455 124.77C10.0455 124.93 10.0255 125.09 9.98547 125.25C9.95214 125.41 9.8988 125.57 9.82547 125.73C9.75214 125.89 9.66214 126.053 9.55547 126.22C9.45547 126.387 9.33547 126.557 9.19547 126.73C9.06214 126.903 8.91214 127.083 8.74547 127.27L6.73547 129.51L6.61547 129.25H10.2655V130H6.03547ZM14.1367 130V122.6H14.8867V130H14.1367ZM18.3052 130.1C17.8518 130.1 17.4418 129.983 17.0752 129.75C16.7085 129.51 16.4185 129.187 16.2052 128.78C15.9918 128.367 15.8852 127.9 15.8852 127.38C15.8852 126.853 15.9952 126.387 16.2152 125.98C16.4352 125.573 16.7285 125.253 17.0952 125.02C17.4685 124.787 17.8852 124.67 18.3452 124.67C18.6185 124.67 18.8718 124.71 19.1052 124.79C19.3385 124.87 19.5452 124.983 19.7252 125.13C19.9118 125.27 20.0652 125.437 20.1852 125.63C20.3118 125.817 20.3985 126.02 20.4452 126.24L20.2252 126.13L20.2552 124.78H21.0052V130H20.2452V128.72L20.4452 128.59C20.3985 128.79 20.3085 128.983 20.1752 129.17C20.0418 129.35 19.8785 129.51 19.6852 129.65C19.4985 129.79 19.2852 129.9 19.0452 129.98C18.8118 130.06 18.5652 130.1 18.3052 130.1ZM18.4752 129.38C18.8218 129.38 19.1318 129.297 19.4052 129.13C19.6785 128.957 19.8918 128.72 20.0452 128.42C20.2052 128.113 20.2852 127.767 20.2852 127.38C20.2852 126.993 20.2052 126.65 20.0452 126.35C19.8918 126.05 19.6785 125.813 19.4052 125.64C19.1318 125.467 18.8218 125.38 18.4752 125.38C18.1218 125.38 17.8085 125.467 17.5352 125.64C17.2685 125.813 17.0552 126.05 16.8952 126.35C16.7418 126.65 16.6652 126.993 16.6652 127.38C16.6652 127.76 16.7418 128.103 16.8952 128.41C17.0485 128.71 17.2618 128.947 17.5352 129.12C17.8085 129.293 18.1218 129.38 18.4752 129.38ZM24.6663 130.1C24.173 130.1 23.733 129.983 23.3463 129.75C22.9597 129.51 22.653 129.187 22.4263 128.78C22.2063 128.367 22.0963 127.9 22.0963 127.38C22.0963 126.86 22.2063 126.397 22.4263 125.99C22.653 125.577 22.9597 125.253 23.3463 125.02C23.733 124.787 24.1763 124.67 24.6763 124.67C25.123 124.67 25.5297 124.76 25.8963 124.94C26.263 125.113 26.5563 125.357 26.7763 125.67L26.3363 126.21C26.2097 126.043 26.0563 125.897 25.8763 125.77C25.703 125.643 25.513 125.547 25.3063 125.48C25.1063 125.407 24.9063 125.37 24.7063 125.37C24.353 125.37 24.0363 125.46 23.7563 125.64C23.4763 125.813 23.253 126.05 23.0863 126.35C22.9263 126.65 22.8463 126.993 22.8463 127.38C22.8463 127.767 22.9263 128.113 23.0863 128.42C23.253 128.72 23.4763 128.957 23.7563 129.13C24.0363 129.303 24.3497 129.39 24.6963 129.39C24.8963 129.39 25.093 129.36 25.2863 129.3C25.4797 129.233 25.663 129.14 25.8363 129.02C26.0097 128.9 26.1697 128.75 26.3163 128.57L26.7563 129.11C26.5297 129.41 26.2263 129.65 25.8463 129.83C25.4663 130.01 25.073 130.1 24.6663 130.1Z" fill="#667085"/>
<path d="M7.47039 69.07C7.01039 69.07 6.59372 68.9667 6.22039 68.76C5.84706 68.5467 5.53706 68.2433 5.29039 67.85L5.76039 67.34C6.04039 67.7133 6.32039 67.9733 6.60039 68.12C6.88706 68.26 7.18039 68.33 7.48039 68.33C7.80039 68.33 8.09039 68.2567 8.35039 68.11C8.61706 67.9567 8.82706 67.7533 8.98039 67.5C9.13372 67.2467 9.21039 66.9667 9.21039 66.66C9.21039 66.36 9.14039 66.09 9.00039 65.85C8.86039 65.6033 8.67039 65.41 8.43039 65.27C8.19039 65.1233 7.91372 65.05 7.60039 65.05C7.43372 65.05 7.26706 65.07 7.10039 65.11C6.93372 65.1433 6.76039 65.2 6.58039 65.28C6.40706 65.3533 6.22039 65.4467 6.02039 65.56L5.58039 64.97L5.99039 62H9.77039V62.73H6.40039L6.65039 62.55L6.28039 65L6.05039 64.84C6.15706 64.7533 6.30039 64.67 6.48039 64.59C6.66039 64.51 6.85706 64.4467 7.07039 64.4C7.29039 64.3467 7.50372 64.32 7.71039 64.32C8.14372 64.32 8.53039 64.42 8.87039 64.62C9.21039 64.8133 9.48039 65.0833 9.68039 65.43C9.88039 65.77 9.98039 66.1633 9.98039 66.61C9.98039 67.0767 9.87039 67.4967 9.65039 67.87C9.43039 68.2367 9.13039 68.53 8.75039 68.75C8.37039 68.9633 7.94372 69.07 7.47039 69.07ZM14.1367 69V61.6H14.8867V69H14.1367ZM18.3052 69.1C17.8518 69.1 17.4418 68.9833 17.0752 68.75C16.7085 68.51 16.4185 68.1867 16.2052 67.78C15.9918 67.3667 15.8852 66.9 15.8852 66.38C15.8852 65.8533 15.9952 65.3867 16.2152 64.98C16.4352 64.5733 16.7285 64.2533 17.0952 64.02C17.4685 63.7867 17.8852 63.67 18.3452 63.67C18.6185 63.67 18.8718 63.71 19.1052 63.79C19.3385 63.87 19.5452 63.9833 19.7252 64.13C19.9118 64.27 20.0652 64.4367 20.1852 64.63C20.3118 64.8167 20.3985 65.02 20.4452 65.24L20.2252 65.13L20.2552 63.78H21.0052V69H20.2452V67.72L20.4452 67.59C20.3985 67.79 20.3085 67.9833 20.1752 68.17C20.0418 68.35 19.8785 68.51 19.6852 68.65C19.4985 68.79 19.2852 68.9 19.0452 68.98C18.8118 69.06 18.5652 69.1 18.3052 69.1ZM18.4752 68.38C18.8218 68.38 19.1318 68.2967 19.4052 68.13C19.6785 67.9567 19.8918 67.72 20.0452 67.42C20.2052 67.1133 20.2852 66.7667 20.2852 66.38C20.2852 65.9933 20.2052 65.65 20.0452 65.35C19.8918 65.05 19.6785 64.8133 19.4052 64.64C19.1318 64.4667 18.8218 64.38 18.4752 64.38C18.1218 64.38 17.8085 64.4667 17.5352 64.64C17.2685 64.8133 17.0552 65.05 16.8952 65.35C16.7418 65.65 16.6652 65.9933 16.6652 66.38C16.6652 66.76 16.7418 67.1033 16.8952 67.41C17.0485 67.71 17.2618 67.9467 17.5352 68.12C17.8085 68.2933 18.1218 68.38 18.4752 68.38ZM24.6663 69.1C24.173 69.1 23.733 68.9833 23.3463 68.75C22.9597 68.51 22.653 68.1867 22.4263 67.78C22.2063 67.3667 22.0963 66.9 22.0963 66.38C22.0963 65.86 22.2063 65.3967 22.4263 64.99C22.653 64.5767 22.9597 64.2533 23.3463 64.02C23.733 63.7867 24.1763 63.67 24.6763 63.67C25.123 63.67 25.5297 63.76 25.8963 63.94C26.263 64.1133 26.5563 64.3567 26.7763 64.67L26.3363 65.21C26.2097 65.0433 26.0563 64.8967 25.8763 64.77C25.703 64.6433 25.513 64.5467 25.3063 64.48C25.1063 64.4067 24.9063 64.37 24.7063 64.37C24.353 64.37 24.0363 64.46 23.7563 64.64C23.4763 64.8133 23.253 65.05 23.0863 65.35C22.9263 65.65 22.8463 65.9933 22.8463 66.38C22.8463 66.7667 22.9263 67.1133 23.0863 67.42C23.253 67.72 23.4763 67.9567 23.7563 68.13C24.0363 68.3033 24.3497 68.39 24.6963 68.39C24.8963 68.39 25.093 68.36 25.2863 68.3C25.4797 68.2333 25.663 68.14 25.8363 68.02C26.0097 67.9 26.1697 67.75 26.3163 67.57L26.7563 68.11C26.5297 68.41 26.2263 68.65 25.8463 68.83C25.4663 69.01 25.073 69.1 24.6663 69.1Z" fill="#667085"/>
<path d="M1.95086 7.66V1.62L2.24086 1.84L0.940859 2.62L0.710859 1.92L2.44086 0.9H2.74086V7.66H1.95086ZM0.920859 8V7.24H3.79086V8H0.920859ZM7.52094 8.1C6.97427 8.1 6.5076 7.95667 6.12094 7.67C5.74094 7.38333 5.4476 6.97333 5.24094 6.44C5.04094 5.9 4.94094 5.25333 4.94094 4.5C4.94094 3.74667 5.04094 3.10333 5.24094 2.57C5.4476 2.03 5.74094 1.61667 6.12094 1.33C6.5076 1.04333 6.97427 0.9 7.52094 0.9C8.06094 0.9 8.52427 1.04333 8.91094 1.33C9.2976 1.61667 9.59094 2.03 9.79094 2.57C9.9976 3.10333 10.1009 3.74667 10.1009 4.5C10.1009 5.25333 9.9976 5.9 9.79094 6.44C9.59094 6.97333 9.2976 7.38333 8.91094 7.67C8.52427 7.95667 8.06094 8.1 7.52094 8.1ZM7.52094 7.37C8.09427 7.37 8.53427 7.12 8.84094 6.62C9.15427 6.12 9.31094 5.41333 9.31094 4.5C9.31094 3.58667 9.15427 2.88 8.84094 2.38C8.53427 1.88 8.09427 1.63 7.52094 1.63C6.94094 1.63 6.49427 1.88 6.18094 2.38C5.87427 2.88 5.72094 3.58667 5.72094 4.5C5.72094 5.41333 5.87427 6.12 6.18094 6.62C6.49427 7.12 6.94094 7.37 7.52094 7.37ZM14.1367 8V0.6H14.8867V8H14.1367ZM18.3052 8.1C17.8518 8.1 17.4418 7.98333 17.0752 7.75C16.7085 7.51 16.4185 7.18667 16.2052 6.78C15.9918 6.36667 15.8852 5.9 15.8852 5.38C15.8852 4.85333 15.9952 4.38667 16.2152 3.98C16.4352 3.57333 16.7285 3.25333 17.0952 3.02C17.4685 2.78667 17.8852 2.67 18.3452 2.67C18.6185 2.67 18.8718 2.71 19.1052 2.79C19.3385 2.87 19.5452 2.98333 19.7252 3.13C19.9118 3.27 20.0652 3.43667 20.1852 3.63C20.3118 3.81667 20.3985 4.02 20.4452 4.24L20.2252 4.13L20.2552 2.78H21.0052V8H20.2452V6.72L20.4452 6.59C20.3985 6.79 20.3085 6.98333 20.1752 7.17C20.0418 7.35 19.8785 7.51 19.6852 7.65C19.4985 7.79 19.2852 7.9 19.0452 7.98C18.8118 8.06 18.5652 8.1 18.3052 8.1ZM18.4752 7.38C18.8218 7.38 19.1318 7.29667 19.4052 7.13C19.6785 6.95667 19.8918 6.72 20.0452 6.42C20.2052 6.11333 20.2852 5.76667 20.2852 5.38C20.2852 4.99333 20.2052 4.65 20.0452 4.35C19.8918 4.05 19.6785 3.81333 19.4052 3.64C19.1318 3.46667 18.8218 3.38 18.4752 3.38C18.1218 3.38 17.8085 3.46667 17.5352 3.64C17.2685 3.81333 17.0552 4.05 16.8952 4.35C16.7418 4.65 16.6652 4.99333 16.6652 5.38C16.6652 5.76 16.7418 6.10333 16.8952 6.41C17.0485 6.71 17.2618 6.94667 17.5352 7.12C17.8085 7.29333 18.1218 7.38 18.4752 7.38ZM24.6663 8.1C24.173 8.1 23.733 7.98333 23.3463 7.75C22.9597 7.51 22.653 7.18667 22.4263 6.78C22.2063 6.36667 22.0963 5.9 22.0963 5.38C22.0963 4.86 22.2063 4.39667 22.4263 3.99C22.653 3.57667 22.9597 3.25333 23.3463 3.02C23.733 2.78667 24.1763 2.67 24.6763 2.67C25.123 2.67 25.5297 2.76 25.8963 2.94C26.263 3.11333 26.5563 3.35667 26.7763 3.67L26.3363 4.21C26.2097 4.04333 26.0563 3.89667 25.8763 3.77C25.703 3.64333 25.513 3.54667 25.3063 3.48C25.1063 3.40667 24.9063 3.37 24.7063 3.37C24.353 3.37 24.0363 3.46 23.7563 3.64C23.4763 3.81333 23.253 4.05 23.0863 4.35C22.9263 4.65 22.8463 4.99333 22.8463 5.38C22.8463 5.76667 22.9263 6.11333 23.0863 6.42C23.253 6.72 23.4763 6.95667 23.7563 7.13C24.0363 7.30333 24.3497 7.39 24.6963 7.39C24.8963 7.39 25.093 7.36 25.2863 7.3C25.4797 7.23333 25.663 7.14 25.8363 7.02C26.0097 6.9 26.1697 6.75 26.3163 6.57L26.7563 7.11C26.5297 7.41 26.2263 7.65 25.8463 7.83C25.4663 8.01 25.073 8.1 24.6663 8.1Z" fill="#667085"/>
<g opacity="0.5">
<rect x="39" y="249" width="661" height="1" rx="0.5" fill="#E4E7EC"/>
<rect x="59.2344" y="258" width="9" height="0.622056" rx="0.311028" transform="rotate(-90 59.2344 258)" fill="#E4E7EC"/>
<rect x="194" y="258" width="9" height="0.622056" rx="0.311028" transform="rotate(-90 194 258)" fill="#E4E7EC"/>
<rect x="328" y="258" width="9" height="0.622056" rx="0.311028" transform="rotate(-90 328 258)" fill="#E4E7EC"/>
<rect x="451" y="258" width="9" height="0.622056" rx="0.311028" transform="rotate(-90 451 258)" fill="#E4E7EC"/>
<rect x="571" y="258" width="9" height="0.622056" rx="0.311028" transform="rotate(-90 571 258)" fill="#E4E7EC"/>
<rect x="688" y="258" width="9" height="0.622056" rx="0.311028" transform="rotate(-90 688 258)" fill="#E4E7EC"/>
<rect x="39" y="188" width="661" height="1" rx="0.5" fill="#E4E7EC"/>
<rect x="39" y="127" width="661" height="1" rx="0.5" fill="#E4E7EC"/>
<rect x="39" y="66" width="661" height="1" rx="0.5" fill="#E4E7EC"/>
<rect x="39" y="5" width="661" height="1" rx="0.5" fill="#E4E7EC"/>
</g>
<path d="M41 84L48.8256 93.0281C56.697 101.719 72.5771 120.281 88.1368 133.528C103.742 147.281 119.256 155.719 135.274 138C150.833 120.281 166.393 74.7188 182.41 74.9719C197.924 74.7188 213.53 120.281 229.09 133.528C244.97 147.281 260.667 128.719 276.226 138C292.061 147.281 307.803 182.719 323.363 169.472C339.106 155.719 354.94 93.2812 370.5 97.5C386.197 101.719 402.077 134.648 417.637 170.339C433.242 206.367 448.756 206.367 464.774 183.839C482.508 162.275 491.167 153.84 510.238 141.963C530.356 131.064 543.03 147.281 558.59 128.972C574.47 111 590.167 57 605.726 47.9719C621.561 39.2813 637.303 74.7188 652.863 79.5281C668.606 84 684.44 57 692.22 43.5L700 30V246H692.174C684.303 246 668.423 246 652.863 246C637.258 246 621.744 246 605.726 246C590.167 246 574.607 246 558.59 246C543.076 246 527.47 246 511.91 246C496.03 246 480.333 246 464.774 246C448.939 246 433.196 246 417.637 246C401.894 246 386.06 246 370.5 246C354.803 246 338.923 246 323.363 246C307.758 246 292.244 246 276.226 246C260.667 246 245.107 246 229.09 246C213.576 246 197.97 246 182.41 246C166.53 246 150.833 246 135.274 246C119.439 246 103.697 246 88.1368 246C72.394 246 56.5597 246 48.7799 246H41V84Z" fill="url(#paint0_linear_186_587)"/>
<path d="M42.2637 83.8584L50.0668 93.5316C57.9156 102.843 73.75 122.732 89.265 136.925C104.826 151.661 120.295 160.702 136.266 141.717C151.781 122.732 167.296 73.914 183.268 74.1852C198.737 73.914 214.298 122.732 229.813 136.925C245.647 151.661 261.299 131.772 276.814 141.717C292.603 151.661 308.3 189.631 323.815 175.437C339.513 160.702 355.302 93.8028 370.817 98.323C386.469 102.843 402.303 138.126 417.818 176.366C433.379 214.969 448.848 214.969 464.82 190.831C482.503 167.727 491.137 158.689 510.154 145.963C530.214 134.285 542.851 151.661 558.366 132.044C574.2 112.788 589.852 54.9292 605.367 45.256C621.156 35.9444 636.854 73.914 652.369 79.067C668.066 83.8584 683.855 54.9292 691.612 40.4646L699.37 26" stroke="url(#paint1_linear_186_587)" stroke-width="3" stroke-linecap="round"/>
<g filter="url(#filter0_d_186_587)">
<mask id="path-25-outside-1_186_587" maskUnits="userSpaceOnUse" x="416" y="154" width="94" height="39" fill="black">
<rect fill="white" x="416" y="154" width="94" height="39"/>
<path fill-rule="evenodd" clip-rule="evenodd" d="M421 155C418.791 155 417 156.791 417 159V184C417 186.209 418.791 188 421 188H458.25L462.856 191.548C463.294 191.885 464.003 191.885 464.441 191.548L469.047 188H505C507.209 188 509 186.209 509 184V159C509 156.791 507.209 155 505 155H421Z"/>
</mask>
<path fill-rule="evenodd" clip-rule="evenodd" d="M421 155C418.791 155 417 156.791 417 159V184C417 186.209 418.791 188 421 188H458.25L462.856 191.548C463.294 191.885 464.003 191.885 464.441 191.548L469.047 188H505C507.209 188 509 186.209 509 184V159C509 156.791 507.209 155 505 155H421Z" fill="white"/>
<path d="M458.25 188L458.555 187.604L458.421 187.5H458.25V188ZM462.856 191.548L462.551 191.944L462.856 191.548ZM464.441 191.548L464.746 191.944L464.441 191.548ZM469.047 188V187.5H468.876L468.741 187.604L469.047 188ZM417.5 159C417.5 157.067 419.067 155.5 421 155.5V154.5C418.515 154.5 416.5 156.515 416.5 159H417.5ZM417.5 184V159H416.5V184H417.5ZM421 187.5C419.067 187.5 417.5 185.933 417.5 184H416.5C416.5 186.485 418.515 188.5 421 188.5V187.5ZM458.25 187.5H421V188.5H458.25V187.5ZM463.161 191.152L458.555 187.604L457.945 188.396L462.551 191.944L463.161 191.152ZM464.135 191.152C463.878 191.351 463.419 191.351 463.161 191.152L462.551 191.944C463.168 192.42 464.128 192.42 464.746 191.944L464.135 191.152ZM468.741 187.604L464.135 191.152L464.746 191.944L469.352 188.396L468.741 187.604ZM505 187.5H469.047V188.5H505V187.5ZM508.5 184C508.5 185.933 506.933 187.5 505 187.5V188.5C507.485 188.5 509.5 186.485 509.5 184H508.5ZM508.5 159V184H509.5V159H508.5ZM505 155.5C506.933 155.5 508.5 157.067 508.5 159H509.5C509.5 156.515 507.485 154.5 505 154.5V155.5ZM421 155.5H505V154.5H421V155.5Z" fill="#BAB7CC" mask="url(#path-25-outside-1_186_587)"/>
</g>
<path d="M434.176 176.432V168.032H437.752C438.232 168.032 438.672 168.152 439.072 168.392C439.48 168.624 439.804 168.944 440.044 169.352C440.284 169.752 440.404 170.204 440.404 170.708C440.404 171.164 440.284 171.588 440.044 171.98C439.804 172.372 439.484 172.688 439.084 172.928C438.684 173.16 438.24 173.276 437.752 173.276H435.472V176.432H434.176ZM439.168 176.432L437.032 172.64L438.364 172.34L440.74 176.444L439.168 176.432ZM435.472 172.028H437.872C438.104 172.028 438.312 171.972 438.496 171.86C438.68 171.74 438.824 171.58 438.928 171.38C439.032 171.172 439.084 170.944 439.084 170.696C439.084 170.416 439.016 170.172 438.88 169.964C438.752 169.748 438.568 169.58 438.328 169.46C438.096 169.34 437.832 169.28 437.536 169.28H435.472V172.028ZM444.308 176.552C443.78 176.552 443.304 176.46 442.88 176.276C442.456 176.092 442.104 175.82 441.824 175.46L442.664 174.74C442.904 175.02 443.164 175.224 443.444 175.352C443.732 175.472 444.056 175.532 444.416 175.532C444.56 175.532 444.692 175.516 444.812 175.484C444.94 175.444 445.048 175.388 445.136 175.316C445.232 175.244 445.304 175.16 445.352 175.064C445.4 174.96 445.424 174.848 445.424 174.728C445.424 174.52 445.348 174.352 445.196 174.224C445.116 174.168 444.988 174.108 444.812 174.044C444.644 173.972 444.424 173.9 444.152 173.828C443.688 173.708 443.308 173.572 443.012 173.42C442.716 173.268 442.488 173.096 442.328 172.904C442.208 172.752 442.12 172.588 442.064 172.412C442.008 172.228 441.98 172.028 441.98 171.812C441.98 171.548 442.036 171.308 442.148 171.092C442.268 170.868 442.428 170.676 442.628 170.516C442.836 170.348 443.076 170.22 443.348 170.132C443.628 170.044 443.924 170 444.236 170C444.532 170 444.824 170.04 445.112 170.12C445.408 170.2 445.68 170.316 445.928 170.468C446.176 170.62 446.384 170.8 446.552 171.008L445.844 171.788C445.692 171.636 445.524 171.504 445.34 171.392C445.164 171.272 444.984 171.18 444.8 171.116C444.616 171.052 444.448 171.02 444.296 171.02C444.128 171.02 443.976 171.036 443.84 171.068C443.704 171.1 443.588 171.148 443.492 171.212C443.404 171.276 443.336 171.356 443.288 171.452C443.24 171.548 443.216 171.656 443.216 171.776C443.224 171.88 443.248 171.98 443.288 172.076C443.336 172.164 443.4 172.24 443.48 172.304C443.568 172.368 443.7 172.436 443.876 172.508C444.052 172.58 444.276 172.648 444.548 172.712C444.948 172.816 445.276 172.932 445.532 173.06C445.796 173.18 446.004 173.32 446.156 173.48C446.316 173.632 446.428 173.808 446.492 174.008C446.556 174.208 446.588 174.432 446.588 174.68C446.588 175.04 446.484 175.364 446.276 175.652C446.076 175.932 445.804 176.152 445.46 176.312C445.116 176.472 444.732 176.552 444.308 176.552ZM453.461 176.552C452.869 176.552 452.353 176.416 451.913 176.144C451.481 175.872 451.073 175.416 450.689 174.776L451.697 174.14C451.897 174.436 452.093 174.68 452.285 174.872C452.485 175.056 452.689 175.192 452.897 175.28C453.105 175.368 453.325 175.412 453.557 175.412C453.837 175.412 454.097 175.344 454.337 175.208C454.577 175.064 454.769 174.868 454.913 174.62C455.057 174.372 455.129 174.092 455.129 173.78C455.129 173.468 455.073 173.204 454.961 172.988C454.849 172.764 454.685 172.596 454.469 172.484C454.253 172.364 453.997 172.304 453.701 172.304C453.565 172.304 453.421 172.32 453.269 172.352C453.125 172.376 452.969 172.416 452.801 172.472C452.633 172.52 452.449 172.584 452.249 172.664L451.889 171.716L454.481 168.86L454.733 169.232H451.157V168.032H455.969L456.209 168.512L453.461 171.56L453.161 171.248C453.225 171.216 453.329 171.188 453.473 171.164C453.625 171.132 453.749 171.116 453.845 171.116C454.197 171.116 454.525 171.184 454.829 171.32C455.141 171.448 455.409 171.632 455.633 171.872C455.865 172.104 456.045 172.38 456.173 172.7C456.309 173.012 456.377 173.348 456.377 173.708C456.377 174.252 456.245 174.74 455.981 175.172C455.725 175.596 455.377 175.932 454.937 176.18C454.497 176.428 454.005 176.552 453.461 176.552ZM457.857 178.58L457.401 178.028C457.681 177.868 457.909 177.684 458.085 177.476C458.261 177.268 458.349 177.088 458.349 176.936C458.349 176.856 458.329 176.776 458.289 176.696C458.249 176.624 458.165 176.52 458.037 176.384C457.877 176.232 457.773 176.104 457.725 176C457.677 175.896 457.653 175.784 457.653 175.664C457.653 175.472 457.721 175.32 457.857 175.208C457.993 175.088 458.169 175.028 458.385 175.028C458.585 175.028 458.765 175.088 458.925 175.208C459.093 175.32 459.221 175.48 459.309 175.688C459.405 175.888 459.453 176.12 459.453 176.384C459.453 176.624 459.413 176.856 459.333 177.08C459.253 177.304 459.141 177.512 458.997 177.704C458.853 177.896 458.685 178.068 458.493 178.22C458.301 178.372 458.089 178.492 457.857 178.58ZM461.344 176.432L464.824 168.848L464.968 169.232H460.72V168.032H465.916L466.084 168.86L462.736 176.432H461.344ZM468.932 175.844V169.028L469.376 169.364L467.72 170.24L467.372 169.112L469.616 167.912H470.24V175.844H468.932ZM467.6 176.432V175.184H471.608V176.432H467.6ZM473.384 178.58L472.928 178.028C473.208 177.868 473.436 177.684 473.612 177.476C473.788 177.268 473.876 177.088 473.876 176.936C473.876 176.856 473.856 176.776 473.816 176.696C473.776 176.624 473.692 176.52 473.564 176.384C473.404 176.232 473.3 176.104 473.252 176C473.204 175.896 473.18 175.784 473.18 175.664C473.18 175.472 473.248 175.32 473.384 175.208C473.52 175.088 473.696 175.028 473.912 175.028C474.112 175.028 474.292 175.088 474.452 175.208C474.62 175.32 474.748 175.48 474.836 175.688C474.932 175.888 474.98 176.12 474.98 176.384C474.98 176.624 474.94 176.856 474.86 177.08C474.78 177.304 474.668 177.512 474.524 177.704C474.38 177.896 474.212 178.068 474.02 178.22C473.828 178.372 473.616 178.492 473.384 178.58ZM479.163 176.552C478.523 176.552 477.971 176.376 477.507 176.024C477.051 175.672 476.699 175.176 476.451 174.536C476.203 173.888 476.079 173.12 476.079 172.232C476.079 171.344 476.203 170.58 476.451 169.94C476.699 169.292 477.051 168.792 477.507 168.44C477.971 168.088 478.523 167.912 479.163 167.912C479.803 167.912 480.355 168.088 480.819 168.44C481.283 168.792 481.639 169.292 481.887 169.94C482.135 170.58 482.259 171.344 482.259 172.232C482.259 173.12 482.135 173.888 481.887 174.536C481.639 175.176 481.283 175.672 480.819 176.024C480.355 176.376 479.803 176.552 479.163 176.552ZM479.163 175.376C479.747 175.376 480.199 175.104 480.519 174.56C480.839 174.008 480.999 173.232 480.999 172.232C480.999 171.232 480.839 170.46 480.519 169.916C480.199 169.364 479.747 169.088 479.163 169.088C478.579 169.088 478.127 169.364 477.807 169.916C477.487 170.46 477.327 171.232 477.327 172.232C477.327 173.232 477.487 174.008 477.807 174.56C478.127 175.104 478.579 175.376 479.163 175.376ZM486.452 176.552C485.812 176.552 485.26 176.376 484.796 176.024C484.34 175.672 483.988 175.176 483.74 174.536C483.492 173.888 483.368 173.12 483.368 172.232C483.368 171.344 483.492 170.58 483.74 169.94C483.988 169.292 484.34 168.792 484.796 168.44C485.26 168.088 485.812 167.912 486.452 167.912C487.092 167.912 487.644 168.088 488.108 168.44C488.572 168.792 488.928 169.292 489.176 169.94C489.424 170.58 489.548 171.344 489.548 172.232C489.548 173.12 489.424 173.888 489.176 174.536C488.928 175.176 488.572 175.672 488.108 176.024C487.644 176.376 487.092 176.552 486.452 176.552ZM486.452 175.376C487.036 175.376 487.488 175.104 487.808 174.56C488.128 174.008 488.288 173.232 488.288 172.232C488.288 171.232 488.128 170.46 487.808 169.916C487.488 169.364 487.036 169.088 486.452 169.088C485.868 169.088 485.416 169.364 485.096 169.916C484.776 170.46 484.616 171.232 484.616 172.232C484.616 173.232 484.776 174.008 485.096 174.56C485.416 175.104 485.868 175.376 486.452 175.376ZM493.741 176.552C493.101 176.552 492.549 176.376 492.085 176.024C491.629 175.672 491.277 175.176 491.029 174.536C490.781 173.888 490.657 173.12 490.657 172.232C490.657 171.344 490.781 170.58 491.029 169.94C491.277 169.292 491.629 168.792 492.085 168.44C492.549 168.088 493.101 167.912 493.741 167.912C494.381 167.912 494.933 168.088 495.397 168.44C495.861 168.792 496.217 169.292 496.465 169.94C496.713 170.58 496.837 171.344 496.837 172.232C496.837 173.12 496.713 173.888 496.465 174.536C496.217 175.176 495.861 175.672 495.397 176.024C494.933 176.376 494.381 176.552 493.741 176.552ZM493.741 175.376C494.325 175.376 494.777 175.104 495.097 174.56C495.417 174.008 495.577 173.232 495.577 172.232C495.577 171.232 495.417 170.46 495.097 169.916C494.777 169.364 494.325 169.088 493.741 169.088C493.157 169.088 492.705 169.364 492.385 169.916C492.065 170.46 491.905 171.232 491.905 172.232C491.905 173.232 492.065 174.008 492.385 174.56C492.705 175.104 493.157 175.376 493.741 175.376Z" fill="#667085"/>
<line x1="462.5" y1="201.5" x2="462.5" y2="249.5" stroke="#98A2B3" stroke-linecap="round" stroke-dasharray="3 6"/>
<circle cx="463" cy="194" r="6" fill="#9B8AFB" stroke="white" stroke-width="2"/>
<defs>
<filter id="filter0_d_186_587" x="406.5" y="148.5" width="113" height="57.8008" filterUnits="userSpaceOnUse" color-interpolation-filters="sRGB">
<feFlood flood-opacity="0" result="BackgroundImageFix"/>
<feColorMatrix in="SourceAlpha" type="matrix" values="0 0 0 0 0 0 0 0 0 0 0 0 0 0 0 0 0 0 127 0" result="hardAlpha"/>
<feOffset dy="4"/>
<feGaussianBlur stdDeviation="5"/>
<feColorMatrix type="matrix" values="0 0 0 0 0 0 0 0 0 0 0 0 0 0 0 0 0 0 0.06 0"/>
<feBlend mode="normal" in2="BackgroundImageFix" result="effect1_dropShadow_186_587"/>
<feBlend mode="normal" in="SourceGraphic" in2="effect1_dropShadow_186_587" result="shape"/>
</filter>
<linearGradient id="paint0_linear_186_587" x1="377.287" y1="246" x2="375.708" y2="99.6302" gradientUnits="userSpaceOnUse">
<stop stop-color="#B9E6FE" stop-opacity="0.22"/>
<stop offset="1" stop-color="#9B8AFB" stop-opacity="0.11"/>
</linearGradient>
<linearGradient id="paint1_linear_186_587" x1="23.7536" y1="117.314" x2="750.496" y2="64.612" gradientUnits="userSpaceOnUse">
<stop stop-color="#9B8AFB"/>
<stop offset="1" stop-color="#4BC0FF"/>
</linearGradient>
</defs>
</svg>
