<svg width="28" height="28" viewBox="0 0 28 28" fill="none" xmlns="http://www.w3.org/2000/svg">
<circle cx="14" cy="14" r="13.5" fill="white" stroke="#F2F4F7"/>
<path d="M19.9993 8H7.99935C7.26602 8 6.66602 8.6 6.66602 9.33333V17.3333C6.66602 18.0667 7.26602 18.6667 7.99935 18.6667H11.3327V19.3333C11.3327 19.7 11.6327 20 11.9993 20H15.9993C16.366 20 16.666 19.7 16.666 19.3333V18.6667H19.9993C20.7327 18.6667 21.326 18.0667 21.326 17.3333L21.3327 9.33333C21.3327 8.6 20.7327 8 19.9993 8ZM19.3327 17.3333H8.66602C8.29935 17.3333 7.99935 17.0333 7.99935 16.6667V10C7.99935 9.63333 8.29935 9.33333 8.66602 9.33333H19.3327C19.6993 9.33333 19.9993 9.63333 19.9993 10V16.6667C19.9993 17.0333 19.6993 17.3333 19.3327 17.3333Z" fill="#667085"/>
</svg>
