<svg width="40" height="40" viewBox="0 0 40 40" fill="none" xmlns="http://www.w3.org/2000/svg">
<path d="M28.3262 15.2246C28.3262 15.4297 28.3262 15.5938 28.3262 15.7988C28.3262 21.5 24.0195 28.0215 16.1035 28.0215C13.6426 28.0215 11.3867 27.3242 9.5 26.0938C9.82812 26.1348 10.1562 26.1758 10.5254 26.1758C12.5352 26.1758 14.3809 25.4785 15.8574 24.3301C13.9707 24.2891 12.3711 23.0586 11.8379 21.3359C12.125 21.377 12.3711 21.418 12.6582 21.418C13.0273 21.418 13.4375 21.3359 13.7656 21.2539C11.7969 20.8438 10.3203 19.1211 10.3203 17.0293V16.9883C10.8945 17.3164 11.5918 17.4805 12.2891 17.5215C11.0996 16.7422 10.3613 15.4297 10.3613 13.9531C10.3613 13.1328 10.5664 12.3945 10.9355 11.7793C13.0684 14.3633 16.2676 16.0859 19.8359 16.291C19.7539 15.9629 19.7129 15.6348 19.7129 15.3066C19.7129 12.9277 21.6406 11 24.0195 11C25.25 11 26.3574 11.4922 27.1777 12.3535C28.1211 12.1484 29.0645 11.7793 29.8848 11.2871C29.5566 12.3125 28.9004 13.1328 27.998 13.666C28.8594 13.584 29.7207 13.3379 30.459 13.0098C29.8848 13.8711 29.1465 14.6094 28.3262 15.2246Z" fill="white"/>
<rect opacity="0.25" x="0.75" y="0.75" width="38.5" height="38.5" rx="18.75" stroke="white" stroke-width="1.5"/>
</svg>
