<svg width="26" height="26" viewBox="0 0 26 26" fill="none" xmlns="http://www.w3.org/2000/svg">
<path d="M10.1556 15.7897H19.1202C19.2827 15.7897 19.4046 15.7174 19.4858 15.573C19.5671 15.4286 19.5535 15.2841 19.4452 15.1397L16.8181 11.5917C16.7278 11.4834 16.6195 11.4292 16.4931 11.4292C16.3667 11.4292 16.2584 11.4834 16.1681 11.5917L13.7035 14.8147L12.1868 12.8647C12.0966 12.7563 11.9882 12.7067 11.8618 12.7157C11.7355 12.7247 11.6271 12.7834 11.5368 12.8917L9.8306 15.1397C9.72226 15.2841 9.70421 15.4286 9.77643 15.573C9.84865 15.7174 9.97504 15.7897 10.1556 15.7897ZM7.04102 20.5834C6.60768 20.5834 6.22852 20.4209 5.90352 20.0959C5.57852 19.7709 5.41602 19.3917 5.41602 18.9584V3.79175C5.41602 3.35841 5.57852 2.97925 5.90352 2.65425C6.22852 2.32925 6.60768 2.16675 7.04102 2.16675H22.2077C22.641 2.16675 23.0202 2.32925 23.3452 2.65425C23.6702 2.97925 23.8327 3.35841 23.8327 3.79175V18.9584C23.8327 19.3917 23.6702 19.7709 23.3452 20.0959C23.0202 20.4209 22.641 20.5834 22.2077 20.5834H7.04102ZM7.04102 18.9584H22.2077V3.79175H7.04102V18.9584ZM3.79102 23.8334C3.35768 23.8334 2.97852 23.6709 2.65352 23.3459C2.32852 23.0209 2.16602 22.6417 2.16602 22.2084V6.22925C2.16602 5.99453 2.24275 5.80043 2.39622 5.64696C2.5497 5.49348 2.74379 5.41675 2.97852 5.41675C3.21324 5.41675 3.40733 5.49348 3.56081 5.64696C3.71428 5.80043 3.79102 5.99453 3.79102 6.22925V22.2084H19.7702C20.0049 22.2084 20.199 22.2851 20.3525 22.4386C20.5059 22.5921 20.5827 22.7862 20.5827 23.0209C20.5827 23.2556 20.5059 23.4497 20.3525 23.6032C20.199 23.7567 20.0049 23.8334 19.7702 23.8334H3.79102ZM7.04102 3.79175V18.9584V3.79175Z" fill="#1D2939"/>
</svg>
