<svg width="32" height="33" viewBox="0 0 32 33" fill="none" xmlns="http://www.w3.org/2000/svg">
<path fill-rule="evenodd" clip-rule="evenodd" d="M24.984 14.1044C24.1529 9.88772 20.4495 6.72217 16.0007 6.72217C12.4684 6.72217 9.40065 8.72661 7.87287 11.6599C4.19398 12.0511 1.33398 15.1677 1.33398 18.9444C1.33398 22.9899 4.62176 26.2777 8.66732 26.2777H24.5562C27.9295 26.2777 30.6673 23.5399 30.6673 20.1666C30.6673 16.9399 28.1618 14.3244 24.984 14.1044ZM24.5562 23.8333H8.66732C5.96621 23.8333 3.77843 21.6455 3.77843 18.9444C3.77843 16.4388 5.64843 14.3488 8.12954 14.0922L9.43732 13.9577L10.0484 12.7966C11.2095 10.5599 13.4829 9.16661 16.0007 9.16661C19.2029 9.16661 21.9651 11.4399 22.5884 14.5811L22.9551 16.4144L24.8251 16.5488C26.7318 16.6711 28.2229 18.2722 28.2229 20.1666C28.2229 22.1833 26.5729 23.8333 24.5562 23.8333ZM11.1118 17.7222H14.2284V21.3888H17.7729V17.7222H20.8895L16.0007 12.8333L11.1118 17.7222Z" fill="#98A2B3"/>
</svg>
