<svg width="24" height="24" viewBox="0 0 24 24" fill="none" xmlns="http://www.w3.org/2000/svg">
<path d="M12 15.7496C11.8333 15.7496 11.6958 15.6954 11.5875 15.5871C11.4792 15.4788 11.425 15.3413 11.425 15.1746V6.52461L9.075 8.87461C8.95833 8.99128 8.825 9.04544 8.675 9.03711C8.525 9.02878 8.39167 8.97461 8.275 8.87461C8.15833 8.75794 8.1 8.62044 8.1 8.46211C8.1 8.30378 8.15833 8.16628 8.275 8.04961L11.5 4.82461C11.5667 4.75794 11.6417 4.70378 11.725 4.66211C11.8083 4.62044 11.9 4.59961 12 4.59961C12.1 4.59961 12.1917 4.62044 12.275 4.66211C12.3583 4.70378 12.4333 4.75794 12.5 4.82461L15.75 8.07461C15.85 8.17461 15.9042 8.30378 15.9125 8.46211C15.9208 8.62044 15.8667 8.75794 15.75 8.87461C15.6333 8.97461 15.4958 9.02461 15.3375 9.02461C15.1792 9.02461 15.0417 8.96628 14.925 8.84961L12.575 6.52461V15.1746C12.575 15.3413 12.5208 15.4788 12.4125 15.5871C12.3042 15.6954 12.1667 15.7496 12 15.7496V15.7496ZM5.95 19.4996C5.55 19.4996 5.20833 19.3579 4.925 19.0746C4.64167 18.7913 4.5 18.4496 4.5 18.0496V15.4996C4.5 15.3496 4.55417 15.2204 4.6625 15.1121C4.77083 15.0038 4.90833 14.9496 5.075 14.9496C5.24167 14.9496 5.375 15.0038 5.475 15.1121C5.575 15.2204 5.625 15.3496 5.625 15.4996V18.0496C5.625 18.1329 5.65833 18.2079 5.725 18.2746C5.79167 18.3413 5.86667 18.3746 5.95 18.3746H18.05C18.1333 18.3746 18.2083 18.3413 18.275 18.2746C18.3417 18.2079 18.375 18.1329 18.375 18.0496V15.4996C18.375 15.3496 18.4292 15.2204 18.5375 15.1121C18.6458 15.0038 18.775 14.9496 18.925 14.9496C19.0917 14.9496 19.2292 15.0038 19.3375 15.1121C19.4458 15.2204 19.5 15.3496 19.5 15.4996V18.0496C19.5 18.4496 19.3583 18.7913 19.075 19.0746C18.7917 19.3579 18.45 19.4996 18.05 19.4996H5.95Z" fill="#667085"/>
</svg>
