<svg width="12" height="14" viewBox="0 0 12 14" fill="none" xmlns="http://www.w3.org/2000/svg">
<path d="M5.83333 6.99992C7.65625 6.99992 9.16667 5.51554 9.16667 3.66658C9.16667 1.84367 7.65625 0.333252 5.83333 0.333252C3.98438 0.333252 2.5 1.84367 2.5 3.66658C2.5 5.51554 3.98438 6.99992 5.83333 6.99992ZM8.15104 7.83325H7.70833C7.13542 8.11971 6.51042 8.24992 5.83333 8.24992C5.15625 8.24992 4.50521 8.11971 3.93229 7.83325H3.48958C1.5625 7.83325 0 9.42179 0 11.3489V12.4166C0 13.1197 0.546875 13.6666 1.25 13.6666H10.4167C11.0938 13.6666 11.6667 13.1197 11.6667 12.4166V11.3489C11.6667 9.42179 10.0781 7.83325 8.15104 7.83325Z" fill="#667085"/>
</svg>
