<svg width="28" height="28" viewBox="0 0 28 28" fill="none" xmlns="http://www.w3.org/2000/svg">
<circle cx="14" cy="14" r="13.5" fill="white" stroke="#F2F4F7"/>
<path d="M7.37404 12.7057C7.71404 13.0457 8.25404 13.079 8.62071 12.7724C11.734 10.2124 16.254 10.2124 19.374 12.7657C19.7474 13.0724 20.294 13.0457 20.634 12.7057C21.0274 12.3124 21.0007 11.659 20.5674 11.3057C16.7607 8.19237 11.254 8.19237 7.44071 11.3057C7.00737 11.6524 6.97404 12.3057 7.37404 12.7057V12.7057ZM12.5474 17.879L13.5274 18.859C13.7874 19.119 14.2074 19.119 14.4674 18.859L15.4474 17.879C15.7607 17.5657 15.694 17.0257 15.294 16.819C14.4807 16.399 13.5074 16.399 12.6874 16.819C12.3074 17.0257 12.234 17.5657 12.5474 17.879ZM10.0607 15.3924C10.3874 15.719 10.9007 15.7524 11.2807 15.479C12.9074 14.3257 15.094 14.3257 16.7207 15.479C17.1007 15.7457 17.614 15.719 17.9407 15.3924L17.9474 15.3857C18.3474 14.9857 18.3207 14.3057 17.8607 13.979C15.5674 12.319 12.4407 12.319 10.1407 13.979C9.68071 14.3124 9.65404 14.9857 10.0607 15.3924V15.3924Z" fill="#667085"/>
</svg>
