<svg width="32" height="32" viewBox="0 0 32 32" fill="none" xmlns="http://www.w3.org/2000/svg">
<path fill-rule="evenodd" clip-rule="evenodd" d="M8.16329 0C7.08573 0 6.2041 0.867857 6.2041 1.92857V30.0714C6.2041 31.1321 7.08573 32 8.16329 32H27.7551C28.8327 32 29.7143 31.1321 29.7143 30.0714V7.71429L21.8776 0H8.16329Z" fill="#E4E7EC"/>
<path opacity="0.3" fill-rule="evenodd" clip-rule="evenodd" d="M23.8371 7.83674H29.7147L21.8779 0V5.87755C21.8779 6.9551 22.7596 7.83674 23.8371 7.83674Z" fill="#1D2939"/>
<path opacity="0.03" fill-rule="evenodd" clip-rule="evenodd" d="M29.7145 13.7142L23.8369 7.83667H29.7145V13.7142Z" fill="black"/>
<path fill-rule="evenodd" clip-rule="evenodd" d="M25.7963 26.0409C25.7963 26.5797 25.3555 27.0205 24.8167 27.0205H3.26572C2.72695 27.0205 2.28613 26.5797 2.28613 26.0409V16.245C2.28613 15.7062 2.72695 15.2654 3.26572 15.2654H24.8167C25.3555 15.2654 25.7963 15.7062 25.7963 16.245V26.0409Z" fill="#00C769"/>
<path d="M9.16404 20.5423L10.5266 18.8349C10.9342 18.302 11.7257 18.9828 11.279 19.4922C10.8098 20.0486 10.316 20.652 9.84583 21.2702L11.4435 23.2597C11.8746 23.8475 11.0135 24.4107 10.5903 23.8308L9.14836 21.9823L7.73089 23.871C7.33122 24.4421 6.44567 23.8005 6.89236 23.2676L8.46657 21.2702C7.97285 20.6511 7.49481 20.0486 7.01775 19.4922C6.52502 18.9045 7.44093 18.302 7.80142 18.8516L9.16404 20.5423Z" fill="white"/>
<path d="M12.4102 19.1316C12.4102 18.873 12.6296 18.6536 12.9039 18.6536C13.1546 18.6536 13.3662 18.874 13.3662 19.1316V23.0558H15.4969C16.2639 23.0558 16.2805 24.0815 15.4969 24.0815H12.9049C12.6306 24.0815 12.4111 23.8865 12.4111 23.6044V19.1316H12.4102Z" fill="white"/>
<path d="M16.9825 19.837C17.1628 18.3166 19.457 18.0433 20.5385 18.874C21.0714 19.3041 20.5071 19.9859 20.0369 19.6411C19.457 19.2737 18.1414 19.1013 17.9768 19.9144C17.7652 21.1996 21.1723 20.4639 21.1174 22.5475C21.0626 24.5371 18.1806 24.5831 17.0991 23.6907C16.8395 23.4791 16.8483 23.1353 16.9894 22.9227C17.1932 22.7199 17.4194 22.6494 17.6869 22.8688C18.3285 23.3067 19.9821 23.6358 20.0986 22.523C19.9977 21.3651 16.7396 22.0616 16.9825 19.837Z" fill="white"/>
<path opacity="0.03" fill-rule="evenodd" clip-rule="evenodd" d="M24.8164 27.0204H6.2041V28H24.8164C25.3551 28 25.7959 27.5591 25.7959 27.0204V26.0408C25.7959 26.5795 25.3551 27.0204 24.8164 27.0204Z" fill="black"/>
</svg>
